<svg width="108" height="111" viewBox="0 0 108 111" fill="none" xmlns="http://www.w3.org/2000/svg">
<g filter="url(#filter0_d_967_12671)">
<path d="M57.319 22.0421C60.1152 31.4542 54.7519 41.3509 45.3398 44.1471C35.9277 46.9433 26.0309 41.58 23.2348 32.1679C20.4386 22.7558 25.8019 12.859 35.214 10.0628C44.6261 7.26668 54.5229 12.63 57.319 22.0421Z" fill="url(#paint0_radial_967_12671)"/>
</g>
<g filter="url(#filter1_d_967_12671)">
<path fill-rule="evenodd" clip-rule="evenodd" d="M44.6869 41.9494C52.8853 39.5139 57.5569 30.8933 55.1214 22.695C52.6858 14.4966 44.0653 9.82491 35.8669 12.2605C27.6685 14.6961 22.9968 23.3166 25.4324 31.515C27.868 39.7134 36.4885 44.385 44.6869 41.9494ZM45.3398 44.1471C54.7519 41.3509 60.1152 31.4542 57.319 22.0421C54.5229 12.63 44.6261 7.26668 35.214 10.0628C25.8019 12.859 20.4386 22.7558 23.2348 32.1679C26.0309 41.58 35.9277 46.9433 45.3398 44.1471Z" fill="url(#paint1_linear_967_12671)"/>
</g>
<path d="M30.8983 32.1026C29.0716 25.9539 32.5754 19.4885 38.7241 17.6619C44.8728 15.8352 51.3382 19.3389 53.1649 25.4877C54.9915 31.6364 51.4878 38.1018 45.3391 39.9284C39.1903 41.7551 32.725 38.2514 30.8983 32.1026Z" fill="url(#paint2_linear_967_12671)"/>
<path fill-rule="evenodd" clip-rule="evenodd" d="M42.8496 37.6446C48.4749 35.9734 51.6549 29.9725 49.9522 24.2411C48.2495 18.5097 42.309 15.2182 36.6836 16.8894C31.0583 18.5606 27.8783 24.5616 29.581 30.293C31.2837 36.0243 37.2243 39.3158 42.8496 37.6446ZM50.9222 23.9529C52.7871 30.2301 49.3043 36.8026 43.1432 38.633C36.9821 40.4633 30.4758 36.8584 28.611 30.5811C26.7461 24.3039 30.2289 17.7314 36.39 15.9011C42.5511 14.0707 49.0574 17.6757 50.9222 23.9529Z" fill="#320A8D"/>
<path fill-rule="evenodd" clip-rule="evenodd" d="M41.8209 34.1854C45.5712 33.0713 47.6911 29.0707 46.556 25.2497C45.4209 21.4288 41.4605 19.2345 37.7103 20.3486C33.9601 21.4628 31.8401 25.4634 32.9752 29.2843C34.1104 33.1052 38.0707 35.2995 41.8209 34.1854ZM47.5261 24.9616C48.8233 29.3283 46.4005 33.9005 42.1146 35.1738C37.8286 36.447 33.3025 33.9393 32.0052 29.5725C30.7079 25.2057 33.1307 20.6336 37.4167 19.3603C41.7027 18.087 46.2288 20.5948 47.5261 24.9616Z" fill="#320A8D"/>
<path fill-rule="evenodd" clip-rule="evenodd" d="M40.5509 22.5006C40.3468 22.4935 40.1426 22.4865 39.9435 22.478C39.6919 22.4626 39.5393 22.7616 39.6405 23.0643C39.8335 23.6384 40.0249 24.2074 40.2179 24.7815C40.2801 24.9717 40.2395 25.1755 40.1166 25.2909C39.8693 25.5166 39.6153 25.7387 39.3612 25.9607C39.0286 25.9186 38.693 25.866 38.3626 25.812C38.1914 25.7839 38.0514 25.6338 37.9996 25.4405C37.8479 24.8541 37.6976 24.2729 37.5459 23.6865C37.4639 23.3725 37.1743 23.2105 36.9719 23.3608C36.8047 23.4782 36.6441 23.5992 36.4754 23.7113C36.3411 23.8076 36.2769 24.0071 36.3214 24.2137C36.473 24.913 36.6194 25.6137 36.7695 26.3078C36.8109 26.5041 36.951 26.6542 37.1185 26.689C37.4943 26.7634 37.6296 27.3322 37.3121 27.5675C37.1692 27.672 37.0982 27.8678 37.1396 28.0641C37.3665 29.13 37.5949 30.2012 37.8217 31.2671C37.8662 31.4738 38.03 31.6281 38.2373 31.6455C38.4852 31.6676 38.7385 31.6883 38.9916 31.7089C39.3077 31.7334 39.5489 31.4306 39.4669 31.1166C39.2192 30.1697 38.9767 29.2212 38.7276 28.269C38.6758 28.0758 38.7401 27.8763 38.8815 27.7666C39.1593 27.5487 39.4319 27.3324 39.7014 27.1057C40.0494 27.1434 40.3974 27.1809 40.7491 27.2118C40.9274 27.2265 41.0903 27.3585 41.1523 27.5487C41.4619 28.4773 41.7766 29.4043 42.0877 30.3381C42.1904 30.6458 42.5563 30.7627 42.8093 30.5748C43.0101 30.4192 43.211 30.2637 43.4066 30.1098C43.5656 29.9836 43.6237 29.7633 43.5482 29.5659C43.1563 28.549 42.7628 27.5269 42.3709 26.51C42.2985 26.3229 42.1373 26.1961 41.9552 26.1881C41.5623 26.1696 41.3636 25.614 41.6378 25.3464C41.7643 25.2243 41.793 25.0184 41.7221 24.8365C41.4673 24.1679 41.2074 23.5008 40.9542 22.8374C40.8786 22.64 40.7144 22.5027 40.5509 22.5006Z" fill="#320A8D"/>
<g filter="url(#filter2_d_967_12671)">
<path d="M80.1227 33.6366C82.9189 43.0487 77.5556 52.9454 68.1435 55.7416C58.7314 58.5377 48.8346 53.1744 46.0385 43.7623C43.2423 34.3502 48.6056 24.4535 58.0177 21.6573C67.4298 18.8612 77.3266 24.2244 80.1227 33.6366Z" fill="url(#paint3_radial_967_12671)"/>
</g>
<g filter="url(#filter3_d_967_12671)">
<path fill-rule="evenodd" clip-rule="evenodd" d="M67.4906 53.5439C75.689 51.1083 80.3607 42.4878 77.9251 34.2894C75.4895 26.0911 66.869 21.4194 58.6706 23.855C50.4722 26.2906 45.8005 34.9111 48.2361 43.1095C50.6717 51.3078 59.2922 55.9795 67.4906 53.5439ZM68.1435 55.7416C77.5556 52.9454 82.9189 43.0487 80.1227 33.6366C77.3266 24.2244 67.4298 18.8612 58.0177 21.6573C48.6056 24.4535 43.2423 34.3502 46.0385 43.7623C48.8346 53.1744 58.7314 58.5377 68.1435 55.7416Z" fill="url(#paint4_linear_967_12671)"/>
</g>
<path d="M53.701 43.6969C51.8744 37.5481 55.3781 31.0828 61.5268 29.2561C67.6756 27.4294 74.1409 30.9332 75.9676 37.0819C77.7943 43.2306 74.2905 49.696 68.1418 51.5227C61.9931 53.3493 55.5277 49.8456 53.701 43.6969Z" fill="url(#paint5_linear_967_12671)"/>
<path fill-rule="evenodd" clip-rule="evenodd" d="M65.6523 49.2391C71.2777 47.5679 74.4576 41.5669 72.7549 35.8356C71.0522 30.1042 65.1117 26.8127 59.4864 28.4839C53.861 30.1551 50.6811 36.1561 52.3838 41.8874C54.0865 47.6188 60.027 50.9103 65.6523 49.2391ZM73.725 35.5474C75.5898 41.8246 72.107 48.3971 65.9459 50.2274C59.7849 52.0578 53.2786 48.4529 51.4137 42.1756C49.5489 35.8984 53.0317 29.3259 59.1927 27.4956C65.3538 25.6652 71.8601 29.2701 73.725 35.5474Z" fill="#320A8D"/>
<path fill-rule="evenodd" clip-rule="evenodd" d="M64.6247 45.7798C68.3749 44.6657 70.4948 40.665 69.3597 36.8441C68.2246 33.0232 64.2642 30.8289 60.514 31.943C56.7638 33.0571 54.6438 37.0578 55.779 40.8787C56.9141 44.6996 60.8744 46.8939 64.6247 45.7798ZM70.3298 36.5559C71.6271 40.9227 69.2042 45.4948 64.9183 46.7681C60.6323 48.0414 56.1062 45.5336 54.8089 41.1669C53.5116 36.8001 55.9344 32.2279 60.2204 30.9547C64.5064 29.6814 69.0325 32.1891 70.3298 36.5559Z" fill="#320A8D"/>
<path fill-rule="evenodd" clip-rule="evenodd" d="M63.3546 34.0949C63.1505 34.0879 62.9463 34.0809 62.7472 34.0724C62.4956 34.0569 62.343 34.356 62.4442 34.6586C62.6372 35.2328 62.8287 35.8017 63.0217 36.3759C63.0838 36.566 63.0432 36.7698 62.9203 36.8853C62.673 37.1109 62.419 37.333 62.1649 37.5551C61.8323 37.513 61.4967 37.4604 61.1663 37.4064C60.9951 37.3783 60.8551 37.2281 60.8034 37.0349C60.6516 36.4485 60.5014 35.8673 60.3496 35.2809C60.2676 34.9669 59.978 34.8048 59.7756 34.9552C59.6084 35.0725 59.4478 35.1936 59.2791 35.3057C59.1448 35.402 59.0806 35.6015 59.1251 35.8081C59.2767 36.5074 59.4232 37.2081 59.5732 37.9022C59.6146 38.0985 59.7547 38.2486 59.9222 38.2834C60.298 38.3578 60.4334 38.9266 60.1158 39.1618C59.9729 39.2664 59.9019 39.4622 59.9433 39.6585C60.1702 40.7244 60.3986 41.7956 60.6254 42.8615C60.6699 43.0681 60.8337 43.2225 61.041 43.2398C61.2889 43.262 61.5422 43.2826 61.7953 43.3033C62.1114 43.3278 62.3526 43.0249 62.2706 42.711C62.0229 41.7641 61.7805 40.8155 61.5313 39.8634C61.4795 39.6702 61.5438 39.4706 61.6852 39.361C61.963 39.1431 62.2356 38.9268 62.5051 38.7001C62.8531 38.7377 63.2011 38.7753 63.5528 38.8061C63.7311 38.8208 63.894 38.9529 63.9561 39.143C64.2657 40.0716 64.5803 40.9987 64.8914 41.9324C64.9941 42.2402 65.36 42.357 65.613 42.1691C65.8138 42.0136 66.0147 41.8581 66.2103 41.7041C66.3693 41.578 66.4274 41.3577 66.3519 41.1602C65.96 40.1434 65.5665 39.1213 65.1746 38.1044C65.1022 37.9173 64.941 37.7904 64.7589 37.7824C64.366 37.7639 64.1673 37.2083 64.4415 36.9408C64.568 36.8187 64.5967 36.6128 64.5258 36.4308C64.271 35.7623 64.0111 35.0952 63.7579 34.4318C63.6824 34.2344 63.5181 34.0971 63.3546 34.0949Z" fill="#320A8D"/>
<g filter="url(#filter4_bi_967_12671)">
<path d="M10.4707 58.701C10.4707 50.6886 16.9498 44.1932 24.9422 44.1932H86.8564C94.8488 44.1932 101.328 50.6886 101.328 58.701V96.4922C101.328 104.505 94.8487 111 86.8564 111H24.9422C16.9498 111 10.4707 104.505 10.4707 96.4922V58.701Z" fill="url(#paint6_radial_967_12671)" fill-opacity="0.99"/>
</g>
<g filter="url(#filter5_i_967_12671)">
<path d="M96.874 98.2371C96.874 103.318 92.7654 107.437 87.6972 107.437H23.2106C18.1423 107.437 14.0337 103.318 14.0337 98.2371V56.9563C14.0337 51.8753 18.1423 47.7563 23.2106 47.7563H87.6972C92.7654 47.7563 96.874 51.8753 96.874 56.9563V98.2371Z" fill="url(#paint7_radial_967_12671)" fill-opacity="0.1"/>
</g>
<path fill-rule="evenodd" clip-rule="evenodd" d="M23.0562 107.422L23.0773 107.039C23.2478 107.049 23.4195 107.054 23.5924 107.054H24.1614V107.437H23.5924C23.4125 107.437 23.2337 107.432 23.0562 107.422ZM86.7454 107.437V107.054H87.3143C87.4872 107.054 87.659 107.049 87.8295 107.039L87.8506 107.422C87.6731 107.432 87.4943 107.437 87.3143 107.437H86.7454ZM88.9163 107.303L88.8527 106.925C89.1939 106.867 89.5287 106.791 89.856 106.696L89.9617 107.065C89.6207 107.163 89.2718 107.243 88.9163 107.303ZM90.9735 106.71L90.827 106.356C91.1453 106.223 91.4547 106.074 91.7538 105.908L91.939 106.243C91.6274 106.416 91.3052 106.572 90.9735 106.71ZM92.8463 105.67L92.6248 105.358C92.905 105.158 93.1735 104.943 93.4292 104.714L93.6841 105C93.4178 105.238 93.1382 105.462 92.8463 105.67ZM94.4422 104.24C94.6803 103.973 94.9037 103.692 95.1111 103.4L94.7994 103.178C94.6003 103.458 94.3858 103.728 94.1571 103.984L94.4422 104.24ZM95.6824 102.49C95.8549 102.178 96.0106 101.855 96.1482 101.522L95.795 101.375C95.663 101.694 95.5135 102.005 95.3479 102.304L95.6824 102.49ZM96.5022 100.508L96.1347 100.402C96.2289 100.074 96.3053 99.7381 96.3628 99.396L96.7399 99.4598C96.6799 99.8162 96.6003 100.166 96.5022 100.508ZM96.8735 57.9023H96.4912V57.3396C96.4912 57.1663 96.4864 56.9941 96.477 56.8232L96.8587 56.802C96.8686 56.9799 96.8735 57.1592 96.8735 57.3396V57.9023ZM96.7399 55.7336L96.3628 55.7974C96.3053 55.4553 96.2289 55.1196 96.1347 54.7915L96.5022 54.6856C96.6003 55.0274 96.6799 55.3772 96.7399 55.7336ZM96.1482 53.6713L95.795 53.8181C95.663 53.499 95.5135 53.1888 95.3479 52.889L95.6824 52.7032C95.8549 53.0156 96.0106 53.3387 96.1482 53.6713ZM95.1111 51.7937L94.7995 52.0158C94.6003 51.7349 94.3858 51.4657 94.1571 51.2093L94.4422 50.9538C94.6803 51.2207 94.9037 51.5011 95.1111 51.7937ZM93.6841 50.1938L93.4292 50.4796C93.1735 50.2504 92.905 50.0353 92.6248 49.8356L92.8463 49.5232C93.1382 49.7312 93.4178 49.9551 93.6841 50.1938ZM91.939 48.9505L91.7538 49.2859C91.4547 49.1198 91.1453 48.97 90.827 48.8376L90.9735 48.4835C91.3052 48.6214 91.6274 48.7775 91.939 48.9505ZM89.9617 48.1286L89.856 48.497C89.5287 48.4026 89.1939 48.326 88.8527 48.2683L88.9163 47.8903C89.2718 47.9505 89.6207 48.0303 89.9617 48.1286ZM24.1614 47.7563H23.5924C23.4125 47.7563 23.2337 47.7613 23.0562 47.7712L23.0773 48.1539C23.2478 48.1445 23.4195 48.1397 23.5924 48.1397H24.1614V47.7563ZM21.9904 47.8903L22.054 48.2683C21.7128 48.326 21.378 48.4027 21.0507 48.497L20.945 48.1286C21.2861 48.0303 21.6349 47.9505 21.9904 47.8903ZM19.9333 48.4835L20.0798 48.8376C19.7614 48.97 19.4521 49.1198 19.1529 49.2859L18.9677 48.9505C19.2793 48.7775 19.6016 48.6214 19.9333 48.4835ZM18.0604 49.5232C17.7686 49.7312 17.4889 49.9551 17.2227 50.1938L17.4775 50.4796C17.7332 50.2504 18.0018 50.0353 18.2819 49.8357L18.0604 49.5232ZM16.4646 50.9538L16.7496 51.2094C16.521 51.4657 16.3064 51.7349 16.1073 52.0158L15.7956 51.7937C16.0031 51.5011 16.2265 51.2207 16.4646 50.9538ZM15.2244 52.7032C15.0518 53.0157 14.8961 53.3387 14.7586 53.6713L15.1118 53.8181C15.2438 53.499 15.3932 53.1889 15.5589 52.889L15.2244 52.7032ZM14.4045 54.6856L14.772 54.7915C14.6779 55.1196 14.6015 55.4553 14.5439 55.7974L14.1669 55.7336C14.2268 55.3772 14.3065 55.0275 14.4045 54.6856ZM14.0332 97.2911H14.4156V97.8537C14.4156 98.0271 14.4204 98.1993 14.4298 98.3702L14.048 98.3914C14.0382 98.2134 14.0332 98.0342 14.0332 97.8537V97.2911ZM14.1669 99.4598L14.5439 99.396C14.6015 99.7381 14.6779 100.074 14.772 100.402L14.4045 100.508C14.3065 100.166 14.2268 99.8162 14.1669 99.4598ZM14.7586 101.522L15.1118 101.375C15.2438 101.694 15.3932 102.005 15.5589 102.304L15.2244 102.49C15.0518 102.178 14.8961 101.855 14.7586 101.522ZM15.7956 103.4L16.1073 103.178C16.3064 103.458 16.521 103.728 16.7496 103.984L16.4646 104.24C16.2265 103.973 16.0031 103.692 15.7956 103.4ZM17.2227 105L17.4775 104.714C17.7332 104.943 18.0018 105.158 18.2819 105.358L18.0604 105.67C17.7686 105.462 17.4889 105.238 17.2227 105ZM18.9677 106.243L19.1529 105.908C19.4521 106.074 19.7614 106.223 20.0797 106.356L19.9333 106.71C19.6016 106.572 19.2793 106.416 18.9677 106.243ZM21.9904 107.303L22.054 106.925C21.7128 106.867 21.378 106.791 21.0507 106.696L20.945 107.065C21.2861 107.163 21.6349 107.243 21.9904 107.303ZM14.0332 96.1657H14.4156V95.0403H14.0332V96.1657ZM14.0332 93.9149H14.4156V92.7895H14.0332V93.9149ZM14.0332 91.6641H14.4156V90.5387H14.0332V91.6641ZM14.0332 89.4133H14.4156V88.2879H14.0332V89.4133ZM14.0332 87.1625H14.4156V86.0371H14.0332V87.1625ZM14.0332 84.9117H14.4156V83.7863H14.0332V84.9117ZM14.0332 82.661H14.4156V81.5356H14.0332V82.661ZM14.0332 80.4102H14.4156V79.2848H14.0332V80.4102ZM14.0332 78.1594H14.4156V77.034H14.0332V78.1594ZM14.0332 75.9086H14.4156V74.7832H14.0332V75.9086ZM14.0332 73.6578H14.4156V72.5324H14.0332V73.6578ZM14.0332 71.407H14.4156V70.2816H14.0332V71.407ZM14.0332 69.1562H14.4156V68.0309H14.0332V69.1562ZM14.0332 66.9055H14.4156V65.7801H14.0332V66.9055ZM14.0332 64.6547H14.4156V63.5293H14.0332V64.6547ZM14.0332 62.4039H14.4156V61.2785H14.0332V62.4039ZM14.0332 60.1531H14.4156V59.0277H14.0332V60.1531ZM14.0332 57.9023H14.4156V57.3396C14.4156 57.1663 14.4204 56.9941 14.4298 56.8232L14.048 56.802C14.0382 56.98 14.0332 57.1592 14.0332 57.3396V57.9023ZM25.2993 47.7563V48.1397H26.4372V47.7563H25.2993ZM27.5751 47.7563V48.1397H28.713V47.7563H27.5751ZM29.8508 47.7563V48.1397H30.9887V47.7563H29.8508ZM32.1266 47.7563V48.1397H33.2645V47.7563H32.1266ZM34.4024 47.7563V48.1397H35.5403V47.7563H34.4024ZM36.6782 47.7563V48.1397H37.8161V47.7563H36.6782ZM38.954 47.7563V48.1397H40.0919V47.7563H38.954ZM41.2297 47.7563V48.1397H42.3676V47.7563H41.2297ZM43.5055 47.7563V48.1397H44.6434V47.7563H43.5055ZM45.7813 47.7563V48.1397H46.9192V47.7563H45.7813ZM48.0571 47.7563V48.1397H49.195V47.7563H48.0571ZM50.3329 47.7563V48.1397H51.4708V47.7563H50.3329ZM52.6086 47.7563V48.1397H53.7465V47.7563H52.6086ZM54.8844 47.7563V48.1397H56.0223V47.7563H54.8844ZM57.1602 47.7563V48.1397H58.2981V47.7563H57.1602ZM59.436 47.7563V48.1397H60.5739V47.7563H59.436ZM61.7118 47.7563V48.1397H62.8497V47.7563H61.7118ZM63.9875 47.7563V48.1397H65.1254V47.7563H63.9875ZM66.2633 47.7563V48.1397H67.4012V47.7563H66.2633ZM68.5391 47.7563V48.1397H69.677V47.7563H68.5391ZM70.8149 47.7563V48.1397H71.9528V47.7563H70.8149ZM73.0907 47.7563V48.1397H74.2286V47.7563H73.0907ZM75.3665 47.7563V48.1397H76.5043V47.7563H75.3665ZM77.6422 47.7563V48.1397H78.7801V47.7563H77.6422ZM79.918 47.7563V48.1397H81.0559V47.7563H79.918ZM82.1938 47.7563V48.1397H83.3317V47.7563H82.1938ZM84.4696 47.7563V48.1397H85.6075V47.7563H84.4696ZM86.7454 47.7563V48.1397H87.3143C87.4872 48.1397 87.659 48.1445 87.8295 48.1539L87.8506 47.7712C87.6731 47.7613 87.4943 47.7563 87.3143 47.7563H86.7454ZM96.8735 59.0277H96.4912V60.1531H96.8735V59.0277ZM96.8735 61.2785H96.4912V62.4039H96.8735V61.2785ZM96.8735 63.5293H96.4912V64.6547H96.8735V63.5293ZM96.8735 65.7801H96.4912V66.9055H96.8735V65.7801ZM96.8735 68.0308H96.4912V69.1562H96.8735V68.0308ZM96.8735 70.2816H96.4912V71.407H96.8735V70.2816ZM96.8735 72.5324H96.4912V73.6578H96.8735V72.5324ZM96.8735 74.7832H96.4912V75.9086H96.8735V74.7832ZM96.8735 77.034H96.4912V78.1594H96.8735V77.034ZM96.8735 79.2848H96.4912V80.4102H96.8735V79.2848ZM96.8735 81.5356H96.4912V82.6609H96.8735V81.5356ZM96.8735 83.7863H96.4912V84.9117H96.8735V83.7863ZM96.8735 86.0371H96.4912V87.1625H96.8735V86.0371ZM96.8735 88.2879H96.4912V89.4133H96.8735V88.2879ZM96.8735 90.5387H96.4912V91.6641H96.8735V90.5387ZM96.8735 92.7895H96.4912V93.9149H96.8735V92.7895ZM96.8735 95.0402H96.4912V96.1656H96.8735V95.0402ZM96.8735 97.291H96.4912V97.8537C96.4912 98.0271 96.4864 98.1993 96.477 98.3702L96.8587 98.3914C96.8686 98.2134 96.8735 98.0342 96.8735 97.8537V97.291ZM85.6075 107.437V107.054H84.4696V107.437H85.6075ZM83.3317 107.437V107.054H82.1938V107.437H83.3317ZM81.0559 107.437V107.054H79.918V107.437H81.0559ZM78.7801 107.437V107.054H77.6422V107.437H78.7801ZM76.5043 107.437V107.054H75.3664V107.437H76.5043ZM74.2286 107.437V107.054H73.0907V107.437H74.2286ZM71.9528 107.437V107.054H70.8149V107.437H71.9528ZM69.677 107.437V107.054H68.5391V107.437H69.677ZM67.4012 107.437V107.054H66.2633V107.437H67.4012ZM65.1254 107.437V107.054H63.9875V107.437H65.1254ZM62.8497 107.437V107.054H61.7118V107.437H62.8497ZM60.5739 107.437V107.054H59.436V107.437H60.5739ZM58.2981 107.437V107.054H57.1602V107.437H58.2981ZM56.0223 107.437V107.054H54.8844V107.437H56.0223ZM53.7465 107.437V107.054H52.6086V107.437H53.7465ZM51.4708 107.437V107.054H50.3329V107.437H51.4708ZM49.195 107.437V107.054H48.0571V107.437H49.195ZM46.9192 107.437V107.054H45.7813V107.437H46.9192ZM44.6434 107.437V107.054H43.5055V107.437H44.6434ZM42.3676 107.437V107.054H41.2297V107.437H42.3676ZM40.0918 107.437V107.054H38.954V107.437H40.0918ZM37.8161 107.437V107.054H36.6782V107.437H37.8161ZM35.5403 107.437V107.054H34.4024V107.437H35.5403ZM33.2645 107.437V107.054H32.1266V107.437H33.2645ZM30.9887 107.437V107.054H29.8508V107.437H30.9887ZM28.7129 107.437V107.054H27.5751V107.437H28.7129ZM26.4372 107.437V107.054H25.2993V107.437H26.4372Z" fill="url(#paint8_linear_967_12671)"/>
<g filter="url(#filter6_bdi_967_12671)">
<path d="M64.8066 73.5421C64.8066 68.6481 68.7572 64.6807 73.6305 64.6807H100.931C102.626 64.6807 104 66.0606 104 67.7629V86.5396C104 88.2419 102.626 89.6218 100.931 89.6218H73.6305C68.7572 89.6218 64.8066 85.6544 64.8066 80.7604V73.5421Z" fill="url(#paint9_radial_967_12671)" fill-opacity="0.99" shape-rendering="crispEdges"/>
</g>
<path fill-rule="evenodd" clip-rule="evenodd" d="M85.3385 80.4518C85.2939 80.3489 85.2939 80.2141 85.2939 79.9447V73.4671C85.2939 73.1977 85.2939 73.063 85.3385 72.9602C85.3776 72.8696 85.4401 72.7961 85.517 72.7499C85.6044 72.6975 85.7188 72.6975 85.9475 72.6975H88.0854C88.6552 72.6975 88.9401 72.6975 89.1739 72.7713C89.8082 72.9714 90.3037 73.5549 90.4737 74.3019C90.5364 74.5771 90.5364 74.9126 90.5364 75.5836C90.5364 76.0205 90.3683 76.1804 90.2251 76.3168C90.1186 76.4181 90.0257 76.5065 90.0257 76.686C90.0257 76.8628 90.1339 76.9512 90.2593 77.0537C90.4324 77.1952 90.6385 77.3635 90.6385 77.8284C90.6385 78.4982 90.6385 78.8331 90.576 79.1079C90.4063 79.8554 89.9105 80.4394 89.2758 80.6396C89.0424 80.7131 88.758 80.7133 88.1892 80.7135L85.9477 80.7143C85.7189 80.7144 85.6045 80.7144 85.5171 80.662C85.4402 80.6159 85.3777 80.5423 85.3385 80.4518ZM88.341 75.3263C88.4693 75.0892 88.5804 74.884 88.5804 74.6216C88.5804 74.0903 88.2138 73.6596 87.7617 73.6596C87.3096 73.6596 86.9431 74.1105 86.9431 74.6216C86.9431 74.884 87.0571 75.0892 87.1889 75.3263C87.3692 75.6506 87.5826 76.0345 87.5826 76.706C87.5826 77.3776 87.3692 77.7615 87.1889 78.0858C87.0571 78.3228 86.9431 78.5281 86.9431 78.7905C86.9431 79.3218 87.3096 79.7525 87.7617 79.7525C88.2138 79.7525 88.5804 79.3218 88.5804 78.7905C88.5804 78.5281 88.4693 78.3228 88.341 78.0858C88.1656 77.7615 87.9578 77.3776 87.9578 76.706C87.9578 76.0345 88.1656 75.6506 88.341 75.3263Z" fill="url(#paint10_linear_967_12671)"/>
<path fill-rule="evenodd" clip-rule="evenodd" d="M95.0685 77.7172L94.7978 77.6963C94.8129 77.5165 94.8205 77.3347 94.8205 77.1512C94.8205 76.9677 94.8129 76.7859 94.7978 76.6061L95.0685 76.5851C95.0841 76.7719 95.0921 76.9607 95.0921 77.1512C95.0921 77.3417 95.0841 77.5305 95.0685 77.7172ZM94.8799 75.4689C94.7848 75.0994 94.6593 74.7412 94.5057 74.3968L94.2562 74.4999C94.4039 74.8314 94.5248 75.1762 94.6162 75.5317L94.8799 75.4689ZM93.957 73.3965L93.7278 73.5367C93.5251 73.2296 93.2973 72.9385 93.047 72.666L93.2504 72.4928C93.5101 72.7755 93.7466 73.0776 93.957 73.3965ZM92.4057 71.7066L92.2327 71.9081C91.9424 71.6771 91.6326 71.4671 91.306 71.2805L91.4446 71.0556C91.7833 71.2492 92.1046 71.467 92.4057 71.7066ZM90.3911 70.5551L90.2901 70.7978C89.9424 70.6636 89.5812 70.554 89.209 70.4711L89.2702 70.2163C89.6561 70.3023 90.0306 70.416 90.3911 70.5551ZM88.1087 70.0463C87.9146 70.0323 87.7185 70.0251 87.5206 70.0251C87.3228 70.0251 87.1267 70.0323 86.9326 70.0463L86.953 70.3071C87.1402 70.2935 87.3296 70.2866 87.5206 70.2866C87.7117 70.2866 87.901 70.2935 88.0883 70.3071L88.1087 70.0463ZM85.7711 70.2163L85.8323 70.4711C85.4601 70.554 85.0989 70.6636 84.7512 70.7978L84.6502 70.5551C85.0107 70.416 85.3852 70.3023 85.7711 70.2163ZM83.5967 71.0556L83.7353 71.2805C83.4087 71.4671 83.0989 71.6771 82.8086 71.9081L82.6356 71.7066C82.9367 71.467 83.258 71.2492 83.5967 71.0556ZM81.7909 72.4928L81.9943 72.666C81.744 72.9385 81.5162 73.2296 81.3135 73.5367L81.0842 73.3965C81.2947 73.0776 81.5312 72.7755 81.7909 72.4928ZM80.5356 74.3968L80.7851 74.4999C80.6373 74.8314 80.5165 75.1762 80.4251 75.5317L80.1614 75.4689C80.2564 75.0994 80.382 74.7412 80.5356 74.3968ZM79.9728 76.5851C79.9572 76.7719 79.9492 76.9607 79.9492 77.1512C79.9492 77.3417 79.9572 77.5305 79.9728 77.7173L80.2435 77.6963C80.2284 77.5165 80.2208 77.3347 80.2208 77.1512C80.2208 76.9677 80.2284 76.7859 80.2435 76.6061L79.9728 76.5851ZM80.1614 78.8335L80.4251 78.7707C80.5165 79.1262 80.6373 79.471 80.7851 79.8025L80.5356 79.9056C80.382 79.5612 80.2564 79.203 80.1614 78.8335ZM81.0842 80.9059L81.3135 80.7657C81.5162 81.0728 81.744 81.3639 81.9943 81.6364L81.7909 81.8096C81.5312 81.5269 81.2947 81.2248 81.0842 80.9059ZM82.6356 82.5958L82.8086 82.3943C83.0989 82.6252 83.4087 82.8353 83.7353 83.0219L83.5967 83.2468C83.258 83.0532 82.9367 82.8354 82.6356 82.5958ZM84.6502 83.7473L84.7512 83.5046C85.0989 83.6388 85.4601 83.7484 85.8323 83.8313L85.7711 84.0861C85.3852 84.0001 85.0107 83.8864 84.6502 83.7473ZM86.9326 84.2561C87.1267 84.2701 87.3228 84.2772 87.5206 84.2772C87.7185 84.2772 87.9146 84.2701 88.1087 84.2561L88.0883 83.9953C87.901 84.0089 87.7117 84.0158 87.5206 84.0158C87.3296 84.0158 87.1402 84.0089 86.953 83.9953L86.9326 84.2561ZM89.2702 84.0861L89.209 83.8313C89.5812 83.7484 89.9424 83.6388 90.2901 83.5046L90.3911 83.7473C90.0306 83.8864 89.6561 84.0001 89.2702 84.0861ZM91.4446 83.2468L91.306 83.0219C91.6326 82.8353 91.9424 82.6252 92.2327 82.3943L92.4057 82.5958C92.1046 82.8354 91.7833 83.0532 91.4446 83.2468ZM93.2504 81.8096L93.047 81.6364C93.2973 81.3639 93.5251 81.0728 93.7278 80.7657L93.957 80.9059C93.7466 81.2248 93.5101 81.5269 93.2504 81.8096ZM94.5057 79.9056L94.2562 79.8025C94.4039 79.471 94.5248 79.1262 94.6162 78.7707L94.8799 78.8335C94.7848 79.203 94.6593 79.5612 94.5057 79.9056Z" fill="url(#paint11_linear_967_12671)"/>
<path fill-rule="evenodd" clip-rule="evenodd" d="M31.1595 80.5101C31.1176 80.4301 31.1176 80.3253 31.1176 80.1157V75.0776C31.1176 74.8681 31.1176 74.7633 31.1595 74.6833C31.1963 74.6129 31.255 74.5557 31.3273 74.5198C31.4094 74.479 31.517 74.479 31.7321 74.479H33.7419C34.2776 74.479 34.5455 74.479 34.7652 74.5364C35.3616 74.692 35.8275 75.1459 35.9873 75.7268C36.0461 75.9409 36.0461 76.2019 36.0461 76.7237C36.0461 77.0635 35.8882 77.1879 35.7535 77.294C35.6534 77.3728 35.5661 77.4416 35.5661 77.5812C35.5661 77.7187 35.6678 77.7874 35.7857 77.8672C35.9485 77.9772 36.1422 78.1081 36.1422 78.4697C36.1422 78.9907 36.1422 79.2511 36.0835 79.4649C35.9238 80.0463 35.4578 80.5005 34.861 80.6561C34.6416 80.7134 34.3743 80.7135 33.8395 80.7136L31.7323 80.7143C31.5171 80.7144 31.4095 80.7144 31.3274 80.6736C31.2551 80.6378 31.1963 80.5805 31.1595 80.5101ZM38.4888 79.4362L38.2268 80.2356C38.1778 80.3852 38.1533 80.46 38.1066 80.5154C38.0654 80.5643 38.0121 80.6023 37.9517 80.6256C37.8834 80.6521 37.8027 80.6521 37.6415 80.6521H36.4827L38.3426 74.9281C38.3914 74.778 38.4158 74.7029 38.4625 74.6474C38.5037 74.5983 38.557 74.5602 38.6175 74.5368C38.686 74.5102 38.7668 74.5102 38.9284 74.5102H40.2047C40.3663 74.5102 40.4472 74.5102 40.5156 74.5368C40.5761 74.5602 40.6294 74.5983 40.6706 74.6473C40.7173 74.7029 40.7417 74.778 40.7904 74.9281L42.6514 80.6521H41.492C41.3308 80.6521 41.2502 80.6521 41.1818 80.6256C41.1215 80.6023 41.0682 80.5643 41.0269 80.5155C40.9803 80.4601 40.9557 80.3853 40.9067 80.2356L40.6447 79.4362H38.4888ZM38.8157 78.4385H40.3177L39.5665 76.147L38.8157 78.4385ZM26.2277 80.6521C26.0127 80.6521 25.9051 80.6521 25.823 80.6113C25.7507 80.5755 25.692 80.5182 25.6551 80.4479C25.6133 80.3678 25.6133 80.2631 25.6133 80.0535V74.5414H26.5987C26.8138 74.5414 26.9213 74.5414 27.0035 74.5821C27.0757 74.618 27.1345 74.6752 27.1713 74.7456C27.2132 74.8257 27.2132 74.9304 27.2132 75.14V78.9187C27.2132 79.0234 27.2132 79.0758 27.2341 79.1158C27.2525 79.151 27.2819 79.1796 27.318 79.1976C27.3591 79.218 27.4129 79.218 27.5204 79.218H29.8162C30.0313 79.218 30.1389 79.218 30.221 79.2587C30.2933 79.2946 30.352 79.3518 30.3889 79.4222C30.4307 79.5023 30.4307 79.607 30.4307 79.8166V80.6521H26.2277ZM43.151 75.14C43.151 74.9304 43.151 74.8257 43.1928 74.7456C43.2295 74.6752 43.2883 74.618 43.3606 74.5821C43.4428 74.5414 43.5504 74.5414 43.7653 74.5414H44.3309C44.4607 74.5414 44.5255 74.5414 44.5836 74.5598C44.6349 74.5761 44.6821 74.6028 44.7221 74.6381C44.7674 74.678 44.7996 74.7328 44.8642 74.8425L46.8314 78.1891V75.14C46.8314 74.9304 46.8314 74.8257 46.8732 74.7456C46.9101 74.6752 46.9687 74.618 47.041 74.5821C47.1232 74.5414 47.2307 74.5414 47.4459 74.5414H48.3675V80.0526C48.3675 80.2619 48.3675 80.3666 48.3257 80.4466C48.2889 80.5169 48.2303 80.5742 48.158 80.6101C48.076 80.6509 47.9685 80.651 47.7537 80.6512L47.188 80.6518C47.0581 80.6519 46.9932 80.652 46.935 80.6335C46.8836 80.6173 46.8363 80.5906 46.7962 80.5553C46.7509 80.5153 46.7186 80.4604 46.6541 80.3506L44.6871 77.0044V80.0535C44.6871 80.2631 44.6871 80.3678 44.6452 80.4479C44.6084 80.5182 44.5496 80.5755 44.4774 80.6113C44.3952 80.6521 44.2878 80.6521 44.0726 80.6521H43.151V75.14ZM50.0253 74.5414H49.1036V80.052C49.1036 80.2615 49.1036 80.3663 49.1454 80.4463C49.1823 80.5167 49.2411 80.5739 49.3132 80.6098C49.3954 80.6506 49.503 80.6506 49.7181 80.6506H50.6397V78.1579H50.8912C50.9986 78.1579 51.0525 78.1579 51.1022 78.1712C51.1461 78.1829 51.1877 78.2021 51.2247 78.2281C51.2667 78.2573 51.3005 78.298 51.3682 78.3793L53.0777 80.4308C53.1454 80.5121 53.1793 80.5527 53.2212 80.582C53.2582 80.6079 53.2997 80.6272 53.3438 80.6389C53.3935 80.6521 53.4472 80.6521 53.5548 80.6521H55.0082L52.7474 77.9434C52.635 77.8088 52.5787 77.7414 52.5572 77.6665C52.5383 77.6005 52.5383 77.5307 52.5572 77.4647C52.5789 77.3898 52.6351 77.3225 52.7475 77.188L52.7476 77.1879L54.9592 74.5414H53.5214C53.4144 74.5414 53.3609 74.5414 53.3113 74.5545C53.2675 74.5661 53.2261 74.5852 53.1891 74.611C53.1473 74.64 53.1135 74.6804 53.0457 74.7611L51.3741 76.7534C51.3063 76.8342 51.2724 76.8745 51.2307 76.9036C51.1937 76.9293 51.1523 76.9484 51.1085 76.9601C51.0589 76.9732 51.0053 76.9732 50.8983 76.9732H50.6397V75.14C50.6397 74.9304 50.6397 74.8257 50.5979 74.7456C50.561 74.6752 50.5024 74.618 50.4301 74.5821C50.3479 74.5414 50.2404 74.5414 50.0253 74.5414ZM33.9823 76.5236C34.1029 76.3392 34.2073 76.1796 34.2073 75.9755C34.2073 75.5623 33.8627 75.2273 33.4376 75.2273C33.0126 75.2273 32.668 75.578 32.668 75.9755C32.668 76.1796 32.7752 76.3392 32.8991 76.5236C33.0686 76.7758 33.2693 77.0744 33.2693 77.5967C33.2693 78.119 33.0686 78.4177 32.8991 78.6699C32.7752 78.8543 32.668 79.0139 32.668 79.218C32.668 79.6312 33.0126 79.9662 33.4376 79.9662C33.8627 79.9662 34.2073 79.6312 34.2073 79.218C34.2073 79.0139 34.1029 78.8543 33.9823 78.6699C33.8173 78.4177 33.622 78.119 33.622 77.5967C33.622 77.0744 33.8173 76.7758 33.9823 76.5236Z" fill="white"/>
<defs>
<filter id="filter0_d_967_12671" x="0.494141" y="0.322021" width="79.5654" height="79.5659" filterUnits="userSpaceOnUse" color-interpolation-filters="sRGB">
<feFlood flood-opacity="0" result="BackgroundImageFix"/>
<feColorMatrix in="SourceAlpha" type="matrix" values="0 0 0 0 0 0 0 0 0 0 0 0 0 0 0 0 0 0 127 0" result="hardAlpha"/>
<feOffset dy="13"/>
<feGaussianBlur stdDeviation="11"/>
<feComposite in2="hardAlpha" operator="out"/>
<feColorMatrix type="matrix" values="0 0 0 0 0.519896 0 0 0 0 0.55789 0 0 0 0 0.775 0 0 0 0.3 0"/>
<feBlend mode="normal" in2="BackgroundImageFix" result="effect1_dropShadow_967_12671"/>
<feBlend mode="normal" in="SourceGraphic" in2="effect1_dropShadow_967_12671" result="shape"/>
</filter>
<filter id="filter1_d_967_12671" x="0.494141" y="0.322021" width="79.5654" height="79.5659" filterUnits="userSpaceOnUse" color-interpolation-filters="sRGB">
<feFlood flood-opacity="0" result="BackgroundImageFix"/>
<feColorMatrix in="SourceAlpha" type="matrix" values="0 0 0 0 0 0 0 0 0 0 0 0 0 0 0 0 0 0 127 0" result="hardAlpha"/>
<feOffset dy="13"/>
<feGaussianBlur stdDeviation="11"/>
<feComposite in2="hardAlpha" operator="out"/>
<feColorMatrix type="matrix" values="0 0 0 0 0.519896 0 0 0 0 0.55789 0 0 0 0 0.775 0 0 0 0.3 0"/>
<feBlend mode="normal" in2="BackgroundImageFix" result="effect1_dropShadow_967_12671"/>
<feBlend mode="normal" in="SourceGraphic" in2="effect1_dropShadow_967_12671" result="shape"/>
</filter>
<filter id="filter2_d_967_12671" x="23.2979" y="11.9165" width="79.5654" height="79.5659" filterUnits="userSpaceOnUse" color-interpolation-filters="sRGB">
<feFlood flood-opacity="0" result="BackgroundImageFix"/>
<feColorMatrix in="SourceAlpha" type="matrix" values="0 0 0 0 0 0 0 0 0 0 0 0 0 0 0 0 0 0 127 0" result="hardAlpha"/>
<feOffset dy="13"/>
<feGaussianBlur stdDeviation="11"/>
<feComposite in2="hardAlpha" operator="out"/>
<feColorMatrix type="matrix" values="0 0 0 0 0.519896 0 0 0 0 0.55789 0 0 0 0 0.775 0 0 0 0.3 0"/>
<feBlend mode="normal" in2="BackgroundImageFix" result="effect1_dropShadow_967_12671"/>
<feBlend mode="normal" in="SourceGraphic" in2="effect1_dropShadow_967_12671" result="shape"/>
</filter>
<filter id="filter3_d_967_12671" x="23.2979" y="11.9165" width="79.5654" height="79.5659" filterUnits="userSpaceOnUse" color-interpolation-filters="sRGB">
<feFlood flood-opacity="0" result="BackgroundImageFix"/>
<feColorMatrix in="SourceAlpha" type="matrix" values="0 0 0 0 0 0 0 0 0 0 0 0 0 0 0 0 0 0 127 0" result="hardAlpha"/>
<feOffset dy="13"/>
<feGaussianBlur stdDeviation="11"/>
<feComposite in2="hardAlpha" operator="out"/>
<feColorMatrix type="matrix" values="0 0 0 0 0.519896 0 0 0 0 0.55789 0 0 0 0 0.775 0 0 0 0.3 0"/>
<feBlend mode="normal" in2="BackgroundImageFix" result="effect1_dropShadow_967_12671"/>
<feBlend mode="normal" in="SourceGraphic" in2="effect1_dropShadow_967_12671" result="shape"/>
</filter>
<filter id="filter4_bi_967_12671" x="-22.5293" y="11.1932" width="156.857" height="132.807" filterUnits="userSpaceOnUse" color-interpolation-filters="sRGB">
<feFlood flood-opacity="0" result="BackgroundImageFix"/>
<feGaussianBlur in="BackgroundImageFix" stdDeviation="16.5"/>
<feComposite in2="SourceAlpha" operator="in" result="effect1_backgroundBlur_967_12671"/>
<feBlend mode="normal" in="SourceGraphic" in2="effect1_backgroundBlur_967_12671" result="shape"/>
<feColorMatrix in="SourceAlpha" type="matrix" values="0 0 0 0 0 0 0 0 0 0 0 0 0 0 0 0 0 0 127 0" result="hardAlpha"/>
<feOffset dy="-3"/>
<feGaussianBlur stdDeviation="3.5"/>
<feComposite in2="hardAlpha" operator="arithmetic" k2="-1" k3="1"/>
<feColorMatrix type="matrix" values="0 0 0 0 1 0 0 0 0 1 0 0 0 0 1 0 0 0 0.57 0"/>
<feBlend mode="normal" in2="shape" result="effect2_innerShadow_967_12671"/>
</filter>
<filter id="filter5_i_967_12671" x="14.0332" y="44.7563" width="82.8408" height="62.6807" filterUnits="userSpaceOnUse" color-interpolation-filters="sRGB">
<feFlood flood-opacity="0" result="BackgroundImageFix"/>
<feBlend mode="normal" in="SourceGraphic" in2="BackgroundImageFix" result="shape"/>
<feColorMatrix in="SourceAlpha" type="matrix" values="0 0 0 0 0 0 0 0 0 0 0 0 0 0 0 0 0 0 127 0" result="hardAlpha"/>
<feOffset dy="-3"/>
<feGaussianBlur stdDeviation="3.5"/>
<feComposite in2="hardAlpha" operator="arithmetic" k2="-1" k3="1"/>
<feColorMatrix type="matrix" values="0 0 0 0 1 0 0 0 0 1 0 0 0 0 1 0 0 0 0.28 0"/>
<feBlend mode="normal" in2="shape" result="effect1_innerShadow_967_12671"/>
</filter>
<filter id="filter6_bdi_967_12671" x="52.8066" y="54.6807" width="61.1934" height="52.9412" filterUnits="userSpaceOnUse" color-interpolation-filters="sRGB">
<feFlood flood-opacity="0" result="BackgroundImageFix"/>
<feGaussianBlur in="BackgroundImageFix" stdDeviation="5"/>
<feComposite in2="SourceAlpha" operator="in" result="effect1_backgroundBlur_967_12671"/>
<feColorMatrix in="SourceAlpha" type="matrix" values="0 0 0 0 0 0 0 0 0 0 0 0 0 0 0 0 0 0 127 0" result="hardAlpha"/>
<feOffset dx="-4" dy="10"/>
<feGaussianBlur stdDeviation="4"/>
<feComposite in2="hardAlpha" operator="out"/>
<feColorMatrix type="matrix" values="0 0 0 0 0.0448 0 0 0 0 0.04864 0 0 0 0 0.2752 0 0 0 0.16 0"/>
<feBlend mode="normal" in2="effect1_backgroundBlur_967_12671" result="effect2_dropShadow_967_12671"/>
<feBlend mode="normal" in="SourceGraphic" in2="effect2_dropShadow_967_12671" result="shape"/>
<feColorMatrix in="SourceAlpha" type="matrix" values="0 0 0 0 0 0 0 0 0 0 0 0 0 0 0 0 0 0 127 0" result="hardAlpha"/>
<feOffset dx="2" dy="-3"/>
<feGaussianBlur stdDeviation="3.5"/>
<feComposite in2="hardAlpha" operator="arithmetic" k2="-1" k3="1"/>
<feColorMatrix type="matrix" values="0 0 0 0 1 0 0 0 0 1 0 0 0 0 1 0 0 0 0.14 0"/>
<feBlend mode="normal" in2="shape" result="effect3_innerShadow_967_12671"/>
</filter>
<radialGradient id="paint0_radial_967_12671" cx="0" cy="0" r="1" gradientUnits="userSpaceOnUse" gradientTransform="translate(36.854 15.5832) rotate(73.4543) scale(29.7977)">
<stop stop-color="#F0F0FF"/>
<stop stop-color="#F1F1FD"/>
<stop offset="0.703125" stop-color="white"/>
</radialGradient>
<linearGradient id="paint1_linear_967_12671" x1="65.7522" y1="38.083" x2="64.9599" y2="26.0161" gradientUnits="userSpaceOnUse">
<stop stop-color="#F7F8FD"/>
<stop offset="1" stop-color="white"/>
</linearGradient>
<linearGradient id="paint2_linear_967_12671" x1="28.8851" y1="25.3259" x2="50.9057" y2="38.2747" gradientUnits="userSpaceOnUse">
<stop stop-color="#244CB3" stop-opacity="0.34"/>
<stop offset="1" stop-color="#B4C2E5" stop-opacity="0.07"/>
</linearGradient>
<radialGradient id="paint3_radial_967_12671" cx="0" cy="0" r="1" gradientUnits="userSpaceOnUse" gradientTransform="translate(59.6577 27.1777) rotate(73.4543) scale(29.7977)">
<stop stop-color="#F0F0FF"/>
<stop stop-color="#F1F1FD"/>
<stop offset="0.703125" stop-color="white"/>
</radialGradient>
<linearGradient id="paint4_linear_967_12671" x1="88.5559" y1="49.6774" x2="87.7636" y2="37.6105" gradientUnits="userSpaceOnUse">
<stop stop-color="#F7F8FD"/>
<stop offset="1" stop-color="white"/>
</linearGradient>
<linearGradient id="paint5_linear_967_12671" x1="51.6878" y1="36.9201" x2="73.7084" y2="49.8689" gradientUnits="userSpaceOnUse">
<stop stop-color="#244CB3" stop-opacity="0.34"/>
<stop offset="1" stop-color="#B4C2E5" stop-opacity="0.07"/>
</linearGradient>
<radialGradient id="paint6_radial_967_12671" cx="0" cy="0" r="1" gradientUnits="userSpaceOnUse" gradientTransform="translate(72.6935 49.4498) rotate(143.821) scale(91.8577 76.0594)">
<stop stop-color="#171985" stop-opacity="0.58"/>
<stop offset="0.688159" stop-color="#14167D"/>
</radialGradient>
<radialGradient id="paint7_radial_967_12671" cx="0" cy="0" r="1" gradientUnits="userSpaceOnUse" gradientTransform="translate(95.1872 46.0673) rotate(143.669) scale(100.736 81.6014)">
<stop stop-color="#14167D" stop-opacity="0"/>
<stop offset="1" stop-color="#14167D"/>
</radialGradient>
<linearGradient id="paint8_linear_967_12671" x1="2.50677" y1="118.041" x2="99.1331" y2="39.3451" gradientUnits="userSpaceOnUse">
<stop stop-color="white" stop-opacity="0.65"/>
<stop offset="1" stop-color="white" stop-opacity="0"/>
</linearGradient>
<radialGradient id="paint9_radial_967_12671" cx="0" cy="0" r="1" gradientUnits="userSpaceOnUse" gradientTransform="translate(71.4982 66.4454) rotate(66.9445) scale(35.8007 49.8092)">
<stop stop-color="#14167D" stop-opacity="0"/>
<stop offset="1" stop-color="#14167D"/>
</radialGradient>
<linearGradient id="paint10_linear_967_12671" x1="95.1661" y1="72.6975" x2="95.1661" y2="86.3929" gradientUnits="userSpaceOnUse">
<stop stop-color="white"/>
<stop offset="1" stop-color="white" stop-opacity="0"/>
</linearGradient>
<linearGradient id="paint11_linear_967_12671" x1="80.659" y1="70.0251" x2="91.6911" y2="85.8087" gradientUnits="userSpaceOnUse">
<stop stop-color="white"/>
<stop offset="1" stop-color="white" stop-opacity="0"/>
</linearGradient>
</defs>
</svg>
