<svg width="238" height="80" viewBox="0 0 238 80" fill="none" xmlns="http://www.w3.org/2000/svg">
<path d="M95.0579 34.5323V17.8221H98.8491V34.5323H95.0579ZM88.5984 28.0728V24.2816H105.309V28.0728H88.5984Z" fill="#320A8D"/>
<path d="M169.53 38.9022C169.555 34.0516 170.661 29.2675 172.765 24.8997C174.87 20.5319 177.921 16.6906 181.695 13.6562L174.233 6.17362C173.157 5.09553 171.699 4.48987 170.178 4.48987C168.657 4.48987 167.199 5.09553 166.123 6.17362L137.986 34.3879C136.911 35.4663 136.307 36.929 136.307 38.4539C136.307 39.9788 136.911 41.4415 137.986 42.52L166.123 70.7342C167.199 71.8123 168.657 72.418 170.178 72.418C171.699 72.418 173.157 71.8123 174.233 70.7342L181.125 63.8082C177.497 60.7563 174.58 56.9454 172.577 52.643C170.574 48.3402 169.534 43.6503 169.53 38.9022Z" fill="black"/>
<path d="M203.555 5.80778C195.547 5.79545 187.782 8.57013 181.578 13.6607L202.143 34.3497C202.675 34.8815 203.097 35.5138 203.385 36.2101C203.673 36.9065 203.821 37.6529 203.821 38.4072C203.821 39.1615 203.673 39.9079 203.385 40.6043C203.097 41.3006 202.675 41.933 202.143 42.4647L181.011 63.7092C187.308 69.0734 195.301 72.0056 203.555 71.9785C222.371 71.9785 237.641 57.1827 237.641 38.9162C237.641 20.6494 222.34 5.80778 203.555 5.80778Z" fill="black"/>
<path fill-rule="evenodd" clip-rule="evenodd" d="M47.5932 1.95428C45.7985 1.35773 44.0038 0.761179 42.2579 0.164628C40.064 -0.630543 37.9196 1.60635 38.0199 4.53911C38.2192 10.106 38.4184 15.6229 38.6177 21.1898C38.6679 23.0287 37.7698 24.7191 36.3737 25.4149C33.582 26.7567 30.7395 28.0491 27.897 29.3415C25.0546 28.0991 22.2128 26.7567 19.4204 25.4149C17.9741 24.7191 17.1269 23.0287 17.1771 21.1898C17.3763 15.6229 17.5756 10.106 17.7748 4.53911C17.8752 1.55635 15.7308 -0.630543 13.5369 0.164628C11.7415 0.761179 9.99631 1.40773 8.20164 1.95428C6.75531 2.45152 5.65873 4.04186 5.50894 5.98014C5.01011 12.5415 4.46181 19.1022 3.96298 25.6136C3.8132 27.4525 4.66107 29.1429 6.05723 29.888C9.1986 31.5284 8.89972 36.8966 5.45878 38.139C3.91352 38.6863 2.76607 40.2266 2.61628 42.0656C1.81927 52.0563 1.02086 62.0969 0.223155 72.0876C0.0733671 74.0259 1.12049 75.8155 2.91586 76.5114C5.05957 77.3559 7.25414 78.201 9.44802 79.0462C12.1909 80.09 15.1323 78.0517 15.2319 75.0697C15.5308 66.0735 15.8799 57.0766 16.1794 48.0304C16.2289 46.1914 17.3269 44.6011 18.8721 44.0046C21.9139 42.8115 24.9062 41.6184 27.897 40.3259C30.8886 41.569 33.8809 42.8115 36.9227 44.0046C38.4679 44.6011 39.5659 46.1914 39.6154 48.0304C39.9149 57.0273 40.2633 66.0235 40.5629 75.0697C40.6625 78.0517 43.6039 80.04 46.3468 79.0462C48.5406 78.201 50.7352 77.3559 52.8789 76.5114C54.6241 75.8155 55.7214 74.0259 55.5716 72.0876C54.7739 62.0969 53.9755 52.0563 53.1785 42.0656C53.0287 40.2266 51.9321 38.6863 50.336 38.139C46.8951 36.9466 46.5962 31.5284 49.7376 29.888C51.1832 29.1429 51.9816 27.4032 51.8318 25.6136C51.333 19.0529 50.7847 12.4915 50.2859 5.98014C50.1361 4.04186 49.0395 2.40152 47.5932 1.95428Z" fill="#320A8D"/>
</svg>
