<svg width="43" height="35" viewBox="0 0 43 35" fill="none" xmlns="http://www.w3.org/2000/svg">
<path d="M5.95215 14.6648C5.95215 13.0385 7.27048 11.7202 8.89672 11.7202H39.8147C41.4409 11.7202 42.7593 13.0385 42.7593 14.6648V31.5961C42.7593 33.2223 41.4409 34.5406 39.8147 34.5406H8.89672C7.27048 34.5406 5.95215 33.2223 5.95215 31.5961V14.6648Z" fill="url(#paint0_linear_967_12642)"/>
<path fill-rule="evenodd" clip-rule="evenodd" d="M15.375 13.6334C15.375 13.2268 15.7046 12.8972 16.1111 12.8972H18.7613C19.1678 12.8972 19.4974 13.2268 19.4974 13.6334C19.4974 14.0399 19.1678 14.3695 18.7613 14.3695H16.1111C15.7046 14.3695 15.375 14.0399 15.375 13.6334Z" fill="#320A8D"/>
<path fill-rule="evenodd" clip-rule="evenodd" d="M1.53576 12.0141L1.53576 24.9702C1.53576 27.4096 3.51326 29.3871 5.95262 29.3871L28.9203 29.3871C31.3596 29.3871 33.3371 27.4096 33.3371 24.9702L33.3371 12.0141C33.3371 9.57477 31.3596 7.59728 28.9203 7.59728L5.95262 7.59728C3.51325 7.59728 1.53576 9.57477 1.53576 12.0141ZM0.0634763 24.9702C0.0634764 28.2227 2.70014 30.8594 5.95262 30.8594L28.9203 30.8594C32.1727 30.8594 34.8094 28.2227 34.8094 24.9702L34.8094 12.0141C34.8094 8.76165 32.1727 6.12499 28.9203 6.12499L5.95262 6.12499C2.70013 6.12499 0.0634756 8.76165 0.0634757 12.0141L0.0634763 24.9702Z" fill="#320A8D"/>
<path fill-rule="evenodd" clip-rule="evenodd" d="M1.53576 12.0141L1.53576 24.9702C1.53576 27.4096 3.51325 29.3871 5.95261 29.3871L33.0427 29.3871C35.482 29.3871 37.4595 27.4096 37.4595 24.9702L37.4595 12.0141C37.4595 9.57477 35.482 7.59728 33.0427 7.59728L5.95262 7.59728C3.51325 7.59728 1.53576 9.57477 1.53576 12.0141ZM0.0634763 24.9702C0.0634764 28.2227 2.70013 30.8594 5.95261 30.8594L33.0427 30.8594C36.2951 30.8594 38.9318 28.2227 38.9318 24.9702L38.9318 12.0141C38.9318 8.76165 36.2951 6.12499 33.0427 6.12499L5.95262 6.12499C2.70013 6.12499 0.0634756 8.76165 0.0634757 12.0141L0.0634763 24.9702Z" fill="#320A8D"/>
<path fill-rule="evenodd" clip-rule="evenodd" d="M14.4055 0.679176H22.4149C22.9247 0.666779 23.4321 0.750754 23.9083 0.926313C24.3882 1.10319 24.827 1.36962 25.1996 1.71019C25.5721 2.05075 25.8711 2.45878 26.0793 2.91095C26.2876 3.36323 26.4008 3.8505 26.4127 4.34475L26.413 4.35333V6.36139H24.8833V4.37107C24.875 4.07312 24.8063 3.77979 24.6809 3.50756C24.5544 3.23278 24.3726 2.98475 24.1462 2.7777C23.9197 2.57067 23.6529 2.40872 23.3613 2.30122C23.0696 2.19369 22.7588 2.1427 22.4466 2.15117L22.4359 2.15146H14.3845L14.3738 2.15117C14.0616 2.1427 13.7508 2.19369 13.4591 2.30122C13.1675 2.40872 12.9007 2.57067 12.6742 2.7777C12.4478 2.98475 12.266 3.23278 12.1395 3.50756C12.014 3.78003 11.9452 4.07339 11.9369 4.3711V6.27722H10.4072V4.35333L10.4074 4.34475C10.4194 3.85025 10.5329 3.363 10.7411 2.91095C10.9493 2.45878 11.2483 2.05075 11.6208 1.71019C11.9934 1.36962 12.4322 1.10319 12.912 0.926313C13.3883 0.750754 13.8957 0.666779 14.4055 0.679176Z" fill="#320A8D"/>
<path fill-rule="evenodd" clip-rule="evenodd" d="M0.556663 11.1557C0.706173 10.7776 1.13386 10.5923 1.51193 10.7418L14.374 15.8282C16.461 16.6535 18.784 16.6535 20.8711 15.8282L33.3608 10.8891C33.7389 10.7396 34.1666 10.9248 34.3161 11.3029C34.4656 11.681 34.2803 12.1087 33.9022 12.2582L21.4125 17.1973C18.9776 18.1602 16.2675 18.1602 13.8325 17.1973L0.97051 12.111C0.592439 11.9615 0.407153 11.5338 0.556663 11.1557Z" fill="#320A8D"/>
<defs>
<linearGradient id="paint0_linear_967_12642" x1="12.4701" y1="11.7202" x2="39.2838" y2="40.539" gradientUnits="userSpaceOnUse">
<stop stop-color="#244CB3" stop-opacity="0.2"/>
<stop offset="1" stop-color="#B4C2E5" stop-opacity="0.07"/>
</linearGradient>
</defs>
</svg>
