<svg width="45" height="46" viewBox="0 0 45 46" fill="none" xmlns="http://www.w3.org/2000/svg">
<path d="M6.26367 27.4697C6.26367 17.3684 14.7165 9.17969 25.1437 9.17969C35.5708 9.17969 44.0237 17.3684 44.0237 27.4697C44.0237 37.571 35.5708 45.7597 25.1437 45.7597C14.7165 45.7597 6.26367 37.571 6.26367 27.4697Z" fill="url(#paint0_linear_967_12262)"/>
<path fill-rule="evenodd" clip-rule="evenodd" d="M19.2226 36.8709C28.5091 36.8709 36.0372 29.1666 36.0372 19.6629C36.0372 10.1591 28.5091 2.45478 19.2226 2.45478C9.93618 2.45478 2.40803 10.1591 2.40803 19.6629C2.40803 29.1666 9.93618 36.8709 19.2226 36.8709ZM37.6386 19.6629C37.6386 30.0717 29.3935 38.5098 19.2226 38.5098C9.05176 38.5098 0.806641 30.0717 0.806641 19.6629C0.806641 9.25398 9.05176 0.815918 19.2226 0.815918C29.3935 0.815918 37.6386 9.25398 37.6386 19.6629Z" fill="#320A8D"/>
<path fill-rule="evenodd" clip-rule="evenodd" d="M19.2232 31.1347C25.4142 31.1347 30.433 25.9985 30.433 19.6627C30.433 13.3268 25.4142 8.19062 19.2232 8.19062C13.0323 8.19062 8.0135 13.3268 8.0135 19.6627C8.0135 25.9985 13.0323 31.1347 19.2232 31.1347ZM32.0343 19.6627C32.0343 26.9036 26.2986 32.7736 19.2232 32.7736C12.1478 32.7736 6.41211 26.9036 6.41211 19.6627C6.41211 12.4217 12.1478 6.55176 19.2232 6.55176C26.2986 6.55176 32.0343 12.4217 32.0343 19.6627Z" fill="#320A8D"/>
<path fill-rule="evenodd" clip-rule="evenodd" d="M22.5609 12.7558C22.2544 12.6526 21.9479 12.5495 21.6497 12.4464C21.275 12.309 20.9087 12.6956 20.9258 13.2025C20.9599 14.1648 20.9939 15.1183 21.0279 16.0806C21.0365 16.3984 20.8831 16.6906 20.6447 16.8109C20.1679 17.0428 19.6824 17.2662 19.1969 17.4896C18.7114 17.2748 18.226 17.0428 17.7491 16.8109C17.502 16.6906 17.3573 16.3984 17.3659 16.0806C17.3999 15.1183 17.434 14.1648 17.468 13.2025C17.4851 12.687 17.1189 12.309 16.7442 12.4464C16.4375 12.5495 16.1394 12.6613 15.8329 12.7558C15.5859 12.8417 15.3986 13.1166 15.373 13.4516C15.2878 14.5857 15.1942 15.7197 15.109 16.8452C15.0834 17.1631 15.2282 17.4552 15.4666 17.584C16.0032 17.8676 15.9521 18.7954 15.3644 19.0102C15.1005 19.1048 14.9045 19.371 14.8789 19.6889C14.7428 21.4157 14.6064 23.1512 14.4702 24.8781C14.4446 25.2131 14.6235 25.5225 14.9301 25.6427C15.2962 25.7887 15.6711 25.9348 16.0458 26.0809C16.5143 26.2613 17.0167 25.909 17.0337 25.3935C17.0847 23.8386 17.1443 22.2835 17.1955 20.7199C17.204 20.402 17.3915 20.1271 17.6554 20.024C18.1749 19.8178 18.686 19.6116 19.1969 19.3882C19.7078 19.6031 20.2189 19.8178 20.7384 20.024C21.0024 20.1271 21.1899 20.402 21.1983 20.7199C21.2495 22.275 21.309 23.8299 21.3602 25.3935C21.3772 25.909 21.8796 26.2526 22.3481 26.0809C22.7228 25.9348 23.0976 25.7887 23.4637 25.6427C23.7618 25.5225 23.9492 25.2131 23.9237 24.8781C23.7874 23.1512 23.651 21.4157 23.5149 19.6889C23.4893 19.371 23.302 19.1048 23.0294 19.0102C22.4417 18.8041 22.3907 17.8676 22.9272 17.584C23.1741 17.4552 23.3105 17.1545 23.2849 16.8452C23.1997 15.7112 23.1061 14.5771 23.0209 13.4516C22.9953 13.1166 22.808 12.8331 22.5609 12.7558Z" fill="#320A8D"/>
<defs>
<linearGradient id="paint0_linear_967_12262" x1="6.26367" y1="16.3366" x2="33.6242" y2="46.6264" gradientUnits="userSpaceOnUse">
<stop stop-color="#244CB3" stop-opacity="0.34"/>
<stop offset="1" stop-color="#B4C2E5" stop-opacity="0.07"/>
</linearGradient>
</defs>
</svg>
