<svg width="38" height="37" viewBox="0 0 38 37" fill="none" xmlns="http://www.w3.org/2000/svg">
<path d="M4.91662 33H4.88486C5.04557 29.3048 6.09893 26.0453 7.88353 23.6732C9.80752 21.1158 12.6081 19.5455 16.2269 19.5455C23.9001 19.5455 30.8407 25.5376 31.4157 33H31.3754H31.3169H31.2586H31.2004H31.1423H31.0844H31.0266H30.969H30.9115H30.8542H30.7971H30.74H30.6832H30.6265H30.5699H30.5134H30.4572H30.401H30.3451H30.2892H30.2335H30.178H30.1226H30.0673H30.0122H29.9573H29.9025H29.8478H29.7933H29.7389H29.6847H29.6306H29.5766H29.5229H29.4692H29.4157H29.3624H29.3091H29.2561H29.2032H29.1504H29.0977H29.0453H28.9929H28.9407H28.8887H28.8367H28.785H28.7333H28.6819H28.6305H28.5793H28.5283H28.4774H28.4266H28.376H28.3255H28.2752H28.225H28.1749H28.125H28.0752H28.0256H27.9761H27.9268H27.8776H27.8285H27.7796H27.7308H27.6821H27.6336H27.5853H27.5371H27.489H27.4411H27.3933H27.3456H27.2981H27.2507H27.2035H27.1564H27.1094H27.0626H27.0159H26.9694H26.923H26.8767H26.8306H26.7846H26.7387H26.693H26.6475H26.602H26.5567H26.5116H26.4665H26.4217H26.3769H26.3323H26.2878H26.2435H26.1993H26.1553H26.1113H26.0675H26.0239H25.9804H25.937H25.8938H25.8506H25.8077H25.7648H25.7221H25.6796H25.6371H25.5949H25.5527H25.5107H25.4688H25.427H25.3854H25.3439H25.3026H25.2614H25.2203H25.1793H25.1385H25.0978H25.0573H25.0169H24.9766H24.9364H24.8964H24.8565H24.8168H24.7772H24.7377H24.6983H24.6591H24.62H24.5811H24.5423H24.5036H24.465H24.4266H24.3883H24.3501H24.3121H24.2742H24.2364H24.1988H24.1613H24.1239H24.0866H24.0495H24.0125H23.9757H23.9389H23.9023H23.8659H23.8295H23.7933H23.7572H23.7213H23.6855H23.6498H23.6142H23.5788H23.5435H23.5083H23.4732H23.4383H23.4035H23.3688H23.3343H23.2999H23.2656H23.2314H23.1974H23.1635H23.1297H23.0961H23.0626H23.0292H22.9959H22.9628H22.9298H22.8969H22.8641H22.8315H22.799H22.7666H22.7343H22.7022H22.6702H22.6383H22.6065H22.5749H22.5434H22.512H22.4807H22.4496H22.4186H22.3877H22.3569H22.3263H22.2958H22.2654H22.2351H22.205H22.175H22.1451H22.1153H22.0856H22.0561H22.0267H21.9974H21.9683H21.9392H21.9103H21.8815H21.8528H21.8243H21.7959H21.7675H21.7394H21.7113H21.6833H21.6555H21.6278H21.6002H21.5728H21.5454H21.5182H21.4911H21.4641H21.4373H21.4105H21.3839H21.3574H21.3311H21.3048H21.2787H21.2526H21.2267H21.2009H21.1753H21.1497H21.1243H21.099H21.0738H21.0487H21.0238H20.9989H20.9742H20.9496H20.9251H20.9008H20.8765H20.8524H20.8284H20.8045H20.7807H20.757H20.7335H20.7101H20.6868H20.6636H20.6405H20.6175H20.5947H20.5719H20.5493H20.5268H20.5044H20.4821H20.46H20.4379H20.416H20.3942H20.3725H20.3509H20.3294H20.3081H20.2869H20.2657H20.2447H20.2238H20.203H20.1824H20.1618H20.1413H20.121H20.1008H20.0807H20.0607H20.0408H20.021H20.0014H19.9818H19.9624H19.9431H19.9239H19.9048H19.8858H19.8669H19.8482H19.8295H19.811H19.7925H19.7742H19.756H19.7379H19.7199H19.702H19.6843H19.6666H19.6491H19.6316H19.6143H19.5971H19.58H19.563H19.5461H19.5293H19.5127H19.4961H19.4796H19.4633H19.4471H19.4309H19.4149H19.399H19.3832H19.3675H19.3519H19.3364H19.3211H19.3058H19.2906H19.2756H19.2606H19.2458H19.2311H19.2165H19.2019H19.1875H19.1732H19.159H19.1449H19.1309H19.1171H19.1033H19.0896H19.0761H19.0626H19.0492H19.036H19.0228H19.0098H18.9969H18.984H18.9713H18.9587H18.9462H18.9338H18.9215H18.9092H18.8971H18.8851H18.8732H18.8615H18.8498H18.8382H18.8267H18.8153H18.804H18.7929H18.7818H18.7708H18.76H18.7492H18.7385H18.728H18.7175H18.7071H18.6969H18.6867H18.6767H18.6667H18.6569H18.6471H18.6374H18.6279H18.6184H18.6091H18.5998H18.5907H18.5816H18.5727H18.5638H18.5551H18.5464H18.5379H18.5294H18.5211H18.5128H18.5046H18.4966H18.4886H18.4808H18.473H18.4653H18.4578H18.4503H18.4429H18.4356H18.4285H18.4214H18.4144H18.4075H18.4007H18.394H18.3874H18.3809H18.3745H18.3682H18.362H18.3559H18.3499H18.344H18.3381H18.3324H18.3268H18.3212H18.3158H18.3104H18.3052H18.3H18.295H18.29H18.2851H18.2803H18.2757H18.2711H18.2666H18.2622H18.2579H18.2536H18.2495H18.2455H18.2415H18.2377H18.234H18.2303H18.2267H18.2233H18.2199H18.2166H18.2134H18.2103H18.2073H18.2044H18.2015H18.1988H18.1962H18.1936H18.1911H18.1888H18.1865H18.1843H18.1822H18.1802H18.1783H18.1765H18.1747H18.1731H18.1715H18.1701H18.1687H18.1674H18.1662H18.1651H18.1641H18.1631H18.1623H18.1616H18.1609H18.1603H18.1598H18.1594H18.1591H18.1589H18.1588L18.1587 34L18.1587 33H18.1586H18.1584H18.1582H18.1579H18.1576H18.1572H18.1567H18.1561H18.1555H18.1548H18.1541H18.1532H18.1524H18.1514H18.1504H18.1493H18.1481H18.1469H18.1456H18.1442H18.1428H18.1413H18.1397H18.1381H18.1364H18.1346H18.1327H18.1308H18.1288H18.1267H18.1246H18.1224H18.1201H18.1177H18.1153H18.1128H18.1102H18.1076H18.1048H18.102H18.0992H18.0962H18.0932H18.0901H18.0869H18.0836H18.0803H18.0769H18.0734H18.0698H18.0662H18.0625H18.0587H18.0548H18.0509H18.0468H18.0427H18.0385H18.0343H18.0299H18.0255H18.021H18.0164H18.0117H18.007H18.0022H17.9972H17.9922H17.9872H17.982H17.9768H17.9714H17.966H17.9605H17.955H17.9493H17.9436H17.9377H17.9318H17.9258H17.9197H17.9136H17.9073H17.901H17.8946H17.888H17.8814H17.8748H17.868H17.8611H17.8542H17.8471H17.84H17.8328H17.8255H17.8181H17.8106H17.803H17.7954H17.7876H17.7798H17.7718H17.7638H17.7557H17.7475H17.7392H17.7308H17.7223H17.7137H17.705H17.6963H17.6874H17.6785H17.6694H17.6603H17.651H17.6417H17.6323H17.6228H17.6131H17.6034H17.5936H17.5837H17.5737H17.5636H17.5534H17.5431H17.5327H17.5222H17.5116H17.501H17.4902H17.4793H17.4683H17.4572H17.446H17.4348H17.4234H17.4119H17.4003H17.3886H17.3768H17.3649H17.3529H17.3409H17.3287H17.3164H17.304H17.2915H17.2788H17.2661H17.2533H17.2404H17.2274H17.2142H17.201H17.1877H17.1742H17.1607H17.147H17.1332H17.1194H17.1054H17.0913H17.0771H17.0628H17.0484H17.0339H17.0192H17.0045H16.9896H16.9747H16.9596H16.9445H16.9292H16.9138H16.8983H16.8826H16.8669H16.8511H16.8351H16.8191H16.8029H16.7866H16.7702H16.7537H16.7371H16.7203H16.7035H16.6865H16.6694H16.6522H16.6349H16.6175H16.5999H16.5823H16.5645H16.5466H16.5286H16.5104H16.4922H16.4738H16.4554H16.4368H16.418H16.3992H16.3803H16.3612H16.342H16.3227H16.3033H16.2837H16.264H16.2443H16.2243H16.2043H16.1842H16.1639H16.1435H16.123H16.1023H16.0816H16.0607H16.0397H16.0185H15.9973H15.9759H15.9544H15.9328H15.911H15.8891H15.8671H15.845H15.8227H15.8003H15.7778H15.7552H15.7324H15.7095H15.6865H15.6634H15.6401H15.6167H15.5932H15.5695H15.5457H15.5218H15.4978H15.4736H15.4493H15.4249H15.4003H15.3756H15.3508H15.3258H15.3007H15.2755H15.2501H15.2246H15.199H15.1733H15.1474H15.1213H15.0952H15.0689H15.0425H15.0159H14.9892H14.9624H14.9354H14.9083H14.8811H14.8537H14.8262H14.7986H14.7708H14.7429H14.7148H14.6866H14.6583H14.6298H14.6012H14.5725H14.5436H14.5146H14.4854H14.4561H14.4266H14.397H14.3673H14.3375H14.3074H14.2773H14.247H14.2166H14.186H14.1553H14.1244H14.0934H14.0623H14.031H13.9995H13.9679H13.9362H13.9044H13.8723H13.8402H13.8079H13.7754H13.7428H13.7101H13.6772H13.6442H13.611H13.5776H13.5442H13.5105H13.4768H13.4428H13.4088H13.3746H13.3402H13.3057H13.271H13.2362H13.2012H13.1661H13.1308H13.0954H13.0598H13.0241H12.9882H12.9522H12.916H12.8797H12.8432H12.8066H12.7698H12.7328H12.6957H12.6585H12.6211H12.5835H12.5458H12.5079H12.4699H12.4317H12.3934H12.3549H12.3162H12.2774H12.2384H12.1993H12.16H12.1206H12.081H12.0412H12.0013H11.9612H11.921H11.8806H11.8401H11.7994H11.7585H11.7174H11.6763H11.6349H11.5934H11.5517H11.5099H11.4679H11.4257H11.3834H11.3409H11.2982H11.2554H11.2124H11.1693H11.126H11.0825H11.0389H10.9951H10.9511H10.9069H10.8626H10.8182H10.7735H10.7287H10.6838H10.6386H10.5933H10.5479H10.5022H10.4564H10.4105H10.3643H10.318H10.2715H10.2249H10.1781H10.1311H10.0839H10.0366H9.98907H9.9414H9.89355H9.84553H9.79735H9.74899H9.70045H9.65175H9.60287H9.55381H9.50459H9.45519H9.40562H9.35587H9.30595H9.25585H9.20558H9.15513H9.1045H9.0537H9.00273H8.95158H8.90025H8.84874H8.79706H8.7452H8.69316H8.64094H8.58855H8.53597H8.48322H8.43029H8.37718H8.32389H8.27042H8.21677H8.16294H8.10893H8.05473H8.00036H7.94581H7.89107H7.83615H7.78105H7.72576H7.6703H7.61465H7.55881H7.5028H7.4466H7.39021H7.33364H7.27689H7.21995H7.16283H7.10552H7.04802H6.99034H6.93247H6.87442H6.81618H6.75775H6.69914H6.64033H6.58134H6.52216H6.4628H6.40324H6.3435H6.28356H6.22344H6.16313H6.10262H6.04193H5.98105H5.91997H5.85871H5.79725H5.7356H5.67376H5.61173H5.5495H5.48709H5.42448H5.36167H5.29868H5.23549H5.1721H5.10852H5.04475H4.98078H4.91662Z" fill="white" stroke="#320A8D" stroke-width="2"/>
<path d="M1.05334 33H1.03114C1.50511 25.4193 7.32805 19.5455 14.2955 19.5455C21.2629 19.5455 27.0858 25.4193 27.5598 33H27.5121H27.4536H27.3953H27.3371H27.279H27.2211H27.1633H27.1057H27.0483H26.991H26.9338H26.8768H26.8199H26.7632H26.7066H26.6502H26.5939H26.5378H26.4818H26.4259H26.3702H26.3147H26.2593H26.2041H26.1489H26.094H26.0392H25.9845H25.93H25.8756H25.8214H25.7673H25.7134H25.6596H25.6059H25.5524H25.4991H25.4459H25.3928H25.3399H25.2871H25.2345H25.182H25.1296H25.0774H25.0254H24.9735H24.9217H24.8701H24.8186H24.7672H24.7161H24.665H24.6141H24.5633H24.5127H24.4622H24.4119H24.3617H24.3116H24.2617H24.2119H24.1623H24.1128H24.0635H24.0143H23.9652H23.9163H23.8675H23.8189H23.7704H23.722H23.6738H23.6257H23.5778H23.53H23.4823H23.4348H23.3874H23.3402H23.2931H23.2461H23.1993H23.1526H23.1061H23.0597H23.0134H22.9673H22.9213H22.8755H22.8298H22.7842H22.7387H22.6934H22.6483H22.6033H22.5584H22.5136H22.469H22.4246H22.3802H22.336H22.292H22.248H22.2043H22.1606H22.1171H22.0737H22.0305H21.9874H21.9444H21.9016H21.8589H21.8163H21.7739H21.7316H21.6894H21.6474H21.6055H21.5638H21.5221H21.4806H21.4393H21.3981H21.357H21.316H21.2752H21.2346H21.194H21.1536H21.1133H21.0732H21.0331H20.9933H20.9535H20.9139H20.8744H20.8351H20.7958H20.7568H20.7178H20.679H20.6403H20.6017H20.5633H20.525H20.4868H20.4488H20.4109H20.3731H20.3355H20.298H20.2606H20.2234H20.1862H20.1492H20.1124H20.0757H20.0391H20.0026H19.9662H19.93H19.894H19.858H19.8222H19.7865H19.7509H19.7155H19.6802H19.645H19.6099H19.575H19.5402H19.5056H19.471H19.4366H19.4023H19.3682H19.3341H19.3002H19.2665H19.2328H19.1993H19.1659H19.1326H19.0995H19.0665H19.0336H19.0008H18.9682H18.9357H18.9033H18.871H18.8389H18.8069H18.775H18.7432H18.7116H18.6801H18.6487H18.6175H18.5863H18.5553H18.5244H18.4937H18.463H18.4325H18.4021H18.3718H18.3417H18.3117H18.2818H18.252H18.2224H18.1928H18.1634H18.1341H18.105H18.0759H18.047H18.0182H17.9895H17.961H17.9326H17.9043H17.8761H17.848H17.8201H17.7922H17.7645H17.737H17.7095H17.6822H17.6549H17.6278H17.6009H17.574H17.5473H17.5206H17.4942H17.4678H17.4415H17.4154H17.3893H17.3634H17.3377H17.312H17.2865H17.261H17.2357H17.2105H17.1855H17.1605H17.1357H17.1109H17.0863H17.0619H17.0375H17.0132H16.9891H16.9651H16.9412H16.9174H16.8938H16.8702H16.8468H16.8235H16.8003H16.7772H16.7542H16.7314H16.7086H16.686H16.6635H16.6411H16.6189H16.5967H16.5747H16.5527H16.5309H16.5092H16.4876H16.4662H16.4448H16.4236H16.4024H16.3814H16.3605H16.3397H16.3191H16.2985H16.2781H16.2577H16.2375H16.2174H16.1974H16.1775H16.1578H16.1381H16.1186H16.0991H16.0798H16.0606H16.0415H16.0225H16.0036H15.9849H15.9662H15.9477H15.9293H15.9109H15.8927H15.8746H15.8566H15.8388H15.821H15.8033H15.7858H15.7684H15.751H15.7338H15.7167H15.6997H15.6828H15.666H15.6494H15.6328H15.6164H15.6H15.5838H15.5677H15.5516H15.5357H15.5199H15.5042H15.4886H15.4732H15.4578H15.4425H15.4274H15.4123H15.3974H15.3825H15.3678H15.3532H15.3387H15.3242H15.3099H15.2957H15.2816H15.2677H15.2538H15.24H15.2263H15.2128H15.1993H15.186H15.1727H15.1596H15.1465H15.1336H15.1208H15.108H15.0954H15.0829H15.0705H15.0582H15.046H15.0339H15.0219H15.01H14.9982H14.9865H14.9749H14.9634H14.952H14.9408H14.9296H14.9185H14.9075H14.8967H14.8859H14.8752H14.8647H14.8542H14.8439H14.8336H14.8234H14.8134H14.8034H14.7936H14.7838H14.7742H14.7646H14.7552H14.7458H14.7366H14.7274H14.7184H14.7094H14.7005H14.6918H14.6831H14.6746H14.6661H14.6578H14.6495H14.6414H14.6333H14.6253H14.6175H14.6097H14.602H14.5945H14.587H14.5796H14.5724H14.5652H14.5581H14.5511H14.5442H14.5374H14.5308H14.5242H14.5177H14.5113H14.5049H14.4987H14.4926H14.4866H14.4807H14.4749H14.4691H14.4635H14.458H14.4525H14.4472H14.4419H14.4368H14.4317H14.4267H14.4218H14.4171H14.4124H14.4078H14.4033H14.3989H14.3946H14.3904H14.3862H14.3822H14.3783H14.3744H14.3707H14.367H14.3634H14.36H14.3566H14.3533H14.3501H14.347H14.344H14.3411H14.3383H14.3355H14.3329H14.3303H14.3279H14.3255H14.3232H14.321H14.3189H14.3169H14.315H14.3132H14.3114H14.3098H14.3082H14.3068H14.3054H14.3041H14.3029H14.3018H14.3008H14.2999H14.299H14.2983H14.2976H14.297H14.2966H14.2962H14.2959H14.2956H14.2955L14.2955 34L14.2954 33H14.2953H14.2952H14.2949H14.2947H14.2943H14.2939H14.2934H14.2928H14.2922H14.2915H14.2908H14.29H14.2891H14.2881H14.2871H14.286H14.2849H14.2836H14.2823H14.281H14.2795H14.278H14.2765H14.2748H14.2731H14.2713H14.2695H14.2675H14.2655H14.2635H14.2613H14.2591H14.2568H14.2545H14.252H14.2495H14.2469H14.2443H14.2416H14.2388H14.2359H14.2329H14.2299H14.2268H14.2236H14.2204H14.217H14.2136H14.2101H14.2066H14.2029H14.1992H14.1954H14.1915H14.1876H14.1836H14.1795H14.1753H14.171H14.1667H14.1622H14.1577H14.1531H14.1485H14.1437H14.1389H14.134H14.129H14.1239H14.1187H14.1135H14.1082H14.1028H14.0973H14.0917H14.086H14.0803H14.0745H14.0685H14.0625H14.0565H14.0503H14.044H14.0377H14.0313H14.0248H14.0182H14.0115H14.0047H13.9978H13.9909H13.9838H13.9767H13.9695H13.9622H13.9548H13.9473H13.9397H13.9321H13.9243H13.9165H13.9085H13.9005H13.8924H13.8842H13.8759H13.8675H13.859H13.8504H13.8418H13.833H13.8241H13.8152H13.8061H13.797H13.7877H13.7784H13.769H13.7595H13.7499H13.7401H13.7303H13.7204H13.7104H13.7003H13.6901H13.6798H13.6694H13.659H13.6484H13.6377H13.6269H13.616H13.605H13.5939H13.5828H13.5715H13.5601H13.5486H13.537H13.5253H13.5135H13.5017H13.4897H13.4776H13.4654H13.4531H13.4407H13.4282H13.4156H13.4028H13.39H13.3771H13.3641H13.351H13.3377H13.3244H13.3109H13.2974H13.2837H13.2699H13.2561H13.2421H13.228H13.2138H13.1995H13.1851H13.1706H13.1559H13.1412H13.1264H13.1114H13.0963H13.0812H13.0659H13.0505H13.035H13.0194H13.0036H12.9878H12.9718H12.9558H12.9396H12.9233H12.9069H12.8904H12.8738H12.857H12.8402H12.8232H12.8061H12.7889H12.7716H12.7542H12.7366H12.719H12.7012H12.6833H12.6653H12.6472H12.6289H12.6106H12.5921H12.5735H12.5548H12.5359H12.517H12.4979H12.4787H12.4594H12.44H12.4204H12.4008H12.381H12.3611H12.341H12.3209H12.3006H12.2802H12.2597H12.239H12.2183H12.1974H12.1764H12.1553H12.134H12.1126H12.0911H12.0695H12.0477H12.0258H12.0038H11.9817H11.9594H11.9371H11.9146H11.8919H11.8692H11.8463H11.8232H11.8001H11.7768H11.7534H11.7299H11.7062H11.6825H11.6585H11.6345H11.6103H11.586H11.5616H11.537H11.5123H11.4875H11.4625H11.4374H11.4122H11.3868H11.3614H11.3357H11.31H11.2841H11.2581H11.2319H11.2056H11.1792H11.1526H11.1259H11.0991H11.0722H11.0451H11.0178H10.9904H10.9629H10.9353H10.9075H10.8796H10.8515H10.8233H10.795H10.7665H10.7379H10.7092H10.6803H10.6513H10.6221H10.5928H10.5634H10.5338H10.504H10.4742H10.4442H10.414H10.3837H10.3533H10.3227H10.292H10.2611H10.2301H10.199H10.1677H10.1362H10.1047H10.0729H10.0411H10.0091H9.9769H9.94459H9.91214H9.87954H9.8468H9.81391H9.78088H9.74769H9.71436H9.68088H9.64726H9.61349H9.57956H9.54549H9.51127H9.4769H9.44238H9.40772H9.3729H9.33793H9.30281H9.26754H9.23212H9.19655H9.16083H9.12495H9.08892H9.05274H9.01641H8.97993H8.94329H8.9065H8.86955H8.83245H8.7952H8.75779H8.72023H8.68251H8.64464H8.60661H8.56842H8.53008H8.49159H8.45293H8.41412H8.37516H8.33603H8.29675H8.25731H8.21771H8.17795H8.13804H8.09797H8.05773H8.01734H7.97679H7.93607H7.8952H7.85417H7.81297H7.77162H7.7301H7.68842H7.64658H7.60458H7.56241H7.52008H7.47759H7.43494H7.39212H7.34914H7.306H7.26269H7.21921H7.17557H7.13177H7.0878H7.04367H6.99936H6.9549H6.91027H6.86547H6.8205H6.77536H6.73006H6.68459H6.63896H6.59315H6.54718H6.50104H6.45472H6.40824H6.36159H6.31477H6.26778H6.22062H6.17329H6.12579H6.07811H6.03027H5.98225H5.93406H5.8857H5.83717H5.78847H5.73959H5.69053H5.64131H5.59191H5.54234H5.49259H5.44266H5.39257H5.34229H5.29185H5.24122H5.19042H5.13945H5.0883H5.03697H4.98546H4.93378H4.88192H4.82988H4.77766H4.72527H4.67269H4.61994H4.56701H4.5139H4.46061H4.40714H4.35349H4.29966H4.24565H4.19145H4.13708H4.08252H4.02779H3.97287H3.91777H3.86248H3.80702H3.75137H3.69553H3.63952H3.58332H3.52693H3.47036H3.41361H3.35667H3.29955H3.24224H3.18474H3.12706H3.06919H3.01114H2.9529H2.89447H2.83585H2.77705H2.71806H2.65888H2.59952H2.53996H2.48022H2.42028H2.36016H2.29985H2.23934H2.17865H2.11777H2.05669H1.99543H1.93397H1.87232H1.81048H1.74845H1.68622H1.62381H1.5612H1.49839H1.4354H1.37221H1.30882H1.24524H1.18147H1.1175H1.05334Z" fill="white" stroke="#320A8D" stroke-width="2"/>
<circle cx="15.8406" cy="6.9304" r="5.9304" fill="white" stroke="#320A8D" stroke-width="2"/>
<path d="M13 10C13 6.13401 16.134 3 20 3C23.866 3 27 6.13401 27 10C27 13.866 23.866 17 20 17C16.134 17 13 13.866 13 10Z" fill="url(#paint0_linear_967_12490)"/>
<path d="M6 37C6 27.6112 13.1634 20 22 20C30.8366 20 38 27.6112 38 37C38 37 30.8366 37 22 37C13.1634 37 8.11864 37 6 37Z" fill="url(#paint1_linear_967_12490)"/>
<defs>
<linearGradient id="paint0_linear_967_12490" x1="13" y1="5.73913" x2="23.5" y2="17" gradientUnits="userSpaceOnUse">
<stop stop-color="#244CB3" stop-opacity="0.34"/>
<stop offset="1" stop-color="#B4C2E5" stop-opacity="0.07"/>
</linearGradient>
<linearGradient id="paint1_linear_967_12490" x1="6" y1="26.6522" x2="31.5613" y2="52.4532" gradientUnits="userSpaceOnUse">
<stop stop-color="#244CB3" stop-opacity="0.34"/>
<stop offset="1" stop-color="#B4C2E5" stop-opacity="0.07"/>
</linearGradient>
</defs>
</svg>
