<svg width="33" height="34" viewBox="0 0 33 34" fill="none" xmlns="http://www.w3.org/2000/svg">
<path d="M4.91711 33H4.88535C5.04606 29.3048 6.09942 26.0453 7.88401 23.6732C9.80801 21.1157 12.6086 19.5455 16.2274 19.5455C23.9006 19.5455 30.8412 25.5375 31.4162 33H31.3759H31.3174H31.259H31.2008H31.1428H31.0849H31.0271H30.9695H30.912H30.8547H30.7976H30.7405H30.6837H30.6269H30.5704H30.5139H30.4577H30.4015H30.3455H30.2897H30.234H30.1785H30.1231H30.0678H30.0127H29.9578H29.9029H29.8483H29.7938H29.7394H29.6852H29.6311H29.5771H29.5233H29.4697H29.4162H29.3628H29.3096H29.2566H29.2036H29.1509H29.0982H29.0457H28.9934H28.9412H28.8891H28.8372H28.7855H28.7338H28.6824H28.631H28.5798H28.5288H28.4779H28.4271H28.3765H28.326H28.2756H28.2254H28.1754H28.1255H28.0757H28.0261H27.9766H27.9272H27.878H27.829H27.7801H27.7313H27.6826H27.6341H27.5858H27.5376H27.4895H27.4415H27.3937H27.3461H27.2986H27.2512H27.204H27.1569H27.1099H27.0631H27.0164H26.9699H26.9235H26.8772H26.8311H26.7851H26.7392H26.6935H26.6479H26.6025H26.5572H26.5121H26.467H26.4222H26.3774H26.3328H26.2883H26.244H26.1998H26.1557H26.1118H26.068H26.0244H25.9809H25.9375H25.8942H25.8511H25.8082H25.7653H25.7226H25.6801H25.6376H25.5953H25.5532H25.5112H25.4693H25.4275H25.3859H25.3444H25.3031H25.2618H25.2208H25.1798H25.139H25.0983H25.0578H25.0174H24.9771H24.9369H24.8969H24.857H24.8173H24.7777H24.7382H24.6988H24.6596H24.6205H24.5816H24.5427H24.5041H24.4655H24.4271H24.3888H24.3506H24.3126H24.2747H24.2369H24.1993H24.1617H24.1244H24.0871H24.05H24.013H23.9762H23.9394H23.9028H23.8664H23.83H23.7938H23.7577H23.7218H23.6859H23.6503H23.6147H23.5793H23.5439H23.5088H23.4737H23.4388H23.404H23.3693H23.3348H23.3004H23.2661H23.2319H23.1979H23.164H23.1302H23.0966H23.0631H23.0297H22.9964H22.9633H22.9302H22.8974H22.8646H22.832H22.7994H22.7671H22.7348H22.7027H22.6707H22.6388H22.607H22.5754H22.5439H22.5125H22.4812H22.4501H22.4191H22.3882H22.3574H22.3268H22.2963H22.2659H22.2356H22.2055H22.1754H22.1455H22.1158H22.0861H22.0566H22.0272H21.9979H21.9687H21.9397H21.9108H21.882H21.8533H21.8248H21.7963H21.768H21.7398H21.7118H21.6838H21.656H21.6283H21.6007H21.5733H21.5459H21.5187H21.4916H21.4646H21.4378H21.411H21.3844H21.3579H21.3315H21.3053H21.2791H21.2531H21.2272H21.2014H21.1758H21.1502H21.1248H21.0995H21.0743H21.0492H21.0243H20.9994H20.9747H20.9501H20.9256H20.9013H20.877H20.8529H20.8289H20.805H20.7812H20.7575H20.734H20.7106H20.6872H20.664H20.641H20.618H20.5951H20.5724H20.5498H20.5273H20.5049H20.4826H20.4605H20.4384H20.4165H20.3947H20.373H20.3514H20.3299H20.3086H20.2873H20.2662H20.2452H20.2243H20.2035H20.1828H20.1623H20.1418H20.1215H20.1013H20.0812H20.0612H20.0413H20.0215H20.0019H19.9823H19.9629H19.9436H19.9244H19.9053H19.8863H19.8674H19.8486H19.83H19.8115H19.793H19.7747H19.7565H19.7384H19.7204H19.7025H19.6848H19.6671H19.6496H19.6321H19.6148H19.5976H19.5805H19.5635H19.5466H19.5298H19.5131H19.4966H19.4801H19.4638H19.4475H19.4314H19.4154H19.3995H19.3837H19.368H19.3524H19.3369H19.3216H19.3063H19.2911H19.2761H19.2611H19.2463H19.2316H19.2169H19.2024H19.188H19.1737H19.1595H19.1454H19.1314H19.1175H19.1038H19.0901H19.0765H19.0631H19.0497H19.0365H19.0233H19.0103H18.9974H18.9845H18.9718H18.9592H18.9467H18.9342H18.9219H18.9097H18.8976H18.8856H18.8737H18.8619H18.8503H18.8387H18.8272H18.8158H18.8045H18.7934H18.7823H18.7713H18.7604H18.7497H18.739H18.7284H18.718H18.7076H18.6974H18.6872H18.6772H18.6672H18.6573H18.6476H18.6379H18.6284H18.6189H18.6096H18.6003H18.5912H18.5821H18.5732H18.5643H18.5556H18.5469H18.5384H18.5299H18.5215H18.5133H18.5051H18.4971H18.4891H18.4812H18.4735H18.4658H18.4582H18.4508H18.4434H18.4361H18.4289H18.4219H18.4149H18.408H18.4012H18.3945H18.3879H18.3814H18.375H18.3687H18.3625H18.3564H18.3504H18.3445H18.3386H18.3329H18.3273H18.3217H18.3163H18.3109H18.3057H18.3005H18.2955H18.2905H18.2856H18.2808H18.2761H18.2716H18.2671H18.2627H18.2583H18.2541H18.25H18.246H18.242H18.2382H18.2344H18.2308H18.2272H18.2237H18.2204H18.2171H18.2139H18.2108H18.2078H18.2049H18.202H18.1993H18.1966H18.1941H18.1916H18.1893H18.187H18.1848H18.1827H18.1807H18.1788H18.1769H18.1752H18.1736H18.172H18.1705H18.1692H18.1679H18.1667H18.1656H18.1646H18.1636H18.1628H18.162H18.1614H18.1608H18.1603H18.1599H18.1596H18.1594H18.1593L18.1592 34L18.1592 33H18.1591H18.1589H18.1587H18.1584H18.1581H18.1576H18.1572H18.1566H18.156H18.1553H18.1546H18.1537H18.1528H18.1519H18.1509H18.1498H18.1486H18.1474H18.1461H18.1447H18.1433H18.1418H18.1402H18.1386H18.1369H18.1351H18.1332H18.1313H18.1293H18.1272H18.1251H18.1229H18.1206H18.1182H18.1158H18.1133H18.1107H18.1081H18.1053H18.1025H18.0996H18.0967H18.0937H18.0906H18.0874H18.0841H18.0808H18.0774H18.0739H18.0703H18.0667H18.063H18.0592H18.0553H18.0514H18.0473H18.0432H18.039H18.0348H18.0304H18.026H18.0215H18.0169H18.0122H18.0075H18.0026H17.9977H17.9927H17.9877H17.9825H17.9773H17.9719H17.9665H17.961H17.9555H17.9498H17.9441H17.9382H17.9323H17.9263H17.9202H17.9141H17.9078H17.9015H17.895H17.8885H17.8819H17.8752H17.8685H17.8616H17.8547H17.8476H17.8405H17.8333H17.826H17.8186H17.8111H17.8035H17.7958H17.7881H17.7802H17.7723H17.7643H17.7562H17.748H17.7397H17.7313H17.7228H17.7142H17.7055H17.6968H17.6879H17.6789H17.6699H17.6608H17.6515H17.6422H17.6328H17.6232H17.6136H17.6039H17.5941H17.5842H17.5742H17.5641H17.5539H17.5436H17.5332H17.5227H17.5121H17.5014H17.4907H17.4798H17.4688H17.4577H17.4465H17.4352H17.4239H17.4124H17.4008H17.3891H17.3773H17.3654H17.3534H17.3413H17.3291H17.3168H17.3044H17.2919H17.2793H17.2666H17.2538H17.2409H17.2279H17.2147H17.2015H17.1881H17.1747H17.1611H17.1475H17.1337H17.1198H17.1059H17.0918H17.0776H17.0633H17.0489H17.0343H17.0197H17.005H16.9901H16.9752H16.9601H16.9449H16.9297H16.9143H16.8988H16.8831H16.8674H16.8516H16.8356H16.8196H16.8034H16.7871H16.7707H16.7542H16.7375H16.7208H16.7039H16.687H16.6699H16.6527H16.6354H16.6179H16.6004H16.5827H16.565H16.5471H16.5291H16.5109H16.4927H16.4743H16.4558H16.4373H16.4185H16.3997H16.3808H16.3617H16.3425H16.3232H16.3038H16.2842H16.2645H16.2447H16.2248H16.2048H16.1846H16.1644H16.144H16.1235H16.1028H16.0821H16.0612H16.0402H16.019H15.9978H15.9764H15.9549H15.9332H15.9115H15.8896H15.8676H15.8455H15.8232H15.8008H15.7783H15.7557H15.7329H15.71H15.687H15.6639H15.6406H15.6172H15.5937H15.57H15.5462H15.5223H15.4983H15.4741H15.4498H15.4253H15.4008H15.3761H15.3512H15.3263H15.3012H15.276H15.2506H15.2251H15.1995H15.1737H15.1479H15.1218H15.0957H15.0694H15.043H15.0164H14.9897H14.9629H14.9359H14.9088H14.8816H14.8542H14.8267H14.7991H14.7713H14.7434H14.7153H14.6871H14.6588H14.6303H14.6017H14.573H14.5441H14.515H14.4859H14.4566H14.4271H14.3975H14.3678H14.3379H14.3079H14.2778H14.2475H14.2171H14.1865H14.1558H14.1249H14.0939H14.0627H14.0314H14H13.9684H13.9367H13.9048H13.8728H13.8407H13.8084H13.7759H13.7433H13.7106H13.6777H13.6446H13.6115H13.5781H13.5447H13.511H13.4773H13.4433H13.4093H13.375H13.3407H13.3062H13.2715H13.2367H13.2017H13.1666H13.1313H13.0959H13.0603H13.0246H12.9887H12.9527H12.9165H12.8802H12.8437H12.8071H12.7703H12.7333H12.6962H12.659H12.6216H12.584H12.5463H12.5084H12.4704H12.4322H12.3939H12.3554H12.3167H12.2779H12.2389H12.1998H12.1605H12.1211H12.0815H12.0417H12.0018H11.9617H11.9215H11.8811H11.8406H11.7998H11.759H11.7179H11.6767H11.6354H11.5939H11.5522H11.5103H11.4683H11.4262H11.3839H11.3414H11.2987H11.2559H11.2129H11.1698H11.1265H11.083H11.0393H10.9955H10.9516H10.9074H10.8631H10.8187H10.774H10.7292H10.6843H10.6391H10.5938H10.5484H10.5027H10.4569H10.4109H10.3648H10.3185H10.272H10.2254H10.1785H10.1316H10.0844H10.0371H9.98956H9.94188H9.89404H9.84602H9.79783H9.74947H9.70094H9.65223H9.60336H9.5543H9.50508H9.45568H9.4061H9.35636H9.30643H9.25634H9.20606H9.15562H9.10499H9.05419H9.00322H8.95206H8.90074H8.84923H8.79755H8.74569H8.69365H8.64143H8.58904H8.53646H8.48371H8.43078H8.37767H8.32438H8.27091H8.21726H8.16343H8.10941H8.05522H8.00085H7.94629H7.89156H7.83664H7.78154H7.72625H7.67079H7.61514H7.5593H7.50329H7.44709H7.3907H7.33413H7.27738H7.22044H7.16331H7.10601H7.04851H6.99083H6.93296H6.87491H6.81667H6.75824H6.69962H6.64082H6.58183H6.52265H6.46328H6.40373H6.34398H6.28405H6.22393H6.16361H6.10311H6.04242H5.98154H5.92046H5.8592H5.79774H5.73609H5.67425H5.61222H5.54999H5.48758H5.42497H5.36216H5.29917H5.23598H5.17259H5.10901H5.04524H4.98127H4.91711Z" fill="white" stroke="#320A8D" stroke-width="2"/>
<path d="M1.05334 33H1.03114C1.50511 25.4193 7.32805 19.5455 14.2955 19.5455C21.2629 19.5455 27.0858 25.4193 27.5598 33H27.5121H27.4536H27.3953H27.3371H27.279H27.2211H27.1633H27.1057H27.0483H26.991H26.9338H26.8768H26.8199H26.7632H26.7066H26.6502H26.5939H26.5378H26.4818H26.4259H26.3702H26.3147H26.2593H26.2041H26.1489H26.094H26.0392H25.9845H25.93H25.8756H25.8214H25.7673H25.7134H25.6596H25.6059H25.5524H25.4991H25.4459H25.3928H25.3399H25.2871H25.2345H25.182H25.1296H25.0774H25.0254H24.9735H24.9217H24.8701H24.8186H24.7672H24.7161H24.665H24.6141H24.5633H24.5127H24.4622H24.4119H24.3617H24.3116H24.2617H24.2119H24.1623H24.1128H24.0635H24.0143H23.9652H23.9163H23.8675H23.8189H23.7704H23.722H23.6738H23.6257H23.5778H23.53H23.4823H23.4348H23.3874H23.3402H23.2931H23.2461H23.1993H23.1526H23.1061H23.0597H23.0134H22.9673H22.9213H22.8755H22.8298H22.7842H22.7387H22.6934H22.6483H22.6033H22.5584H22.5136H22.469H22.4246H22.3802H22.336H22.292H22.248H22.2043H22.1606H22.1171H22.0737H22.0305H21.9874H21.9444H21.9016H21.8589H21.8163H21.7739H21.7316H21.6894H21.6474H21.6055H21.5638H21.5221H21.4806H21.4393H21.3981H21.357H21.316H21.2752H21.2346H21.194H21.1536H21.1133H21.0732H21.0331H20.9933H20.9535H20.9139H20.8744H20.8351H20.7958H20.7568H20.7178H20.679H20.6403H20.6017H20.5633H20.525H20.4868H20.4488H20.4109H20.3731H20.3355H20.298H20.2606H20.2234H20.1862H20.1492H20.1124H20.0757H20.0391H20.0026H19.9662H19.93H19.894H19.858H19.8222H19.7865H19.7509H19.7155H19.6802H19.645H19.6099H19.575H19.5402H19.5056H19.471H19.4366H19.4023H19.3682H19.3341H19.3002H19.2665H19.2328H19.1993H19.1659H19.1326H19.0995H19.0665H19.0336H19.0008H18.9682H18.9357H18.9033H18.871H18.8389H18.8069H18.775H18.7432H18.7116H18.6801H18.6487H18.6175H18.5863H18.5553H18.5244H18.4937H18.463H18.4325H18.4021H18.3718H18.3417H18.3117H18.2818H18.252H18.2224H18.1928H18.1634H18.1341H18.105H18.0759H18.047H18.0182H17.9895H17.961H17.9326H17.9043H17.8761H17.848H17.8201H17.7922H17.7645H17.737H17.7095H17.6822H17.6549H17.6278H17.6009H17.574H17.5473H17.5206H17.4942H17.4678H17.4415H17.4154H17.3893H17.3634H17.3377H17.312H17.2865H17.261H17.2357H17.2105H17.1855H17.1605H17.1357H17.1109H17.0863H17.0619H17.0375H17.0132H16.9891H16.9651H16.9412H16.9174H16.8938H16.8702H16.8468H16.8235H16.8003H16.7772H16.7542H16.7314H16.7086H16.686H16.6635H16.6411H16.6189H16.5967H16.5747H16.5527H16.5309H16.5092H16.4876H16.4662H16.4448H16.4236H16.4024H16.3814H16.3605H16.3397H16.3191H16.2985H16.2781H16.2577H16.2375H16.2174H16.1974H16.1775H16.1578H16.1381H16.1186H16.0991H16.0798H16.0606H16.0415H16.0225H16.0036H15.9849H15.9662H15.9477H15.9293H15.9109H15.8927H15.8746H15.8566H15.8388H15.821H15.8033H15.7858H15.7684H15.751H15.7338H15.7167H15.6997H15.6828H15.666H15.6494H15.6328H15.6164H15.6H15.5838H15.5677H15.5516H15.5357H15.5199H15.5042H15.4886H15.4732H15.4578H15.4425H15.4274H15.4123H15.3974H15.3825H15.3678H15.3532H15.3387H15.3242H15.3099H15.2957H15.2816H15.2677H15.2538H15.24H15.2263H15.2128H15.1993H15.186H15.1727H15.1596H15.1465H15.1336H15.1208H15.108H15.0954H15.0829H15.0705H15.0582H15.046H15.0339H15.0219H15.01H14.9982H14.9865H14.9749H14.9634H14.952H14.9408H14.9296H14.9185H14.9075H14.8967H14.8859H14.8752H14.8647H14.8542H14.8439H14.8336H14.8234H14.8134H14.8034H14.7936H14.7838H14.7742H14.7646H14.7552H14.7458H14.7366H14.7274H14.7184H14.7094H14.7005H14.6918H14.6831H14.6746H14.6661H14.6578H14.6495H14.6414H14.6333H14.6253H14.6175H14.6097H14.602H14.5945H14.587H14.5796H14.5724H14.5652H14.5581H14.5511H14.5442H14.5374H14.5308H14.5242H14.5177H14.5113H14.5049H14.4987H14.4926H14.4866H14.4807H14.4749H14.4691H14.4635H14.458H14.4525H14.4472H14.4419H14.4368H14.4317H14.4267H14.4218H14.4171H14.4124H14.4078H14.4033H14.3989H14.3946H14.3904H14.3862H14.3822H14.3783H14.3744H14.3707H14.367H14.3634H14.36H14.3566H14.3533H14.3501H14.347H14.344H14.3411H14.3383H14.3355H14.3329H14.3303H14.3279H14.3255H14.3232H14.321H14.3189H14.3169H14.315H14.3132H14.3114H14.3098H14.3082H14.3068H14.3054H14.3041H14.3029H14.3018H14.3008H14.2999H14.299H14.2983H14.2976H14.297H14.2966H14.2962H14.2959H14.2956H14.2955L14.2955 34L14.2954 33H14.2953H14.2952H14.2949H14.2947H14.2943H14.2939H14.2934H14.2928H14.2922H14.2915H14.2908H14.29H14.2891H14.2881H14.2871H14.286H14.2849H14.2836H14.2823H14.281H14.2795H14.278H14.2765H14.2748H14.2731H14.2713H14.2695H14.2675H14.2655H14.2635H14.2613H14.2591H14.2568H14.2545H14.252H14.2495H14.2469H14.2443H14.2416H14.2388H14.2359H14.2329H14.2299H14.2268H14.2236H14.2204H14.217H14.2136H14.2101H14.2066H14.2029H14.1992H14.1954H14.1915H14.1876H14.1836H14.1795H14.1753H14.171H14.1667H14.1622H14.1577H14.1531H14.1485H14.1437H14.1389H14.134H14.129H14.1239H14.1187H14.1135H14.1082H14.1028H14.0973H14.0917H14.086H14.0803H14.0745H14.0685H14.0625H14.0565H14.0503H14.044H14.0377H14.0313H14.0248H14.0182H14.0115H14.0047H13.9978H13.9909H13.9838H13.9767H13.9695H13.9622H13.9548H13.9473H13.9397H13.9321H13.9243H13.9165H13.9085H13.9005H13.8924H13.8842H13.8759H13.8675H13.859H13.8504H13.8418H13.833H13.8241H13.8152H13.8061H13.797H13.7877H13.7784H13.769H13.7595H13.7499H13.7401H13.7303H13.7204H13.7104H13.7003H13.6901H13.6798H13.6694H13.659H13.6484H13.6377H13.6269H13.616H13.605H13.5939H13.5828H13.5715H13.5601H13.5486H13.537H13.5253H13.5135H13.5017H13.4897H13.4776H13.4654H13.4531H13.4407H13.4282H13.4156H13.4028H13.39H13.3771H13.3641H13.351H13.3377H13.3244H13.3109H13.2974H13.2837H13.2699H13.2561H13.2421H13.228H13.2138H13.1995H13.1851H13.1706H13.1559H13.1412H13.1264H13.1114H13.0963H13.0812H13.0659H13.0505H13.035H13.0194H13.0036H12.9878H12.9718H12.9558H12.9396H12.9233H12.9069H12.8904H12.8738H12.857H12.8402H12.8232H12.8061H12.7889H12.7716H12.7542H12.7366H12.719H12.7012H12.6833H12.6653H12.6472H12.6289H12.6106H12.5921H12.5735H12.5548H12.5359H12.517H12.4979H12.4787H12.4594H12.44H12.4204H12.4008H12.381H12.3611H12.341H12.3209H12.3006H12.2802H12.2597H12.239H12.2183H12.1974H12.1764H12.1553H12.134H12.1126H12.0911H12.0695H12.0477H12.0258H12.0038H11.9817H11.9594H11.9371H11.9146H11.8919H11.8692H11.8463H11.8232H11.8001H11.7768H11.7534H11.7299H11.7062H11.6825H11.6585H11.6345H11.6103H11.586H11.5616H11.537H11.5123H11.4875H11.4625H11.4374H11.4122H11.3868H11.3614H11.3357H11.31H11.2841H11.2581H11.2319H11.2056H11.1792H11.1526H11.1259H11.0991H11.0722H11.0451H11.0178H10.9904H10.9629H10.9353H10.9075H10.8796H10.8515H10.8233H10.795H10.7665H10.7379H10.7092H10.6803H10.6513H10.6221H10.5928H10.5634H10.5338H10.504H10.4742H10.4442H10.414H10.3837H10.3533H10.3227H10.292H10.2611H10.2301H10.199H10.1677H10.1362H10.1047H10.0729H10.0411H10.0091H9.9769H9.94459H9.91214H9.87954H9.8468H9.81391H9.78088H9.74769H9.71436H9.68088H9.64726H9.61349H9.57956H9.54549H9.51127H9.4769H9.44238H9.40772H9.3729H9.33793H9.30281H9.26754H9.23212H9.19655H9.16083H9.12495H9.08892H9.05274H9.01641H8.97993H8.94329H8.9065H8.86955H8.83245H8.7952H8.75779H8.72023H8.68251H8.64464H8.60661H8.56842H8.53008H8.49159H8.45293H8.41412H8.37516H8.33603H8.29675H8.25731H8.21771H8.17795H8.13804H8.09797H8.05773H8.01734H7.97679H7.93607H7.8952H7.85417H7.81297H7.77162H7.7301H7.68842H7.64658H7.60458H7.56241H7.52008H7.47759H7.43494H7.39212H7.34914H7.306H7.26269H7.21921H7.17557H7.13177H7.0878H7.04367H6.99936H6.9549H6.91027H6.86547H6.8205H6.77536H6.73006H6.68459H6.63896H6.59315H6.54718H6.50104H6.45472H6.40824H6.36159H6.31477H6.26778H6.22062H6.17329H6.12579H6.07811H6.03027H5.98225H5.93406H5.8857H5.83717H5.78847H5.73959H5.69053H5.64131H5.59191H5.54234H5.49259H5.44266H5.39257H5.34229H5.29185H5.24122H5.19042H5.13945H5.0883H5.03697H4.98546H4.93378H4.88192H4.82988H4.77766H4.72527H4.67269H4.61994H4.56701H4.5139H4.46061H4.40714H4.35349H4.29966H4.24565H4.19145H4.13708H4.08252H4.02779H3.97287H3.91777H3.86248H3.80702H3.75137H3.69553H3.63952H3.58332H3.52693H3.47036H3.41361H3.35667H3.29955H3.24224H3.18474H3.12706H3.06919H3.01114H2.9529H2.89447H2.83585H2.77705H2.71806H2.65888H2.59952H2.53996H2.48022H2.42028H2.36016H2.29985H2.23934H2.17865H2.11777H2.05669H1.99543H1.93397H1.87232H1.81048H1.74845H1.68622H1.62381H1.5612H1.49839H1.4354H1.37221H1.30882H1.24524H1.18147H1.1175H1.05334Z" fill="white" stroke="#320A8D" stroke-width="2"/>
<circle cx="15.841" cy="6.9304" r="5.9304" fill="white" stroke="#320A8D" stroke-width="2"/>
</svg>
