<svg width="17" height="24" viewBox="0 0 17 24" fill="none" xmlns="http://www.w3.org/2000/svg">
<path fill-rule="evenodd" clip-rule="evenodd" d="M13.7672 0.998417C13.2458 0.824363 12.7243 0.650309 12.2171 0.476256C11.5797 0.244251 10.9566 0.896902 10.9858 1.75258C11.0437 3.37681 11.1015 4.98646 11.1594 6.61069C11.174 7.14724 10.9131 7.64042 10.5074 7.84345C9.69635 8.23492 8.87048 8.612 8.04461 8.98909C7.21874 8.62659 6.39307 8.23492 5.58178 7.84345C5.16155 7.64042 4.91541 7.14724 4.92999 6.61069C4.98788 4.98646 5.04577 3.37681 5.10366 1.75258C5.13281 0.882313 4.50976 0.244251 3.87235 0.476256C3.35071 0.650309 2.84365 0.838952 2.32222 0.998417C1.902 1.1435 1.58339 1.6075 1.53987 2.17303C1.39494 4.08742 1.23564 6.0016 1.0907 7.9014C1.04718 8.43795 1.29353 8.93114 1.69918 9.14855C2.61188 9.62715 2.52505 11.1934 1.5253 11.5559C1.07633 11.7156 0.742947 12.165 0.699427 12.7016C0.46786 15.6165 0.235887 18.546 0.00411727 21.461C-0.0394028 22.0265 0.264833 22.5487 0.786467 22.7517C1.40931 22.9981 2.04693 23.2447 2.68435 23.4913C3.48127 23.7958 4.33589 23.2011 4.36483 22.3311C4.45167 19.7063 4.55308 17.0813 4.64012 14.4419C4.65449 13.9053 4.97351 13.4413 5.42247 13.2673C6.30623 12.9192 7.17562 12.5711 8.04461 12.194C8.9138 12.5567 9.78319 12.9192 10.667 13.2673C11.1159 13.4413 11.4349 13.9053 11.4493 14.4419C11.5363 17.0669 11.6376 19.6917 11.7246 22.3311C11.7535 23.2011 12.6081 23.7812 13.4051 23.4913C14.0425 23.2447 14.6801 22.9981 15.303 22.7517C15.81 22.5487 16.1288 22.0265 16.0853 21.461C15.8535 18.546 15.6216 15.6165 15.39 12.7016C15.3465 12.165 15.0279 11.7156 14.5641 11.5559C13.5644 11.208 13.4775 9.62715 14.3902 9.14855C14.8103 8.93114 15.0422 8.42356 14.9987 7.9014C14.8538 5.98722 14.6945 4.07283 14.5496 2.17303C14.506 1.6075 14.1874 1.12891 13.7672 0.998417Z" fill="#6309FF"/>
</svg>
