<svg width="38" height="38" viewBox="0 0 38 38" fill="none" xmlns="http://www.w3.org/2000/svg">
<path d="M5.25781 23.0762C5.25781 14.5158 12.4213 7.57617 21.2578 7.57617C30.0944 7.57617 37.2578 14.5158 37.2578 23.0762C37.2578 31.6366 30.0944 38.5762 21.2578 38.5762C12.4213 38.5762 5.25781 31.6366 5.25781 23.0762Z" fill="url(#paint0_linear_1_16529)"/>
<path fill-rule="evenodd" clip-rule="evenodd" d="M16.2396 31.0434C24.1095 31.0434 30.4893 24.5143 30.4893 16.4603C30.4893 8.40623 24.1095 1.87715 16.2396 1.87715C8.36971 1.87715 1.98992 8.40623 1.98992 16.4603C1.98992 24.5143 8.36971 31.0434 16.2396 31.0434ZM31.8464 16.4603C31.8464 25.2814 24.859 32.4323 16.2396 32.4323C7.6202 32.4323 0.632812 25.2814 0.632812 16.4603C0.632812 7.63918 7.6202 0.488281 16.2396 0.488281C24.859 0.488281 31.8464 7.63918 31.8464 16.4603Z" fill="#320A8D"/>
<path fill-rule="evenodd" clip-rule="evenodd" d="M16.2397 26.1821C21.4863 26.1821 25.7395 21.8294 25.7395 16.4601C25.7395 11.0907 21.4863 6.73799 16.2397 6.73799C10.9931 6.73799 6.73992 11.0907 6.73992 16.4601C6.73992 21.8294 10.9931 26.1821 16.2397 26.1821ZM27.0966 16.4601C27.0966 22.5965 22.2358 27.571 16.2397 27.571C10.2436 27.571 5.38281 22.5965 5.38281 16.4601C5.38281 10.3237 10.2436 5.34912 16.2397 5.34912C22.2358 5.34912 27.0966 10.3237 27.0966 16.4601Z" fill="#320A8D"/>
<path fill-rule="evenodd" clip-rule="evenodd" d="M19.0696 10.6066C18.8098 10.5192 18.55 10.4318 18.2973 10.3444C17.9798 10.228 17.6694 10.5556 17.6839 10.9852C17.7127 11.8006 17.7416 12.6088 17.7704 13.4242C17.7777 13.6936 17.6477 13.9412 17.4456 14.0431C17.0415 14.2396 16.6301 14.429 16.2186 14.6183C15.8072 14.4363 15.3959 14.2396 14.9917 14.0431C14.7823 13.9412 14.6597 13.6936 14.667 13.4242C14.6958 12.6088 14.7247 11.8006 14.7535 10.9852C14.768 10.5483 14.4576 10.228 14.1401 10.3444C13.8802 10.4318 13.6276 10.5265 13.3678 10.6066C13.1585 10.6794 12.9998 10.9124 12.9781 11.1963C12.9059 12.1574 12.8265 13.1184 12.7543 14.0722C12.7326 14.3416 12.8554 14.5892 13.0574 14.6983C13.5121 14.9386 13.4689 15.7249 12.9708 15.9069C12.7472 15.9871 12.5811 16.2127 12.5594 16.4821C12.444 17.9455 12.3285 19.4163 12.213 20.8797C12.1913 21.1637 12.3429 21.4258 12.6027 21.5277C12.913 21.6514 13.2307 21.7752 13.5482 21.899C13.9453 22.0519 14.371 21.7534 14.3854 21.3166C14.4287 19.9988 14.4792 18.6809 14.5226 17.3558C14.5297 17.0865 14.6887 16.8535 14.9123 16.7661C15.3526 16.5914 15.7857 16.4166 16.2186 16.2273C16.6517 16.4094 17.0848 16.5914 17.5251 16.7661C17.7487 16.8535 17.9076 17.0865 17.9148 17.3558C17.9582 18.6737 18.0086 19.9915 18.052 21.3166C18.0664 21.7534 18.4921 22.0446 18.8891 21.899C19.2067 21.7752 19.5244 21.6514 19.8346 21.5277C20.0873 21.4258 20.2461 21.1637 20.2244 20.8797C20.1089 19.4163 19.9934 17.9455 19.878 16.4821C19.8563 16.2127 19.6976 15.9871 19.4666 15.9069C18.9685 15.7323 18.9252 14.9386 19.3799 14.6983C19.5892 14.5892 19.7048 14.3343 19.6831 14.0722C19.6109 13.1112 19.5315 12.1501 19.4593 11.1963C19.4376 10.9124 19.2789 10.6721 19.0696 10.6066Z" fill="#320A8D"/>
<defs>
<linearGradient id="paint0_linear_1_16529" x1="5.25781" y1="13.6414" x2="28.4447" y2="39.3107" gradientUnits="userSpaceOnUse">
<stop stop-color="#244CB3" stop-opacity="0.34"/>
<stop offset="1" stop-color="#B4C2E5" stop-opacity="0.07"/>
</linearGradient>
</defs>
</svg>
