<svg width="24" height="24" viewBox="0 0 24 24" fill="none" xmlns="http://www.w3.org/2000/svg">
<g id="CreditCardFilled">
<g id="Group 1904">
<path id="Line 51 (Stroke)" d="M10.2572 10.2376C10.0204 10.2376 9.82842 10.4296 9.82842 10.6664C9.82842 10.9032 10.0204 11.0952 10.2572 11.0952H11.6208C11.8577 11.0952 12.0496 10.9032 12.0496 10.6664C12.0496 10.4296 11.8577 10.2376 11.6208 10.2376H10.2572Z" fill="#320A8D" stroke="#320A8D" stroke-width="0.1" stroke-linecap="round"/>
<path id="Rectangle 288 (Stroke)" d="M2.80758 16.4997L2.80758 9.83306C2.80758 8.60548 3.80272 7.61034 5.0303 7.61034L16.8485 7.61033C18.0761 7.61033 19.0712 8.60548 19.0712 9.83306L19.0712 16.4997C19.0712 17.7273 18.0761 18.7225 16.8485 18.7225L5.03031 18.7225C3.80273 18.7225 2.80758 17.7273 2.80758 16.4997ZM1.95 16.4997C1.95 18.2009 3.3291 19.58 5.03031 19.58L16.8485 19.58C18.5497 19.58 19.9288 18.2009 19.9288 16.4997L19.9288 9.83306C19.9288 8.13186 18.5497 6.75276 16.8485 6.75276L5.0303 6.75276C3.3291 6.75276 1.95 8.13186 1.95 9.83306L1.95 16.4997Z" fill="#320A8D" stroke="#320A8D" stroke-width="0.1"/>
<path id="Rectangle 289 (Stroke)" d="M2.80758 16.4997L2.80758 9.83306C2.80758 8.60548 3.80272 7.61034 5.0303 7.61034L18.9697 7.61033C20.1973 7.61033 21.1924 8.60548 21.1924 9.83306L21.1924 16.4997C21.1924 17.7273 20.1973 18.7225 18.9697 18.7225L5.0303 18.7225C3.80272 18.7225 2.80758 17.7273 2.80758 16.4997ZM1.95 16.4997C1.95 18.2009 3.3291 19.58 5.0303 19.58L18.9697 19.58C20.6709 19.58 22.05 18.2009 22.05 16.4997L22.05 9.83306C22.05 8.13186 20.6709 6.75276 18.9697 6.75276L5.0303 6.75276C3.3291 6.75276 1.95 8.13186 1.95 9.83306L1.95 16.4997Z" fill="#320A8D" stroke="#320A8D" stroke-width="0.1"/>
<path id="Vector (Stroke)" d="M15.0537 5.89118H15.0537L15.0537 5.89002L15.0536 5.88561C15.0475 5.62471 14.99 5.36749 14.8842 5.12873C14.7784 4.89004 14.6265 4.67465 14.4372 4.49488C14.2479 4.3151 14.0249 4.17446 13.7811 4.08109C13.5394 3.98849 13.2818 3.94416 13.023 3.95062H9.05748C8.79866 3.94416 8.5411 3.98849 8.29932 4.08109C8.05551 4.17446 7.83255 4.3151 7.64327 4.49488C7.454 4.67465 7.30208 4.89004 7.19628 5.12873C7.09051 5.36735 7.03286 5.62456 7.02678 5.8856L7.02667 5.89002L7.02666 5.89002V5.89118V6.88114V6.93114H7.07666H7.83424H7.88424V6.88114V5.901C7.88825 5.75457 7.92088 5.61028 7.98029 5.47625C8.04029 5.34088 8.12646 5.21869 8.23386 5.11668C8.34125 5.01469 8.46774 4.9349 8.60602 4.88194C8.74434 4.82897 8.89172 4.80385 9.03973 4.80802L9.04507 4.80817L9.04506 4.80819H9.04647H13.034V4.80821L13.0354 4.80817L13.0407 4.80802C13.1887 4.80385 13.3361 4.82897 13.4744 4.88194C13.6127 4.9349 13.7392 5.01469 13.8466 5.11668C13.954 5.21869 14.0402 5.34088 14.1002 5.47625C14.1595 5.61014 14.1921 5.75441 14.1961 5.90098V6.92444V6.97444H14.2461H15.0037H15.0537V6.92444V5.89118Z" fill="#320A8D" stroke="#320A8D" stroke-width="0.1" stroke-miterlimit="10"/>
<path id="Vector 239 (Stroke)" d="M2.76362 9.13188C2.54341 9.04479 2.29428 9.15272 2.2072 9.37294C2.12011 9.59316 2.22804 9.84228 2.44826 9.92936L9.06652 12.5466C10.3312 13.0467 11.7389 13.0467 13.0036 12.5466L19.4303 10.0051C19.6505 9.91803 19.7584 9.66891 19.6714 9.4487C19.5843 9.22848 19.3351 9.12055 19.1149 9.20764L12.6882 11.7491C11.6261 12.1691 10.444 12.1691 9.38189 11.7491L2.76362 9.13188Z" fill="#320A8D" stroke="#320A8D" stroke-width="0.1" stroke-linecap="round"/>
</g>
</g>
</svg>
