<svg width="192" height="24" viewBox="0 0 192 24" fill="none" xmlns="http://www.w3.org/2000/svg">
<g id="Group 1087">
<g id="Group 1086">
<g id="Group 16">
<g id="Group 15">
<path id="Fill 1" fill-rule="evenodd" clip-rule="evenodd" d="M13.7672 0.998173C13.2458 0.824119 12.7243 0.650065 12.2171 0.476011C11.5797 0.244007 10.9566 0.896658 10.9858 1.75234C11.0437 3.37657 11.1015 4.98621 11.1594 6.61045C11.174 7.14699 10.9131 7.64018 10.5074 7.84321C9.69635 8.23468 8.87048 8.61176 8.04461 8.98884C7.21874 8.62635 6.39307 8.23468 5.58178 7.84321C5.16155 7.64018 4.91541 7.14699 4.92999 6.61045C4.98788 4.98621 5.04577 3.37657 5.10366 1.75234C5.13281 0.882069 4.50976 0.244007 3.87235 0.476011C3.35071 0.650065 2.84365 0.838708 2.32222 0.998173C1.902 1.14325 1.58339 1.60726 1.53987 2.17278C1.39494 4.08717 1.23564 6.00136 1.0907 7.90116C1.04718 8.43771 1.29353 8.93089 1.69918 9.14831C2.61188 9.62691 2.52505 11.1932 1.5253 11.5557C1.07633 11.7153 0.742947 12.1648 0.699427 12.7013C0.46786 15.6163 0.235887 18.5458 0.00411727 21.4607C-0.0394028 22.0263 0.264833 22.5484 0.786467 22.7515C1.40931 22.9978 2.04693 23.2444 2.68435 23.491C3.48127 23.7956 4.33589 23.2009 4.36483 22.3308C4.45167 19.706 4.55308 17.081 4.64012 14.4417C4.65449 13.9051 4.97351 13.4411 5.42247 13.267C6.30623 12.9189 7.17562 12.5708 8.04461 12.1937C8.9138 12.5564 9.78319 12.9189 10.667 13.267C11.1159 13.4411 11.4349 13.9051 11.4493 14.4417C11.5363 17.0666 11.6376 19.6914 11.7246 22.3308C11.7535 23.2009 12.6081 23.781 13.4051 23.491C14.0425 23.2444 14.6801 22.9978 15.303 22.7515C15.81 22.5484 16.1288 22.0263 16.0853 21.4607C15.8535 18.5458 15.6216 15.6163 15.39 12.7013C15.3465 12.1648 15.0279 11.7153 14.5641 11.5557C13.5644 11.2078 13.4775 9.62691 14.3902 9.14831C14.8103 8.93089 15.0422 8.42332 14.9987 7.90116C14.8538 5.98697 14.6945 4.07258 14.5496 2.17278C14.506 1.60726 14.1874 1.12866 13.7672 0.998173Z" fill="#6309FF"/>
<path id="Fill 4" fill-rule="evenodd" clip-rule="evenodd" d="M27.6797 5.05957H30.6386V9.60746H35.3912V5.05957H38.3504V16.6387H35.3912V11.9263H30.6386V16.6387H27.6797V5.05957Z" fill="#6309FF"/>
<path id="Fill 6" fill-rule="evenodd" clip-rule="evenodd" d="M42.4536 5.0592H45.3978V11.9857C45.3978 12.6738 45.5921 13.2124 45.9658 13.6014C46.3392 13.9905 46.8773 14.1848 47.5647 14.1848C48.2371 14.1848 48.7752 13.9905 49.1638 13.6164C49.5524 13.2424 49.7466 12.6888 49.7466 11.9857V5.0592H52.7057V12.1652C52.7057 13.6164 52.2424 14.7533 51.3009 15.5762C50.3595 16.3988 49.1191 16.8029 47.5499 16.8029C46.6832 16.8029 45.9208 16.6981 45.2782 16.4736C44.6205 16.2493 44.0827 15.9352 43.6791 15.5162C43.2756 15.0974 42.9617 14.6186 42.7676 14.0652C42.5732 13.5117 42.4684 12.8683 42.4684 12.1652V5.0592H42.4536Z" fill="#6309FF"/>
<path id="Fill 8" fill-rule="evenodd" clip-rule="evenodd" d="M56.8018 5.0592H60.4334L62.9591 10.8338H63.0788L65.5596 5.0592H69.206V16.6384H66.3365V12.27L66.5011 9.14329H66.3814L63.0189 16.4736L59.6565 9.14329H59.5219L59.6862 12.2998V16.6384H56.8018V5.0592Z" fill="#6309FF"/>
<path id="Fill 10" fill-rule="evenodd" clip-rule="evenodd" d="M79.3106 12.6153L78.9669 11.5382L78.0402 8.17219H77.9355L76.9344 11.5382L76.5905 12.6153H79.3106ZM76.2011 5.05957H79.6532L83.8378 16.6387H80.5798L80.027 14.8882H75.8572L75.2894 16.6387H72.2256L76.2011 5.05957Z" fill="#6309FF"/>
<g id="Group 14">
<mask id="mask0_3565_46755" style="mask-type:luminance" maskUnits="userSpaceOnUse" x="86" y="5" width="12" height="12">
<path id="Clip 13" fill-rule="evenodd" clip-rule="evenodd" d="M86.6616 5.0592H97.0782V16.6384H86.6616V5.0592Z" fill="white"/>
</mask>
<g mask="url(#mask0_3565_46755)">
<path id="Fill 12" fill-rule="evenodd" clip-rule="evenodd" d="M86.6616 5.0592H90.0542L94.1791 12.4195H94.2987L94.1341 9.15829V5.0592H97.0783V16.6384H93.7008L89.6058 9.3528H89.4862L89.6356 12.5093V16.6384H86.6766V5.0592H86.6616Z" fill="#6309FF"/>
</g>
</g>
</g>
</g>
</g>
<g id="Papers">
<path d="M110.647 7H111.811V13.8755C111.811 14.4891 111.699 15.0104 111.473 15.4394C111.248 15.8683 110.93 16.1939 110.52 16.4162C110.11 16.6385 109.626 16.7497 109.069 16.7497C108.543 16.7497 108.075 16.6542 107.664 16.4632C107.254 16.2691 106.932 15.9935 106.697 15.6366C106.462 15.2797 106.345 14.8555 106.345 14.3639H107.491C107.491 14.6363 107.558 14.8742 107.693 15.0778C107.83 15.2781 108.018 15.4347 108.256 15.5474C108.494 15.6601 108.765 15.7165 109.069 15.7165C109.404 15.7165 109.689 15.646 109.923 15.5051C110.158 15.3642 110.337 15.1576 110.459 14.8852C110.584 14.6097 110.647 14.2731 110.647 13.8755V7Z" fill="#320A8D"/>
<path d="M117.05 16.7684C116.398 16.7684 115.827 16.6135 115.335 16.3035C114.847 15.9935 114.465 15.5599 114.19 15.0026C113.917 14.4453 113.781 13.7941 113.781 13.0489C113.781 12.2975 113.917 11.6416 114.19 11.0811C114.465 10.5207 114.847 10.0855 115.335 9.77555C115.827 9.46559 116.398 9.31061 117.05 9.31061C117.701 9.31061 118.271 9.46559 118.759 9.77555C119.251 10.0855 119.633 10.5207 119.905 11.0811C120.181 11.6416 120.318 12.2975 120.318 13.0489C120.318 13.7941 120.181 14.4453 119.905 15.0026C119.633 15.5599 119.251 15.9935 118.759 16.3035C118.271 16.6135 117.701 16.7684 117.05 16.7684ZM117.05 15.7728C117.544 15.7728 117.951 15.646 118.271 15.3924C118.59 15.1388 118.826 14.8054 118.98 14.3921C119.133 13.9788 119.21 13.5311 119.21 13.0489C119.21 12.5668 119.133 12.1175 118.98 11.7011C118.826 11.2847 118.59 10.9481 118.271 10.6913C117.951 10.4346 117.544 10.3062 117.05 10.3062C116.555 10.3062 116.148 10.4346 115.829 10.6913C115.509 10.9481 115.273 11.2847 115.119 11.7011C114.966 12.1175 114.889 12.5668 114.889 13.0489C114.889 13.5311 114.966 13.9788 115.119 14.3921C115.273 14.8054 115.509 15.1388 115.829 15.3924C116.148 15.646 116.555 15.7728 117.05 15.7728Z" fill="#320A8D"/>
<path d="M122.284 16.6182V7H123.393V10.5505H123.487C123.568 10.4252 123.681 10.2655 123.825 10.0714C123.972 9.87418 124.182 9.69885 124.454 9.54543C124.73 9.38889 125.102 9.31061 125.572 9.31061C126.179 9.31061 126.715 9.46246 127.178 9.76616C127.641 10.0699 128.003 10.5004 128.263 11.0577C128.523 11.615 128.653 12.2725 128.653 13.0301C128.653 13.7941 128.523 14.4563 128.263 15.0167C128.003 15.574 127.643 16.0061 127.183 16.3129C126.722 16.6166 126.192 16.7684 125.591 16.7684C125.127 16.7684 124.756 16.6917 124.478 16.5383C124.199 16.3818 123.985 16.2049 123.834 16.0076C123.684 15.8073 123.568 15.6413 123.487 15.5098H123.355V16.6182H122.284ZM123.374 13.0114C123.374 13.5561 123.454 14.0367 123.614 14.4531C123.773 14.8664 124.006 15.1905 124.313 15.4253C124.62 15.657 124.996 15.7728 125.44 15.7728C125.904 15.7728 126.29 15.6507 126.6 15.4065C126.913 15.1592 127.148 14.8273 127.305 14.4109C127.465 13.9913 127.544 13.5248 127.544 13.0114C127.544 12.5041 127.466 12.047 127.31 11.64C127.156 11.2299 126.923 10.9058 126.61 10.6679C126.3 10.4268 125.91 10.3062 125.44 10.3062C124.99 10.3062 124.611 10.4205 124.304 10.6491C123.997 10.8745 123.765 11.1907 123.609 11.5977C123.452 12.0016 123.374 12.4728 123.374 13.0114Z" fill="#320A8D"/>
<path d="M134.466 16.6182V7H135.631V15.585H140.102V16.6182H134.466Z" fill="#320A8D"/>
<path d="M144.001 16.7872C143.544 16.7872 143.129 16.7011 142.757 16.5289C142.384 16.3536 142.088 16.1016 141.869 15.7728C141.65 15.4409 141.54 15.0402 141.54 14.5705C141.54 14.1573 141.622 13.8223 141.785 13.5655C141.947 13.3057 142.165 13.1021 142.437 12.955C142.71 12.8078 143.01 12.6983 143.339 12.6262C143.671 12.5511 144.004 12.4916 144.34 12.4478C144.778 12.3914 145.133 12.3492 145.406 12.321C145.681 12.2897 145.881 12.238 146.007 12.166C146.135 12.094 146.199 11.9688 146.199 11.7903V11.7527C146.199 11.2893 146.072 10.9293 145.819 10.6726C145.568 10.4158 145.188 10.2875 144.678 10.2875C144.149 10.2875 143.734 10.4033 143.433 10.635C143.133 10.8667 142.921 11.114 142.799 11.377L141.747 11.0013C141.935 10.563 142.185 10.2217 142.499 9.9775C142.815 9.73015 143.159 9.55795 143.532 9.4609C143.907 9.36071 144.277 9.31061 144.64 9.31061C144.872 9.31061 145.138 9.33879 145.438 9.39515C145.742 9.44837 146.035 9.55952 146.317 9.72859C146.602 9.89766 146.838 10.1528 147.026 10.4941C147.214 10.8354 147.308 11.2925 147.308 11.8654V16.6182H146.199V15.6413H146.143C146.068 15.7979 145.943 15.9654 145.767 16.1438C145.592 16.3223 145.359 16.4741 145.067 16.5994C144.776 16.7246 144.421 16.7872 144.001 16.7872ZM144.17 15.7916C144.609 15.7916 144.978 15.7055 145.279 15.5333C145.582 15.3611 145.811 15.1388 145.964 14.8664C146.121 14.594 146.199 14.3075 146.199 14.007V12.9926C146.152 13.0489 146.049 13.1006 145.889 13.1475C145.733 13.1914 145.551 13.2305 145.345 13.265C145.141 13.2963 144.942 13.3244 144.748 13.3495C144.557 13.3714 144.402 13.3902 144.283 13.4058C143.995 13.4434 143.726 13.5045 143.475 13.589C143.228 13.6704 143.028 13.7941 142.874 13.96C142.724 14.1228 142.649 14.3451 142.649 14.6269C142.649 15.012 142.791 15.3032 143.076 15.5004C143.364 15.6945 143.729 15.7916 144.17 15.7916Z" fill="#320A8D"/>
<path d="M154.001 13.6688V9.40454H155.109V16.6182H154.001V15.3971H153.925C153.756 15.7634 153.493 16.0749 153.137 16.3317C152.78 16.5853 152.329 16.7121 151.784 16.7121C151.333 16.7121 150.932 16.6135 150.582 16.4162C150.231 16.2158 149.956 15.9153 149.755 15.5145C149.555 15.1106 149.455 14.6019 149.455 13.9882V9.40454H150.563V13.9131C150.563 14.439 150.71 14.8586 151.004 15.1717C151.302 15.4848 151.681 15.6413 152.141 15.6413C152.416 15.6413 152.697 15.5709 152.982 15.43C153.27 15.2891 153.511 15.0731 153.705 14.7819C153.902 14.4907 154.001 14.1197 154.001 13.6688Z" fill="#320A8D"/>
<path d="M158.371 12.2787V16.6182H157.263V9.40454H158.334V10.5317H158.428C158.597 10.1654 158.853 9.87105 159.198 9.64875C159.542 9.42333 159.987 9.31061 160.532 9.31061C161.02 9.31061 161.447 9.4108 161.814 9.61118C162.18 9.80843 162.465 10.109 162.668 10.5129C162.872 10.9136 162.974 11.4208 162.974 12.0345V16.6182H161.865V12.1096C161.865 11.543 161.718 11.1015 161.424 10.7853C161.13 10.4659 160.726 10.3062 160.212 10.3062C159.858 10.3062 159.542 10.3829 159.264 10.5364C158.988 10.6898 158.771 10.9136 158.611 11.2079C158.451 11.5023 158.371 11.8592 158.371 12.2787Z" fill="#320A8D"/>
<path d="M168.054 16.7684C167.377 16.7684 166.795 16.6088 166.307 16.2894C165.818 15.9701 165.442 15.5302 165.179 14.9697C164.916 14.4093 164.785 13.769 164.785 13.0489C164.785 12.3163 164.92 11.6698 165.189 11.1093C165.461 10.5458 165.84 10.1059 166.325 9.78964C166.814 9.47029 167.384 9.31061 168.035 9.31061C168.542 9.31061 168.999 9.40454 169.406 9.59239C169.813 9.78025 170.147 10.0432 170.406 10.3814C170.666 10.7195 170.828 11.114 170.89 11.5649H169.782C169.697 11.2361 169.509 10.9449 169.218 10.6913C168.93 10.4346 168.542 10.3062 168.054 10.3062C167.622 10.3062 167.243 10.419 166.917 10.6444C166.595 10.8667 166.343 11.1813 166.161 11.5884C165.982 11.9922 165.893 12.4666 165.893 13.0114C165.893 13.5687 165.981 14.0539 166.156 14.4672C166.335 14.8805 166.585 15.2014 166.908 15.43C167.233 15.6585 167.615 15.7728 168.054 15.7728C168.342 15.7728 168.603 15.7227 168.838 15.6225C169.073 15.5223 169.272 15.3783 169.434 15.1905C169.597 15.0026 169.713 14.7772 169.782 14.5142H170.89C170.828 14.94 170.673 15.3235 170.425 15.6648C170.181 16.0029 169.857 16.2722 169.453 16.4726C169.052 16.6698 168.586 16.7684 168.054 16.7684Z" fill="#320A8D"/>
<path d="M173.743 12.2787V16.6182H172.634V7H173.743V10.5317H173.837C174.006 10.1591 174.259 9.86322 174.597 9.64405C174.939 9.42176 175.393 9.31061 175.959 9.31061C176.451 9.31061 176.881 9.40924 177.251 9.60648C177.62 9.8006 177.907 10.0996 178.11 10.5035C178.317 10.9042 178.42 11.4146 178.42 12.0345V16.6182H177.312V12.1096C177.312 11.5367 177.163 11.0937 176.866 10.7806C176.572 10.4644 176.163 10.3062 175.64 10.3062C175.277 10.3062 174.951 10.3829 174.663 10.5364C174.378 10.6898 174.153 10.9136 173.987 11.2079C173.824 11.5023 173.743 11.8592 173.743 12.2787Z" fill="#320A8D"/>
<path d="M183.596 16.7684C182.901 16.7684 182.302 16.615 181.798 16.3082C181.297 15.9982 180.91 15.5662 180.638 15.012C180.368 14.4547 180.234 13.8066 180.234 13.0677C180.234 12.3288 180.368 11.6776 180.638 11.114C180.91 10.5473 181.289 10.1059 181.774 9.78964C182.263 9.47029 182.832 9.31061 183.484 9.31061C183.859 9.31061 184.23 9.37323 184.597 9.49847C184.963 9.6237 185.297 9.82721 185.597 10.109C185.898 10.3876 186.137 10.7571 186.316 11.2173C186.494 11.6776 186.583 12.2443 186.583 12.9174V13.3871H181.023V12.429H185.456C185.456 12.022 185.375 11.6588 185.212 11.3394C185.052 11.0201 184.824 10.7681 184.526 10.5833C184.232 10.3986 183.884 10.3062 183.484 10.3062C183.042 10.3062 182.66 10.4158 182.338 10.635C182.018 10.851 181.773 11.1328 181.6 11.4803C181.428 11.8279 181.342 12.2004 181.342 12.5981V13.2368C181.342 13.7816 181.436 14.2434 181.624 14.6222C181.815 14.9979 182.08 15.2844 182.418 15.4816C182.756 15.6758 183.149 15.7728 183.596 15.7728C183.888 15.7728 184.151 15.7321 184.385 15.6507C184.623 15.5662 184.828 15.4409 185.001 15.275C185.173 15.1059 185.306 14.8962 185.4 14.6457L186.471 14.9463C186.358 15.3094 186.168 15.6288 185.902 15.9043C185.636 16.1767 185.307 16.3896 184.916 16.543C184.525 16.6933 184.085 16.7684 183.596 16.7684Z" fill="#320A8D"/>
<path d="M188.393 16.6182V9.40454H189.464V10.4941H189.539C189.671 10.1372 189.909 9.84756 190.253 9.62527C190.597 9.40297 190.986 9.29183 191.418 9.29183C191.499 9.29183 191.601 9.29339 191.723 9.29652C191.845 9.29965 191.938 9.30435 192 9.31061V10.4377C191.963 10.4283 191.876 10.4143 191.742 10.3955C191.61 10.3736 191.471 10.3626 191.324 10.3626C190.973 10.3626 190.66 10.4362 190.385 10.5833C190.112 10.7274 189.896 10.9277 189.736 11.1845C189.58 11.4381 189.502 11.7277 189.502 12.0533V16.6182H188.393Z" fill="#320A8D"/>
</g>
</g>
</svg>
