<svg width="32" height="32" viewBox="0 0 32 32" fill="none" xmlns="http://www.w3.org/2000/svg">
<g id="Group 1885">
<g id="Group 1883">
<g id="Group 1882">
<circle id="Ellipse 286" cx="16" cy="16" r="16" fill="black"/>
</g>
<path id="Vector" fill-rule="evenodd" clip-rule="evenodd" d="M9.1288 25.3451C9 25.0883 9 24.7522 9 24.0799V7.92006C9 7.24797 9 6.91193 9.12876 6.65523C9.24198 6.42943 9.42272 6.24585 9.64497 6.1308C9.89764 6 10.2284 6 10.89 6H17.0718C18.7196 6 19.5435 6 20.2194 6.18401C22.0538 6.68334 23.4866 8.13894 23.9781 10.0025C24.1592 10.6892 24.1592 11.5262 24.1592 13.2001C24.1592 14.29 23.6734 14.689 23.2591 15.0292C22.9511 15.2821 22.6827 15.5025 22.6827 15.9503C22.6827 16.3914 22.9954 16.612 23.3582 16.8677C23.8588 17.2206 24.4545 17.6406 24.4545 18.8004C24.4545 20.4714 24.4545 21.3069 24.274 21.9925C23.7831 23.8573 22.3496 25.3141 20.5141 25.8135C19.8392 25.9971 19.0169 25.9974 17.372 25.9979L10.8906 26C10.2288 26.0002 9.89796 26.0003 9.64522 25.8695C9.42289 25.7545 9.2421 25.5709 9.1288 25.3451ZM17.8112 12.5582C18.1821 11.9667 18.5032 11.4547 18.5032 10.8001C18.5032 9.47462 17.4433 8.40007 16.1359 8.40007C14.8286 8.40007 13.7687 9.5251 13.7687 10.8001C13.7687 11.4547 14.0986 11.9667 14.4796 12.5582C15.0009 13.3672 15.6181 14.325 15.6181 16.0003C15.6181 17.6756 15.0009 18.6334 14.4796 19.4424C14.0986 20.0339 13.7687 20.5458 13.7687 21.2004C13.7687 22.5259 14.8286 23.6005 16.1359 23.6005C17.4433 23.6005 18.5032 22.5259 18.5032 21.2004C18.5032 20.5458 18.1821 20.0339 17.8112 19.4424C17.3038 18.6334 16.7031 17.6756 16.7031 16.0003C16.7031 14.325 17.3038 13.3672 17.8112 12.5582Z" fill="#FFC226"/>
</g>
</g>
</svg>
