<svg width="54" height="54" viewBox="0 0 54 54" fill="none" xmlns="http://www.w3.org/2000/svg">
<circle cx="27" cy="27" r="27" fill="#6309FF"/>
<path d="M37.2308 14H16.7692C15.7704 14.0029 14.8134 14.4033 14.1071 15.1137C13.4009 15.8242 13.0028 16.7869 13 17.7917V30.7917C13.0028 31.7964 13.4009 32.7592 14.1071 33.4696C14.8134 34.1801 15.7704 34.5805 16.7692 34.5833H19.4615V40L25.7696 34.7093C25.8665 34.6279 25.9887 34.5833 26.1149 34.5833H37.2308C38.2296 34.5805 39.1866 34.1801 39.8929 33.4696C40.5991 32.7592 40.9972 31.7964 41 30.7917V17.7917C40.9972 16.7869 40.5991 15.8242 39.8929 15.1137C39.1866 14.4033 38.2296 14.0029 37.2308 14Z" fill="#6309FF" stroke="white" stroke-width="2" stroke-linejoin="round"/>
</svg>
