<svg width="78" height="78" viewBox="0 0 78 78" fill="none" xmlns="http://www.w3.org/2000/svg">
<g filter="url(#filter0_d_3157_43599)">
<path d="M72 39C72 57.2254 57.2254 72 39 72C20.7747 72 6.00006 57.2254 6.00006 39C6.00006 20.7746 20.7747 6 39 6C57.2254 6 72 20.7746 72 39Z" fill="url(#paint0_radial_3157_43599)"/>
</g>
<path fill-rule="evenodd" clip-rule="evenodd" d="M39 67.9304C54.9779 67.9304 67.9304 54.9778 67.9304 39C67.9304 23.0222 54.9779 10.0696 39 10.0696C23.0222 10.0696 10.0696 23.0222 10.0696 39C10.0696 54.9778 23.0222 67.9304 39 67.9304ZM39 72C57.2254 72 72 57.2254 72 39C72 20.7746 57.2254 6 39 6C20.7747 6 6.00006 20.7746 6.00006 39C6.00006 57.2254 20.7747 72 39 72Z" fill="url(#paint1_linear_3157_43599)"/>
<path opacity="0.5" d="M49.5017 54.75H44.2505V60.0012H49.5017V54.75Z" fill="#858EC6"/>
<path opacity="0.7" d="M44.2517 54.75H39.0005V60.0012H44.2517V54.75Z" fill="#858EC6"/>
<path opacity="0.7" d="M39.0017 54.75H33.7505V60.0012H39.0017V54.75Z" fill="#858EC6"/>
<path opacity="0.5" d="M33.7517 54.75H28.5005V60.0012H33.7517V54.75Z" fill="#858EC6"/>
<path opacity="0.7" d="M54.7498 49.5H49.5009V54.7512H54.7498V49.5Z" fill="#858EC6"/>
<path opacity="0.8" d="M49.5017 49.5H44.2505V54.7512H49.5017V49.5Z" fill="#858EC6"/>
<path d="M44.2517 49.5H39.0005V54.7512H44.2517V49.5Z" fill="#858EC6"/>
<path d="M39.0017 49.5H33.7505V54.7512H39.0017V49.5Z" fill="#858EC6"/>
<path opacity="0.8" d="M33.7517 49.5H28.5005V54.7512H33.7517V49.5Z" fill="#858EC6"/>
<path opacity="0.7" d="M28.5036 49.5H23.2524V54.7512H28.5036V49.5Z" fill="#858EC6"/>
<path opacity="0.5" d="M60.0002 44.251H54.7491V49.4999H60.0002V44.251Z" fill="#858EC6"/>
<path opacity="0.8" d="M54.7498 44.251H49.5009V49.4999H54.7498V44.251Z" fill="#858EC6"/>
<path d="M49.5017 44.251H44.2505V49.4999H49.5017V44.251Z" fill="#858EC6"/>
<path d="M44.2517 44.251H39.0005V49.4999H44.2517V44.251Z" fill="#858EC6"/>
<path d="M39.0017 44.251H33.7505V49.4999H39.0017V44.251Z" fill="#858EC6"/>
<path d="M33.7517 44.251H28.5005V49.4999H33.7517V44.251Z" fill="#858EC6"/>
<path opacity="0.8" d="M28.5036 44.251H23.2524V49.4999H28.5036V44.251Z" fill="#858EC6"/>
<path opacity="0.5" d="M23.2514 44.251H18.0002V49.4999H23.2514V44.251Z" fill="#858EC6"/>
<path opacity="0.7" d="M60.0002 38.999H54.7491V44.2502H60.0002V38.999Z" fill="#858EC6"/>
<path d="M54.7498 38.999H49.5009V44.2502H54.7498V38.999Z" fill="#858EC6"/>
<path d="M49.5017 38.999H44.2505V44.2502H49.5017V38.999Z" fill="#858EC6"/>
<path d="M44.2517 38.999H39.0005V44.2502H44.2517V38.999Z" fill="#858EC6"/>
<path d="M39.0017 38.999H33.7505V44.2502H39.0017V38.999Z" fill="#858EC6"/>
<path d="M33.7517 38.999H28.5005V44.2502H33.7517V38.999Z" fill="#858EC6"/>
<path d="M28.5036 38.999H23.2524V44.2502H28.5036V38.999Z" fill="#858EC6"/>
<path opacity="0.7" d="M23.2514 38.999H18.0002V44.2502H23.2514V38.999Z" fill="#858EC6"/>
<path opacity="0.7" d="M60.0002 33.751H54.7491V39.0022H60.0002V33.751Z" fill="#858EC6"/>
<path d="M54.7498 33.751H49.5009V39.0022H54.7498V33.751Z" fill="#858EC6"/>
<path d="M49.5017 33.751H44.2505V39.0022H49.5017V33.751Z" fill="#858EC6"/>
<path d="M44.2517 33.751H39.0005V39.0022H44.2517V33.751Z" fill="#858EC6"/>
<path d="M39.0017 33.751H33.7505V39.0022H39.0017V33.751Z" fill="#858EC6"/>
<path d="M33.7517 33.751H28.5005V39.0022H33.7517V33.751Z" fill="#858EC6"/>
<path d="M28.5036 33.751H23.2524V39.0022H28.5036V33.751Z" fill="#858EC6"/>
<path opacity="0.7" d="M23.2514 33.751H18.0002V39.0022H23.2514V33.751Z" fill="#858EC6"/>
<path opacity="0.5" d="M60.0002 28.5H54.7491V33.7512H60.0002V28.5Z" fill="#858EC6"/>
<path opacity="0.8" d="M54.7498 28.5H49.5009V33.7512H54.7498V28.5Z" fill="#858EC6"/>
<path d="M49.5017 28.5H44.2505V33.7512H49.5017V28.5Z" fill="#858EC6"/>
<path d="M44.2517 28.5H39.0005V33.7512H44.2517V28.5Z" fill="#858EC6"/>
<path d="M39.0017 28.5H33.7505V33.7512H39.0017V28.5Z" fill="#858EC6"/>
<path d="M33.7517 28.5H28.5005V33.7512H33.7517V28.5Z" fill="#858EC6"/>
<path opacity="0.8" d="M28.5036 28.5H23.2524V33.7512H28.5036V28.5Z" fill="#858EC6"/>
<path opacity="0.5" d="M23.2514 28.5H18.0002V33.7512H23.2514V28.5Z" fill="#858EC6"/>
<path opacity="0.7" d="M54.7498 23.251H49.5009V28.5022H54.7498V23.251Z" fill="#858EC6"/>
<path opacity="0.8" d="M49.5017 23.251H44.2505V28.5022H49.5017V23.251Z" fill="#858EC6"/>
<path d="M44.2517 23.251H39.0005V28.5022H44.2517V23.251Z" fill="#858EC6"/>
<path d="M39.0017 23.251H33.7505V28.5022H39.0017V23.251Z" fill="#858EC6"/>
<path opacity="0.8" d="M33.7517 23.251H28.5005V28.5022H33.7517V23.251Z" fill="#858EC6"/>
<path opacity="0.7" d="M28.5036 23.251H23.2524V28.5022H28.5036V23.251Z" fill="#858EC6"/>
<path opacity="0.5" d="M49.5017 18H44.2505V23.2512H49.5017V18Z" fill="#858EC6"/>
<path opacity="0.7" d="M44.2517 18H39.0005V23.2512H44.2517V18Z" fill="#858EC6"/>
<path opacity="0.7" d="M39.0017 18H33.7505V23.2512H39.0017V18Z" fill="#858EC6"/>
<path opacity="0.5" d="M33.7517 18H28.5005V23.2512H33.7517V18Z" fill="#858EC6"/>
<path d="M31.8213 37.3334L33.2835 34.06C33.8169 33.22 33.7458 32.1933 33.1613 31.6155C33.0833 31.5373 32.9968 31.468 32.9035 31.4088C32.7033 31.2869 32.4789 31.2101 32.246 31.1836C32.013 31.1571 31.7771 31.1817 31.5546 31.2555C31.0491 31.414 30.6176 31.7493 30.3391 32.2C30.3391 32.2 28.339 36.8667 27.5901 38.9734C26.8412 41.0801 27.1457 44.9246 30.0146 47.8046C33.0591 50.8491 37.4747 51.5513 40.2859 49.4358C40.4043 49.3744 40.5154 49.2999 40.617 49.2135L49.2838 41.9712C49.706 41.6179 50.3305 40.9045 49.7682 40.0867C49.206 39.2689 48.1882 39.8312 47.7682 40.1023L42.777 43.7312C42.7538 43.7509 42.7268 43.7655 42.6977 43.7743C42.6685 43.783 42.6379 43.7857 42.6077 43.7822C42.5775 43.7787 42.5483 43.769 42.522 43.7537C42.4957 43.7384 42.4729 43.7179 42.4548 43.6934C42.3826 43.5823 42.3484 43.4508 42.3572 43.3186C42.366 43.1864 42.4174 43.0607 42.5037 42.9601L50.1549 36.4667C50.8216 35.8711 50.9082 35.0067 50.3771 34.4133C49.846 33.82 49.0238 33.8489 48.3593 34.4511L41.4703 39.8378C41.4379 39.8646 41.4004 39.8844 41.36 39.896C41.3196 39.9077 41.2772 39.9109 41.2356 39.9055C41.1939 39.9 41.1538 39.8861 41.1177 39.8645C41.0816 39.843 41.0504 39.8142 41.0259 39.7801C40.9516 39.7068 40.907 39.6087 40.9004 39.5046C40.8938 39.4005 40.9258 39.2976 40.9903 39.2156L48.7927 31.6444C49.0878 31.3687 49.2617 30.9874 49.2763 30.5838C49.2908 30.1802 49.1449 29.7873 48.8704 29.491C48.7331 29.349 48.5683 29.2363 48.3861 29.1599C48.2039 29.0835 48.008 29.045 47.8104 29.0466C47.401 29.0448 47.0073 29.2045 46.7148 29.491L38.7525 36.9689C38.5614 37.16 38.1881 36.9689 38.1436 36.7467C38.1355 36.7068 38.1376 36.6656 38.1496 36.6268C38.1617 36.5879 38.1833 36.5527 38.2125 36.5245L44.3148 29.5755C44.4648 29.4385 44.5855 29.2726 44.6697 29.0877C44.7539 28.9029 44.7997 28.7029 44.8045 28.4998C44.8092 28.2967 44.7729 28.0948 44.6975 27.9062C44.6221 27.7175 44.5093 27.5461 44.3659 27.4023C44.2225 27.2584 44.0515 27.1451 43.8631 27.0691C43.6747 26.9932 43.4729 26.9561 43.2698 26.9603C43.0667 26.9644 42.8666 27.0096 42.6814 27.0932C42.4963 27.1768 42.33 27.297 42.1926 27.4466L32.9347 37.6689C32.6035 38 32.1146 38.0156 31.8813 37.8245C31.8448 37.7964 31.8142 37.7614 31.7913 37.7214C31.7685 37.6814 31.7539 37.6372 31.7483 37.5915C31.7427 37.5458 31.7463 37.4994 31.7588 37.4551C31.7713 37.4108 31.7926 37.3694 31.8213 37.3334V37.3334Z" fill="white"/>
<defs>
<filter id="filter0_d_3157_43599" x="5.00006" y="5" width="68" height="68" filterUnits="userSpaceOnUse" color-interpolation-filters="sRGB">
<feFlood flood-opacity="0" result="BackgroundImageFix"/>
<feColorMatrix in="SourceAlpha" type="matrix" values="0 0 0 0 0 0 0 0 0 0 0 0 0 0 0 0 0 0 127 0" result="hardAlpha"/>
<feMorphology radius="1" operator="dilate" in="SourceAlpha" result="effect1_dropShadow_3157_43599"/>
<feOffset/>
<feColorMatrix type="matrix" values="0 0 0 0 0.913725 0 0 0 0 0.921569 0 0 0 0 0.980392 0 0 0 1 0"/>
<feBlend mode="normal" in2="BackgroundImageFix" result="effect1_dropShadow_3157_43599"/>
<feBlend mode="normal" in="SourceGraphic" in2="effect1_dropShadow_3157_43599" result="shape"/>
</filter>
<radialGradient id="paint0_radial_3157_43599" cx="0" cy="0" r="1" gradientUnits="userSpaceOnUse" gradientTransform="translate(39 16.6895) rotate(90) scale(55.3104)">
<stop stop-color="#F0F0FF"/>
<stop stop-color="#F1F1FD"/>
<stop offset="0.703125" stop-color="white"/>
</radialGradient>
<linearGradient id="paint1_linear_3157_43599" x1="78.5261" y1="72" x2="83.495" y2="50.1101" gradientUnits="userSpaceOnUse">
<stop stop-color="#F7F8FD"/>
<stop offset="1" stop-color="white"/>
</linearGradient>
</defs>
</svg>
