<svg width="126" height="126" viewBox="0 0 126 126" fill="none" xmlns="http://www.w3.org/2000/svg">
<g filter="url(#filter0_d_209_113)">
<path d="M96 41C96 59.2254 81.2254 74 63 74C44.7747 74 30.0001 59.2254 30.0001 41C30.0001 22.7746 44.7747 8 63 8C81.2254 8 96 22.7746 96 41Z" fill="url(#paint0_radial_209_113)"/>
</g>
<g filter="url(#filter1_d_209_113)">
<path fill-rule="evenodd" clip-rule="evenodd" d="M63 69.9304C78.9779 69.9304 91.9304 56.9778 91.9304 41C91.9304 25.0222 78.9779 12.0696 63 12.0696C47.0222 12.0696 34.0696 25.0222 34.0696 41C34.0696 56.9778 47.0222 69.9304 63 69.9304ZM63 74C81.2254 74 96 59.2254 96 41C96 22.7746 81.2254 8 63 8C44.7747 8 30.0001 22.7746 30.0001 41C30.0001 59.2254 44.7747 74 63 74Z" fill="url(#paint1_linear_209_113)"/>
</g>
<path opacity="0.5" d="M73.5017 56.75H68.2505V62.0012H73.5017V56.75Z" fill="#858EC6"/>
<path opacity="0.7" d="M68.2517 56.75H63.0005V62.0012H68.2517V56.75Z" fill="#858EC6"/>
<path opacity="0.7" d="M63.0017 56.75H57.7505V62.0012H63.0017V56.75Z" fill="#858EC6"/>
<path opacity="0.5" d="M57.7517 56.75H52.5005V62.0012H57.7517V56.75Z" fill="#858EC6"/>
<path opacity="0.7" d="M78.7498 51.5H73.5009V56.7512H78.7498V51.5Z" fill="#858EC6"/>
<path opacity="0.8" d="M73.5017 51.5H68.2505V56.7512H73.5017V51.5Z" fill="#858EC6"/>
<path d="M68.2517 51.5H63.0005V56.7512H68.2517V51.5Z" fill="#858EC6"/>
<path d="M63.0017 51.5H57.7505V56.7512H63.0017V51.5Z" fill="#858EC6"/>
<path opacity="0.8" d="M57.7517 51.5H52.5005V56.7512H57.7517V51.5Z" fill="#858EC6"/>
<path opacity="0.7" d="M52.5036 51.5H47.2524V56.7512H52.5036V51.5Z" fill="#858EC6"/>
<path opacity="0.5" d="M84.0002 46.2515H78.7491V51.5004H84.0002V46.2515Z" fill="#858EC6"/>
<path opacity="0.8" d="M78.7498 46.2515H73.5009V51.5004H78.7498V46.2515Z" fill="#858EC6"/>
<path d="M73.5017 46.2515H68.2505V51.5004H73.5017V46.2515Z" fill="#858EC6"/>
<path d="M68.2517 46.2515H63.0005V51.5004H68.2517V46.2515Z" fill="#858EC6"/>
<path d="M63.0017 46.2515H57.7505V51.5004H63.0017V46.2515Z" fill="#858EC6"/>
<path d="M57.7517 46.2515H52.5005V51.5004H57.7517V46.2515Z" fill="#858EC6"/>
<path opacity="0.8" d="M52.5036 46.2515H47.2524V51.5004H52.5036V46.2515Z" fill="#858EC6"/>
<path opacity="0.5" d="M47.2514 46.2515H42.0002V51.5004H47.2514V46.2515Z" fill="#858EC6"/>
<path opacity="0.7" d="M84.0002 40.9993H78.7491V46.2505H84.0002V40.9993Z" fill="#858EC6"/>
<path d="M78.7498 40.9993H73.5009V46.2505H78.7498V40.9993Z" fill="#858EC6"/>
<path d="M73.5017 40.9993H68.2505V46.2505H73.5017V40.9993Z" fill="#858EC6"/>
<path d="M68.2517 40.9993H63.0005V46.2505H68.2517V40.9993Z" fill="#858EC6"/>
<path d="M63.0017 40.9993H57.7505V46.2505H63.0017V40.9993Z" fill="#858EC6"/>
<path d="M57.7517 40.9993H52.5005V46.2505H57.7517V40.9993Z" fill="#858EC6"/>
<path d="M52.5036 40.9993H47.2524V46.2505H52.5036V40.9993Z" fill="#858EC6"/>
<path opacity="0.7" d="M47.2514 40.9993H42.0002V46.2505H47.2514V40.9993Z" fill="#858EC6"/>
<path opacity="0.7" d="M84.0002 35.7515H78.7491V41.0027H84.0002V35.7515Z" fill="#858EC6"/>
<path d="M78.7498 35.7515H73.5009V41.0027H78.7498V35.7515Z" fill="#858EC6"/>
<path d="M73.5017 35.7515H68.2505V41.0027H73.5017V35.7515Z" fill="#858EC6"/>
<path d="M68.2517 35.7515H63.0005V41.0027H68.2517V35.7515Z" fill="#858EC6"/>
<path d="M63.0017 35.7515H57.7505V41.0027H63.0017V35.7515Z" fill="#858EC6"/>
<path d="M57.7517 35.7515H52.5005V41.0027H57.7517V35.7515Z" fill="#858EC6"/>
<path d="M52.5036 35.7515H47.2524V41.0027H52.5036V35.7515Z" fill="#858EC6"/>
<path opacity="0.7" d="M47.2514 35.7515H42.0002V41.0027H47.2514V35.7515Z" fill="#858EC6"/>
<path opacity="0.5" d="M84.0002 30.5H78.7491V35.7512H84.0002V30.5Z" fill="#858EC6"/>
<path opacity="0.8" d="M78.7498 30.5H73.5009V35.7512H78.7498V30.5Z" fill="#858EC6"/>
<path d="M73.5017 30.5H68.2505V35.7512H73.5017V30.5Z" fill="#858EC6"/>
<path d="M68.2517 30.5H63.0005V35.7512H68.2517V30.5Z" fill="#858EC6"/>
<path d="M63.0017 30.5H57.7505V35.7512H63.0017V30.5Z" fill="#858EC6"/>
<path d="M57.7517 30.5H52.5005V35.7512H57.7517V30.5Z" fill="#858EC6"/>
<path opacity="0.8" d="M52.5036 30.5H47.2524V35.7512H52.5036V30.5Z" fill="#858EC6"/>
<path opacity="0.5" d="M47.2514 30.5H42.0002V35.7512H47.2514V30.5Z" fill="#858EC6"/>
<path opacity="0.7" d="M78.7498 25.2507H73.5009V30.5019H78.7498V25.2507Z" fill="#858EC6"/>
<path opacity="0.8" d="M73.5017 25.2507H68.2505V30.5019H73.5017V25.2507Z" fill="#858EC6"/>
<path d="M68.2517 25.2507H63.0005V30.5019H68.2517V25.2507Z" fill="#858EC6"/>
<path d="M63.0017 25.2507H57.7505V30.5019H63.0017V25.2507Z" fill="#858EC6"/>
<path opacity="0.8" d="M57.7517 25.2507H52.5005V30.5019H57.7517V25.2507Z" fill="#858EC6"/>
<path opacity="0.7" d="M52.5036 25.2507H47.2524V30.5019H52.5036V25.2507Z" fill="#858EC6"/>
<path opacity="0.5" d="M73.5017 20H68.2505V25.2512H73.5017V20Z" fill="#858EC6"/>
<path opacity="0.7" d="M68.2517 20H63.0005V25.2512H68.2517V20Z" fill="#858EC6"/>
<path opacity="0.7" d="M63.0017 20H57.7505V25.2512H63.0017V20Z" fill="#858EC6"/>
<path opacity="0.5" d="M57.7517 20H52.5005V25.2512H57.7517V20Z" fill="#858EC6"/>
<path d="M55.8213 39.3338L57.2835 36.0605C57.8169 35.2205 57.7458 34.1938 57.1613 33.616C57.0833 33.5378 56.9968 33.4685 56.9035 33.4093C56.7033 33.2874 56.4789 33.2106 56.246 33.1841C56.013 33.1576 55.7771 33.1821 55.5546 33.256C55.0491 33.4145 54.6176 33.7498 54.3391 34.2004C54.3391 34.2004 52.339 38.8672 51.5901 40.9739C50.8412 43.0806 51.1457 46.9251 54.0146 49.8051C57.0591 52.8496 61.4747 53.5518 64.2859 51.4362C64.4043 51.3749 64.5154 51.3004 64.617 51.214L73.2838 43.9717C73.706 43.6184 74.3305 42.905 73.7682 42.0872C73.206 41.2694 72.1882 41.8317 71.7682 42.1028L66.777 45.7317C66.7538 45.7513 66.7268 45.766 66.6977 45.7748C66.6685 45.7835 66.6379 45.7862 66.6077 45.7827C66.5775 45.7791 66.5483 45.7694 66.522 45.7542C66.4957 45.7389 66.4729 45.7184 66.4548 45.6939C66.3826 45.5828 66.3484 45.4513 66.3572 45.3191C66.366 45.1869 66.4174 45.0612 66.5037 44.9606L74.1549 38.4672C74.8216 37.8716 74.9082 37.0071 74.3771 36.4138C73.846 35.8205 73.0238 35.8494 72.3593 36.4516L65.4703 41.8383C65.4379 41.8651 65.4004 41.8849 65.36 41.8965C65.3196 41.9082 65.2772 41.9114 65.2356 41.9059C65.1939 41.9005 65.1538 41.8866 65.1177 41.865C65.0816 41.8435 65.0504 41.8147 65.0259 41.7805C64.9516 41.7073 64.907 41.6092 64.9004 41.5051C64.8938 41.401 64.9258 41.2981 64.9903 41.2161L72.7927 33.6449C73.0878 33.3692 73.2617 32.9878 73.2763 32.5843C73.2908 32.1807 73.1449 31.7878 72.8704 31.4915C72.7331 31.3495 72.5683 31.2368 72.3861 31.1604C72.2039 31.084 72.008 31.0454 71.8104 31.0471C71.401 31.0453 71.0073 31.205 70.7148 31.4915L62.7525 38.9694C62.5614 39.1605 62.1881 38.9694 62.1436 38.7472C62.1355 38.7073 62.1376 38.6661 62.1496 38.6272C62.1617 38.5884 62.1833 38.5532 62.2125 38.5249L68.3148 31.576C68.4648 31.439 68.5855 31.2731 68.6697 31.0882C68.7539 30.9033 68.7997 30.7033 68.8045 30.5003C68.8092 30.2972 68.7729 30.0953 68.6975 29.9067C68.6221 29.718 68.5093 29.5466 68.3659 29.4028C68.2225 29.2589 68.0515 29.1456 67.8631 29.0696C67.6747 28.9937 67.4729 28.9566 67.2698 28.9608C67.0667 28.9649 66.8666 29.0101 66.6814 29.0937C66.4963 29.1773 66.33 29.2975 66.1926 29.447L56.9347 39.6694C56.6035 40.0005 56.1146 40.0161 55.8813 39.825C55.8448 39.7969 55.8142 39.7619 55.7913 39.7219C55.7685 39.6819 55.7539 39.6377 55.7483 39.592C55.7427 39.5463 55.7463 39.4999 55.7588 39.4556C55.7713 39.4112 55.7926 39.3699 55.8213 39.3338V39.3338Z" fill="white"/>
<defs>
<filter id="filter0_d_209_113" x="0.666746" y="0.66667" width="124.667" height="124.667" filterUnits="userSpaceOnUse" color-interpolation-filters="sRGB">
<feFlood flood-opacity="0" result="BackgroundImageFix"/>
<feColorMatrix in="SourceAlpha" type="matrix" values="0 0 0 0 0 0 0 0 0 0 0 0 0 0 0 0 0 0 127 0" result="hardAlpha"/>
<feOffset dy="22"/>
<feGaussianBlur stdDeviation="14.6667"/>
<feComposite in2="hardAlpha" operator="out"/>
<feColorMatrix type="matrix" values="0 0 0 0 0.0486111 0 0 0 0 0.127083 0 0 0 0 0.833333 0 0 0 0.06 0"/>
<feBlend mode="normal" in2="BackgroundImageFix" result="effect1_dropShadow_209_113"/>
<feBlend mode="normal" in="SourceGraphic" in2="effect1_dropShadow_209_113" result="shape"/>
</filter>
<filter id="filter1_d_209_113" x="0.666746" y="0.66667" width="124.667" height="124.667" filterUnits="userSpaceOnUse" color-interpolation-filters="sRGB">
<feFlood flood-opacity="0" result="BackgroundImageFix"/>
<feColorMatrix in="SourceAlpha" type="matrix" values="0 0 0 0 0 0 0 0 0 0 0 0 0 0 0 0 0 0 127 0" result="hardAlpha"/>
<feOffset dy="22"/>
<feGaussianBlur stdDeviation="14.6667"/>
<feComposite in2="hardAlpha" operator="out"/>
<feColorMatrix type="matrix" values="0 0 0 0 0.0486111 0 0 0 0 0.127083 0 0 0 0 0.833333 0 0 0 0.06 0"/>
<feBlend mode="normal" in2="BackgroundImageFix" result="effect1_dropShadow_209_113"/>
<feBlend mode="normal" in="SourceGraphic" in2="effect1_dropShadow_209_113" result="shape"/>
</filter>
<radialGradient id="paint0_radial_209_113" cx="0" cy="0" r="1" gradientUnits="userSpaceOnUse" gradientTransform="translate(63 18.6895) rotate(90) scale(55.3104)">
<stop stop-color="#F0F0FF"/>
<stop stop-color="#F1F1FD"/>
<stop offset="0.703125" stop-color="white"/>
</radialGradient>
<linearGradient id="paint1_linear_209_113" x1="102.526" y1="74" x2="107.495" y2="52.1101" gradientUnits="userSpaceOnUse">
<stop stop-color="#F7F8FD"/>
<stop offset="1" stop-color="white"/>
</linearGradient>
</defs>
</svg>
