<svg width="60" height="80" viewBox="0 0 60 80" fill="none" xmlns="http://www.w3.org/2000/svg">
<path d="M46.5234 59.6875L39.9258 55.8606L39.8584 35.467L46.456 39.2939L46.5234 59.6875Z" fill="#DBE1F6"/>
<path d="M55.3331 44.3941L48.7355 40.5672L48.6494 10.1282L55.247 13.955L55.3331 44.3941Z" fill="#DBE1F6"/>
<path d="M46.3867 11.4351L39.7891 7.61013L46.4241 3.78516L53.0217 7.61199L46.3867 11.4351Z" fill="#F9FAFF"/>
<path d="M53.0446 15.2236L55.3099 13.9174L53.0371 12.6001L53.0446 15.2236Z" fill="#F9FAFF"/>
<path d="M53.0212 7.61297L53.0362 12.6731L55.2454 13.9549L59.6788 11.4006L53.0812 7.57373L53.0156 7.6111L53.0212 7.61297Z" fill="#F9FAFF"/>
<path d="M20.0121 74.9652L13.4145 71.1384L13.3789 68.5635L19.9765 72.3903L20.0121 74.9652Z" fill="#DBE1F6"/>
<path d="M19.9971 79.9991L13.4014 76.1723L13.3789 68.5635L19.9765 72.3903L19.9971 79.9991Z" fill="#DBE1F6"/>
<path d="M13.3408 76.214L6.74317 72.3871L6.7207 64.7783L13.3183 68.6033L13.3408 76.214Z" fill="#DBE1F6"/>
<path d="M19.8915 54.6038L13.2939 50.7769L39.909 35.4397L46.5066 39.2665L19.8915 54.6038Z" fill="#F9FAFF"/>
<path d="M19.8911 54.6765L13.2935 50.8497L13.2148 22.9238L19.8124 26.7507L19.8911 54.6765Z" fill="#DBE1F6"/>
<path d="M39.7588 5.02466L46.3564 8.8515L46.4575 39.2943L39.8599 35.4674L39.7588 5.02466Z" fill="#DBE1F6"/>
<path d="M11.0577 69.9063L4.46014 66.0794L4.37402 35.6404L10.9716 39.4653L11.0577 69.9063Z" fill="#DBE1F6"/>
<path d="M6.68362 72.4273L0.0860238 68.6004L0.0654297 60.9897L6.66303 64.8166L6.68362 72.4273Z" fill="#EBEFFB"/>
<path d="M39.7323 7.64994L33.1328 3.8231L39.7697 0L46.3673 3.82684L39.7323 7.64994Z" fill="#F9FAFF"/>
<path d="M6.66304 64.8175L0.065435 60.9907L0.0429688 53.3818L6.64057 57.2087L6.66304 64.8175Z" fill="#E6EBF9"/>
<path d="M33.0956 11.4729L26.498 7.6461L33.1331 3.823L39.7326 7.64984L33.0956 11.4729Z" fill="#F9FAFF"/>
<path d="M6.64066 57.2078L0.043055 53.381L0.0224609 45.7703L6.61819 49.5971L6.64066 57.2078Z" fill="#DFE4F8"/>
<path d="M26.4589 15.2974L19.8613 11.4724L26.4964 7.64746L33.094 11.4743L26.4589 15.2974Z" fill="#F9FAFF"/>
<path d="M19.8473 26.7301L13.2497 22.9032L13.2422 20.3059L19.8398 24.1327L19.8473 26.7301Z" fill="#DBE1F6"/>
<path d="M6.6182 49.5979L0.0224663 45.7711L0 38.1604L6.5976 41.9872L6.6182 49.5979Z" fill="#DBE1F6"/>
<path fill-rule="evenodd" clip-rule="evenodd" d="M4.43794 35.6045L6.63555 34.3372L13.2332 38.164L11.034 39.4304L11.0347 39.4309L6.5976 41.9871L0 38.1602L4.43709 35.604L4.43794 35.6045Z" fill="#E5E9F9"/>
<path d="M13.2325 38.1636L6.63485 34.3368L6.61426 26.7261L13.2119 30.5529L13.2325 38.1636Z" fill="#DAE0F7"/>
<path d="M13.2119 30.553L6.61426 26.7262L13.2493 22.9031L19.8469 26.7299L13.2119 30.553Z" fill="#F9FAFF"/>
<path d="M19.8124 26.7497L13.2148 22.9228L13.2279 15.2935L19.8256 19.1203L19.8124 26.7497Z" fill="#DAE0F7"/>
<path d="M19.8242 19.1204L13.2266 15.2936L19.8616 11.4705L26.4592 15.2954L19.8242 19.1204Z" fill="#F9FAFF"/>
<path fill-rule="evenodd" clip-rule="evenodd" d="M19.8112 26.7515L19.8243 19.1222L26.4594 15.2972L33.0944 11.4741L39.7313 7.65098L46.3664 3.82788L46.3869 11.4177L46.3871 11.4361L53.0222 7.61303L53.0447 15.2237L55.31 13.9176L55.31 13.919L59.679 11.3999L59.6996 19.0106L59.7221 26.6213L59.7446 34.232L59.7652 41.8408L55.3961 44.3581V44.3585L53.1308 45.6628L53.1532 53.2735L46.5541 57.0759L46.5372 64.7062L39.9022 68.5312L33.2671 72.3543L26.6321 76.1774L19.9952 80.0005L19.9746 72.3923L13.3408 76.2147L13.3184 68.604L11.0567 69.9082L11.0567 69.906L6.6828 72.4277L6.66221 64.817L6.63974 57.2082L6.61727 49.5975L6.59668 41.9868L11.0338 39.4306L11.0338 39.4309L13.2322 38.1649L13.2116 30.5542L19.8112 26.7515Z" fill="url(#paint0_linear_1_12599)"/>
<g clip-path="url(#clip0_1_12599)">
<path d="M49.2453 40.6269L46.3965 38.9633C46.7345 38.516 47.3736 37.7396 47.9816 37.3848C48.2975 37.1999 48.6061 37.1315 48.8595 37.2812L51.7084 38.9448C51.4531 38.7951 51.1463 38.8653 50.8304 39.0483C50.2206 39.4032 49.5832 40.1814 49.2453 40.6269Z" fill="#D1D9F5"/>
<path d="M42.718 49.9227L39.8691 48.2573L46.397 38.9541L49.2458 40.6195L42.718 49.9227Z" fill="#D9E0F6"/>
<path d="M42.3176 50.1296L39.4688 48.466C39.5023 48.4827 39.5397 48.4898 39.577 48.4866C39.6143 48.4833 39.6498 48.4698 39.68 48.4475C39.7541 48.4004 39.8168 48.3373 39.8636 48.2627L42.7106 49.9263C42.6643 50.0012 42.6014 50.0645 42.527 50.1111C42.4972 50.1334 42.4619 50.147 42.4249 50.1502C42.3879 50.1535 42.3508 50.1464 42.3176 50.1296Z" fill="#D1D9F5"/>
<path d="M49.9876 31.6044L47.1406 29.9408C47.4884 29.3241 47.977 28.7995 48.566 28.4103C48.994 28.1626 49.3999 28.1146 49.7268 28.3068L52.5738 29.9704C52.2487 29.7855 51.8391 29.8262 51.4148 30.0739C50.9372 30.3512 50.434 30.878 49.9876 31.6044Z" fill="#D1D9F5"/>
<path d="M40.9779 45.0206L38.1309 43.3551L47.1402 29.9392L49.9872 31.6046L40.9779 45.0206Z" fill="#D9E0F6"/>
<path d="M40.4367 45.2922L37.5879 43.6286C37.6339 43.6521 37.6855 43.6625 37.7369 43.6586C37.7884 43.6547 37.8379 43.6366 37.8799 43.6065C37.9812 43.5431 38.0671 43.4579 38.1316 43.3569L40.9786 45.0205C40.9151 45.1223 40.829 45.2077 40.7269 45.2701C40.6852 45.3003 40.6361 45.3183 40.5849 45.3222C40.5337 45.3261 40.4824 45.3158 40.4367 45.2922Z" fill="#D1D9F5"/>
<path d="M47.8167 25.3034L44.9678 23.6399C45.3097 23.0369 45.7951 22.5288 46.3802 22.1611C46.9147 21.8506 47.4052 21.7914 47.7652 22.0114L50.6122 23.675C50.2448 23.4643 49.7618 23.5142 49.2291 23.8247C48.6431 24.1913 48.1575 24.6997 47.8167 25.3034Z" fill="#D1D9F5"/>
<path d="M37.3968 42.7304L34.5498 41.0631L44.9679 23.6379L47.8168 25.3034L37.3968 42.7304Z" fill="#D9E0F6"/>
<path d="M36.717 43.0298L33.8682 41.3662C33.9349 41.3979 34.0086 41.4118 34.0822 41.4066C34.1559 41.4015 34.227 41.3774 34.2888 41.3367C34.397 41.2701 34.4861 41.1765 34.5477 41.0649L37.3966 42.7285C37.3354 42.841 37.2454 42.9348 37.1358 43.0002C37.0744 43.041 37.0036 43.0651 36.9302 43.0703C36.8569 43.0754 36.7834 43.0615 36.717 43.0298Z" fill="#D1D9F5"/>
<path d="M43.2982 24.1185L40.4512 22.4549C40.96 22.1573 41.4706 22.0853 41.8545 22.3145L44.7033 23.9781C44.3175 23.7526 43.8088 23.8228 43.2982 24.1185Z" fill="#D1D9F5"/>
<path d="M28.3947 49.2722L25.5459 47.6086C25.6351 47.6275 25.7273 47.6274 25.8165 47.6083C25.9057 47.5892 25.99 47.5515 26.0638 47.4977C26.4241 47.2679 26.7205 46.95 26.9253 46.5735L29.7741 48.2371C29.5682 48.6127 29.2721 48.9305 28.9127 49.1613C28.8388 49.215 28.7545 49.2526 28.6654 49.2717C28.5762 49.2908 28.4839 49.291 28.3947 49.2722Z" fill="#D1D9F5"/>
<path d="M28.3517 49.2534L25.5029 47.5898L25.5452 47.6083L28.394 49.2719C28.3791 49.2677 28.3649 49.2615 28.3517 49.2534Z" fill="#D1D9F5"/>
<path d="M29.7736 48.2351L26.9248 46.5697L39.0162 24.0059L41.8632 25.6713L29.7736 48.2351Z" fill="#D9E0F6"/>
<path d="M41.8636 25.6714L39.0166 24.0078C39.0442 23.9542 39.0754 23.9024 39.1084 23.847C39.4344 23.2781 39.8958 22.7998 40.4511 22.4551L43.2981 24.1187C42.7436 24.4644 42.2824 24.9425 41.9554 25.5105C41.9242 25.566 41.893 25.6177 41.8636 25.6714Z" fill="#D1D9F5"/>
<path d="M29.7062 38.7634L26.8574 37.0999C26.9763 37.1184 27.0912 37.1571 27.1972 37.2145L30.0441 38.878C29.9388 38.8207 29.8245 38.782 29.7062 38.7634Z" fill="#D1D9F5"/>
<path d="M25.9901 65.8174L23.1412 64.1538C19.3612 61.9764 18.9553 56.3627 19.9233 52.6104C20.8913 48.858 23.369 40.6787 23.4994 40.248L26.3464 41.9116C26.216 42.3423 23.7401 50.5235 22.7721 54.2739C21.8041 58.0244 22.21 63.64 25.9901 65.8174Z" fill="url(#paint1_linear_1_12599)"/>
<path d="M26.346 41.9209L23.499 40.2573C23.8593 39.3672 24.4019 38.5636 25.0915 37.8987C25.2912 37.7041 25.5132 37.5341 25.7527 37.3922C26.0804 37.1813 26.4668 37.0821 26.8548 37.1094L29.7037 38.773C29.3128 38.7456 28.9233 38.8447 28.5924 39.0558C28.3534 39.1977 28.132 39.3677 27.933 39.5623C27.2421 40.2265 26.6988 41.0303 26.3387 41.9209" fill="#D1D9F5"/>
<path d="M43.2978 24.1185C43.8268 23.8117 44.354 23.7488 44.7434 24.0039C45.4891 24.4937 45.4486 25.9632 44.6533 27.2849L36.6854 42.4753C36.6133 42.5923 36.5823 42.7303 36.5973 42.8672C36.6413 43.0816 36.9022 43.1463 37.1391 43.0095C37.2487 42.9441 37.3388 42.8502 37.4 42.7378L47.8199 25.3126C48.1608 24.7088 48.6464 24.2005 49.2324 23.8339C49.7834 23.5159 50.283 23.4642 50.6449 23.7026C51.3998 24.1998 51.3575 25.6897 50.5548 27.0298L40.359 44.4383C40.1588 44.7858 40.2286 45.1389 40.4086 45.2683C40.4554 45.3038 40.5124 45.323 40.5711 45.323C40.6297 45.323 40.6868 45.3038 40.7337 45.2683C40.8357 45.206 40.9219 45.1205 40.9853 45.0187L49.9946 31.6028C50.441 30.8764 50.9443 30.3496 51.4218 30.0723C51.8994 29.795 52.309 29.7729 52.6432 30.0076C53.3486 30.4993 53.2311 31.8819 52.3659 33.2886L42.361 48.9633C42.1002 49.3644 42.1332 49.9725 42.3004 50.1112C42.3333 50.1384 42.3745 50.1532 42.4171 50.1532C42.4596 50.1532 42.5008 50.1384 42.5337 50.1112C42.6081 50.0645 42.671 50.0013 42.7173 49.9263L49.2471 40.6232C49.5851 40.1777 50.2224 39.3995 50.8322 39.0446C51.2179 38.8209 51.5927 38.7673 51.8719 39.0742C52.6066 39.8893 51.7946 41.4531 51.2436 42.3015L39.9034 59.8894C39.7719 60.0912 39.6277 60.2845 39.4718 60.4679C38.1676 62.4049 36.4564 64.0298 34.4592 65.2276C31.5645 66.9097 28.4438 67.2258 25.9917 65.821C22.2117 63.6435 21.8039 58.0298 22.7737 54.2775C23.7435 50.5252 26.2177 42.3459 26.3481 41.9152C26.7082 41.0246 27.2515 40.2208 27.9424 39.5566C28.1414 39.362 28.3628 39.192 28.6019 39.0501C28.9328 38.839 29.3222 38.7399 29.7131 38.7673C29.8314 38.7859 29.9457 38.8246 30.051 38.8819C30.8188 39.3237 30.9161 40.8283 30.22 42.5086L28.3153 48.588C28.1647 48.9041 28.1996 49.211 28.3961 49.2757C28.4854 49.2944 28.5775 49.2943 28.6667 49.2752C28.7559 49.2561 28.8401 49.2185 28.914 49.1647C29.2734 48.9339 29.5696 48.6162 29.7755 48.2405L41.8651 25.6767C41.8945 25.6231 41.9258 25.5714 41.957 25.5159C42.2827 24.9461 42.7433 24.4661 43.2978 24.1185Z" fill="white"/>
</g>
<defs>
<linearGradient id="paint0_linear_1_12599" x1="49.3595" y1="7.07153" x2="22.4233" y2="109.113" gradientUnits="userSpaceOnUse">
<stop stop-color="#D1D9F5"/>
<stop offset="1" stop-color="white"/>
</linearGradient>
<linearGradient id="paint1_linear_1_12599" x1="22.9115" y1="40.248" x2="22.9115" y2="65.8174" gradientUnits="userSpaceOnUse">
<stop stop-color="#D1D9F5"/>
<stop offset="1" stop-color="#D1D9F5" stop-opacity="0"/>
</linearGradient>
<clipPath id="clip0_1_12599">
<rect width="33.6184" height="44.8245" fill="white" transform="translate(19.4766 21.8784)"/>
</clipPath>
</defs>
</svg>
