<svg width="24" height="24" viewBox="0 0 24 24" fill="none" xmlns="http://www.w3.org/2000/svg">
<path d="M11.102 14.1702V14.1128C11.1088 13.5041 11.1769 13.0198 11.3061 12.6597C11.4354 12.2996 11.619 12.008 11.8571 11.7849C12.0952 11.5618 12.381 11.3563 12.7143 11.1683C12.915 11.0535 13.0952 10.9181 13.2551 10.762C13.415 10.6026 13.5408 10.4194 13.6327 10.2122C13.7279 10.0051 13.7755 9.77565 13.7755 9.5239C13.7755 9.2116 13.6973 8.94073 13.5408 8.71128C13.3844 8.48184 13.1752 8.30497 12.9133 8.18069C12.6514 8.05641 12.3605 7.99426 12.0408 7.99426C11.7619 7.99426 11.4932 8.04844 11.2347 8.15679C10.9762 8.26514 10.7602 8.43563 10.5867 8.66826C10.4133 8.90089 10.3129 9.20523 10.2857 9.58126H9C9.02721 9.03952 9.17687 8.57584 9.44898 8.19025C9.72449 7.80465 10.0867 7.50988 10.5357 7.30593C10.9881 7.10198 11.4898 7 12.0408 7C12.6395 7 13.1599 7.11154 13.602 7.33461C14.0476 7.55768 14.3912 7.86361 14.6327 8.25239C14.8776 8.64117 15 9.08413 15 9.58126C15 9.9318 14.9422 10.2489 14.8265 10.5325C14.7143 10.8161 14.551 11.0695 14.3367 11.2925C14.1259 11.5156 13.8707 11.7132 13.5714 11.8853C13.2721 12.0605 13.0323 12.2454 12.852 12.4398C12.6718 12.631 12.5408 12.8588 12.4592 13.1233C12.3776 13.3878 12.3333 13.7177 12.3265 14.1128V14.1702H11.102ZM11.7551 17C11.5034 17 11.2874 16.9156 11.1071 16.7467C10.9269 16.5778 10.8367 16.3754 10.8367 16.1396C10.8367 15.9038 10.9269 15.7014 11.1071 15.5325C11.2874 15.3636 11.5034 15.2792 11.7551 15.2792C12.0068 15.2792 12.2228 15.3636 12.4031 15.5325C12.5833 15.7014 12.6735 15.9038 12.6735 16.1396C12.6735 16.2957 12.631 16.4391 12.5459 16.5698C12.4643 16.7004 12.3537 16.8056 12.2143 16.8853C12.0782 16.9618 11.9252 17 11.7551 17Z" fill="#320A8D"/>
<circle cx="12" cy="12" r="9.5" stroke="#320A8D"/>
</svg>
