<svg width="16" height="16" viewBox="0 0 16 16" fill="none" xmlns="http://www.w3.org/2000/svg">
<path d="M3.2002 14.4H12.8002L12.3204 11.0413C12.1285 9.69821 11.1105 8.62209 9.78011 8.35601L8.0002 8.00002L6.22028 8.35601C4.88988 8.62209 3.87188 9.69821 3.68001 11.0413L3.2002 14.4Z" fill="#FFBB00"/>
<path d="M12.6663 1.33319V3.33319C12.6663 5.91052 10.577 7.99986 7.99967 7.99986M3.33301 1.33319V3.33319C3.33301 5.91052 5.42235 7.99986 7.99967 7.99986M7.99967 7.99986C10.577 7.99986 12.6663 10.0892 12.6663 12.6665V14.6665M7.99967 7.99986C5.42235 7.99986 3.33301 10.0892 3.33301 12.6665V14.6665" stroke="black"/>
<path d="M2.66602 1.33301H13.3327M13.3327 14.6663H2.66602" stroke="black" stroke-linecap="round"/>
</svg>
