<svg width="16" height="17" viewBox="0 0 16 17" fill="none" xmlns="http://www.w3.org/2000/svg">
<path d="M12.0001 5.81364H11.3334V4.48031C11.3334 2.64031 9.84008 1.14697 8.00008 1.14697C6.16008 1.14697 4.66675 2.64031 4.66675 4.48031V5.81364H4.00008C3.26675 5.81364 2.66675 6.41364 2.66675 7.14697V13.8136C2.66675 14.547 3.26675 15.147 4.00008 15.147H12.0001C12.7334 15.147 13.3334 14.547 13.3334 13.8136V7.14697C13.3334 6.41364 12.7334 5.81364 12.0001 5.81364ZM8.00008 11.8136C7.26675 11.8136 6.66675 11.2136 6.66675 10.4803C6.66675 9.74697 7.26675 9.14697 8.00008 9.14697C8.73341 9.14697 9.33341 9.74697 9.33341 10.4803C9.33341 11.2136 8.73341 11.8136 8.00008 11.8136ZM10.0667 5.81364H5.93341V4.48031C5.93341 3.34031 6.86008 2.41364 8.00008 2.41364C9.14008 2.41364 10.0667 3.34031 10.0667 4.48031V5.81364Z" fill="#CBCFE6"/>
</svg>
