<svg width="20" height="20" viewBox="0 0 20 20" fill="none" xmlns="http://www.w3.org/2000/svg">
<path d="M16.4999 13.9725L16.5023 14.1276L16.4164 14.2569C15.0376 16.3303 12.6744 17.7 10 17.7C7.32556 17.7 4.96236 16.3303 3.58364 14.2569L3.49772 14.1276L3.50006 13.9725C3.51027 13.2949 3.85897 12.7335 4.32876 12.2941C4.79651 11.8565 5.41795 11.5058 6.07223 11.2324C7.3787 10.6865 8.93658 10.4 10 10.4C11.0683 10.4 12.6262 10.6865 13.9317 11.2325C14.5854 11.5059 15.206 11.8567 15.673 12.2944C16.1421 12.734 16.4897 13.2954 16.4999 13.9725ZM19.5 10C19.5 4.75614 15.2439 0.5 10 0.5C4.75614 0.5 0.5 4.75614 0.5 10C0.5 15.2439 4.75614 19.5 10 19.5C15.2439 19.5 19.5 15.2439 19.5 10ZM6.5 6C6.5 4.06386 8.06386 2.5 10 2.5C11.9361 2.5 13.5 4.06386 13.5 6C13.5 7.93614 11.9361 9.5 10 9.5C8.06386 9.5 6.5 7.93614 6.5 6Z" stroke="#320A8D"/>
</svg>
