<svg width="33" height="34" viewBox="0 0 33 34" fill="none" xmlns="http://www.w3.org/2000/svg">
<path d="M5.77734 31.4385C5.77734 25.29 10.7617 20.3057 16.9102 20.3057H21.8676C28.0162 20.3057 33.0005 25.29 33.0005 31.4385C33.0005 32.4633 32.1698 33.294 31.145 33.294H7.63282C6.60807 33.294 5.77734 32.4633 5.77734 31.4385Z" fill="url(#paint0_linear_1_16506)"/>
<path d="M11.5859 9.51468C11.5859 6.03322 14.4082 3.21094 17.8897 3.21094C21.3711 3.21094 24.1934 6.03322 24.1934 9.51468V9.89553C24.1934 13.377 21.3711 16.1993 17.8897 16.1993C14.4082 16.1993 11.5859 13.377 11.5859 9.89553V9.51468Z" fill="url(#paint1_linear_1_16506)"/>
<path fill-rule="evenodd" clip-rule="evenodd" d="M20.2963 6.96648C20.2963 9.9138 17.907 12.3031 14.9597 12.3031C12.0123 12.3031 9.62307 9.9138 9.62307 6.96648C9.62307 4.01916 12.0123 1.62989 14.9597 1.62989C17.907 1.62989 20.2963 4.01916 20.2963 6.96648ZM21.5951 6.96648C21.5951 10.6311 18.6243 13.6019 14.9597 13.6019C11.295 13.6019 8.32424 10.6311 8.32424 6.96648C8.32424 3.30184 11.295 0.331055 14.9597 0.331055C18.6243 0.331055 21.5951 3.30184 21.5951 6.96648ZM2.19314 29.1856H4.77527H13.5423H24.8919C24.5801 22.6296 19.5746 17.4961 13.5425 17.4961C7.51048 17.4961 2.50492 22.6296 2.19314 29.1856ZM0.878906 30.4844H4.77527H13.5425H26.2062H29.4531V29.835C29.4531 22.262 22.6257 16.1973 15.1659 16.1973H13.5425H12.9127V16.2138C6.16946 16.5678 0.878906 22.5762 0.878906 29.835V30.4844ZM28.1353 29.1856H26.192C26.0121 25.0688 24.1306 21.4065 21.2711 19.0289C25.0864 21.0388 27.8809 24.8261 28.1353 29.1856Z" fill="#320A8D"/>
<defs>
<linearGradient id="paint0_linear_1_16506" x1="10.5981" y1="20.3057" x2="25.083" y2="40.5363" gradientUnits="userSpaceOnUse">
<stop stop-color="#244CB3" stop-opacity="0.2"/>
<stop offset="1" stop-color="#B4C2E5" stop-opacity="0.07"/>
</linearGradient>
<linearGradient id="paint1_linear_1_16506" x1="13.8185" y1="3.21094" x2="27.7738" y2="12.2375" gradientUnits="userSpaceOnUse">
<stop stop-color="#244CB3" stop-opacity="0.2"/>
<stop offset="1" stop-color="#B4C2E5" stop-opacity="0.07"/>
</linearGradient>
</defs>
</svg>
