<svg width="18" height="18" viewBox="0 0 18 18" fill="none" xmlns="http://www.w3.org/2000/svg">
<path d="M14.7999 12.3766L14.802 12.5068L14.7271 12.6133C13.4908 14.3692 11.3795 15.52 9 15.52C6.62046 15.52 4.5092 14.3692 3.27293 12.6133L3.19797 12.5068L3.20005 12.3766C3.20924 11.8011 3.5224 11.3281 3.93846 10.9606C4.35405 10.5934 4.90715 10.2983 5.49167 10.0676C6.65997 9.60658 8.05296 9.365 9 9.365C9.95143 9.365 11.3445 9.60653 12.5118 10.0677C13.0959 10.2984 13.6482 10.5936 14.0631 10.9608C14.4786 11.3285 14.7908 11.8014 14.7999 12.3766ZM17.6 9C17.6 4.55015 13.7689 0.9 9 0.9C4.23107 0.9 0.4 4.55015 0.4 9C0.4 13.4499 4.23107 17.1 9 17.1C13.7689 17.1 17.6 13.4499 17.6 9ZM5.9 5.6C5.9 3.94685 7.30694 2.65 9 2.65C10.6931 2.65 12.1 3.94685 12.1 5.6C12.1 7.25315 10.6931 8.55 9 8.55C7.30694 8.55 5.9 7.25315 5.9 5.6Z" stroke="#320A8D" stroke-width="0.8"/>
</svg>
