<svg width="48" height="20" viewBox="0 0 48 20" fill="none" xmlns="http://www.w3.org/2000/svg">
<path d="M43.5961 8.46107V13.8665H43.6144C43.9766 11.1358 45.5867 9.35153 47.9996 8.50193V3C45.2246 3.48552 43.5957 5.24521 43.5957 8.46107H43.5961Z" fill="#14E5C5"/>
<path d="M38.4326 13.0837L42.8366 16.7242V9.5034L38.4326 5.86255V13.0837Z" fill="#14E5C5"/>
<path d="M30.6206 7.93236C30.6206 5.73052 32.4695 4.97561 34.1761 5.29015V6.84716C33.4176 6.61125 32.5801 6.78425 32.5801 7.93236V8.52998H34.1761V10.1499H32.5801V16.4408H30.6206V10.1499H29.1826V8.52998H30.6206V7.93236Z" fill="#0C3035"/>
<path d="M26.0655 7.93236C26.0655 5.73052 27.9144 4.97561 29.621 5.29015V6.84716C28.8625 6.61125 28.025 6.78425 28.025 7.93236V8.52998H29.7632V10.1499H28.025V16.4408H26.0655V10.1499H24.7793V8.52998H26.0655V7.93236Z" fill="#0C3035"/>
<path d="M22.0589 16.4407V8.52986H24.0184V16.4407H22.0589ZM21.7744 6.13929C21.7744 5.43156 22.3275 4.8811 23.0386 4.8811C23.7655 4.8811 24.3186 5.43156 24.3186 6.13929C24.3186 6.86275 23.7655 7.41321 23.0386 7.41321C22.3275 7.41321 21.7744 6.86275 21.7744 6.13929Z" fill="#0C3035"/>
<path d="M16.3828 16.4411V8.53027H18.3423L18.2949 10.7007C18.6426 8.86054 19.9541 8.24719 21.2973 8.51455V10.449C19.7645 10.2288 18.3423 10.9208 18.3423 13.0755V16.4411H16.3828Z" fill="#0C3035"/>
<path d="M11.8565 16.7243C9.47033 16.7243 7.76367 14.9471 7.76367 12.4779C7.76367 10.0245 9.47033 8.24731 11.8249 8.24731C14.5745 8.24731 16.0441 10.6064 15.6964 13.0756H9.73897C9.80219 14.3023 10.6713 15.1988 11.8723 15.1988C12.8204 15.1988 13.6105 14.6641 13.8792 13.8619L15.5542 14.1136C15.2382 15.5763 13.7844 16.7243 11.8565 16.7243ZM9.75477 11.6129H13.8002C13.8002 10.5592 12.9942 9.70995 11.8249 9.70995C10.7345 9.70995 9.89698 10.4806 9.75477 11.6129Z" fill="#0C3035"/>
<path d="M3.19593 16.4411L0 8.53027H2.0878L4.23984 14.3179L6.40792 8.53027H8.41541L5.21947 16.4411H3.19593Z" fill="#0C3035"/>
</svg>
