<svg width="37" height="30" viewBox="0 0 37 30" fill="none" xmlns="http://www.w3.org/2000/svg">
<path d="M5.6875 12.7669C5.6875 11.3887 6.80473 10.2715 8.1829 10.2715H34.3846C35.7627 10.2715 36.88 11.3887 36.88 12.7669V27.1154C36.88 28.4936 35.7627 29.6108 34.3846 29.6108H8.1829C6.80473 29.6108 5.6875 28.4936 5.6875 27.1154V12.7669Z" fill="url(#paint0_linear_1_16518)"/>
<path fill-rule="evenodd" clip-rule="evenodd" d="M13.6738 11.8929C13.6738 11.5483 13.9531 11.269 14.2977 11.269H16.5435C16.8881 11.269 17.1674 11.5483 17.1674 11.8929C17.1674 12.2374 16.8881 12.5167 16.5435 12.5167H14.2977C13.9531 12.5167 13.6738 12.2374 13.6738 11.8929Z" fill="#320A8D"/>
<path fill-rule="evenodd" clip-rule="evenodd" d="M1.94496 10.5207L1.94496 21.5004C1.94496 23.5677 3.62081 25.2435 5.68807 25.2435L25.1522 25.2435C27.2194 25.2435 28.8953 23.5677 28.8953 21.5004L28.8953 10.5207C28.8953 8.45341 27.2194 6.77757 25.1522 6.77757L5.68806 6.77757C3.62081 6.77757 1.94496 8.45341 1.94496 10.5207ZM0.697265 21.5004C0.697266 24.2568 2.93173 26.4912 5.68807 26.4912L25.1522 26.4912C27.9085 26.4912 30.143 24.2568 30.143 21.5004L30.143 10.5207C30.143 7.76432 27.9085 5.52987 25.1522 5.52987L5.68806 5.52987C2.93172 5.52987 0.697265 7.76433 0.697265 10.5207L0.697265 21.5004Z" fill="#320A8D"/>
<path fill-rule="evenodd" clip-rule="evenodd" d="M1.94496 10.5207L1.94496 21.5004C1.94496 23.5677 3.6208 25.2435 5.68806 25.2435L28.6457 25.2435C30.713 25.2435 32.3888 23.5677 32.3888 21.5004L32.3888 10.5207C32.3888 8.45341 30.713 6.77757 28.6457 6.77757L5.68806 6.77757C3.62081 6.77757 1.94496 8.45341 1.94496 10.5207ZM0.697265 21.5004C0.697266 24.2568 2.93172 26.4912 5.68806 26.4912L28.6457 26.4912C31.4021 26.4912 33.6365 24.2568 33.6365 21.5004L33.6365 10.5207C33.6365 7.76432 31.4021 5.52987 28.6457 5.52987L5.68806 5.52987C2.93172 5.52987 0.697265 7.76433 0.697265 10.5207L0.697265 21.5004Z" fill="#320A8D"/>
<path fill-rule="evenodd" clip-rule="evenodd" d="M12.3199 0.914589H18.853C19.2688 0.904083 19.6827 0.975249 20.0712 1.12403C20.4626 1.27393 20.8205 1.49971 21.1244 1.78833C21.4283 2.07694 21.6721 2.42273 21.842 2.80592C22.0119 3.18921 22.1042 3.60215 22.1139 4.02101L22.1141 4.02828V5.73003H20.8664V4.04331C20.8596 3.79082 20.8036 3.54223 20.7013 3.31153C20.5981 3.07866 20.4499 2.86847 20.2651 2.693C20.0804 2.51755 19.8628 2.38031 19.6249 2.2892C19.387 2.19808 19.1335 2.15487 18.8789 2.16204L18.8701 2.16229H12.3028L12.294 2.16204C12.0394 2.15487 11.7859 2.19808 11.5479 2.2892C11.3101 2.38031 11.0925 2.51755 10.9077 2.693C10.723 2.86847 10.5748 3.07866 10.4716 3.31153C10.3692 3.54243 10.3131 3.79104 10.3063 4.04333V5.6587H9.05859V4.02828L9.05876 4.02101C9.06854 3.60194 9.16108 3.18902 9.33089 2.80592C9.50074 2.42273 9.74463 2.07694 10.0485 1.78833C10.3524 1.49971 10.7103 1.27393 11.1017 1.12403C11.4902 0.975249 11.904 0.904083 12.3199 0.914589Z" fill="#320A8D"/>
<path fill-rule="evenodd" clip-rule="evenodd" d="M1.11615 9.79304C1.24285 9.47264 1.6053 9.31562 1.9257 9.44232L12.8257 13.7528C14.5944 14.4522 16.563 14.4522 18.3317 13.7528L28.9163 9.56709C29.2367 9.44039 29.5991 9.59741 29.7258 9.91781C29.8525 10.2382 29.6955 10.6007 29.3751 10.7274L18.7906 14.9131C16.7271 15.7291 14.4304 15.7291 12.3669 14.9131L1.46687 10.6026C1.14647 10.4759 0.989444 10.1134 1.11615 9.79304Z" fill="#320A8D"/>
<defs>
<linearGradient id="paint0_linear_1_16518" x1="11.2112" y1="10.2715" x2="33.9347" y2="34.6941" gradientUnits="userSpaceOnUse">
<stop stop-color="#244CB3" stop-opacity="0.2"/>
<stop offset="1" stop-color="#B4C2E5" stop-opacity="0.07"/>
</linearGradient>
</defs>
</svg>
