<svg width="78" height="78" viewBox="0 0 78 78" fill="none" xmlns="http://www.w3.org/2000/svg">
<g filter="url(#filter0_d_3157_43600)">
<path d="M71.9999 39C71.9999 57.2254 57.2253 72 38.9999 72C20.7745 72 5.99994 57.2254 5.99994 39C5.99994 20.7746 20.7745 6 38.9999 6C57.2253 6 71.9999 20.7746 71.9999 39Z" fill="url(#paint0_radial_3157_43600)"/>
</g>
<path fill-rule="evenodd" clip-rule="evenodd" d="M38.9999 67.9304C54.9777 67.9304 67.9303 54.9778 67.9303 39C67.9303 23.0222 54.9777 10.0696 38.9999 10.0696C23.0221 10.0696 10.0695 23.0222 10.0695 39C10.0695 54.9778 23.0221 67.9304 38.9999 67.9304ZM38.9999 72C57.2253 72 71.9999 57.2254 71.9999 39C71.9999 20.7746 57.2253 6 38.9999 6C20.7745 6 5.99994 20.7746 5.99994 39C5.99994 57.2254 20.7745 72 38.9999 72Z" fill="url(#paint1_linear_3157_43600)"/>
<path d="M27.7146 36.0355C27.7146 34.7722 28.7387 33.748 30.002 33.748H54.0202C55.2835 33.748 56.3077 34.7722 56.3077 36.0355V49.1883C56.3077 50.4516 55.2835 51.4758 54.0202 51.4758H30.002C28.7387 51.4758 27.7146 50.4516 27.7146 49.1883V36.0355Z" fill="url(#paint2_linear_3157_43600)"/>
<path fill-rule="evenodd" clip-rule="evenodd" d="M35.0344 35.234C35.0344 34.9181 35.2904 34.6621 35.6063 34.6621H37.665C37.9808 34.6621 38.2368 34.9181 38.2368 35.234C38.2368 35.5498 37.9808 35.8058 37.665 35.8058H35.6063C35.2904 35.8058 35.0344 35.5498 35.0344 35.234Z" fill="#320A8D"/>
<path fill-rule="evenodd" clip-rule="evenodd" d="M24.2836 33.9766L24.2836 44.0413C24.2836 45.9363 25.8198 47.4725 27.7148 47.4725L45.5568 47.4725C47.4518 47.4725 48.988 45.9363 48.988 44.0413L48.988 33.9766C48.988 32.0816 47.4518 30.5454 45.5568 30.5454L27.7148 30.5454C25.8198 30.5454 24.2836 32.0816 24.2836 33.9766ZM23.1399 44.0413C23.1399 46.568 25.1881 48.6162 27.7148 48.6162L45.5568 48.6162C48.0835 48.6162 50.1317 46.568 50.1317 44.0413L50.1317 33.9766C50.1317 31.4499 48.0835 29.4017 45.5568 29.4017L27.7148 29.4017C25.1881 29.4017 23.1399 31.4499 23.1399 33.9766L23.1399 44.0413Z" fill="#320A8D"/>
<path fill-rule="evenodd" clip-rule="evenodd" d="M24.2836 33.9766L24.2836 44.0413C24.2836 45.9363 25.8198 47.4725 27.7148 47.4725L48.7593 47.4725C50.6542 47.4725 52.1904 45.9363 52.1904 44.0413L52.1904 33.9766C52.1904 32.0816 50.6543 30.5454 48.7593 30.5454L27.7148 30.5454C25.8198 30.5454 24.2836 32.0816 24.2836 33.9766ZM23.1399 44.0413C23.1399 46.568 25.1881 48.6162 27.7148 48.6162L48.7593 48.6162C51.2859 48.6162 53.3342 46.568 53.3342 44.0413L53.3342 33.9766C53.3342 31.4499 51.2859 29.4017 48.7593 29.4017L27.7148 29.4017C25.1881 29.4017 23.1399 31.4499 23.1399 33.9766L23.1399 44.0413Z" fill="#320A8D"/>
<path fill-rule="evenodd" clip-rule="evenodd" d="M33.7934 25.1709H39.782C40.1632 25.1612 40.5426 25.2265 40.8987 25.3628C41.2575 25.5002 41.5856 25.7072 41.8641 25.9718C42.1427 26.2363 42.3662 26.5533 42.5219 26.9046C42.6777 27.2559 42.7623 27.6344 42.7712 28.0184L42.7714 28.0251V29.585H41.6277V28.0388C41.6215 27.8074 41.5701 27.5795 41.4763 27.368C41.3817 27.1546 41.2458 26.9619 41.0765 26.8011C40.9072 26.6402 40.7077 26.5144 40.4896 26.4309C40.2715 26.3474 40.0391 26.3078 39.8057 26.3143L39.7977 26.3146H33.7777L33.7696 26.3143C33.5362 26.3078 33.3038 26.3474 33.0857 26.4309C32.8677 26.5144 32.6682 26.6402 32.4989 26.8011C32.3295 26.9619 32.1937 27.1546 32.099 27.368C32.0052 27.5797 31.9538 27.8076 31.9476 28.0389V29.5196H30.8038V28.0251L30.804 28.0184C30.8129 27.6343 30.8978 27.2557 31.0534 26.9046C31.2091 26.5533 31.4327 26.2363 31.7112 25.9718C31.9898 25.7072 32.3179 25.5002 32.6767 25.3628C33.0328 25.2265 33.4122 25.1612 33.7934 25.1709Z" fill="#320A8D"/>
<path fill-rule="evenodd" clip-rule="evenodd" d="M23.5231 33.309C23.6393 33.0153 23.9715 32.8713 24.2652 32.9875L34.2569 36.9387C35.8782 37.5799 37.6828 37.5799 39.3041 36.9387L49.0066 33.1019C49.3003 32.9857 49.6325 33.1297 49.7486 33.4234C49.8648 33.7171 49.7208 34.0493 49.4271 34.1654L39.7247 38.0023C37.8332 38.7503 35.7278 38.7503 33.8363 38.0023L23.8446 34.0511C23.5509 33.9349 23.407 33.6027 23.5231 33.309Z" fill="#320A8D"/>
<defs>
<filter id="filter0_d_3157_43600" x="2.99994" y="3" width="72" height="72" filterUnits="userSpaceOnUse" color-interpolation-filters="sRGB">
<feFlood flood-opacity="0" result="BackgroundImageFix"/>
<feColorMatrix in="SourceAlpha" type="matrix" values="0 0 0 0 0 0 0 0 0 0 0 0 0 0 0 0 0 0 127 0" result="hardAlpha"/>
<feMorphology radius="3" operator="dilate" in="SourceAlpha" result="effect1_dropShadow_3157_43600"/>
<feOffset/>
<feColorMatrix type="matrix" values="0 0 0 0 0.913725 0 0 0 0 0.921569 0 0 0 0 0.980392 0 0 0 1 0"/>
<feBlend mode="normal" in2="BackgroundImageFix" result="effect1_dropShadow_3157_43600"/>
<feBlend mode="normal" in="SourceGraphic" in2="effect1_dropShadow_3157_43600" result="shape"/>
</filter>
<radialGradient id="paint0_radial_3157_43600" cx="0" cy="0" r="1" gradientUnits="userSpaceOnUse" gradientTransform="translate(38.9999 16.6895) rotate(90) scale(55.3104)">
<stop stop-color="#F0F0FF"/>
<stop stop-color="#F1F1FD"/>
<stop offset="0.703125" stop-color="white"/>
</radialGradient>
<linearGradient id="paint1_linear_3157_43600" x1="78.526" y1="71.9999" x2="83.4948" y2="50.11" gradientUnits="userSpaceOnUse">
<stop stop-color="#F7F8FD"/>
<stop offset="1" stop-color="white"/>
</linearGradient>
<linearGradient id="paint2_linear_3157_43600" x1="32.7779" y1="33.748" x2="53.6078" y2="56.1355" gradientUnits="userSpaceOnUse">
<stop stop-color="#244CB3" stop-opacity="0.2"/>
<stop offset="1" stop-color="#B4C2E5" stop-opacity="0.07"/>
</linearGradient>
</defs>
</svg>
