<svg width="24" height="24" viewBox="0 0 24 24" fill="none" xmlns="http://www.w3.org/2000/svg">
<path d="M10.2577 10.2376C10.0209 10.2376 9.82891 10.4296 9.82891 10.6664C9.82891 10.9032 10.0209 11.0952 10.2577 11.0952H11.6213C11.8581 11.0952 12.0501 10.9032 12.0501 10.6664C12.0501 10.4296 11.8581 10.2376 11.6213 10.2376H10.2577Z" fill="#320A8D" stroke="#320A8D" stroke-width="0.1" stroke-linecap="round"/>
<path d="M2.80758 16.4997L2.80758 9.83306C2.80758 8.60548 3.80272 7.61034 5.0303 7.61034L16.8485 7.61033C18.0761 7.61033 19.0712 8.60548 19.0712 9.83306L19.0712 16.4997C19.0712 17.7273 18.0761 18.7225 16.8485 18.7225L5.03031 18.7225C3.80273 18.7225 2.80758 17.7273 2.80758 16.4997ZM1.95 16.4997C1.95 18.2009 3.3291 19.58 5.03031 19.58L16.8485 19.58C18.5497 19.58 19.9288 18.2009 19.9288 16.4997L19.9288 9.83306C19.9288 8.13186 18.5497 6.75276 16.8485 6.75276L5.0303 6.75276C3.3291 6.75276 1.95 8.13186 1.95 9.83306L1.95 16.4997Z" fill="#320A8D" stroke="#320A8D" stroke-width="0.1"/>
<path d="M2.80758 16.4997L2.80758 9.83306C2.80758 8.60548 3.80272 7.61034 5.0303 7.61034L18.9697 7.61033C20.1973 7.61033 21.1924 8.60548 21.1924 9.83306L21.1924 16.4997C21.1924 17.7273 20.1973 18.7225 18.9697 18.7225L5.0303 18.7225C3.80272 18.7225 2.80758 17.7273 2.80758 16.4997ZM1.95 16.4997C1.95 18.2009 3.3291 19.58 5.0303 19.58L18.9697 19.58C20.6709 19.58 22.05 18.2009 22.05 16.4997L22.05 9.83306C22.05 8.13186 20.6709 6.75276 18.9697 6.75276L5.0303 6.75276C3.3291 6.75276 1.95 8.13186 1.95 9.83306L1.95 16.4997Z" fill="#320A8D" stroke="#320A8D" stroke-width="0.1"/>
<path d="M15.0532 5.89118H15.0532L15.0532 5.89002L15.0531 5.88561C15.047 5.62471 14.9895 5.36749 14.8837 5.12873C14.7779 4.89004 14.626 4.67465 14.4367 4.49488C14.2474 4.3151 14.0245 4.17446 13.7806 4.08109C13.5389 3.98849 13.2813 3.94416 13.0225 3.95062H9.05699C8.79817 3.94416 8.54061 3.98849 8.29883 4.08109C8.05502 4.17446 7.83207 4.3151 7.64278 4.49488C7.45351 4.67465 7.30159 4.89004 7.19579 5.12873C7.09002 5.36735 7.03238 5.62456 7.02629 5.8856L7.02619 5.89002L7.02617 5.89002V5.89118V6.88114V6.93114H7.07617H7.83375H7.88375V6.88114V5.901C7.88776 5.75457 7.92039 5.61028 7.9798 5.47625C8.0398 5.34088 8.12597 5.21869 8.23337 5.11668C8.34076 5.01469 8.46725 4.9349 8.60554 4.88194C8.74385 4.82897 8.89123 4.80385 9.03924 4.80802L9.04458 4.80817L9.04458 4.80819H9.04599H13.0335V4.80821L13.0349 4.80817L13.0402 4.80802C13.1882 4.80385 13.3356 4.82897 13.4739 4.88194C13.6122 4.9349 13.7387 5.01469 13.8461 5.11668C13.9535 5.21869 14.0397 5.34088 14.0997 5.47625C14.159 5.61014 14.1916 5.75441 14.1956 5.90098V6.92444V6.97444H14.2456H15.0032H15.0532V6.92444V5.89118Z" fill="#320A8D" stroke="#320A8D" stroke-width="0.1" stroke-miterlimit="10"/>
<path d="M2.76314 9.132C2.54292 9.04492 2.2938 9.15284 2.20671 9.37306C2.11962 9.59328 2.22755 9.8424 2.44777 9.92949L9.06603 12.5467C10.3307 13.0468 11.7384 13.0468 13.0031 12.5467L19.4298 10.0052C19.65 9.91816 19.758 9.66904 19.6709 9.44882C19.5838 9.2286 19.3347 9.12067 19.1144 9.20776L12.6877 11.7492C11.6256 12.1692 10.4435 12.1692 9.3814 11.7492L2.76314 9.132Z" fill="#320A8D" stroke="#320A8D" stroke-width="0.1" stroke-linecap="round"/>
</svg>
