<svg width="80" height="80" viewBox="0 0 80 80" fill="none" xmlns="http://www.w3.org/2000/svg">
<circle cx="40" cy="40.0005" r="33.8462" fill="url(#paint0_radial_3158_49193)" fill-opacity="0.1"/>
<path fill-rule="evenodd" clip-rule="evenodd" d="M40 69.6727C56.3875 69.6727 69.6722 56.388 69.6722 40.0004C69.6722 23.6129 56.3875 10.3282 40 10.3282C23.6125 10.3282 10.3278 23.6129 10.3278 40.0004C10.3278 56.388 23.6125 69.6727 40 69.6727ZM40 73.8466C58.6927 73.8466 73.8461 58.6932 73.8461 40.0004C73.8461 21.3077 58.6927 6.1543 40 6.1543C21.3073 6.1543 6.15384 21.3077 6.15384 40.0004C6.15384 58.6932 21.3073 73.8466 40 73.8466Z" fill="url(#paint1_linear_3158_49193)" fill-opacity="0.05"/>
<path d="M27.4149 42.9447C27.4149 34.8965 34.1498 28.3721 42.4577 28.3721V28.3721C50.7656 28.3721 57.5004 34.8965 57.5004 42.9447V42.9447C57.5004 50.993 50.7656 57.5174 42.4577 57.5174V57.5174C34.1498 57.5174 27.4149 50.993 27.4149 42.9447V42.9447Z" fill="url(#paint2_linear_3158_49193)"/>
<path fill-rule="evenodd" clip-rule="evenodd" d="M40.1861 56.0198C48.426 56.0198 55.1057 49.3357 55.1057 41.0904C55.1057 32.8452 48.426 26.1611 40.1861 26.1611C31.9463 26.1611 25.2666 32.8452 25.2666 41.0904C25.2666 49.3357 31.9463 56.0198 40.1861 56.0198ZM56.5266 41.0904C56.5266 50.121 49.2107 57.4416 40.1861 57.4416C31.1616 57.4416 23.8457 50.121 23.8457 41.0904C23.8457 32.0599 31.1616 24.7393 40.1861 24.7393C49.2107 24.7393 56.5266 32.0599 56.5266 41.0904Z" fill="#CDC7FF"/>
<path fill-rule="evenodd" clip-rule="evenodd" d="M40.1863 51.0425C45.6795 51.0425 50.1326 46.5864 50.1326 41.0896C50.1326 35.5927 45.6795 31.1367 40.1863 31.1367C34.6931 31.1367 30.2399 35.5927 30.2399 41.0896C30.2399 46.5864 34.6931 51.0425 40.1863 51.0425ZM51.5535 41.0896C51.5535 47.3717 46.4642 52.4643 40.1863 52.4643C33.9083 52.4643 28.819 47.3717 28.819 41.0896C28.819 34.8075 33.9083 29.7148 40.1863 29.7148C46.4642 29.7148 51.5535 34.8075 51.5535 41.0896Z" fill="#CDC7FF"/>
<path fill-rule="evenodd" clip-rule="evenodd" d="M43.1484 35.0987C42.8765 35.0093 42.6045 34.9198 42.3399 34.8304C42.0074 34.7111 41.6824 35.0465 41.6976 35.4863C41.7278 36.3211 41.758 37.1484 41.7882 37.9832C41.7958 38.259 41.6597 38.5125 41.4481 38.6168C41.0251 38.818 40.5943 39.0118 40.1635 39.2057C39.7327 39.0193 39.3021 38.818 38.8789 38.6168C38.6597 38.5125 38.5313 38.259 38.5389 37.9832C38.5691 37.1484 38.5993 36.3211 38.6295 35.4863C38.6447 35.0391 38.3197 34.7111 37.9872 34.8304C37.7152 34.9198 37.4507 35.0168 37.1787 35.0987C36.9595 35.1733 36.7933 35.4118 36.7706 35.7024C36.695 36.6864 36.6119 37.6702 36.5363 38.6466C36.5136 38.9224 36.6421 39.1759 36.8537 39.2876C37.3298 39.5336 37.2845 40.3386 36.763 40.5249C36.5288 40.607 36.3549 40.838 36.3322 41.1137C36.2114 42.6119 36.0904 44.1176 35.9696 45.6158C35.9469 45.9064 36.1055 46.1748 36.3776 46.2792C36.7025 46.4058 37.0351 46.5325 37.3676 46.6593C37.7833 46.8158 38.229 46.5102 38.2441 46.063C38.2894 44.7139 38.3423 43.3648 38.3877 42.0082C38.3952 41.7324 38.5616 41.494 38.7958 41.4045C39.2568 41.2256 39.7102 41.0467 40.1635 40.8529C40.6169 41.0393 41.0704 41.2256 41.5313 41.4045C41.7655 41.494 41.9319 41.7324 41.9394 42.0082C41.9848 43.3574 42.0376 44.7064 42.083 46.063C42.0981 46.5102 42.5439 46.8083 42.9596 46.6593C43.292 46.5325 43.6246 46.4058 43.9495 46.2792C44.214 46.1748 44.3803 45.9064 44.3576 45.6158C44.2367 44.1176 44.1157 42.6119 43.9949 41.1137C43.9722 40.838 43.806 40.607 43.5641 40.5249C43.0426 40.3461 42.9974 39.5336 43.4734 39.2876C43.6925 39.1759 43.8135 38.915 43.7908 38.6466C43.7152 37.6628 43.6321 36.6789 43.5565 35.7024C43.5338 35.4118 43.3676 35.1658 43.1484 35.0987" fill="#CDC7FF"/>
<defs>
<radialGradient id="paint0_radial_3158_49193" cx="0" cy="0" r="1" gradientUnits="userSpaceOnUse" gradientTransform="translate(40 17.1179) rotate(90) scale(56.7287)">
<stop stop-color="#F0F0FF"/>
<stop stop-color="#F1F1FD"/>
<stop offset="0.703125" stop-color="white"/>
</radialGradient>
<linearGradient id="paint1_linear_3158_49193" x1="80.5396" y1="73.8466" x2="85.6358" y2="51.3954" gradientUnits="userSpaceOnUse">
<stop stop-color="#F7F8FD"/>
<stop offset="1" stop-color="white"/>
</linearGradient>
<linearGradient id="paint2_linear_3158_49193" x1="27.4149" y1="34.0744" x2="49.2146" y2="58.2079" gradientUnits="userSpaceOnUse">
<stop stop-color="#CDC7FF" stop-opacity="0.2"/>
<stop offset="1" stop-color="#CDC7FF" stop-opacity="0"/>
</linearGradient>
</defs>
</svg>
