<svg width="88" height="92" viewBox="0 0 88 92" fill="none" xmlns="http://www.w3.org/2000/svg">
<g filter="url(#filter0_d_2469_7049)">
<circle cx="44" cy="40" r="34" fill="url(#paint0_radial_2469_7049)" fill-opacity="0.1" shape-rendering="crispEdges"/>
<circle cx="44" cy="40" r="31.5" stroke="url(#paint1_linear_2469_7049)" stroke-opacity="0.05" stroke-width="5" shape-rendering="crispEdges"/>
</g>
<path fill-rule="evenodd" clip-rule="evenodd" d="M44.1881 56.0946C52.4654 56.0946 59.1755 49.3801 59.1755 41.0974C59.1755 32.8147 52.4654 26.1002 44.1881 26.1002C35.9109 26.1002 29.2008 32.8147 29.2008 41.0974C29.2008 49.3801 35.9109 56.0946 44.1881 56.0946ZM60.6028 41.0974C60.6028 50.1689 53.2537 57.5229 44.1881 57.5229C35.1225 57.5229 27.7734 50.1689 27.7734 41.0974C27.7734 32.0258 35.1225 24.6719 44.1881 24.6719C53.2537 24.6719 60.6028 32.0258 60.6028 41.0974Z" fill="#CDC7FF"/>
<path fill-rule="evenodd" clip-rule="evenodd" d="M44.1884 51.0965C49.7066 51.0965 54.18 46.6201 54.18 41.0983C54.18 35.5765 49.7066 31.1002 44.1884 31.1002C38.6703 31.1002 34.1969 35.5765 34.1969 41.0983C34.1969 46.6201 38.6703 51.0965 44.1884 51.0965ZM55.6074 41.0983C55.6074 47.409 50.4949 52.5248 44.1884 52.5248C37.882 52.5248 32.7695 47.409 32.7695 41.0983C32.7695 34.7877 37.882 29.6719 44.1884 29.6719C50.4949 29.6719 55.6074 34.7877 55.6074 41.0983Z" fill="#CDC7FF"/>
<path fill-rule="evenodd" clip-rule="evenodd" d="M47.1629 35.0756C46.8897 34.9858 46.6165 34.8959 46.3507 34.806C46.0167 34.6863 45.6902 35.0232 45.7055 35.465C45.7358 36.3036 45.7662 37.1347 45.7965 37.9733C45.8041 38.2503 45.6674 38.5049 45.4549 38.6097C45.0299 38.8119 44.5971 39.0066 44.1644 39.2012C43.7317 39.0141 43.299 38.8119 42.8739 38.6097C42.6537 38.5049 42.5248 38.2503 42.5324 37.9733C42.5627 37.1347 42.5931 36.3036 42.6234 35.465C42.6387 35.0157 42.3122 34.6863 41.9782 34.806C41.7049 34.8959 41.4392 34.9933 41.166 35.0756C40.9458 35.1505 40.7789 35.3901 40.7561 35.6821C40.6801 36.6705 40.5967 37.6588 40.5207 38.6397C40.4979 38.9167 40.627 39.1713 40.8395 39.2836C41.3178 39.5307 41.2723 40.3393 40.7484 40.5265C40.5132 40.6089 40.3385 40.841 40.3157 41.118C40.1944 42.623 40.0728 44.1355 39.9514 45.6405C39.9286 45.9325 40.088 46.2021 40.3613 46.3069C40.6877 46.4341 41.0218 46.5614 41.3558 46.6888C41.7733 46.846 42.2211 46.5389 42.2363 46.0897C42.2818 44.7345 42.3349 43.3793 42.3805 42.0165C42.3881 41.7395 42.5552 41.4999 42.7905 41.4101C43.2535 41.2304 43.7091 41.0506 44.1644 40.8559C44.6198 41.0432 45.0754 41.2304 45.5384 41.4101C45.7737 41.4999 45.9408 41.7395 45.9484 42.0165C45.994 43.3718 46.047 44.727 46.0926 46.0897C46.1078 46.5389 46.5556 46.8385 46.9731 46.6888C47.3071 46.5614 47.6412 46.4341 47.9676 46.3069C48.2333 46.2021 48.4003 45.9325 48.3775 45.6405C48.2561 44.1355 48.1345 42.623 48.0132 41.118C47.9904 40.841 47.8234 40.6089 47.5805 40.5265C47.0566 40.3469 47.0111 39.5307 47.4894 39.2836C47.7094 39.1713 47.831 38.9093 47.8082 38.6397C47.7322 37.6514 47.6488 36.663 47.5728 35.6821C47.55 35.3901 47.3831 35.143 47.1629 35.0756Z" fill="#CDC7FF"/>
<defs>
<filter id="filter0_d_2469_7049" x="0.222222" y="3.55556" width="87.5556" height="87.5556" filterUnits="userSpaceOnUse" color-interpolation-filters="sRGB">
<feFlood flood-opacity="0" result="BackgroundImageFix"/>
<feColorMatrix in="SourceAlpha" type="matrix" values="0 0 0 0 0 0 0 0 0 0 0 0 0 0 0 0 0 0 127 0" result="hardAlpha"/>
<feOffset dy="7.33333"/>
<feGaussianBlur stdDeviation="4.88889"/>
<feComposite in2="hardAlpha" operator="out"/>
<feColorMatrix type="matrix" values="0 0 0 0 0.0486111 0 0 0 0 0.127083 0 0 0 0 0.833333 0 0 0 0.06 0"/>
<feBlend mode="normal" in2="BackgroundImageFix" result="effect1_dropShadow_2469_7049"/>
<feBlend mode="normal" in="SourceGraphic" in2="effect1_dropShadow_2469_7049" result="shape"/>
</filter>
<radialGradient id="paint0_radial_2469_7049" cx="0" cy="0" r="1" gradientUnits="userSpaceOnUse" gradientTransform="translate(44 17.0135) rotate(90) scale(56.9865)">
<stop stop-color="#F0F0FF"/>
<stop stop-color="#F1F1FD"/>
<stop offset="0.703125" stop-color="white"/>
</radialGradient>
<linearGradient id="paint1_linear_2469_7049" x1="84.7238" y1="74" x2="89.8433" y2="51.4467" gradientUnits="userSpaceOnUse">
<stop stop-color="#F7F8FD"/>
<stop offset="1" stop-color="white"/>
</linearGradient>
</defs>
</svg>
