<svg width="128" height="129" viewBox="0 0 128 129" fill="none" xmlns="http://www.w3.org/2000/svg">
<g filter="url(#filter0_d_1_9)">
<path d="M64 76C82.7777 76 98 60.7777 98 42C98 23.2223 82.7777 8 64 8C45.2223 8 30 23.2223 30 42C30 60.7777 45.2223 76 64 76Z" fill="url(#paint0_radial_1_9)" fill-opacity="0.1"/>
<path d="M64 73.5C81.397 73.5 95.5 59.397 95.5 42C95.5 24.603 81.397 10.5 64 10.5C46.603 10.5 32.5 24.603 32.5 42C32.5 59.397 46.603 73.5 64 73.5Z" stroke="url(#paint1_linear_1_9)" stroke-opacity="0.05" stroke-width="5"/>
</g>
<path fill-rule="evenodd" clip-rule="evenodd" d="M67.2137 36.2944C66.9405 36.2046 66.6673 36.1147 66.4015 36.0248C66.0675 35.9051 65.741 36.242 65.7563 36.6838C65.7866 37.5224 65.817 38.3535 65.8473 39.1921C65.8549 39.4691 65.7182 39.7237 65.5057 39.8285C65.0807 40.0307 64.6479 40.2254 64.2152 40.42C63.7825 40.2329 63.3498 40.0307 62.9247 39.8285C62.7045 39.7237 62.5756 39.4691 62.5832 39.1921C62.6135 38.3535 62.6439 37.5224 62.6742 36.6838C62.6895 36.2345 62.363 35.9051 62.029 36.0248C61.7557 36.1147 61.49 36.2121 61.2168 36.2944C60.9966 36.3693 60.8297 36.6089 60.8069 36.9009C60.7309 37.8893 60.6475 38.8776 60.5715 39.8585C60.5487 40.1355 60.6778 40.3901 60.8903 40.5024C61.3686 40.7495 61.3231 41.5581 60.7992 41.7453C60.564 41.8277 60.3893 42.0598 60.3665 42.3368C60.2452 43.8418 60.1236 45.3543 60.0022 46.8593C59.9794 47.1513 60.1388 47.4209 60.4121 47.5257C60.7385 47.6529 61.0726 47.7802 61.4066 47.9076C61.8241 48.0648 62.2719 47.7577 62.2871 47.3085C62.3326 45.9533 62.3857 44.5981 62.4313 43.2353C62.4389 42.9583 62.606 42.7187 62.8413 42.6289C63.3043 42.4492 63.7599 42.2694 64.2152 42.0747C64.6706 42.262 65.1262 42.4492 65.5892 42.6289C65.8245 42.7187 65.9916 42.9583 65.9992 43.2353C66.0448 44.5906 66.0978 45.9458 66.1434 47.3085C66.1586 47.7577 66.6064 48.0573 67.0239 47.9076C67.3579 47.7802 67.692 47.6529 68.0184 47.5257C68.2841 47.4209 68.4511 47.1513 68.4283 46.8593C68.3069 45.3543 68.1853 43.8418 68.064 42.3368C68.0412 42.0598 67.8742 41.8277 67.6313 41.7453C67.1074 41.5657 67.0619 40.7495 67.5402 40.5024C67.7602 40.3901 67.8818 40.1281 67.859 39.8585C67.783 38.8702 67.6996 37.8818 67.6236 36.9009C67.6008 36.6089 67.4339 36.3618 67.2137 36.2944Z" fill="#CDC7FF"/>
<path fill-rule="evenodd" clip-rule="evenodd" d="M64.4189 52.4246C69.9371 52.4246 74.4105 47.9482 74.4105 42.4264C74.4105 36.9046 69.9371 32.4283 64.4189 32.4283C58.9008 32.4283 54.4274 36.9046 54.4274 42.4264C54.4274 47.9482 58.9008 52.4246 64.4189 52.4246ZM75.8379 42.4264C75.8379 48.7371 70.7254 53.8529 64.4189 53.8529C58.1125 53.8529 53 48.7371 53 42.4264C53 36.1158 58.1125 31 64.4189 31C70.7254 31 75.8379 36.1158 75.8379 42.4264Z" fill="#CDC7FF"/>
<path fill-rule="evenodd" clip-rule="evenodd" d="M64.4147 57.4227C72.692 57.4227 79.4021 50.7082 79.4021 42.4255C79.4021 34.1428 72.692 27.4283 64.4147 27.4283C56.1375 27.4283 49.4274 34.1428 49.4274 42.4255C49.4274 50.7082 56.1375 57.4227 64.4147 57.4227ZM80.8294 42.4255C80.8294 51.497 73.4803 58.851 64.4147 58.851C55.3491 58.851 48 51.497 48 42.4255C48 33.3539 55.3491 26 64.4147 26C73.4803 26 80.8294 33.3539 80.8294 42.4255Z" fill="#CDC7FF"/>
<defs>
<filter id="filter0_d_1_9" x="20.2222" y="5.55555" width="87.5556" height="87.5556" filterUnits="userSpaceOnUse" color-interpolation-filters="sRGB">
<feFlood flood-opacity="0" result="BackgroundImageFix"/>
<feColorMatrix in="SourceAlpha" type="matrix" values="0 0 0 0 0 0 0 0 0 0 0 0 0 0 0 0 0 0 127 0" result="hardAlpha"/>
<feOffset dy="7.33333"/>
<feGaussianBlur stdDeviation="4.88889"/>
<feComposite in2="hardAlpha" operator="out"/>
<feColorMatrix type="matrix" values="0 0 0 0 0.0486111 0 0 0 0 0.127083 0 0 0 0 0.833333 0 0 0 0.06 0"/>
<feBlend mode="normal" in2="BackgroundImageFix" result="effect1_dropShadow_1_9"/>
<feBlend mode="normal" in="SourceGraphic" in2="effect1_dropShadow_1_9" result="shape"/>
</filter>
<radialGradient id="paint0_radial_1_9" cx="0" cy="0" r="1" gradientUnits="userSpaceOnUse" gradientTransform="translate(64 19.0135) rotate(90) scale(56.9865)">
<stop stop-color="#F1F1FD"/>
<stop offset="0.703125" stop-color="white"/>
</radialGradient>
<linearGradient id="paint1_linear_1_9" x1="104.724" y1="76" x2="109.843" y2="53.4467" gradientUnits="userSpaceOnUse">
<stop stop-color="#F7F8FD"/>
<stop offset="1" stop-color="white"/>
</linearGradient>
</defs>
</svg>
