<svg width="234" height="111" viewBox="0 0 234 111" fill="none" xmlns="http://www.w3.org/2000/svg">
<g filter="url(#filter0_d_1930_3490)">
<path d="M68 32C68 48.0163 55.0163 61 39 61C22.9837 61 10 48.0163 10 32C10 15.9837 22.9837 3 39 3C55.0163 3 68 15.9837 68 32Z" fill="url(#paint0_radial_1930_3490)" fill-opacity="0.1" shape-rendering="crispEdges"/>
</g>
<g filter="url(#filter1_d_1930_3490)">
<path fill-rule="evenodd" clip-rule="evenodd" d="M39 57.4237C53.0411 57.4237 64.4237 46.0411 64.4237 32C64.4237 17.9589 53.0411 6.57631 39 6.57631C24.9589 6.57631 13.5763 17.9589 13.5763 32C13.5763 46.0411 24.9589 57.4237 39 57.4237ZM39 61C55.0163 61 68 48.0163 68 32C68 15.9837 55.0163 3 39 3C22.9837 3 10 15.9837 10 32C10 48.0163 22.9837 61 39 61Z" fill="url(#paint1_linear_1930_3490)" fill-opacity="0.05" shape-rendering="crispEdges"/>
</g>
<path d="M29.084 29.3969C29.084 28.2867 29.984 27.3867 31.0942 27.3867H52.2011C53.3113 27.3867 54.2113 28.2867 54.2113 29.3969V40.9554C54.2113 42.0656 53.3113 42.9656 52.2011 42.9656H31.0942C29.984 42.9656 29.084 42.0656 29.084 40.9554V29.3969Z" fill="url(#paint2_linear_1930_3490)"/>
<path fill-rule="evenodd" clip-rule="evenodd" d="M35.5156 28.692C35.5156 28.4145 35.7406 28.1895 36.0182 28.1895H37.8273C38.1049 28.1895 38.3299 28.4145 38.3299 28.692C38.3299 28.9695 38.1049 29.1945 37.8273 29.1945H36.0182C35.7406 29.1945 35.5156 28.9695 35.5156 28.692Z" fill="#CDC7FF"/>
<path fill-rule="evenodd" clip-rule="evenodd" d="M26.0676 27.587L26.0676 36.4318C26.0676 38.0971 27.4176 39.4471 29.0829 39.4471L44.7623 39.4471C46.4276 39.4471 47.7776 38.0971 47.7776 36.4318L47.7776 27.587C47.7776 25.9217 46.4276 24.5717 44.7623 24.5717L29.0829 24.5717C27.4176 24.5717 26.0676 25.9217 26.0676 27.587ZM25.0625 36.4318C25.0625 38.6522 26.8625 40.4521 29.0829 40.4521L44.7623 40.4521C46.9827 40.4521 48.7826 38.6522 48.7826 36.4318L48.7826 27.587C48.7826 25.3666 46.9827 23.5666 44.7623 23.5666L29.0829 23.5666C26.8625 23.5666 25.0625 25.3666 25.0625 27.587L25.0625 36.4318Z" fill="#CDC7FF"/>
<path fill-rule="evenodd" clip-rule="evenodd" d="M26.0676 27.587L26.0676 36.4318C26.0676 38.0971 27.4176 39.4471 29.0829 39.4471L47.5765 39.4471C49.2418 39.4471 50.5918 38.0971 50.5918 36.4318L50.5918 27.587C50.5918 25.9217 49.2418 24.5717 47.5765 24.5717L29.0829 24.5717C27.4176 24.5717 26.0676 25.9217 26.0676 27.587ZM25.0625 36.4318C25.0625 38.6522 26.8625 40.4521 29.0829 40.4521L47.5765 40.4521C49.7969 40.4521 51.5969 38.6522 51.5969 36.4318L51.5969 27.587C51.5969 25.3666 49.7969 23.5666 47.5765 23.5666L29.0829 23.5666C26.8625 23.5666 25.0625 25.3666 25.0625 27.587L25.0625 36.4318Z" fill="#CDC7FF"/>
<path fill-rule="evenodd" clip-rule="evenodd" d="M34.424 19.8485H39.6868C40.0218 19.84 40.3552 19.8973 40.6681 20.0172C40.9834 20.1379 41.2718 20.3198 41.5165 20.5523C41.7613 20.7848 41.9578 21.0634 42.0946 21.372C42.2315 21.6808 42.3058 22.0135 42.3137 22.3509L42.3138 22.3567V23.7276H41.3087V22.3688C41.3033 22.1654 41.2581 21.9652 41.1757 21.7793C41.0926 21.5918 40.9732 21.4224 40.8244 21.2811C40.6756 21.1397 40.5003 21.0292 40.3086 20.9558C40.117 20.8824 39.9128 20.8476 39.7076 20.8534L39.7006 20.8536H34.4103L34.4032 20.8534C34.1981 20.8476 33.9939 20.8824 33.8022 20.9558C33.6106 21.0292 33.4353 21.1397 33.2865 21.2811C33.1377 21.4224 33.0182 21.5918 32.9351 21.7793C32.8526 21.9653 32.8074 22.1656 32.802 22.3689V23.6701H31.7969V22.3567L31.797 22.3509C31.8049 22.0133 31.8794 21.6807 32.0162 21.372C32.153 21.0634 32.3495 20.7848 32.5943 20.5523C32.8391 20.3198 33.1274 20.1379 33.4427 20.0172C33.7557 19.8973 34.089 19.84 34.424 19.8485Z" fill="#CDC7FF"/>
<path fill-rule="evenodd" clip-rule="evenodd" d="M25.4025 27.0015C25.5046 26.7434 25.7966 26.6169 26.0547 26.7189L34.8353 30.1913C36.26 30.7547 37.8459 30.7547 39.2706 30.1913L47.7971 26.8195C48.0552 26.7174 48.3471 26.8439 48.4492 27.102C48.5513 27.3601 48.4248 27.652 48.1667 27.7541L39.6403 31.1259C37.978 31.7833 36.1279 31.7833 34.4656 31.1259L25.6851 27.6536C25.427 27.5515 25.3005 27.2596 25.4025 27.0015Z" fill="#CDC7FF"/>
<g filter="url(#filter2_d_1930_3490)">
<circle cx="118" cy="31" r="28" fill="url(#paint3_radial_1930_3490)" fill-opacity="0.1" shape-rendering="crispEdges"/>
<circle cx="118" cy="31" r="27.3889" stroke="url(#paint4_linear_1930_3490)" stroke-opacity="0.05" stroke-width="1.22222" shape-rendering="crispEdges"/>
</g>
<path d="M110.826 39.3499C110.826 35.2998 114.109 32.0166 118.16 32.0166H124.666C128.717 32.0166 132 35.2998 132 39.3499V40.8964C132 41.5714 131.453 42.1186 130.778 42.1186H112.048C111.373 42.1186 110.826 41.5714 110.826 40.8964V39.3499Z" fill="url(#paint5_linear_1930_3490)"/>
<path d="M115.346 23.6226C115.346 20.9148 117.541 18.7197 120.249 18.7197C122.956 18.7197 125.152 20.9148 125.152 23.6226V23.9188C125.152 26.6267 122.956 28.8218 120.249 28.8218C117.541 28.8218 115.346 26.6267 115.346 23.9189V23.6226Z" fill="url(#paint6_linear_1930_3490)"/>
<path fill-rule="evenodd" clip-rule="evenodd" d="M122.121 21.6414C122.121 23.9337 120.263 25.792 117.97 25.792C115.678 25.792 113.82 23.9337 113.82 21.6414C113.82 19.349 115.678 17.4907 117.97 17.4907C120.263 17.4907 122.121 19.349 122.121 21.6414ZM123.131 21.6414C123.131 24.4916 120.821 26.8022 117.97 26.8022C115.12 26.8022 112.809 24.4916 112.809 21.6414C112.809 18.7911 115.12 16.4805 117.97 16.4805C120.821 16.4805 123.131 18.7911 123.131 21.6414ZM108.04 38.9223H110.05H116.867H125.694C125.452 33.8233 121.559 29.8305 116.867 29.8305C112.175 29.8305 108.282 33.8233 108.04 38.9223ZM107.018 39.9326H110.05H116.867H126.717H129.244V39.4274C129.244 33.5374 123.934 28.8203 118.132 28.8203H116.867H116.379V28.833C111.134 29.1072 107.018 33.781 107.018 39.4274V39.9326ZM128.219 38.9223H126.706C126.566 35.7186 125.101 32.8688 122.874 31.0196C125.845 32.5821 128.021 35.5293 128.219 38.9223Z" fill="#CDC7FF"/>
<g filter="url(#filter3_d_1930_3490)">
<circle cx="196" cy="31" r="28" fill="url(#paint7_radial_1930_3490)" fill-opacity="0.1" shape-rendering="crispEdges"/>
<circle cx="196" cy="31" r="27.3889" stroke="url(#paint8_linear_1930_3490)" stroke-opacity="0.05" stroke-width="1.22222" shape-rendering="crispEdges"/>
</g>
<path d="M183.795 24.2137C183.795 21.598 185.984 19.4775 188.684 19.4775C191.384 19.4775 193.573 21.598 193.573 24.2137C193.573 26.8293 191.384 28.9498 188.684 28.9498C185.984 28.9498 183.795 26.8293 183.795 24.2137Z" fill="url(#paint9_linear_1930_3490)"/>
<path fill-rule="evenodd" clip-rule="evenodd" d="M196.153 44.2525C202.969 44.2525 208.495 38.723 208.495 31.9019C208.495 25.0808 202.969 19.5513 196.153 19.5513C189.336 19.5513 183.81 25.0808 183.81 31.9019C183.81 38.723 189.336 44.2525 196.153 44.2525ZM209.671 31.9019C209.671 39.3726 203.619 45.4288 196.153 45.4288C188.687 45.4288 182.635 39.3726 182.635 31.9019C182.635 24.4312 188.687 18.375 196.153 18.375C203.619 18.375 209.671 24.4312 209.671 31.9019Z" fill="#CDC7FF"/>
<path fill-rule="evenodd" clip-rule="evenodd" d="M196.154 40.136C200.698 40.136 204.382 36.4496 204.382 31.9022C204.382 27.3548 200.698 23.6684 196.154 23.6684C191.609 23.6684 187.925 27.3548 187.925 31.9022C187.925 36.4496 191.609 40.136 196.154 40.136ZM205.558 31.9022C205.558 37.0992 201.347 41.3122 196.154 41.3122C190.96 41.3122 186.75 37.0992 186.75 31.9022C186.75 26.7052 190.96 22.4922 196.154 22.4922C201.347 22.4922 205.558 26.7052 205.558 31.9022Z" fill="#CDC7FF"/>
<path fill-rule="evenodd" clip-rule="evenodd" d="M198.603 26.9446C198.378 26.8706 198.153 26.7966 197.934 26.7226C197.659 26.6239 197.39 26.9014 197.403 27.2653C197.428 27.9559 197.453 28.6403 197.478 29.3309C197.484 29.559 197.371 29.7687 197.196 29.855C196.846 30.0215 196.49 30.1818 196.133 30.3421C195.777 30.188 195.421 30.0215 195.071 29.855C194.889 29.7687 194.783 29.559 194.789 29.3309C194.814 28.6403 194.839 27.9559 194.864 27.2653C194.877 26.8952 194.608 26.6239 194.333 26.7226C194.108 26.7966 193.889 26.8768 193.664 26.9446C193.483 27.0063 193.345 27.2036 193.327 27.444C193.264 28.258 193.195 29.0719 193.133 29.8797C193.114 30.1078 193.22 30.3175 193.395 30.4099C193.789 30.6134 193.752 31.2794 193.32 31.4335C193.127 31.5014 192.983 31.6925 192.964 31.9206C192.864 33.1601 192.764 34.4057 192.664 35.6451C192.645 35.8855 192.776 36.1075 193.001 36.1939C193.27 36.2986 193.545 36.4035 193.82 36.5083C194.164 36.6378 194.533 36.385 194.546 36.015C194.583 34.899 194.627 33.7829 194.664 32.6606C194.671 32.4325 194.808 32.2352 195.002 32.1612C195.383 32.0132 195.758 31.8652 196.133 31.7048C196.508 31.859 196.884 32.0132 197.265 32.1612C197.459 32.2352 197.596 32.4325 197.603 32.6606C197.64 33.7767 197.684 34.8928 197.721 36.015C197.734 36.385 198.103 36.6316 198.447 36.5083C198.722 36.4035 198.997 36.2986 199.265 36.1939C199.484 36.1075 199.622 35.8855 199.603 35.6451C199.503 34.4057 199.403 33.1601 199.303 31.9206C199.284 31.6925 199.147 31.5014 198.947 31.4335C198.515 31.2856 198.478 30.6134 198.872 30.4099C199.053 30.3175 199.153 30.1017 199.134 29.8797C199.072 29.0658 199.003 28.2518 198.94 27.444C198.922 27.2036 198.784 27.0001 198.603 26.9446Z" fill="#CDC7FF"/>
<defs>
<filter id="filter0_d_1930_3490" x="0.222222" y="0.555555" width="77.5556" height="77.5556" filterUnits="userSpaceOnUse" color-interpolation-filters="sRGB">
<feFlood flood-opacity="0" result="BackgroundImageFix"/>
<feColorMatrix in="SourceAlpha" type="matrix" values="0 0 0 0 0 0 0 0 0 0 0 0 0 0 0 0 0 0 127 0" result="hardAlpha"/>
<feOffset dy="7.33333"/>
<feGaussianBlur stdDeviation="4.88889"/>
<feComposite in2="hardAlpha" operator="out"/>
<feColorMatrix type="matrix" values="0 0 0 0 0.0486111 0 0 0 0 0.127083 0 0 0 0 0.833333 0 0 0 0.06 0"/>
<feBlend mode="normal" in2="BackgroundImageFix" result="effect1_dropShadow_1930_3490"/>
<feBlend mode="normal" in="SourceGraphic" in2="effect1_dropShadow_1930_3490" result="shape"/>
</filter>
<filter id="filter1_d_1930_3490" x="0.222222" y="0.555555" width="77.5556" height="77.5556" filterUnits="userSpaceOnUse" color-interpolation-filters="sRGB">
<feFlood flood-opacity="0" result="BackgroundImageFix"/>
<feColorMatrix in="SourceAlpha" type="matrix" values="0 0 0 0 0 0 0 0 0 0 0 0 0 0 0 0 0 0 127 0" result="hardAlpha"/>
<feOffset dy="7.33333"/>
<feGaussianBlur stdDeviation="4.88889"/>
<feComposite in2="hardAlpha" operator="out"/>
<feColorMatrix type="matrix" values="0 0 0 0 0.0486111 0 0 0 0 0.127083 0 0 0 0 0.833333 0 0 0 0.06 0"/>
<feBlend mode="normal" in2="BackgroundImageFix" result="effect1_dropShadow_1930_3490"/>
<feBlend mode="normal" in="SourceGraphic" in2="effect1_dropShadow_1930_3490" result="shape"/>
</filter>
<filter id="filter2_d_1930_3490" x="80.2222" y="0.555555" width="75.5556" height="75.5556" filterUnits="userSpaceOnUse" color-interpolation-filters="sRGB">
<feFlood flood-opacity="0" result="BackgroundImageFix"/>
<feColorMatrix in="SourceAlpha" type="matrix" values="0 0 0 0 0 0 0 0 0 0 0 0 0 0 0 0 0 0 127 0" result="hardAlpha"/>
<feOffset dy="7.33333"/>
<feGaussianBlur stdDeviation="4.88889"/>
<feComposite in2="hardAlpha" operator="out"/>
<feColorMatrix type="matrix" values="0 0 0 0 0.0486111 0 0 0 0 0.127083 0 0 0 0 0.833333 0 0 0 0.06 0"/>
<feBlend mode="normal" in2="BackgroundImageFix" result="effect1_dropShadow_1930_3490"/>
<feBlend mode="normal" in="SourceGraphic" in2="effect1_dropShadow_1930_3490" result="shape"/>
</filter>
<filter id="filter3_d_1930_3490" x="158.222" y="0.555555" width="75.5556" height="75.5556" filterUnits="userSpaceOnUse" color-interpolation-filters="sRGB">
<feFlood flood-opacity="0" result="BackgroundImageFix"/>
<feColorMatrix in="SourceAlpha" type="matrix" values="0 0 0 0 0 0 0 0 0 0 0 0 0 0 0 0 0 0 127 0" result="hardAlpha"/>
<feOffset dy="7.33333"/>
<feGaussianBlur stdDeviation="4.88889"/>
<feComposite in2="hardAlpha" operator="out"/>
<feColorMatrix type="matrix" values="0 0 0 0 0.0486111 0 0 0 0 0.127083 0 0 0 0 0.833333 0 0 0 0.06 0"/>
<feBlend mode="normal" in2="BackgroundImageFix" result="effect1_dropShadow_1930_3490"/>
<feBlend mode="normal" in="SourceGraphic" in2="effect1_dropShadow_1930_3490" result="shape"/>
</filter>
<radialGradient id="paint0_radial_1930_3490" cx="0" cy="0" r="1" gradientUnits="userSpaceOnUse" gradientTransform="translate(39 12.3938) rotate(90) scale(48.6062)">
<stop stop-color="#F0F0FF"/>
<stop stop-color="#F1F1FD"/>
<stop offset="0.703125" stop-color="white"/>
</radialGradient>
<linearGradient id="paint1_linear_1930_3490" x1="73.735" y1="61" x2="78.1016" y2="41.7634" gradientUnits="userSpaceOnUse">
<stop stop-color="#F7F8FD"/>
<stop offset="1" stop-color="white"/>
</linearGradient>
<linearGradient id="paint2_linear_1930_3490" x1="33.5336" y1="27.3867" x2="51.8387" y2="47.0605" gradientUnits="userSpaceOnUse">
<stop stop-color="#CDC7FF" stop-opacity="0.2"/>
<stop offset="1" stop-color="#CDC7FF" stop-opacity="0"/>
</linearGradient>
<radialGradient id="paint3_radial_1930_3490" cx="0" cy="0" r="1" gradientUnits="userSpaceOnUse" gradientTransform="translate(118 12.0699) rotate(90) scale(46.9301)">
<stop stop-color="#F0F0FF"/>
<stop stop-color="#F1F1FD"/>
<stop offset="0.703125" stop-color="white"/>
</radialGradient>
<linearGradient id="paint4_linear_1930_3490" x1="151.537" y1="59" x2="155.753" y2="40.4267" gradientUnits="userSpaceOnUse">
<stop stop-color="#F7F8FD"/>
<stop offset="1" stop-color="white"/>
</linearGradient>
<linearGradient id="paint5_linear_1930_3490" x1="114.576" y1="32.0166" x2="125.842" y2="47.7516" gradientUnits="userSpaceOnUse">
<stop stop-color="#CDC7FF" stop-opacity="0.2"/>
<stop offset="1" stop-color="#CDC7FF" stop-opacity="0"/>
</linearGradient>
<linearGradient id="paint6_linear_1930_3490" x1="117.082" y1="18.7197" x2="127.936" y2="25.7404" gradientUnits="userSpaceOnUse">
<stop stop-color="#CDC7FF" stop-opacity="0.2"/>
<stop offset="1" stop-color="#CDC7FF" stop-opacity="0"/>
</linearGradient>
<radialGradient id="paint7_radial_1930_3490" cx="0" cy="0" r="1" gradientUnits="userSpaceOnUse" gradientTransform="translate(196 12.0699) rotate(90) scale(46.9301)">
<stop stop-color="#F0F0FF"/>
<stop stop-color="#F1F1FD"/>
<stop offset="0.703125" stop-color="white"/>
</radialGradient>
<linearGradient id="paint8_linear_1930_3490" x1="229.537" y1="59" x2="233.753" y2="40.4267" gradientUnits="userSpaceOnUse">
<stop stop-color="#F7F8FD"/>
<stop offset="1" stop-color="white"/>
</linearGradient>
<linearGradient id="paint9_linear_1930_3490" x1="183.795" y1="21.3308" x2="190.88" y2="29.1742" gradientUnits="userSpaceOnUse">
<stop stop-color="#CDC7FF" stop-opacity="0.2"/>
<stop offset="1" stop-color="#CDC7FF" stop-opacity="0"/>
</linearGradient>
</defs>
</svg>
