<svg width="296" height="92" viewBox="0 0 296 92" fill="none" xmlns="http://www.w3.org/2000/svg">
<g filter="url(#filter0_d_1900_5589)">
<path d="M78 40C78 58.7777 62.7777 74 44 74C25.2223 74 10 58.7777 10 40C10 21.2223 25.2223 6 44 6C62.7777 6 78 21.2223 78 40Z" fill="url(#paint0_radial_1900_5589)" fill-opacity="0.1" shape-rendering="crispEdges"/>
</g>
<g filter="url(#filter1_d_1900_5589)">
<path fill-rule="evenodd" clip-rule="evenodd" d="M44 69.8071C60.462 69.8071 73.8071 56.462 73.8071 40C73.8071 23.538 60.462 10.1929 44 10.1929C27.538 10.1929 14.1929 23.538 14.1929 40C14.1929 56.462 27.538 69.8071 44 69.8071ZM44 74C62.7777 74 78 58.7777 78 40C78 21.2223 62.7777 6 44 6C25.2223 6 10 21.2223 10 40C10 58.7777 25.2223 74 44 74Z" fill="url(#paint1_linear_1900_5589)" fill-opacity="0.05" shape-rendering="crispEdges"/>
</g>
<path d="M32.373 36.9466C32.373 35.645 33.4282 34.5898 34.7298 34.5898H59.4758C60.7774 34.5898 61.8326 35.645 61.8326 36.9466V50.498C61.8326 51.7996 60.7774 52.8548 59.4758 52.8548H34.7298C33.4282 52.8548 32.373 51.7996 32.373 50.498V36.9466Z" fill="url(#paint2_linear_1900_5589)"/>
<path fill-rule="evenodd" clip-rule="evenodd" d="M39.9121 36.1204C39.9121 35.795 40.1759 35.5312 40.5013 35.5312H42.6224C42.9478 35.5312 43.2116 35.795 43.2116 36.1204C43.2116 36.4458 42.9478 36.7096 42.6224 36.7096H40.5013C40.1759 36.7096 39.9121 36.4458 39.9121 36.1204Z" fill="#CDC7FF"/>
<path fill-rule="evenodd" clip-rule="evenodd" d="M28.8366 34.8308L28.8366 45.2005C28.8366 47.1529 30.4193 48.7357 32.3717 48.7357L50.7545 48.7357C52.7069 48.7357 54.2896 47.1529 54.2896 45.2005L54.2896 34.8308C54.2896 32.8784 52.7069 31.2956 50.7545 31.2956L32.3717 31.2956C30.4193 31.2956 28.8366 32.8784 28.8366 34.8308ZM27.6582 45.2005C27.6582 47.8037 29.7685 49.9141 32.3717 49.9141L50.7545 49.9141C53.3577 49.9141 55.468 47.8037 55.468 45.2005L55.468 34.8308C55.468 32.2276 53.3577 30.1172 50.7545 30.1172L32.3717 30.1172C29.7685 30.1172 27.6582 32.2276 27.6582 34.8308L27.6582 45.2005Z" fill="#CDC7FF"/>
<path fill-rule="evenodd" clip-rule="evenodd" d="M28.8366 34.8308L28.8366 45.2005C28.8366 47.1529 30.4193 48.7357 32.3717 48.7357L54.054 48.7357C56.0064 48.7357 57.5891 47.1529 57.5891 45.2005L57.5891 34.8308C57.5891 32.8784 56.0064 31.2956 54.054 31.2956L32.3717 31.2956C30.4193 31.2956 28.8366 32.8784 28.8366 34.8308ZM27.6582 45.2005C27.6582 47.8037 29.7685 49.9141 32.3717 49.9141L54.054 49.9141C56.6572 49.9141 58.7675 47.8037 58.7675 45.2005L58.7675 34.8308C58.7675 32.2276 56.6572 30.1172 54.054 30.1172L32.3717 30.1172C29.7685 30.1172 27.6582 32.2276 27.6582 34.8308L27.6582 45.2005Z" fill="#CDC7FF"/>
<path fill-rule="evenodd" clip-rule="evenodd" d="M38.6348 25.7549H44.8049C45.1977 25.7449 45.5885 25.8122 45.9554 25.9527C46.3251 26.0942 46.6632 26.3075 46.9502 26.5801C47.2371 26.8526 47.4675 27.1792 47.6279 27.5411C47.7884 27.9031 47.8755 28.2931 47.8847 28.6887L47.8849 28.6956V30.3028H46.7065V28.7098C46.7001 28.4713 46.6472 28.2365 46.5506 28.0186C46.4531 27.7987 46.3131 27.6002 46.1386 27.4345C45.9642 27.2688 45.7587 27.1392 45.534 27.0531C45.3093 26.967 45.0699 26.9262 44.8294 26.933L44.8211 26.9332H38.6187L38.6104 26.933C38.3699 26.9262 38.1305 26.967 37.9057 27.0531C37.6811 27.1392 37.4756 27.2688 37.3011 27.4345C37.1266 27.6002 36.9866 27.7987 36.8891 28.0186C36.7925 28.2367 36.7395 28.4715 36.7331 28.7098V30.2354H35.5547V28.6956L35.5548 28.6887C35.5641 28.2929 35.6515 27.9029 35.8119 27.5411C35.9723 27.1792 36.2026 26.8526 36.4896 26.5801C36.7766 26.3075 37.1146 26.0942 37.4843 25.9527C37.8512 25.8122 38.2421 25.7449 38.6348 25.7549Z" fill="#CDC7FF"/>
<path fill-rule="evenodd" clip-rule="evenodd" d="M28.0551 34.1422C28.1748 33.8396 28.5171 33.6913 28.8197 33.811L39.1142 37.882C40.7846 38.5425 42.6438 38.5425 44.3143 37.882L54.3108 33.9288C54.6134 33.8091 54.9557 33.9574 55.0753 34.26C55.195 34.5626 55.0467 34.905 54.7441 35.0246L44.7476 38.9778C42.7988 39.7485 40.6297 39.7485 38.6808 38.9778L28.3863 34.9068C28.0837 34.7871 27.9355 34.4448 28.0551 34.1422Z" fill="#CDC7FF"/>
<g filter="url(#filter2_d_1900_5589)">
<circle cx="148" cy="40" r="34" fill="url(#paint3_radial_1900_5589)" fill-opacity="0.1" shape-rendering="crispEdges"/>
<circle cx="148" cy="40" r="31.5" stroke="url(#paint4_linear_1900_5589)" stroke-opacity="0.05" stroke-width="5" shape-rendering="crispEdges"/>
</g>
<path d="M139.289 48.5638C139.289 44.5137 142.572 41.2305 146.622 41.2305H157.667C161.717 41.2305 165 44.5137 165 48.5638V52.275C165 52.95 164.453 53.4972 163.778 53.4972H140.511C139.836 53.4972 139.289 52.95 139.289 52.275V48.5638Z" fill="url(#paint5_linear_1900_5589)"/>
<path d="M144.777 31.0434C144.777 27.7553 147.443 25.0898 150.731 25.0898C154.019 25.0898 156.684 27.7553 156.684 31.0434V31.4031C156.684 34.6911 154.019 37.3566 150.731 37.3566C147.443 37.3566 144.777 34.6911 144.777 31.4031V31.0434Z" fill="url(#paint6_linear_1900_5589)"/>
<path fill-rule="evenodd" clip-rule="evenodd" d="M153.006 28.6379C153.006 31.4215 150.749 33.678 147.966 33.678C145.182 33.678 142.926 31.4215 142.926 28.6379C142.926 25.8543 145.182 23.5978 147.966 23.5978C150.749 23.5978 153.006 25.8543 153.006 28.6379ZM154.233 28.6379C154.233 32.0989 151.427 34.9047 147.966 34.9047C144.505 34.9047 141.699 32.0989 141.699 28.6379C141.699 25.1768 144.505 22.3711 147.966 22.3711C151.427 22.3711 154.233 25.1768 154.233 28.6379ZM135.907 49.6222H138.349H146.626H157.345C157.051 43.4305 152.323 38.5821 146.626 38.5821C140.929 38.5821 136.202 43.4305 135.907 49.6222ZM134.666 50.8489H138.349H146.626H158.586H161.655V50.2356C161.655 43.0833 155.207 37.3555 148.162 37.3555H146.626H146.034V37.3709C139.664 37.7039 134.666 43.3791 134.666 50.2356V50.8489ZM160.411 49.6222H158.573C158.403 45.732 156.624 42.2714 153.921 40.026C157.528 41.9233 160.17 45.5021 160.411 49.6222Z" fill="#CDC7FF"/>
<g filter="url(#filter3_d_1900_5589)">
<circle cx="252" cy="40" r="34" fill="url(#paint7_radial_1900_5589)" fill-opacity="0.1" shape-rendering="crispEdges"/>
<circle cx="252" cy="40" r="31.5" stroke="url(#paint8_linear_1900_5589)" stroke-opacity="0.05" stroke-width="5" shape-rendering="crispEdges"/>
</g>
<path fill-rule="evenodd" clip-rule="evenodd" d="M252.188 56.0946C260.465 56.0946 267.175 49.3801 267.175 41.0974C267.175 32.8147 260.465 26.1002 252.188 26.1002C243.911 26.1002 237.201 32.8147 237.201 41.0974C237.201 49.3801 243.911 56.0946 252.188 56.0946ZM268.603 41.0974C268.603 50.1689 261.254 57.5229 252.188 57.5229C243.123 57.5229 235.773 50.1689 235.773 41.0974C235.773 32.0258 243.123 24.6719 252.188 24.6719C261.254 24.6719 268.603 32.0258 268.603 41.0974Z" fill="#CDC7FF"/>
<path fill-rule="evenodd" clip-rule="evenodd" d="M252.188 51.0965C257.707 51.0965 262.18 46.6201 262.18 41.0983C262.18 35.5765 257.707 31.1002 252.188 31.1002C246.67 31.1002 242.197 35.5765 242.197 41.0983C242.197 46.6201 246.67 51.0965 252.188 51.0965ZM263.607 41.0983C263.607 47.409 258.495 52.5248 252.188 52.5248C245.882 52.5248 240.77 47.409 240.77 41.0983C240.77 34.7877 245.882 29.6719 252.188 29.6719C258.495 29.6719 263.607 34.7877 263.607 41.0983Z" fill="#CDC7FF"/>
<path fill-rule="evenodd" clip-rule="evenodd" d="M255.163 35.0756C254.89 34.9858 254.616 34.8959 254.351 34.806C254.017 34.6863 253.69 35.0232 253.705 35.465C253.736 36.3036 253.766 37.1347 253.796 37.9733C253.804 38.2503 253.667 38.5049 253.455 38.6097C253.03 38.8119 252.597 39.0066 252.164 39.2012C251.732 39.0141 251.299 38.8119 250.874 38.6097C250.654 38.5049 250.525 38.2503 250.532 37.9733C250.563 37.1347 250.593 36.3036 250.623 35.465C250.639 35.0157 250.312 34.6863 249.978 34.806C249.705 34.8959 249.439 34.9933 249.166 35.0756C248.946 35.1505 248.779 35.3901 248.756 35.6821C248.68 36.6705 248.597 37.6588 248.521 38.6397C248.498 38.9167 248.627 39.1713 248.84 39.2836C249.318 39.5307 249.272 40.3393 248.748 40.5265C248.513 40.6089 248.339 40.841 248.316 41.118C248.194 42.623 248.073 44.1355 247.951 45.6405C247.929 45.9325 248.088 46.2021 248.361 46.3069C248.688 46.4341 249.022 46.5614 249.356 46.6888C249.773 46.846 250.221 46.5389 250.236 46.0897C250.282 44.7345 250.335 43.3793 250.381 42.0165C250.388 41.7395 250.555 41.4999 250.79 41.4101C251.254 41.2304 251.709 41.0506 252.164 40.8559C252.62 41.0432 253.075 41.2304 253.538 41.4101C253.774 41.4999 253.941 41.7395 253.948 42.0165C253.994 43.3718 254.047 44.727 254.093 46.0897C254.108 46.5389 254.556 46.8385 254.973 46.6888C255.307 46.5614 255.641 46.4341 255.968 46.3069C256.233 46.2021 256.4 45.9325 256.378 45.6405C256.256 44.1355 256.135 42.623 256.013 41.118C255.99 40.841 255.823 40.6089 255.58 40.5265C255.057 40.3469 255.011 39.5307 255.489 39.2836C255.709 39.1713 255.831 38.9093 255.808 38.6397C255.732 37.6514 255.649 36.663 255.573 35.6821C255.55 35.3901 255.383 35.143 255.163 35.0756Z" fill="#CDC7FF"/>
<defs>
<filter id="filter0_d_1900_5589" x="0.222222" y="3.55556" width="87.5556" height="87.5556" filterUnits="userSpaceOnUse" color-interpolation-filters="sRGB">
<feFlood flood-opacity="0" result="BackgroundImageFix"/>
<feColorMatrix in="SourceAlpha" type="matrix" values="0 0 0 0 0 0 0 0 0 0 0 0 0 0 0 0 0 0 127 0" result="hardAlpha"/>
<feOffset dy="7.33333"/>
<feGaussianBlur stdDeviation="4.88889"/>
<feComposite in2="hardAlpha" operator="out"/>
<feColorMatrix type="matrix" values="0 0 0 0 0.0486111 0 0 0 0 0.127083 0 0 0 0 0.833333 0 0 0 0.06 0"/>
<feBlend mode="normal" in2="BackgroundImageFix" result="effect1_dropShadow_1900_5589"/>
<feBlend mode="normal" in="SourceGraphic" in2="effect1_dropShadow_1900_5589" result="shape"/>
</filter>
<filter id="filter1_d_1900_5589" x="0.222222" y="3.55556" width="87.5556" height="87.5556" filterUnits="userSpaceOnUse" color-interpolation-filters="sRGB">
<feFlood flood-opacity="0" result="BackgroundImageFix"/>
<feColorMatrix in="SourceAlpha" type="matrix" values="0 0 0 0 0 0 0 0 0 0 0 0 0 0 0 0 0 0 127 0" result="hardAlpha"/>
<feOffset dy="7.33333"/>
<feGaussianBlur stdDeviation="4.88889"/>
<feComposite in2="hardAlpha" operator="out"/>
<feColorMatrix type="matrix" values="0 0 0 0 0.0486111 0 0 0 0 0.127083 0 0 0 0 0.833333 0 0 0 0.06 0"/>
<feBlend mode="normal" in2="BackgroundImageFix" result="effect1_dropShadow_1900_5589"/>
<feBlend mode="normal" in="SourceGraphic" in2="effect1_dropShadow_1900_5589" result="shape"/>
</filter>
<filter id="filter2_d_1900_5589" x="104.222" y="3.55556" width="87.5556" height="87.5556" filterUnits="userSpaceOnUse" color-interpolation-filters="sRGB">
<feFlood flood-opacity="0" result="BackgroundImageFix"/>
<feColorMatrix in="SourceAlpha" type="matrix" values="0 0 0 0 0 0 0 0 0 0 0 0 0 0 0 0 0 0 127 0" result="hardAlpha"/>
<feOffset dy="7.33333"/>
<feGaussianBlur stdDeviation="4.88889"/>
<feComposite in2="hardAlpha" operator="out"/>
<feColorMatrix type="matrix" values="0 0 0 0 0.0486111 0 0 0 0 0.127083 0 0 0 0 0.833333 0 0 0 0.06 0"/>
<feBlend mode="normal" in2="BackgroundImageFix" result="effect1_dropShadow_1900_5589"/>
<feBlend mode="normal" in="SourceGraphic" in2="effect1_dropShadow_1900_5589" result="shape"/>
</filter>
<filter id="filter3_d_1900_5589" x="208.222" y="3.55556" width="87.5556" height="87.5556" filterUnits="userSpaceOnUse" color-interpolation-filters="sRGB">
<feFlood flood-opacity="0" result="BackgroundImageFix"/>
<feColorMatrix in="SourceAlpha" type="matrix" values="0 0 0 0 0 0 0 0 0 0 0 0 0 0 0 0 0 0 127 0" result="hardAlpha"/>
<feOffset dy="7.33333"/>
<feGaussianBlur stdDeviation="4.88889"/>
<feComposite in2="hardAlpha" operator="out"/>
<feColorMatrix type="matrix" values="0 0 0 0 0.0486111 0 0 0 0 0.127083 0 0 0 0 0.833333 0 0 0 0.06 0"/>
<feBlend mode="normal" in2="BackgroundImageFix" result="effect1_dropShadow_1900_5589"/>
<feBlend mode="normal" in="SourceGraphic" in2="effect1_dropShadow_1900_5589" result="shape"/>
</filter>
<radialGradient id="paint0_radial_1900_5589" cx="0" cy="0" r="1" gradientUnits="userSpaceOnUse" gradientTransform="translate(44 17.0135) rotate(90) scale(56.9865)">
<stop stop-color="#F0F0FF"/>
<stop stop-color="#F1F1FD"/>
<stop offset="0.703125" stop-color="white"/>
</radialGradient>
<linearGradient id="paint1_linear_1900_5589" x1="84.7238" y1="74" x2="89.8433" y2="51.4467" gradientUnits="userSpaceOnUse">
<stop stop-color="#F7F8FD"/>
<stop offset="1" stop-color="white"/>
</linearGradient>
<linearGradient id="paint2_linear_1900_5589" x1="37.5898" y1="34.5898" x2="59.0509" y2="57.6557" gradientUnits="userSpaceOnUse">
<stop stop-color="#CDC7FF" stop-opacity="0.2"/>
<stop offset="1" stop-color="#CDC7FF" stop-opacity="0"/>
</linearGradient>
<radialGradient id="paint3_radial_1900_5589" cx="0" cy="0" r="1" gradientUnits="userSpaceOnUse" gradientTransform="translate(148 17.0135) rotate(90) scale(56.9865)">
<stop stop-color="#F0F0FF"/>
<stop stop-color="#F1F1FD"/>
<stop offset="0.703125" stop-color="white"/>
</radialGradient>
<linearGradient id="paint4_linear_1900_5589" x1="188.724" y1="74" x2="193.843" y2="51.4467" gradientUnits="userSpaceOnUse">
<stop stop-color="#F7F8FD"/>
<stop offset="1" stop-color="white"/>
</linearGradient>
<linearGradient id="paint5_linear_1900_5589" x1="143.842" y1="41.2305" x2="157.522" y2="60.3372" gradientUnits="userSpaceOnUse">
<stop stop-color="#CDC7FF" stop-opacity="0.2"/>
<stop offset="1" stop-color="#CDC7FF" stop-opacity="0"/>
</linearGradient>
<linearGradient id="paint6_linear_1900_5589" x1="146.886" y1="25.0898" x2="160.066" y2="33.6149" gradientUnits="userSpaceOnUse">
<stop stop-color="#CDC7FF" stop-opacity="0.2"/>
<stop offset="1" stop-color="#CDC7FF" stop-opacity="0"/>
</linearGradient>
<radialGradient id="paint7_radial_1900_5589" cx="0" cy="0" r="1" gradientUnits="userSpaceOnUse" gradientTransform="translate(252 17.0135) rotate(90) scale(56.9865)">
<stop stop-color="#F0F0FF"/>
<stop stop-color="#F1F1FD"/>
<stop offset="0.703125" stop-color="white"/>
</radialGradient>
<linearGradient id="paint8_linear_1900_5589" x1="292.724" y1="74" x2="297.843" y2="51.4467" gradientUnits="userSpaceOnUse">
<stop stop-color="#F7F8FD"/>
<stop offset="1" stop-color="white"/>
</linearGradient>
</defs>
</svg>
