<svg width="80" height="80" viewBox="0 0 80 80" fill="none" xmlns="http://www.w3.org/2000/svg">
<circle cx="40" cy="40.0005" r="33.8462" fill="url(#paint0_radial_3158_49192)" fill-opacity="0.1"/>
<path fill-rule="evenodd" clip-rule="evenodd" d="M40 69.6727C56.3875 69.6727 69.6722 56.388 69.6722 40.0004C69.6722 23.6129 56.3875 10.3282 40 10.3282C23.6125 10.3282 10.3278 23.6129 10.3278 40.0004C10.3278 56.388 23.6125 69.6727 40 69.6727ZM40 73.8466C58.6927 73.8466 73.8461 58.6932 73.8461 40.0004C73.8461 21.3077 58.6927 6.1543 40 6.1543C21.3073 6.1543 6.15384 21.3077 6.15384 40.0004C6.15384 58.6932 21.3073 73.8466 40 73.8466Z" fill="url(#paint1_linear_3158_49192)" fill-opacity="0.05"/>
<path d="M31.3285 51.6953C31.3285 45.9147 36.0146 41.2285 41.7953 41.2285H46.4561C52.2368 41.2285 56.9229 45.9147 56.9229 51.6953V51.6953C56.9229 52.6587 56.1419 53.4398 55.1785 53.4398H33.073C32.1095 53.4398 31.3285 52.6587 31.3285 51.6953V51.6953Z" fill="url(#paint2_linear_3158_49192)"/>
<path d="M36.7889 31.0828C36.7889 27.8097 39.4423 25.1562 42.7155 25.1562V25.1562C45.9886 25.1562 48.6421 27.8097 48.6421 31.0828V31.4409C48.6421 34.7141 45.9886 37.3675 42.7155 37.3675V37.3675C39.4423 37.3675 36.7889 34.7141 36.7889 31.4409V31.0828Z" fill="url(#paint3_linear_3158_49192)"/>
<path fill-rule="evenodd" clip-rule="evenodd" d="M44.9789 28.6867C44.9789 31.4577 42.7325 33.704 39.9616 33.704C37.1906 33.704 34.9442 31.4577 34.9442 28.6867C34.9442 25.9157 37.1906 23.6694 39.9616 23.6694C42.7325 23.6694 44.9789 25.9157 44.9789 28.6867ZM46.2 28.6867C46.2 32.1321 43.407 34.9251 39.9616 34.9251C36.5162 34.9251 33.7231 32.1321 33.7231 28.6867C33.7231 25.2413 36.5162 22.4482 39.9616 22.4482C43.407 22.4482 46.2 25.2413 46.2 28.6867ZM27.9588 49.5754H30.3865H38.629H49.2996C49.0064 43.4116 44.3004 38.5852 38.6292 38.5852C32.958 38.5852 28.252 43.4116 27.9588 49.5754ZM26.7232 50.7965H30.3865H38.6292H50.5352H53.5879V50.1859C53.5879 43.066 47.1689 37.3641 40.1555 37.3641H38.6292H38.037V37.3796C31.6973 37.7125 26.7232 43.3614 26.7232 50.1859V50.7965ZM52.3489 49.5754H50.5219C50.3527 45.7049 48.5838 42.2617 45.8954 40.0263C49.4824 41.916 52.1098 45.4767 52.3489 49.5754Z" fill="#CDC7FF"/>
<defs>
<radialGradient id="paint0_radial_3158_49192" cx="0" cy="0" r="1" gradientUnits="userSpaceOnUse" gradientTransform="translate(40 17.1179) rotate(90) scale(56.7287)">
<stop stop-color="#F0F0FF"/>
<stop stop-color="#F1F1FD"/>
<stop offset="0.703125" stop-color="white"/>
</radialGradient>
<linearGradient id="paint1_linear_3158_49192" x1="80.5396" y1="73.8466" x2="85.6358" y2="51.3954" gradientUnits="userSpaceOnUse">
<stop stop-color="#F7F8FD"/>
<stop offset="1" stop-color="white"/>
</linearGradient>
<linearGradient id="paint2_linear_3158_49192" x1="35.8608" y1="41.2285" x2="49.4791" y2="60.2488" gradientUnits="userSpaceOnUse">
<stop stop-color="#CDC7FF" stop-opacity="0.2"/>
<stop offset="1" stop-color="#CDC7FF" stop-opacity="0"/>
</linearGradient>
<linearGradient id="paint3_linear_3158_49192" x1="38.8879" y1="25.1562" x2="52.0082" y2="33.6428" gradientUnits="userSpaceOnUse">
<stop stop-color="#CDC7FF" stop-opacity="0.2"/>
<stop offset="1" stop-color="#CDC7FF" stop-opacity="0"/>
</linearGradient>
</defs>
</svg>
