<svg width="126" height="126" viewBox="0 0 126 126" fill="none" xmlns="http://www.w3.org/2000/svg">
<g filter="url(#filter0_d_2973_10412)">
<path d="M96 41C96 59.2254 81.2254 74 63 74C44.7746 74 30 59.2254 30 41C30 22.7746 44.7746 8 63 8C81.2254 8 96 22.7746 96 41Z" fill="url(#paint0_radial_2973_10412)" fill-opacity="0.1" shape-rendering="crispEdges"/>
</g>
<g filter="url(#filter1_d_2973_10412)">
<path fill-rule="evenodd" clip-rule="evenodd" d="M63 69.9304C78.9778 69.9304 91.9304 56.9778 91.9304 41C91.9304 25.0222 78.9778 12.0696 63 12.0696C47.0222 12.0696 34.0696 25.0222 34.0696 41C34.0696 56.9778 47.0222 69.9304 63 69.9304ZM63 74C81.2254 74 96 59.2254 96 41C96 22.7746 81.2254 8 63 8C44.7746 8 30 22.7746 30 41C30 59.2254 44.7746 74 63 74Z" fill="url(#paint1_linear_2973_10412)" fill-opacity="0.05" shape-rendering="crispEdges"/>
</g>
<path d="M51.7148 38.0374C51.7148 36.7741 52.739 35.75 54.0023 35.75H78.0205C79.2838 35.75 80.3079 36.7741 80.3079 38.0374V51.1903C80.3079 52.4536 79.2838 53.4777 78.0205 53.4777H54.0023C52.739 53.4777 51.7148 52.4536 51.7148 51.1903V38.0374Z" fill="url(#paint2_linear_2973_10412)"/>
<path fill-rule="evenodd" clip-rule="evenodd" d="M59.0332 37.2359C59.0332 36.9201 59.2892 36.6641 59.6051 36.6641H61.6638C61.9796 36.6641 62.2356 36.9201 62.2356 37.2359C62.2356 37.5518 61.9796 37.8078 61.6638 37.8078H59.6051C59.2892 37.8078 59.0332 37.5518 59.0332 37.2359Z" fill="#CDC7FF"/>
<path fill-rule="evenodd" clip-rule="evenodd" d="M48.2824 35.9814L48.2824 46.0462C48.2824 47.9412 49.8186 49.4774 51.7136 49.4774L69.5557 49.4774C71.4506 49.4774 72.9868 47.9412 72.9868 46.0462L72.9868 35.9814C72.9868 34.0865 71.4506 32.5503 69.5556 32.5503L51.7136 32.5503C49.8186 32.5503 48.2824 34.0865 48.2824 35.9814ZM47.1387 46.0462C47.1387 48.5728 49.1869 50.6211 51.7136 50.6211L69.5557 50.6211C72.0823 50.6211 74.1305 48.5728 74.1305 46.0462L74.1305 35.9814C74.1305 33.4548 72.0823 31.4065 69.5556 31.4065L51.7136 31.4065C49.1869 31.4065 47.1387 33.4548 47.1387 35.9814L47.1387 46.0462Z" fill="#CDC7FF"/>
<path fill-rule="evenodd" clip-rule="evenodd" d="M48.2824 35.9814L48.2824 46.0462C48.2824 47.9412 49.8186 49.4774 51.7136 49.4774L72.7581 49.4774C74.6531 49.4774 76.1892 47.9412 76.1892 46.0462L76.1892 35.9814C76.1892 34.0865 74.6531 32.5503 72.7581 32.5503L51.7136 32.5503C49.8186 32.5503 48.2824 34.0865 48.2824 35.9814ZM47.1387 46.0462C47.1387 48.5728 49.1869 50.6211 51.7136 50.6211L72.7581 50.6211C75.2847 50.6211 77.333 48.5728 77.333 46.0462L77.333 35.9814C77.333 33.4548 75.2847 31.4065 72.7581 31.4065L51.7136 31.4065C49.1869 31.4065 47.1387 33.4548 47.1387 35.9814L47.1387 46.0462Z" fill="#CDC7FF"/>
<path fill-rule="evenodd" clip-rule="evenodd" d="M57.7923 27.1728H63.7809C64.1621 27.1632 64.5415 27.2284 64.8976 27.3648C65.2564 27.5022 65.5845 27.7092 65.863 27.9737C66.1416 28.2383 66.3651 28.5553 66.5208 28.9065C66.6766 29.2579 66.7612 29.6364 66.7701 30.0204L66.7703 30.027V31.587H65.6266V30.0408C65.6204 29.8093 65.569 29.5815 65.4752 29.37C65.3806 29.1565 65.2447 28.9639 65.0754 28.803C64.9061 28.6422 64.7066 28.5164 64.4885 28.4329C64.2704 28.3493 64.038 28.3097 63.8046 28.3163L63.7966 28.3165H57.7766L57.7685 28.3163C57.5351 28.3097 57.3027 28.3493 57.0846 28.4329C56.8666 28.5164 56.6671 28.6422 56.4978 28.803C56.3284 28.9639 56.1926 29.1565 56.0979 29.37C56.0041 29.5817 55.9527 29.8096 55.9465 30.0408V31.5216H54.8027V30.027L54.8029 30.0204C54.8118 29.6362 54.8967 29.2577 55.0523 28.9065C55.208 28.5553 55.4316 28.2383 55.7101 27.9737C55.9887 27.7092 56.3168 27.5022 56.6756 27.3648C57.0317 27.2284 57.4111 27.1632 57.7923 27.1728Z" fill="#CDC7FF"/>
<path fill-rule="evenodd" clip-rule="evenodd" d="M47.5246 35.3148C47.6407 35.0211 47.973 34.8772 48.2667 34.9933L58.2584 38.9446C59.8797 39.5858 61.6842 39.5858 63.3055 38.9446L73.008 35.1077C73.3017 34.9916 73.634 35.1355 73.7501 35.4292C73.8662 35.7229 73.7223 36.0552 73.4286 36.1713L63.7261 40.0082C61.8346 40.7562 59.7293 40.7562 57.8378 40.0082L47.8461 36.0569C47.5524 35.9408 47.4085 35.6085 47.5246 35.3148Z" fill="#CDC7FF"/>
<defs>
<filter id="filter0_d_2973_10412" x="0.666685" y="0.66667" width="124.667" height="124.667" filterUnits="userSpaceOnUse" color-interpolation-filters="sRGB">
<feFlood flood-opacity="0" result="BackgroundImageFix"/>
<feColorMatrix in="SourceAlpha" type="matrix" values="0 0 0 0 0 0 0 0 0 0 0 0 0 0 0 0 0 0 127 0" result="hardAlpha"/>
<feOffset dy="22"/>
<feGaussianBlur stdDeviation="14.6667"/>
<feComposite in2="hardAlpha" operator="out"/>
<feColorMatrix type="matrix" values="0 0 0 0 0.0486111 0 0 0 0 0.127083 0 0 0 0 0.833333 0 0 0 0.06 0"/>
<feBlend mode="normal" in2="BackgroundImageFix" result="effect1_dropShadow_2973_10412"/>
<feBlend mode="normal" in="SourceGraphic" in2="effect1_dropShadow_2973_10412" result="shape"/>
</filter>
<filter id="filter1_d_2973_10412" x="0.666685" y="0.66667" width="124.667" height="124.667" filterUnits="userSpaceOnUse" color-interpolation-filters="sRGB">
<feFlood flood-opacity="0" result="BackgroundImageFix"/>
<feColorMatrix in="SourceAlpha" type="matrix" values="0 0 0 0 0 0 0 0 0 0 0 0 0 0 0 0 0 0 127 0" result="hardAlpha"/>
<feOffset dy="22"/>
<feGaussianBlur stdDeviation="14.6667"/>
<feComposite in2="hardAlpha" operator="out"/>
<feColorMatrix type="matrix" values="0 0 0 0 0.0486111 0 0 0 0 0.127083 0 0 0 0 0.833333 0 0 0 0.06 0"/>
<feBlend mode="normal" in2="BackgroundImageFix" result="effect1_dropShadow_2973_10412"/>
<feBlend mode="normal" in="SourceGraphic" in2="effect1_dropShadow_2973_10412" result="shape"/>
</filter>
<radialGradient id="paint0_radial_2973_10412" cx="0" cy="0" r="1" gradientUnits="userSpaceOnUse" gradientTransform="translate(63 18.6895) rotate(90) scale(55.3104)">
<stop stop-color="#F0F0FF"/>
<stop stop-color="#F1F1FD"/>
<stop offset="0.703125" stop-color="white"/>
</radialGradient>
<linearGradient id="paint1_linear_2973_10412" x1="102.526" y1="73.9999" x2="107.495" y2="52.11" gradientUnits="userSpaceOnUse">
<stop stop-color="#F7F8FD"/>
<stop offset="1" stop-color="white"/>
</linearGradient>
<linearGradient id="paint2_linear_2973_10412" x1="56.7782" y1="35.75" x2="77.6081" y2="58.1374" gradientUnits="userSpaceOnUse">
<stop stop-color="#CDC7FF" stop-opacity="0.2"/>
<stop offset="1" stop-color="#CDC7FF" stop-opacity="0"/>
</linearGradient>
</defs>
</svg>
