<svg width="80" height="80" viewBox="0 0 80 80" fill="none" xmlns="http://www.w3.org/2000/svg">
<path d="M73.8461 40.0004C73.8461 58.6932 58.6927 73.8466 40 73.8466C21.3073 73.8466 6.15384 58.6932 6.15384 40.0004C6.15384 21.3077 21.3073 6.1543 40 6.1543C58.6927 6.1543 73.8461 21.3077 73.8461 40.0004Z" fill="url(#paint0_radial_3158_49191)" fill-opacity="0.1"/>
<path fill-rule="evenodd" clip-rule="evenodd" d="M40 69.6727C56.3875 69.6727 69.6722 56.388 69.6722 40.0004C69.6722 23.6129 56.3875 10.3282 40 10.3282C23.6125 10.3282 10.3278 23.6129 10.3278 40.0004C10.3278 56.388 23.6125 69.6727 40 69.6727ZM40 73.8466C58.6927 73.8466 73.8461 58.6932 73.8461 40.0004C73.8461 21.3077 58.6927 6.1543 40 6.1543C21.3073 6.1543 6.15384 21.3077 6.15384 40.0004C6.15384 58.6932 21.3073 73.8466 40 73.8466Z" fill="url(#paint1_linear_3158_49191)" fill-opacity="0.05"/>
<path d="M28.4253 36.9613C28.4253 35.6656 29.4757 34.6152 30.7714 34.6152H55.4054C56.7012 34.6152 57.7516 35.6656 57.7516 36.9613V50.4514C57.7516 51.7471 56.7012 52.7975 55.4054 52.7975H30.7714C29.4757 52.7975 28.4253 51.7471 28.4253 50.4514V36.9613Z" fill="url(#paint2_linear_3158_49191)"/>
<path fill-rule="evenodd" clip-rule="evenodd" d="M35.9328 36.1393C35.9328 35.8153 36.1954 35.5527 36.5193 35.5527H38.6308C38.9547 35.5527 39.2173 35.8153 39.2173 36.1393C39.2173 36.4632 38.9547 36.7258 38.6308 36.7258H36.5193C36.1954 36.7258 35.9328 36.4632 35.9328 36.1393Z" fill="#CDC7FF"/>
<path fill-rule="evenodd" clip-rule="evenodd" d="M24.9063 34.8502L24.9063 45.173C24.9063 47.1166 26.4819 48.6922 28.4255 48.6922L46.7251 48.6922C48.6686 48.6922 50.2442 47.1166 50.2442 45.173L50.2442 34.8502C50.2442 32.9066 48.6686 31.331 46.7251 31.331L28.4255 31.331C26.4819 31.331 24.9063 32.9066 24.9063 34.8502ZM23.7333 45.173C23.7333 47.7645 25.8341 49.8652 28.4255 49.8652L46.7251 49.8652C49.3165 49.8652 51.4173 47.7645 51.4173 45.173L51.4173 34.8502C51.4173 32.2588 49.3165 30.158 46.7251 30.158L28.4255 30.158C25.834 30.158 23.7333 32.2588 23.7333 34.8502L23.7333 45.173Z" fill="#CDC7FF"/>
<path fill-rule="evenodd" clip-rule="evenodd" d="M24.9063 34.8502L24.9063 45.173C24.9063 47.1166 26.4819 48.6922 28.4255 48.6922L50.0096 48.6922C51.9532 48.6922 53.5288 47.1166 53.5288 45.173L53.5288 34.8502C53.5288 32.9066 51.9532 31.331 50.0096 31.331L28.4255 31.331C26.4819 31.331 24.9063 32.9066 24.9063 34.8502ZM23.7333 45.173C23.7333 47.7645 25.834 49.8652 28.4255 49.8652L50.0096 49.8652C52.601 49.8652 54.7018 47.7645 54.7018 45.173L54.7018 34.8502C54.7018 32.2588 52.601 30.158 50.0096 30.158L28.4255 30.158C25.834 30.158 23.7333 32.2588 23.7333 34.8502L23.7333 45.173Z" fill="#CDC7FF"/>
<path fill-rule="evenodd" clip-rule="evenodd" d="M34.66 25.8183H40.8022C41.1932 25.8085 41.5822 25.8754 41.9475 26.0152C42.3155 26.1562 42.652 26.3684 42.9377 26.6398C43.2234 26.9111 43.4527 27.2362 43.6124 27.5965C43.7721 27.9569 43.8589 28.3451 43.868 28.7389L43.8682 28.7457V30.3457H42.6951V28.7599C42.6888 28.5225 42.6361 28.2888 42.5399 28.0719C42.4429 27.8529 42.3035 27.6553 42.1298 27.4903C41.9562 27.3254 41.7516 27.1964 41.5279 27.1107C41.3042 27.025 41.0659 26.9844 40.8265 26.9912L40.8183 26.9914H34.6439L34.6356 26.9912C34.3962 26.9844 34.1579 27.025 33.9342 27.1107C33.7105 27.1964 33.506 27.3254 33.3323 27.4903C33.1586 27.6553 33.0192 27.8529 32.9222 28.0719C32.826 28.289 32.7732 28.5227 32.7668 28.7599V30.2786H31.5938V28.7457L31.5939 28.7389C31.6031 28.3449 31.6901 27.9567 31.8498 27.5965C32.0095 27.2362 32.2388 26.9111 32.5245 26.6398C32.8101 26.3684 33.1467 26.1562 33.5147 26.0152C33.8799 25.8754 34.269 25.8085 34.66 25.8183Z" fill="#CDC7FF"/>
<path fill-rule="evenodd" clip-rule="evenodd" d="M24.1264 34.1659C24.2455 33.8647 24.5863 33.7171 24.8875 33.8362L35.1354 37.8888C36.7983 38.5463 38.6491 38.5463 40.312 37.8888L50.2632 33.9535C50.5645 33.8344 50.9052 33.982 51.0243 34.2832C51.1435 34.5844 50.9958 34.9252 50.6946 35.0443L40.7433 38.9796C38.8033 39.7468 36.644 39.7468 34.704 38.9796L24.4561 34.927C24.1549 34.8079 24.0072 34.4671 24.1264 34.1659Z" fill="#CDC7FF"/>
<defs>
<radialGradient id="paint0_radial_3158_49191" cx="0" cy="0" r="1" gradientUnits="userSpaceOnUse" gradientTransform="translate(40 17.1179) rotate(90) scale(56.7287)">
<stop stop-color="#F0F0FF"/>
<stop stop-color="#F1F1FD"/>
<stop offset="0.703125" stop-color="white"/>
</radialGradient>
<linearGradient id="paint1_linear_3158_49191" x1="80.5396" y1="73.8466" x2="85.6358" y2="51.3954" gradientUnits="userSpaceOnUse">
<stop stop-color="#F7F8FD"/>
<stop offset="1" stop-color="white"/>
</linearGradient>
<linearGradient id="paint2_linear_3158_49191" x1="33.6185" y1="34.6152" x2="54.9825" y2="57.5767" gradientUnits="userSpaceOnUse">
<stop stop-color="#CDC7FF" stop-opacity="0.2"/>
<stop offset="1" stop-color="#CDC7FF" stop-opacity="0"/>
</linearGradient>
</defs>
</svg>
