<svg width="116" height="126" viewBox="0 0 116 126" fill="none" xmlns="http://www.w3.org/2000/svg">
<g filter="url(#filter0_d_1900_1667)">
<path d="M86 41C86 59.2254 71.2254 74 53 74C34.7746 74 20 59.2254 20 41C20 22.7746 34.7746 8 53 8C71.2254 8 86 22.7746 86 41Z" fill="url(#paint0_radial_1900_1667)" fill-opacity="0.1" shape-rendering="crispEdges"/>
</g>
<g filter="url(#filter1_d_1900_1667)">
<path fill-rule="evenodd" clip-rule="evenodd" d="M53 69.9304C68.9778 69.9304 81.9304 56.9778 81.9304 41C81.9304 25.0222 68.9778 12.0696 53 12.0696C37.0222 12.0696 24.0696 25.0222 24.0696 41C24.0696 56.9778 37.0222 69.9304 53 69.9304ZM53 74C71.2254 74 86 59.2254 86 41C86 22.7746 71.2254 8 53 8C34.7746 8 20 22.7746 20 41C20 59.2254 34.7746 74 53 74Z" fill="url(#paint1_linear_1900_1667)" fill-opacity="0.05" shape-rendering="crispEdges"/>
</g>
<g opacity="0.6">
<path opacity="0.5" d="M63.5012 56.75H58.25V62.0012H63.5012V56.75Z" fill="#858EC6"/>
<path opacity="0.7" d="M58.2512 56.75H53V62.0012H58.2512V56.75Z" fill="#D4CFFF" fill-opacity="0.7"/>
<path opacity="0.7" d="M53.0012 56.75H47.75V62.0012H53.0012V56.75Z" fill="#D4CFFF" fill-opacity="0.7"/>
<path opacity="0.5" d="M47.7512 56.75H42.5V62.0012H47.7512V56.75Z" fill="#D4CFFF" fill-opacity="0.7"/>
<path opacity="0.7" d="M68.749 51.5H63.5V56.7512H68.749V51.5Z" fill="#D4CFFF" fill-opacity="0.7"/>
<path opacity="0.8" d="M63.5012 51.5H58.25V56.7512H63.5012V51.5Z" fill="#D4CFFF" fill-opacity="0.7"/>
<path d="M58.2512 51.5H53V56.7512H58.2512V51.5Z" fill="#D4CFFF" fill-opacity="0.7"/>
<path d="M53.0012 51.5H47.75V56.7512H53.0012V51.5Z" fill="#D4CFFF" fill-opacity="0.7"/>
<path opacity="0.8" d="M47.7512 51.5H42.5V56.7512H47.7512V51.5Z" fill="#D4CFFF" fill-opacity="0.7"/>
<path opacity="0.7" d="M42.5031 51.5H37.252V56.7512H42.5031V51.5Z" fill="#D4CFFF" fill-opacity="0.7"/>
<path opacity="0.5" d="M73.9992 46.25H68.748V51.499H73.9992V46.25Z" fill="#D4CFFF" fill-opacity="0.7"/>
<path opacity="0.8" d="M68.749 46.25H63.5V51.499H68.749V46.25Z" fill="#D4CFFF" fill-opacity="0.7"/>
<path d="M63.5012 46.25H58.25V51.499H63.5012V46.25Z" fill="#D4CFFF" fill-opacity="0.7"/>
<path d="M58.2512 46.25H53V51.499H58.2512V46.25Z" fill="#D4CFFF" fill-opacity="0.7"/>
<path d="M53.0012 46.25H47.75V51.499H53.0012V46.25Z" fill="#D4CFFF" fill-opacity="0.7"/>
<path d="M47.7512 46.25H42.5V51.499H47.7512V46.25Z" fill="#D4CFFF" fill-opacity="0.7"/>
<path opacity="0.8" d="M42.5031 46.25H37.252V51.499H42.5031V46.25Z" fill="#D4CFFF" fill-opacity="0.7"/>
<path opacity="0.5" d="M37.2512 46.25H32V51.499H37.2512V46.25Z" fill="#D4CFFF" fill-opacity="0.7"/>
<path opacity="0.7" d="M73.9992 41H68.748V46.2512H73.9992V41Z" fill="#D4CFFF" fill-opacity="0.7"/>
<path d="M68.749 41H63.5V46.2512H68.749V41Z" fill="#D4CFFF" fill-opacity="0.7"/>
<path d="M63.5012 41H58.25V46.2512H63.5012V41Z" fill="#D4CFFF" fill-opacity="0.7"/>
<path d="M58.2512 41H53V46.2512H58.2512V41Z" fill="#D4CFFF" fill-opacity="0.7"/>
<path d="M53.0012 41H47.75V46.2512H53.0012V41Z" fill="#D4CFFF" fill-opacity="0.7"/>
<path d="M47.7512 41H42.5V46.2512H47.7512V41Z" fill="#D4CFFF" fill-opacity="0.7"/>
<path d="M42.5031 41H37.252V46.2512H42.5031V41Z" fill="#D4CFFF" fill-opacity="0.7"/>
<path opacity="0.7" d="M37.2512 41H32V46.2512H37.2512V41Z" fill="#D4CFFF" fill-opacity="0.7"/>
<path opacity="0.7" d="M73.9992 35.75H68.748V41.0012H73.9992V35.75Z" fill="#D4CFFF" fill-opacity="0.7"/>
<path d="M68.749 35.75H63.5V41.0012H68.749V35.75Z" fill="#D4CFFF" fill-opacity="0.7"/>
<path d="M63.5012 35.75H58.25V41.0012H63.5012V35.75Z" fill="#D4CFFF" fill-opacity="0.7"/>
<path d="M58.2512 35.75H53V41.0012H58.2512V35.75Z" fill="#D4CFFF" fill-opacity="0.7"/>
<path d="M53.0012 35.75H47.75V41.0012H53.0012V35.75Z" fill="#D4CFFF" fill-opacity="0.7"/>
<path d="M47.7512 35.75H42.5V41.0012H47.7512V35.75Z" fill="#D4CFFF" fill-opacity="0.7"/>
<path d="M42.5031 35.75H37.252V41.0012H42.5031V35.75Z" fill="#D4CFFF" fill-opacity="0.7"/>
<path opacity="0.7" d="M37.2512 35.75H32V41.0012H37.2512V35.75Z" fill="#D4CFFF" fill-opacity="0.7"/>
<path opacity="0.5" d="M73.9992 30.5H68.748V35.7512H73.9992V30.5Z" fill="#D4CFFF" fill-opacity="0.7"/>
<path opacity="0.8" d="M68.749 30.5H63.5V35.7512H68.749V30.5Z" fill="#D4CFFF" fill-opacity="0.7"/>
<path d="M63.5012 30.5H58.25V35.7512H63.5012V30.5Z" fill="#D4CFFF" fill-opacity="0.7"/>
<path d="M58.2512 30.5H53V35.7512H58.2512V30.5Z" fill="#D4CFFF" fill-opacity="0.7"/>
<path d="M53.0012 30.5H47.75V35.7512H53.0012V30.5Z" fill="#D4CFFF" fill-opacity="0.7"/>
<path d="M47.7512 30.5H42.5V35.7512H47.7512V30.5Z" fill="#D4CFFF" fill-opacity="0.7"/>
<path opacity="0.8" d="M42.5031 30.5H37.252V35.7512H42.5031V30.5Z" fill="#D4CFFF" fill-opacity="0.7"/>
<path opacity="0.5" d="M37.2512 30.5H32V35.7512H37.2512V30.5Z" fill="#D4CFFF" fill-opacity="0.7"/>
<path opacity="0.7" d="M68.749 25.25H63.5V30.5012H68.749V25.25Z" fill="#D4CFFF" fill-opacity="0.7"/>
<path opacity="0.8" d="M63.5012 25.25H58.25V30.5012H63.5012V25.25Z" fill="#D4CFFF" fill-opacity="0.7"/>
<path d="M58.2512 25.25H53V30.5012H58.2512V25.25Z" fill="#D4CFFF" fill-opacity="0.7"/>
<path d="M53.0012 25.25H47.75V30.5012H53.0012V25.25Z" fill="#D4CFFF" fill-opacity="0.7"/>
<path opacity="0.8" d="M47.7512 25.25H42.5V30.5012H47.7512V25.25Z" fill="#D4CFFF" fill-opacity="0.7"/>
<path opacity="0.7" d="M42.5031 25.25H37.252V30.5012H42.5031V25.25Z" fill="#D4CFFF" fill-opacity="0.7"/>
<path opacity="0.5" d="M63.5012 20H58.25V25.2512H63.5012V20Z" fill="#D4CFFF" fill-opacity="0.7"/>
<path opacity="0.7" d="M58.2512 20H53V25.2512H58.2512V20Z" fill="#D4CFFF" fill-opacity="0.7"/>
<path opacity="0.7" d="M53.0012 20H47.75V25.2512H53.0012V20Z" fill="#D4CFFF" fill-opacity="0.7"/>
<path opacity="0.5" d="M47.7512 20H42.5V25.2512H47.7512V20Z" fill="#D4CFFF" fill-opacity="0.7"/>
</g>
<path d="M45.8204 39.3343L47.2826 36.061C47.816 35.2209 47.7449 34.1943 47.1604 33.6165C47.0824 33.5383 46.9959 33.469 46.9026 33.4098C46.7024 33.2879 46.478 33.2111 46.2451 33.1846C46.0121 33.1581 45.7762 33.1826 45.5537 33.2565C45.0482 33.415 44.6167 33.7503 44.3381 34.2009C44.3381 34.2009 42.3381 38.8677 41.5892 40.9744C40.8403 43.0811 41.1448 46.9256 44.0137 49.8056C47.0582 52.8501 51.4738 53.5523 54.285 51.4367C54.4034 51.3754 54.5145 51.3009 54.6161 51.2145L63.2829 43.9722C63.7051 43.6188 64.3295 42.9055 63.7673 42.0877C63.2051 41.2699 62.1873 41.8321 61.7673 42.1033L56.7761 45.7322C56.7529 45.7518 56.7259 45.7665 56.6967 45.7753C56.6676 45.784 56.637 45.7867 56.6068 45.7832C56.5766 45.7796 56.5474 45.7699 56.5211 45.7547C56.4948 45.7394 56.4719 45.7189 56.4539 45.6944C56.3817 45.5833 56.3475 45.4518 56.3563 45.3196C56.3651 45.1874 56.4165 45.0616 56.5028 44.9611L64.154 38.4677C64.8207 37.8721 64.9073 37.0076 64.3762 36.4143C63.8451 35.821 63.0229 35.8498 62.3584 36.4521L55.4694 41.8388C55.437 41.8656 55.3994 41.8854 55.3591 41.897C55.3187 41.9086 55.2763 41.9119 55.2346 41.9064C55.193 41.901 55.1528 41.8871 55.1168 41.8655C55.0807 41.8439 55.0495 41.8152 55.025 41.781C54.9507 41.7078 54.906 41.6097 54.8995 41.5056C54.8929 41.4015 54.9249 41.2986 54.9894 41.2166L62.7917 33.6454C63.0869 33.3697 63.2608 32.9883 63.2754 32.5847C63.2899 32.1812 63.144 31.7882 62.8695 31.492C62.7322 31.35 62.5674 31.2373 62.3852 31.1609C62.2029 31.0845 62.0071 31.0459 61.8095 31.0476C61.4001 31.0457 61.0064 31.2054 60.7139 31.492L52.7516 38.9699C52.5605 39.161 52.1871 38.9699 52.1427 38.7477C52.1346 38.7078 52.1367 38.6666 52.1487 38.6277C52.1608 38.5889 52.1824 38.5537 52.2116 38.5254L58.3139 31.5765C58.4639 31.4395 58.5846 31.2736 58.6688 31.0887C58.7529 30.9038 58.7988 30.7038 58.8036 30.5008C58.8083 30.2977 58.7719 30.0958 58.6966 29.9071C58.6212 29.7185 58.5084 29.5471 58.365 29.4033C58.2216 29.2594 58.0505 29.1461 57.8622 29.0701C57.6738 28.9941 57.4719 28.9571 57.2689 28.9612C57.0658 28.9654 56.8656 29.0106 56.6805 29.0942C56.4954 29.1778 56.3291 29.298 56.1916 29.4475L46.9337 39.6699C46.6026 40.001 46.1137 40.0166 45.8804 39.8255C45.8439 39.7974 45.8133 39.7624 45.7904 39.7224C45.7676 39.6824 45.7529 39.6382 45.7473 39.5925C45.7418 39.5468 45.7453 39.5004 45.7579 39.4561C45.7704 39.4117 45.7917 39.3704 45.8204 39.3343Z" fill="#CDC7FF"/>
<defs>
<filter id="filter0_d_1900_1667" x="-9.33331" y="0.66667" width="124.667" height="124.667" filterUnits="userSpaceOnUse" color-interpolation-filters="sRGB">
<feFlood flood-opacity="0" result="BackgroundImageFix"/>
<feColorMatrix in="SourceAlpha" type="matrix" values="0 0 0 0 0 0 0 0 0 0 0 0 0 0 0 0 0 0 127 0" result="hardAlpha"/>
<feOffset dy="22"/>
<feGaussianBlur stdDeviation="14.6667"/>
<feComposite in2="hardAlpha" operator="out"/>
<feColorMatrix type="matrix" values="0 0 0 0 0.0486111 0 0 0 0 0.127083 0 0 0 0 0.833333 0 0 0 0.06 0"/>
<feBlend mode="normal" in2="BackgroundImageFix" result="effect1_dropShadow_1900_1667"/>
<feBlend mode="normal" in="SourceGraphic" in2="effect1_dropShadow_1900_1667" result="shape"/>
</filter>
<filter id="filter1_d_1900_1667" x="-9.33331" y="0.66667" width="124.667" height="124.667" filterUnits="userSpaceOnUse" color-interpolation-filters="sRGB">
<feFlood flood-opacity="0" result="BackgroundImageFix"/>
<feColorMatrix in="SourceAlpha" type="matrix" values="0 0 0 0 0 0 0 0 0 0 0 0 0 0 0 0 0 0 127 0" result="hardAlpha"/>
<feOffset dy="22"/>
<feGaussianBlur stdDeviation="14.6667"/>
<feComposite in2="hardAlpha" operator="out"/>
<feColorMatrix type="matrix" values="0 0 0 0 0.0486111 0 0 0 0 0.127083 0 0 0 0 0.833333 0 0 0 0.06 0"/>
<feBlend mode="normal" in2="BackgroundImageFix" result="effect1_dropShadow_1900_1667"/>
<feBlend mode="normal" in="SourceGraphic" in2="effect1_dropShadow_1900_1667" result="shape"/>
</filter>
<radialGradient id="paint0_radial_1900_1667" cx="0" cy="0" r="1" gradientUnits="userSpaceOnUse" gradientTransform="translate(53 18.6895) rotate(90) scale(55.3104)">
<stop stop-color="#F0F0FF"/>
<stop stop-color="#F1F1FD"/>
<stop offset="0.703125" stop-color="white"/>
</radialGradient>
<linearGradient id="paint1_linear_1900_1667" x1="92.526" y1="74" x2="97.4949" y2="52.1101" gradientUnits="userSpaceOnUse">
<stop stop-color="#F7F8FD"/>
<stop offset="1" stop-color="white"/>
</linearGradient>
</defs>
</svg>
