<svg width="78" height="78" viewBox="0 0 78 78" fill="none" xmlns="http://www.w3.org/2000/svg">
<path d="M71.9998 39C71.9998 57.2254 57.2252 72 38.9998 72C20.7744 72 5.99985 57.2254 5.99985 39C5.99985 20.7746 20.7744 6 38.9998 6C57.2252 6 71.9998 20.7746 71.9998 39Z" fill="url(#paint0_radial_3157_43701)" fill-opacity="0.1"/>
<path fill-rule="evenodd" clip-rule="evenodd" d="M38.9998 67.9304C54.9776 67.9304 67.9302 54.9778 67.9302 39C67.9302 23.0222 54.9776 10.0696 38.9998 10.0696C23.022 10.0696 10.0694 23.0222 10.0694 39C10.0694 54.9778 23.022 67.9304 38.9998 67.9304ZM38.9998 72C57.2252 72 71.9998 57.2254 71.9998 39C71.9998 20.7746 57.2252 6 38.9998 6C20.7744 6 5.99985 20.7746 5.99985 39C5.99985 57.2254 20.7744 72 38.9998 72Z" fill="url(#paint1_linear_3157_43701)" fill-opacity="0.05"/>
<g opacity="0.6">
<path opacity="0.5" d="M49.5011 54.75H44.2499V60.0012H49.5011V54.75Z" fill="#858EC6"/>
<path opacity="0.7" d="M44.2511 54.75H38.9999V60.0012H44.2511V54.75Z" fill="#858EC6"/>
<path opacity="0.7" d="M39.0011 54.75H33.7499V60.0012H39.0011V54.75Z" fill="#858EC6"/>
<path opacity="0.5" d="M33.7511 54.75H28.4999V60.0012H33.7511V54.75Z" fill="#858EC6"/>
<path opacity="0.7" d="M54.7489 49.5H49.4999V54.7512H54.7489V49.5Z" fill="#858EC6"/>
<path opacity="0.8" d="M49.5011 49.5H44.2499V54.7512H49.5011V49.5Z" fill="#858EC6"/>
<path d="M44.2511 49.5H38.9999V54.7512H44.2511V49.5Z" fill="#858EC6"/>
<path d="M39.0011 49.5H33.7499V54.7512H39.0011V49.5Z" fill="#858EC6"/>
<path opacity="0.8" d="M33.7511 49.5H28.4999V54.7512H33.7511V49.5Z" fill="#858EC6"/>
<path opacity="0.7" d="M28.503 49.5H23.2519V54.7512H28.503V49.5Z" fill="#858EC6"/>
<path opacity="0.5" d="M59.9991 44.25H54.748V49.499H59.9991V44.25Z" fill="#858EC6"/>
<path opacity="0.8" d="M54.7489 44.25H49.4999V49.499H54.7489V44.25Z" fill="#858EC6"/>
<path d="M49.5011 44.25H44.2499V49.499H49.5011V44.25Z" fill="#858EC6"/>
<path d="M44.2511 44.25H38.9999V49.499H44.2511V44.25Z" fill="#858EC6"/>
<path d="M39.0011 44.25H33.7499V49.499H39.0011V44.25Z" fill="#858EC6"/>
<path d="M33.7511 44.25H28.4999V49.499H33.7511V44.25Z" fill="#858EC6"/>
<path opacity="0.8" d="M28.503 44.25H23.2519V49.499H28.503V44.25Z" fill="#858EC6"/>
<path opacity="0.5" d="M23.2511 44.25H17.9999V49.499H23.2511V44.25Z" fill="#858EC6"/>
<path opacity="0.7" d="M59.9991 39H54.748V44.2512H59.9991V39Z" fill="#858EC6"/>
<path d="M54.7489 39H49.4999V44.2512H54.7489V39Z" fill="#858EC6"/>
<path d="M49.5011 39H44.2499V44.2512H49.5011V39Z" fill="#858EC6"/>
<path d="M44.2511 39H38.9999V44.2512H44.2511V39Z" fill="#858EC6"/>
<path d="M39.0011 39H33.7499V44.2512H39.0011V39Z" fill="#858EC6"/>
<path d="M33.7511 39H28.4999V44.2512H33.7511V39Z" fill="#858EC6"/>
<path d="M28.503 39H23.2519V44.2512H28.503V39Z" fill="#858EC6"/>
<path opacity="0.7" d="M23.2511 39H17.9999V44.2512H23.2511V39Z" fill="#858EC6"/>
<path opacity="0.7" d="M59.9991 33.75H54.748V39.0012H59.9991V33.75Z" fill="#858EC6"/>
<path d="M54.7489 33.75H49.4999V39.0012H54.7489V33.75Z" fill="#858EC6"/>
<path d="M49.5011 33.75H44.2499V39.0012H49.5011V33.75Z" fill="#858EC6"/>
<path d="M44.2511 33.75H38.9999V39.0012H44.2511V33.75Z" fill="#858EC6"/>
<path d="M39.0011 33.75H33.7499V39.0012H39.0011V33.75Z" fill="#858EC6"/>
<path d="M33.7511 33.75H28.4999V39.0012H33.7511V33.75Z" fill="#858EC6"/>
<path d="M28.503 33.75H23.2519V39.0012H28.503V33.75Z" fill="#858EC6"/>
<path opacity="0.7" d="M23.2511 33.75H17.9999V39.0012H23.2511V33.75Z" fill="#858EC6"/>
<path opacity="0.5" d="M59.9991 28.5H54.748V33.7512H59.9991V28.5Z" fill="#858EC6"/>
<path opacity="0.8" d="M54.7489 28.5H49.4999V33.7512H54.7489V28.5Z" fill="#858EC6"/>
<path d="M49.5011 28.5H44.2499V33.7512H49.5011V28.5Z" fill="#858EC6"/>
<path d="M44.2511 28.5H38.9999V33.7512H44.2511V28.5Z" fill="#858EC6"/>
<path d="M39.0011 28.5H33.7499V33.7512H39.0011V28.5Z" fill="#858EC6"/>
<path d="M33.7511 28.5H28.4999V33.7512H33.7511V28.5Z" fill="#858EC6"/>
<path opacity="0.8" d="M28.503 28.5H23.2519V33.7512H28.503V28.5Z" fill="#858EC6"/>
<path opacity="0.5" d="M23.2511 28.5H17.9999V33.7512H23.2511V28.5Z" fill="#858EC6"/>
<path opacity="0.7" d="M54.7489 23.25H49.4999V28.5012H54.7489V23.25Z" fill="#858EC6"/>
<path opacity="0.8" d="M49.5011 23.25H44.2499V28.5012H49.5011V23.25Z" fill="#858EC6"/>
<path d="M44.2511 23.25H38.9999V28.5012H44.2511V23.25Z" fill="#858EC6"/>
<path d="M39.0011 23.25H33.7499V28.5012H39.0011V23.25Z" fill="#858EC6"/>
<path opacity="0.8" d="M33.7511 23.25H28.4999V28.5012H33.7511V23.25Z" fill="#858EC6"/>
<path opacity="0.7" d="M28.503 23.25H23.2519V28.5012H28.503V23.25Z" fill="#858EC6"/>
<path opacity="0.5" d="M49.5011 18H44.2499V23.2512H49.5011V18Z" fill="#858EC6"/>
<path opacity="0.7" d="M44.2511 18H38.9999V23.2512H44.2511V18Z" fill="#858EC6"/>
<path opacity="0.7" d="M39.0011 18H33.7499V23.2512H39.0011V18Z" fill="#858EC6"/>
<path opacity="0.5" d="M33.7511 18H28.4999V23.2512H33.7511V18Z" fill="#858EC6"/>
</g>
<path d="M31.8211 37.3334L33.2833 34.06C33.8167 33.22 33.7456 32.1933 33.1611 31.6155C33.0831 31.5373 32.9966 31.468 32.9033 31.4088C32.7031 31.2869 32.4787 31.2101 32.2458 31.1836C32.0128 31.1571 31.7769 31.1817 31.5544 31.2555C31.0489 31.414 30.6174 31.7493 30.3388 32.2C30.3388 32.2 28.3388 36.8667 27.5899 38.9734C26.841 41.0801 27.1455 44.9246 30.0144 47.8046C33.0589 50.8491 37.4745 51.5513 40.2856 49.4358C40.4041 49.3744 40.5151 49.2999 40.6168 49.2135L49.2835 41.9712C49.7058 41.6179 50.3302 40.9045 49.768 40.0867C49.2058 39.2689 48.188 39.8312 47.768 40.1023L42.7768 43.7312C42.7536 43.7509 42.7265 43.7655 42.6974 43.7743C42.6683 43.783 42.6377 43.7857 42.6075 43.7822C42.5773 43.7787 42.5481 43.769 42.5218 43.7537C42.4955 43.7384 42.4726 43.7179 42.4546 43.6934C42.3824 43.5823 42.3482 43.4508 42.357 43.3186C42.3658 43.1864 42.4172 43.0607 42.5035 42.9601L50.1547 36.4667C50.8213 35.8711 50.908 35.0067 50.3769 34.4133C49.8458 33.82 49.0235 33.8489 48.3591 34.4511L41.4701 39.8378C41.4377 39.8646 41.4001 39.8844 41.3597 39.896C41.3194 39.9077 41.277 39.9109 41.2353 39.9055C41.1937 39.9 41.1535 39.8861 41.1175 39.8645C41.0814 39.843 41.0501 39.8142 41.0257 39.7801C40.9514 39.7068 40.9067 39.6087 40.9002 39.5046C40.8936 39.4005 40.9256 39.2976 40.9901 39.2156L48.7924 31.6444C49.0876 31.3687 49.2615 30.9874 49.276 30.5838C49.2906 30.1802 49.1447 29.7873 48.8702 29.491C48.7329 29.349 48.5681 29.2363 48.3859 29.1599C48.2036 29.0835 48.0078 29.045 47.8102 29.0466C47.4007 29.0448 47.0071 29.2045 46.7146 29.491L38.7523 36.9689C38.5612 37.16 38.1878 36.9689 38.1434 36.7467C38.1353 36.7068 38.1374 36.6656 38.1494 36.6268C38.1614 36.5879 38.1831 36.5527 38.2123 36.5245L44.3146 29.5755C44.4646 29.4385 44.5853 29.2726 44.6695 29.0877C44.7536 28.9029 44.7995 28.7029 44.8042 28.4998C44.809 28.2967 44.7726 28.0948 44.6973 27.9062C44.6219 27.7175 44.5091 27.5461 44.3657 27.4023C44.2223 27.2584 44.0512 27.1451 43.8628 27.0691C43.6745 26.9932 43.4726 26.9561 43.2696 26.9603C43.0665 26.9644 42.8663 27.0096 42.6812 27.0932C42.4961 27.1768 42.3298 27.297 42.1923 27.4466L32.9344 37.6689C32.6033 38 32.1144 38.0156 31.8811 37.8245C31.8445 37.7964 31.814 37.7614 31.7911 37.7214C31.7683 37.6814 31.7536 37.6372 31.748 37.5915C31.7425 37.5458 31.746 37.4994 31.7586 37.4551C31.7711 37.4108 31.7924 37.3694 31.8211 37.3334V37.3334Z" fill="#CDC7FF"/>
<defs>
<radialGradient id="paint0_radial_3157_43701" cx="0" cy="0" r="1" gradientUnits="userSpaceOnUse" gradientTransform="translate(38.9998 16.6895) rotate(90) scale(55.3104)">
<stop stop-color="#F0F0FF"/>
<stop stop-color="#F1F1FD"/>
<stop offset="0.703125" stop-color="white"/>
</radialGradient>
<linearGradient id="paint1_linear_3157_43701" x1="78.5259" y1="72" x2="83.4948" y2="50.1101" gradientUnits="userSpaceOnUse">
<stop stop-color="#F7F8FD"/>
<stop offset="1" stop-color="white"/>
</linearGradient>
</defs>
</svg>
