<svg width="16" height="16" viewBox="0 0 16 16" fill="none" xmlns="http://www.w3.org/2000/svg">
<path d="M3.2002 14.3999H12.8002L12.3204 11.0412C12.1285 9.69809 11.1105 8.62197 9.78011 8.35589L8.0002 7.9999L6.22028 8.35589C4.88988 8.62197 3.87188 9.69809 3.68001 11.0412L3.2002 14.3999Z" fill="#FFBB00"/>
<path d="M12.6663 1.33301V3.33301C12.6663 5.91034 10.577 7.99967 7.99967 7.99967M3.33301 1.33301V3.33301C3.33301 5.91034 5.42235 7.99967 7.99967 7.99967M7.99967 7.99967C10.577 7.99967 12.6663 10.089 12.6663 12.6663V14.6663M7.99967 7.99967C5.42235 7.99967 3.33301 10.089 3.33301 12.6663V14.6663" stroke="white"/>
<path d="M2.66602 1.33301H13.3327M13.3327 14.6663H2.66602" stroke="white" stroke-linecap="round"/>
</svg>
