<svg width="12" height="15" viewBox="0 0 12 15" fill="none" xmlns="http://www.w3.org/2000/svg">
<path d="M10.0001 5.33317H9.33341V3.99984C9.33341 2.15984 7.84008 0.666504 6.00008 0.666504C4.16008 0.666504 2.66675 2.15984 2.66675 3.99984V5.33317H2.00008C1.26675 5.33317 0.666748 5.93317 0.666748 6.6665V13.3332C0.666748 14.0665 1.26675 14.6665 2.00008 14.6665H10.0001C10.7334 14.6665 11.3334 14.0665 11.3334 13.3332V6.6665C11.3334 5.93317 10.7334 5.33317 10.0001 5.33317ZM6.00008 11.3332C5.26675 11.3332 4.66675 10.7332 4.66675 9.99984C4.66675 9.2665 5.26675 8.6665 6.00008 8.6665C6.73341 8.6665 7.33341 9.2665 7.33341 9.99984C7.33341 10.7332 6.73341 11.3332 6.00008 11.3332ZM8.06675 5.33317H3.93341V3.99984C3.93341 2.85984 4.86008 1.93317 6.00008 1.93317C7.14008 1.93317 8.06675 2.85984 8.06675 3.99984V5.33317Z" fill="#D4CFFF" fill-opacity="0.5"/>
</svg>
