<svg width="24" height="24" viewBox="0 0 24 24" fill="none" xmlns="http://www.w3.org/2000/svg">
<path d="M11.874 23.2676C8.62627 23.2676 5.87536 22.1406 3.62131 19.8865C1.36726 17.6325 0.240234 14.8816 0.240234 11.6338C0.240234 8.38603 1.36726 5.63512 3.62131 3.38107C5.87536 1.12702 8.62627 0 11.874 0C13.5464 0 15.146 0.345136 16.673 1.03541C18.1999 1.72568 19.5087 2.71358 20.5994 3.99912V0H23.5078V10.1796H13.3283V7.27113H19.436C18.6604 5.91385 17.5998 4.84742 16.2542 4.07183C14.9085 3.29624 13.4485 2.90845 11.874 2.90845C9.45033 2.90845 7.39018 3.75675 5.69358 5.45334C3.99698 7.14994 3.14868 9.21009 3.14868 11.6338C3.14868 14.0575 3.99698 16.1177 5.69358 17.8143C7.39018 19.5109 9.45033 20.3592 11.874 20.3592C13.7403 20.3592 15.4248 19.8259 16.9275 18.7595C18.4302 17.6931 19.4845 16.2873 20.0904 14.5423H23.1443C22.4656 17.1114 21.0841 19.2079 18.9997 20.8318C16.9153 22.4557 14.5401 23.2676 11.874 23.2676Z" fill="#CDC7FF"/>
</svg>
