<svg width="24" height="24" viewBox="0 0 24 24" fill="none" xmlns="http://www.w3.org/2000/svg">
<path d="M18.4999 15.9725L18.5023 16.1276L18.4164 16.2569C17.0376 18.3303 14.6744 19.7 12 19.7C9.32556 19.7 6.96236 18.3303 5.58364 16.2569L5.49772 16.1276L5.50006 15.9725C5.51027 15.2949 5.85897 14.7335 6.32876 14.2941C6.79651 13.8565 7.41795 13.5058 8.07223 13.2324C9.3787 12.6865 10.9366 12.4 12 12.4C13.0683 12.4 14.6262 12.6865 15.9317 13.2325C16.5854 13.5059 17.206 13.8567 17.673 14.2944C18.1421 14.734 18.4897 15.2954 18.4999 15.9725ZM21.5 12C21.5 6.75614 17.2439 2.5 12 2.5C6.75614 2.5 2.5 6.75614 2.5 12C2.5 17.2439 6.75614 21.5 12 21.5C17.2439 21.5 21.5 17.2439 21.5 12ZM8.5 8C8.5 6.06386 10.0639 4.5 12 4.5C13.9361 4.5 15.5 6.06386 15.5 8C15.5 9.93614 13.9361 11.5 12 11.5C10.0639 11.5 8.5 9.93614 8.5 8Z" stroke="#D4CFFF"/>
</svg>
