<svg width="48" height="20" viewBox="0 0 48 20" fill="none" xmlns="http://www.w3.org/2000/svg">
<g clip-path="url(#clip0_176_1955)">
<path d="M43.5961 8.46107V13.8665H43.6144C43.9766 11.1358 45.5867 9.35153 47.9996 8.50193V3C45.2246 3.48552 43.5957 5.24521 43.5957 8.46107H43.5961Z" fill="#14E5C5"/>
<path d="M38.4326 13.0834L42.8366 16.7239V9.50315L38.4326 5.8623V13.0834Z" fill="#14E5C5"/>
<path d="M30.6206 7.93211C30.6206 5.73027 32.4695 4.97536 34.1761 5.28991V6.84692C33.4176 6.61101 32.5801 6.78401 32.5801 7.93211V8.52973H34.1761V10.1496H32.5801V16.4406H30.6206V10.1496H29.1826V8.52973H30.6206V7.93211Z" fill="white"/>
<path d="M26.0655 7.93211C26.0655 5.73027 27.9144 4.97536 29.621 5.28991V6.84692C28.8625 6.61101 28.025 6.78401 28.025 7.93211V8.52973H29.7632V10.1496H28.025V16.4406H26.0655V10.1496H24.7793V8.52973H26.0655V7.93211Z" fill="white"/>
<path d="M22.0589 16.4404V8.52961H24.0184V16.4404H22.0589ZM21.7744 6.13905C21.7744 5.43132 22.3275 4.88086 23.0386 4.88086C23.7655 4.88086 24.3186 5.43132 24.3186 6.13905C24.3186 6.86251 23.7655 7.41297 23.0386 7.41297C22.3275 7.41297 21.7744 6.86251 21.7744 6.13905Z" fill="white"/>
<path d="M16.3828 16.4413V8.53052H18.3423L18.2949 10.7009C18.6426 8.86078 19.9541 8.24743 21.2973 8.51479V10.4492C19.7645 10.2291 18.3423 10.9211 18.3423 13.0757V16.4413H16.3828Z" fill="white"/>
<path d="M11.8565 16.7241C9.47033 16.7241 7.76367 14.9469 7.76367 12.4777C7.76367 10.0242 9.47033 8.24707 11.8249 8.24707C14.5745 8.24707 16.0441 10.6062 15.6964 13.0754H9.73897C9.80219 14.3021 10.6713 15.1985 11.8723 15.1985C12.8204 15.1985 13.6105 14.6638 13.8792 13.8617L15.5542 14.1134C15.2382 15.576 13.7844 16.7241 11.8565 16.7241ZM9.75477 11.6127H13.8002C13.8002 10.559 12.9942 9.7097 11.8249 9.7097C10.7345 9.7097 9.89698 10.4804 9.75477 11.6127Z" fill="white"/>
<path d="M3.19593 16.4411L0 8.53027H2.0878L4.23984 14.3179L6.40792 8.53027H8.41541L5.21947 16.4411H3.19593Z" fill="white"/>
</g>
<defs>
<clipPath id="clip0_176_1955">
<rect width="48" height="20" fill="white"/>
</clipPath>
</defs>
</svg>
