<svg width="24" height="24" viewBox="0 0 24 24" fill="none" xmlns="http://www.w3.org/2000/svg">
<path fill-rule="evenodd" clip-rule="evenodd" d="M9.87891 10.6659C9.87891 10.4567 10.0485 10.2871 10.2577 10.2871H11.6213C11.8305 10.2871 12.0001 10.4567 12.0001 10.6659C12.0001 10.8751 11.8305 11.0447 11.6213 11.0447H10.2577C10.0485 11.0447 9.87891 10.8751 9.87891 10.6659Z" fill="white" fill-opacity="0.56"/>
<path d="M10.2577 10.2371C10.0209 10.2371 9.82891 10.4291 9.82891 10.6659C9.82891 10.9027 10.0209 11.0947 10.2577 11.0947H11.6213C11.8581 11.0947 12.0501 10.9027 12.0501 10.6659C12.0501 10.4291 11.8581 10.2371 11.6213 10.2371H10.2577Z" stroke="white" stroke-opacity="0.56" stroke-width="0.1" stroke-linecap="round"/>
<path fill-rule="evenodd" clip-rule="evenodd" d="M2.75758 9.83233L2.75758 16.499C2.75758 17.7542 3.77511 18.7717 5.03031 18.7717L16.8485 18.7717C18.1037 18.7717 19.1212 17.7542 19.1212 16.499L19.1212 9.83233C19.1212 8.57714 18.1037 7.5596 16.8485 7.5596L5.0303 7.5596C3.77511 7.5596 2.75758 8.57714 2.75758 9.83233ZM2 16.499C2 18.1726 3.35672 19.5293 5.03031 19.5293L16.8485 19.5293C18.5221 19.5293 19.8788 18.1726 19.8788 16.499L19.8788 9.83233C19.8788 8.15874 18.5221 6.80203 16.8485 6.80203L5.0303 6.80203C3.35671 6.80203 2 8.15874 2 9.83233L2 16.499Z" fill="white" fill-opacity="0.56"/>
<path d="M2.80758 16.499L2.80758 9.83233C2.80758 8.60475 3.80272 7.6096 5.0303 7.6096L16.8485 7.6096C18.0761 7.6096 19.0712 8.60475 19.0712 9.83233L19.0712 16.499C19.0712 17.7266 18.0761 18.7217 16.8485 18.7217L5.03031 18.7217C3.80273 18.7217 2.80758 17.7266 2.80758 16.499ZM1.95 16.499C1.95 18.2002 3.3291 19.5793 5.03031 19.5793L16.8485 19.5793C18.5497 19.5793 19.9288 18.2002 19.9288 16.499L19.9288 9.83233C19.9288 8.13112 18.5497 6.75203 16.8485 6.75203L5.0303 6.75203C3.3291 6.75203 1.95 8.13113 1.95 9.83233L1.95 16.499Z" stroke="white" stroke-opacity="0.56" stroke-width="0.1"/>
<path fill-rule="evenodd" clip-rule="evenodd" d="M2.75758 9.83233L2.75758 16.499C2.75758 17.7542 3.77511 18.7717 5.0303 18.7717L18.9697 18.7717C20.2249 18.7717 21.2424 17.7542 21.2424 16.499L21.2424 9.83233C21.2424 8.57714 20.2249 7.5596 18.9697 7.5596L5.0303 7.5596C3.77511 7.5596 2.75758 8.57714 2.75758 9.83233ZM2 16.499C2 18.1726 3.35671 19.5293 5.0303 19.5293L18.9697 19.5293C20.6433 19.5293 22 18.1726 22 16.499L22 9.83233C22 8.15874 20.6433 6.80203 18.9697 6.80203L5.0303 6.80203C3.35671 6.80203 2 8.15874 2 9.83233L2 16.499Z" fill="white" fill-opacity="0.56"/>
<path d="M2.80758 16.499L2.80758 9.83233C2.80758 8.60475 3.80272 7.6096 5.0303 7.6096L18.9697 7.6096C20.1973 7.6096 21.1924 8.60475 21.1924 9.83233L21.1924 16.499C21.1924 17.7266 20.1973 18.7217 18.9697 18.7217L5.0303 18.7217C3.80272 18.7217 2.80758 17.7266 2.80758 16.499ZM1.95 16.499C1.95 18.2002 3.3291 19.5793 5.0303 19.5793L18.9697 19.5793C20.6709 19.5793 22.05 18.2002 22.05 16.499L22.05 9.83233C22.05 8.13112 20.6709 6.75203 18.9697 6.75203L5.0303 6.75203C3.3291 6.75203 1.95 8.13113 1.95 9.83233L1.95 16.499Z" stroke="white" stroke-opacity="0.56" stroke-width="0.1"/>
<path fill-rule="evenodd" clip-rule="evenodd" d="M9.05637 4.00062H13.0231C13.2756 3.99424 13.5269 4.03745 13.7628 4.12778C14.0004 4.2188 14.2178 4.35589 14.4023 4.53113C14.5868 4.70637 14.7348 4.91633 14.838 5.14899C14.9411 5.38172 14.9972 5.63245 15.0031 5.88677L15.0032 5.89118V6.92444H14.2456V5.90031C14.2415 5.747 14.2075 5.59606 14.1454 5.45598C14.0827 5.31459 13.9927 5.18697 13.8805 5.08043C13.7684 4.9739 13.6363 4.89057 13.4918 4.83525C13.3474 4.77992 13.1934 4.75369 13.0388 4.75804L13.0335 4.75819H9.04599L9.04065 4.75804C8.88605 4.75369 8.73212 4.77992 8.58765 4.83525C8.44321 4.89057 8.3111 4.9739 8.19894 5.08043C8.08677 5.18697 7.99676 5.31459 7.93409 5.45598C7.87195 5.59618 7.83786 5.74714 7.83375 5.90032V6.88114H7.07617V5.89118L7.07627 5.88677C7.08221 5.63231 7.1384 5.3816 7.2415 5.14899C7.34463 4.91633 7.49272 4.70637 7.67722 4.53113C7.86172 4.35589 8.07906 4.2188 8.31671 4.12778C8.55259 4.03745 8.80386 3.99424 9.05637 4.00062Z" fill="white" fill-opacity="0.56"/>
<path d="M15.0532 5.89118H15.0532L15.0532 5.89002L15.0531 5.88561C15.047 5.62471 14.9895 5.36749 14.8837 5.12873C14.7779 4.89004 14.626 4.67465 14.4367 4.49488C14.2474 4.3151 14.0245 4.17446 13.7806 4.08109C13.5389 3.98849 13.2813 3.94416 13.0225 3.95062H9.05699C8.79817 3.94416 8.54061 3.98849 8.29883 4.08109C8.05502 4.17446 7.83207 4.3151 7.64278 4.49488C7.45351 4.67465 7.30159 4.89004 7.19579 5.12873C7.09002 5.36735 7.03238 5.62456 7.02629 5.8856L7.02619 5.89002L7.02617 5.89002V5.89118V6.88114V6.93114H7.07617H7.83375H7.88375V6.88114V5.901C7.88776 5.75457 7.92039 5.61028 7.9798 5.47625C8.0398 5.34088 8.12597 5.21869 8.23337 5.11668C8.34076 5.01469 8.46725 4.9349 8.60554 4.88194C8.74385 4.82897 8.89123 4.80385 9.03924 4.80802L9.04458 4.80817L9.04458 4.80819H9.04599H13.0335V4.80821L13.0349 4.80817L13.0402 4.80802C13.1882 4.80385 13.3356 4.82897 13.4739 4.88194C13.6122 4.9349 13.7387 5.01469 13.8461 5.11668C13.9535 5.21869 14.0397 5.34088 14.0997 5.47625C14.159 5.61014 14.1916 5.75441 14.1956 5.90098V6.92444V6.97444H14.2456H15.0032H15.0532V6.92444V5.89118Z" stroke="white" stroke-opacity="0.56" stroke-width="0.1" stroke-miterlimit="10"/>
<path fill-rule="evenodd" clip-rule="evenodd" d="M2.25321 9.39194C2.33014 9.1974 2.55021 9.10206 2.74475 9.17899L9.36301 11.7962C10.4369 12.2209 11.6322 12.2209 12.7061 11.7962L19.1328 9.25475C19.3274 9.17781 19.5474 9.27315 19.6244 9.46769C19.7013 9.66223 19.606 9.8823 19.4114 9.95924L12.9847 12.5007C11.7318 12.9962 10.3373 12.9962 9.08442 12.5007L2.46615 9.88348C2.27162 9.80655 2.17627 9.58648 2.25321 9.39194Z" fill="white" fill-opacity="0.56"/>
<path d="M2.76314 9.13249C2.54292 9.0454 2.2938 9.15333 2.20671 9.37355C2.11962 9.59377 2.22755 9.84289 2.44777 9.92997L9.06603 12.5472C10.3307 13.0473 11.7384 13.0473 13.0031 12.5472L19.4298 10.0057C19.65 9.91865 19.758 9.66953 19.6709 9.44931C19.5838 9.22909 19.3347 9.12116 19.1144 9.20825L12.6877 11.7497C11.6256 12.1697 10.4435 12.1697 9.3814 11.7497L2.76314 9.13249Z" stroke="white" stroke-opacity="0.56" stroke-width="0.1" stroke-linecap="round"/>
</svg>
