<svg width="78" height="78" viewBox="0 0 78 78" fill="none" xmlns="http://www.w3.org/2000/svg">
<g clip-path="url(#clip0_3157_43702)">
<path d="M71.9998 39C71.9998 57.2254 57.2252 72 38.9998 72C20.7744 72 5.99982 57.2254 5.99982 39C5.99982 20.7746 20.7744 6 38.9998 6C57.2252 6 71.9998 20.7746 71.9998 39Z" fill="url(#paint0_radial_3157_43702)" fill-opacity="0.1"/>
<path fill-rule="evenodd" clip-rule="evenodd" d="M38.9998 67.9304C54.9776 67.9304 67.9302 54.9778 67.9302 39C67.9302 23.0222 54.9776 10.0696 38.9998 10.0696C23.022 10.0696 10.0694 23.0222 10.0694 39C10.0694 54.9778 23.022 67.9304 38.9998 67.9304ZM38.9998 72C57.2252 72 71.9998 57.2254 71.9998 39C71.9998 20.7746 57.2252 6 38.9998 6C20.7744 6 5.99982 20.7746 5.99982 39C5.99982 57.2254 20.7744 72 38.9998 72Z" fill="url(#paint1_linear_3157_43702)" fill-opacity="0.05"/>
<path d="M27.7144 36.0355C27.7144 34.7722 28.7386 33.748 30.0019 33.748H54.0201C55.2834 33.748 56.3075 34.7722 56.3075 36.0355V49.1883C56.3075 50.4516 55.2834 51.4758 54.0201 51.4758H30.0019C28.7386 51.4758 27.7144 50.4516 27.7144 49.1883V36.0355Z" fill="url(#paint2_linear_3157_43702)"/>
<path fill-rule="evenodd" clip-rule="evenodd" d="M35.0343 35.234C35.0343 34.9181 35.2903 34.6621 35.6061 34.6621H37.6648C37.9807 34.6621 38.2367 34.9181 38.2367 35.234C38.2367 35.5498 37.9807 35.8058 37.6648 35.8058H35.6061C35.2903 35.8058 35.0343 35.5498 35.0343 35.234Z" fill="#CDC7FF"/>
<path fill-rule="evenodd" clip-rule="evenodd" d="M24.2835 33.9766L24.2835 44.0413C24.2835 45.9363 25.8197 47.4725 27.7146 47.4725L45.5567 47.4725C47.4517 47.4725 48.9879 45.9363 48.9879 44.0413L48.9879 33.9766C48.9879 32.0816 47.4517 30.5454 45.5567 30.5454L27.7146 30.5454C25.8197 30.5454 24.2835 32.0816 24.2835 33.9766ZM23.1397 44.0413C23.1397 46.568 25.188 48.6162 27.7146 48.6162L45.5567 48.6162C48.0834 48.6162 50.1316 46.568 50.1316 44.0413L50.1316 33.9766C50.1316 31.4499 48.0834 29.4017 45.5567 29.4017L27.7146 29.4017C25.188 29.4017 23.1397 31.4499 23.1397 33.9766L23.1397 44.0413Z" fill="#CDC7FF"/>
<path fill-rule="evenodd" clip-rule="evenodd" d="M24.2835 33.9766L24.2835 44.0413C24.2835 45.9363 25.8196 47.4725 27.7146 47.4725L48.7591 47.4725C50.6541 47.4725 52.1903 45.9363 52.1903 44.0413L52.1903 33.9766C52.1903 32.0816 50.6541 30.5454 48.7591 30.5454L27.7146 30.5454C25.8197 30.5454 24.2835 32.0816 24.2835 33.9766ZM23.1397 44.0413C23.1397 46.568 25.188 48.6162 27.7146 48.6162L48.7591 48.6162C51.2858 48.6162 53.334 46.568 53.334 44.0413L53.334 33.9766C53.334 31.4499 51.2858 29.4017 48.7591 29.4017L27.7146 29.4017C25.188 29.4017 23.1397 31.4499 23.1397 33.9766L23.1397 44.0413Z" fill="#CDC7FF"/>
<path fill-rule="evenodd" clip-rule="evenodd" d="M33.7932 25.1709H39.7819C40.1631 25.1612 40.5424 25.2265 40.8986 25.3628C41.2573 25.5002 41.5855 25.7072 41.864 25.9718C42.1426 26.2363 42.3661 26.5533 42.5218 26.9046C42.6776 27.2559 42.7621 27.6344 42.7711 28.0184L42.7713 28.0251V29.585H41.6275V28.0388C41.6213 27.8074 41.5699 27.5795 41.4762 27.368C41.3816 27.1546 41.2457 26.9619 41.0764 26.8011C40.907 26.6402 40.7076 26.5144 40.4895 26.4309C40.2714 26.3474 40.039 26.3078 39.8056 26.3143L39.7976 26.3146H33.7776L33.7695 26.3143C33.5361 26.3078 33.3037 26.3474 33.0856 26.4309C32.8675 26.5144 32.6681 26.6402 32.4988 26.8011C32.3294 26.9619 32.1935 27.1546 32.0989 27.368C32.0051 27.5797 31.9536 27.8076 31.9474 28.0389V29.5196H30.8037V28.0251L30.8039 28.0184C30.8128 27.6343 30.8977 27.2557 31.0533 26.9046C31.209 26.5533 31.4326 26.2363 31.7111 25.9718C31.9897 25.7072 32.3178 25.5002 32.6766 25.3628C33.0327 25.2265 33.412 25.1612 33.7932 25.1709Z" fill="#CDC7FF"/>
<path fill-rule="evenodd" clip-rule="evenodd" d="M23.523 33.309C23.6392 33.0153 23.9714 32.8713 24.2651 32.9875L34.2568 36.9387C35.8781 37.5799 37.6827 37.5799 39.304 36.9387L49.0064 33.1019C49.3001 32.9857 49.6324 33.1297 49.7485 33.4234C49.8647 33.7171 49.7207 34.0493 49.427 34.1654L39.7246 38.0023C37.833 38.7503 35.7277 38.7503 33.8362 38.0023L23.8445 34.0511C23.5508 33.9349 23.4069 33.6027 23.523 33.309Z" fill="#CDC7FF"/>
</g>
<defs>
<radialGradient id="paint0_radial_3157_43702" cx="0" cy="0" r="1" gradientUnits="userSpaceOnUse" gradientTransform="translate(38.9998 16.6895) rotate(90) scale(55.3104)">
<stop stop-color="#F0F0FF"/>
<stop stop-color="#F1F1FD"/>
<stop offset="0.703125" stop-color="white"/>
</radialGradient>
<linearGradient id="paint1_linear_3157_43702" x1="78.5258" y1="71.9999" x2="83.4947" y2="50.11" gradientUnits="userSpaceOnUse">
<stop stop-color="#F7F8FD"/>
<stop offset="1" stop-color="white"/>
</linearGradient>
<linearGradient id="paint2_linear_3157_43702" x1="32.7778" y1="33.748" x2="53.6077" y2="56.1355" gradientUnits="userSpaceOnUse">
<stop stop-color="#CDC7FF" stop-opacity="0.2"/>
<stop offset="1" stop-color="#CDC7FF" stop-opacity="0"/>
</linearGradient>
<clipPath id="clip0_3157_43702">
<rect width="78" height="78" fill="white"/>
</clipPath>
</defs>
</svg>
