<svg width="18" height="24" viewBox="0 0 18 24" fill="none" xmlns="http://www.w3.org/2000/svg">
<path fill-rule="evenodd" clip-rule="evenodd" d="M14.7223 0.997929C14.2008 0.823875 13.6794 0.649821 13.1722 0.475767C12.5347 0.243763 11.9117 0.896414 11.9408 1.75209C11.9987 3.37633 12.0566 4.98597 12.1145 6.6102C12.1291 7.14675 11.8682 7.63994 11.4625 7.84296C10.6514 8.23443 9.82556 8.61152 8.99969 8.9886C8.17382 8.62611 7.34815 8.23443 6.53685 7.84296C6.11663 7.63994 5.87049 7.14675 5.88507 6.6102C5.94296 4.98597 6.00085 3.37633 6.05874 1.75209C6.08789 0.881825 5.46484 0.243763 4.82743 0.475767C4.30579 0.649821 3.79873 0.838464 3.2773 0.997929C2.85708 1.14301 2.53847 1.60702 2.49495 2.17254C2.35002 4.08693 2.19071 6.00111 2.04578 7.90091C2.00226 8.43746 2.24861 8.93065 2.65425 9.14806C3.56696 9.62666 3.48012 11.1929 2.48038 11.5554C2.03141 11.7151 1.69803 12.1645 1.65451 12.7011C1.42294 15.616 1.19097 18.5456 0.959195 21.4605C0.915675 22.026 1.21991 22.5482 1.74155 22.7512C2.36439 22.9976 3.00201 23.2442 3.63943 23.4908C4.43635 23.7953 5.29096 23.2006 5.31991 22.3306C5.40675 19.7058 5.50816 17.0808 5.5952 14.4414C5.60957 13.9049 5.92859 13.4409 6.37755 13.2668C7.26131 12.9187 8.1307 12.5706 8.99969 12.1935C9.86888 12.5562 10.7383 12.9187 11.622 13.2668C12.071 13.4409 12.39 13.9049 12.4044 14.4414C12.4914 17.0664 12.5926 19.6912 12.6797 22.3306C12.7086 23.2006 13.5632 23.7807 14.3602 23.4908C14.9976 23.2442 15.6352 22.9976 16.258 22.7512C16.7651 22.5482 17.0839 22.026 17.0404 21.4605C16.8086 18.5456 16.5766 15.616 16.3451 12.7011C16.3016 12.1645 15.9829 11.7151 15.5192 11.5554C14.5195 11.2075 14.4326 9.62666 15.3453 9.14806C15.7653 8.93065 15.9973 8.42308 15.9538 7.90091C15.8089 5.98673 15.6496 4.07234 15.5046 2.17254C15.4611 1.60702 15.1425 1.12842 14.7223 0.997929Z" fill="#CDC7FF"/>
</svg>
