<?xml version="1.0" encoding="UTF-8" standalone="no"?>
<svg
   width="62.375"
   height="72.160004"
   viewBox="0 0 62.375 72.160004"
   fill="none"
   version="1.1"
   id="svg36"
   sodipodi:docname="Frame 1707478232.svg"
   xmlns:inkscape="http://www.inkscape.org/namespaces/inkscape"
   xmlns:sodipodi="http://sodipodi.sourceforge.net/DTD/sodipodi-0.dtd"
   xmlns="http://www.w3.org/2000/svg"
   xmlns:svg="http://www.w3.org/2000/svg">
  <defs
     id="defs36" />
  <sodipodi:namedview
     id="namedview36"
     pagecolor="#505050"
     bordercolor="#eeeeee"
     borderopacity="1"
     inkscape:showpageshadow="0"
     inkscape:pageopacity="0"
     inkscape:pagecheckerboard="0"
     inkscape:deskcolor="#505050" />
  <g
     id="g37"
     transform="translate(-79,-207)">
    <path
       d="M 91.0385,218.053 110.187,207 l 19.149,11.053 -7.04,4.083 -12.109,-6.97 -12.1085,6.97 z m 38.2975,13.939 -7.04,-4.083 -12.109,6.969 -12.1085,-6.969 -7.04,4.083 v 8.166 l 12.1085,6.97 v 13.939 l 7.04,4.083 7.04,-4.083 v -13.939 l 12.109,-6.97 z m 0,22.106 v -8.167 l -7.04,4.083 v 8.167 z m 4.998,2.886 -12.108,6.97 v 8.166 l 19.149,-11.053 v -22.106 l -7.041,4.084 z m -7.039,-31.962 7.039,4.084 v 8.166 l 7.041,-4.083 v -8.167 l -7.041,-4.083 z m -24.148,41.889 v 8.166 l 7.04,4.083 7.04,-4.083 v -8.166 l -7.04,4.083 z m -12.1085,-12.813 7.04,4.083 v -8.167 l -7.04,-4.083 z m 12.1085,-29.076 7.04,4.084 7.04,-4.084 -7.04,-4.083 z m -17.107,4.084 7.04,-4.084 -7.04,-4.083 -7.04,4.083 v 8.167 l 7.04,4.083 z m 0,13.939 -7.04,-4.084 v 22.106 l 19.1488,11.053 v -8.166 L 86.04,256.984 Z"
       fill="#320a8d"
       id="path3" />
  </g>
</svg>
