<svg width="52" height="52" viewBox="0 0 52 52" fill="none" xmlns="http://www.w3.org/2000/svg">
<rect width="52" height="52" rx="10" fill="#1406B2" fill-opacity="0.04"/>
<path fill-rule="evenodd" clip-rule="evenodd" d="M31.7672 14.5702C31.2458 14.3961 30.7243 14.2221 30.2171 14.048C29.5797 13.816 28.9566 14.4687 28.9858 15.3244C29.0437 16.9486 29.1015 18.5582 29.1594 20.1825C29.174 20.719 28.9131 21.2122 28.5074 21.4152C27.6964 21.8067 26.8705 22.1838 26.0446 22.5609C25.2187 22.1984 24.3931 21.8067 23.5818 21.4152C23.1616 21.2122 22.9154 20.719 22.93 20.1825C22.9879 18.5582 23.0458 16.9486 23.1037 15.3244C23.1328 14.4541 22.5098 13.816 21.8723 14.048C21.3507 14.2221 20.8437 14.4107 20.3222 14.5702C19.902 14.7153 19.5834 15.1793 19.5399 15.7448C19.3949 17.6592 19.2356 19.5734 19.0907 21.4732C19.0472 22.0097 19.2935 22.5029 19.6992 22.7203C20.6119 23.1989 20.525 24.7652 19.5253 25.1277C19.0763 25.2874 18.7429 25.7368 18.6994 26.2733C18.4679 29.1883 18.2359 32.1178 18.0041 35.0328C17.9606 35.5983 18.2648 36.1204 18.7865 36.3235C19.4093 36.5699 20.0469 36.8165 20.6843 37.0631C21.4813 37.3676 22.3359 36.7729 22.3648 35.9028C22.4517 33.278 22.5531 30.653 22.6401 28.0137C22.6545 27.4771 22.9735 27.0131 23.4225 26.8391C24.3062 26.491 25.1756 26.1428 26.0446 25.7658C26.9138 26.1285 27.7832 26.491 28.667 26.8391C29.1159 27.0131 29.4349 27.4771 29.4493 28.0137C29.5363 30.6387 29.6376 33.2635 29.7246 35.9028C29.7535 36.7729 30.6081 37.353 31.4051 37.0631C32.0425 36.8165 32.6801 36.5699 33.303 36.3235C33.81 36.1204 34.1288 35.5983 34.0853 35.0328C33.8535 32.1178 33.6216 29.1883 33.39 26.2733C33.3465 25.7368 33.0279 25.2874 32.5641 25.1277C31.5644 24.7798 31.4775 23.1989 32.3902 22.7203C32.8103 22.5029 33.0422 21.9953 32.9987 21.4732C32.8538 19.559 32.6945 17.6446 32.5496 15.7448C32.506 15.1793 32.1874 14.7007 31.7672 14.5702Z" fill="#6309FF"/>
</svg>
