<?xml version="1.0" encoding="UTF-8" standalone="no"?>
<svg
   width="64.774002"
   height="58.376373"
   viewBox="0 0 64.774002 58.376373"
   fill="none"
   version="1.1"
   id="svg36"
   sodipodi:docname="Frame 1707478232.svg"
   xmlns:inkscape="http://www.inkscape.org/namespaces/inkscape"
   xmlns:sodipodi="http://sodipodi.sourceforge.net/DTD/sodipodi-0.dtd"
   xmlns="http://www.w3.org/2000/svg"
   xmlns:svg="http://www.w3.org/2000/svg">
  <defs
     id="defs36" />
  <sodipodi:namedview
     id="namedview36"
     pagecolor="#505050"
     bordercolor="#eeeeee"
     borderopacity="1"
     inkscape:showpageshadow="0"
     inkscape:pageopacity="0"
     inkscape:pagecheckerboard="0"
     inkscape:deskcolor="#505050" />
  <path
     d="m 48.092,41.111122 15.364,-9.026 c 0.814,-0.48 1.318,-1.369 1.318,-2.324 v -18.053 c 0,-0.955 -0.504,-1.8439999 -1.318,-2.3229999 L 48.092,0.35812207 c -0.815,-0.48 -1.826,-0.475 -2.636,0 L 30.092,9.3851221 c -0.814,0.479 -1.317,1.3679999 -1.317,2.3229999 v 32.262 l -10.7755,6.327 -10.775,-6.327 v -12.658 l 10.775,-6.327 7.1055,4.176 v -8.492 l -5.7879,-3.403 c -0.3981,-0.232 -0.8554,-0.358 -1.3176,-0.358 -0.4622,0 -0.9195,0.126 -1.3176,0.358 l -15.3642,9.027 c -0.8144,0.48 -1.3177,1.369 -1.3177,2.323 v 18.054 c 0,0.954 0.5033,1.844 1.3177,2.323 l 15.3642,9.027 c 0.8142,0.475 1.8209,0.475 2.6352,0 l 15.3639,-9.027 c 0.815,-0.479 1.318,-1.369 1.318,-2.323 v -32.267 l 0.192,-0.111 10.579,-6.2149999 10.775,6.3259999 v 12.658 l -10.775,6.327 -7.097,-4.167 v 8.492 l 5.779,3.394 c 0.814,0.475 1.825,0.475 2.635,0 z"
     fill="#320a8d"
     id="path2"
     inkscape:export-filename="path2.svg"
     inkscape:export-xdpi="96"
     inkscape:export-ydpi="96" />
</svg>
