<svg width="250" height="279" viewBox="0 0 250 279" fill="none" xmlns="http://www.w3.org/2000/svg">
<g filter="url(#filter0_d_813_11042)">
<circle cx="78.9451" cy="57.8519" r="46.5282" transform="rotate(-16.5457 78.9451 57.8519)" fill="url(#paint0_radial_813_11042)"/>
<circle cx="78.9451" cy="57.8519" r="43.5282" transform="rotate(-16.5457 78.9451 57.8519)" stroke="url(#paint1_linear_813_11042)" stroke-width="6"/>
</g>
<path d="M54.3978 70.9311C49.6172 54.839 58.7869 37.9183 74.879 33.1377C90.9711 28.357 107.892 37.5268 112.672 53.6188C117.453 69.7109 108.283 86.6316 92.1913 91.4123C76.0992 96.193 59.1785 87.0232 54.3978 70.9311Z" fill="url(#paint2_linear_813_11042)"/>
<path fill-rule="evenodd" clip-rule="evenodd" d="M85.6766 85.4354C100.399 81.0617 108.721 65.3563 104.265 50.3565C99.8089 35.3567 84.2617 26.7425 69.5394 31.1162C54.8172 35.4899 46.4948 51.1953 50.951 66.1951C55.4072 81.1949 70.9544 89.8091 85.6766 85.4354ZM106.804 49.6023C111.684 66.0307 102.569 83.2318 86.4451 88.022C70.3207 92.8123 53.2928 83.3777 48.4122 66.9493C43.5317 50.521 52.6466 33.3199 68.771 28.5296C84.8954 23.7394 101.923 33.1739 106.804 49.6023Z" fill="#320A8D"/>
<path fill-rule="evenodd" clip-rule="evenodd" d="M82.9871 76.3822C92.8019 73.4664 98.3501 62.9962 95.3794 52.9963C92.4086 42.9964 82.0438 37.2536 72.2289 40.1695C62.4141 43.0853 56.8659 53.5555 59.8367 63.5554C62.8074 73.5552 73.1722 79.298 82.9871 76.3822ZM97.9181 52.2421C101.313 63.6705 94.9725 75.6365 83.7555 78.9688C72.5385 82.3012 60.6931 75.738 57.2979 64.3096C53.9027 52.8812 60.2435 40.9152 71.4605 37.5828C82.6775 34.2505 94.523 40.8137 97.9181 52.2421Z" fill="#320A8D"/>
<path fill-rule="evenodd" clip-rule="evenodd" d="M79.662 45.8011C79.1277 45.7828 78.5934 45.7644 78.0723 45.7421C77.4138 45.7017 77.0144 46.4844 77.2793 47.2764C77.7844 48.779 78.2855 50.268 78.7906 51.7707C78.9532 52.2683 78.847 52.8017 78.5254 53.1039C77.8782 53.6944 77.2133 54.2757 76.5484 54.8569C75.678 54.7466 74.7997 54.609 73.9349 54.4676C73.4868 54.3941 73.1204 54.0011 72.985 53.4954C72.5878 51.9607 72.1946 50.4397 71.7974 48.905C71.5828 48.0832 70.8249 47.6591 70.2953 48.0525C69.8575 48.3597 69.4374 48.6764 68.9957 48.9699C68.6444 49.2219 68.4763 49.744 68.5929 50.2848C68.9896 52.1149 69.3728 53.9488 69.7654 55.7652C69.8739 56.279 70.2405 56.6719 70.6789 56.7629C71.6625 56.9577 72.0166 58.4462 71.1856 59.0619C70.8115 59.3355 70.6257 59.848 70.7341 60.3618C71.328 63.1514 71.9256 65.9548 72.5193 68.7444C72.6358 69.2853 73.0644 69.6892 73.6069 69.7347C74.2558 69.7926 74.9186 69.8466 75.5811 69.9007C76.4084 69.9648 77.0397 69.1721 76.825 68.3506C76.1768 65.8724 75.5422 63.3899 74.8901 60.8979C74.7545 60.3923 74.9229 59.8701 75.293 59.5831C76.0199 59.0129 76.7335 58.4467 77.4386 57.8535C78.3494 57.952 79.2603 58.0502 80.1806 58.131C80.6474 58.1695 81.0736 58.515 81.236 59.0127C82.0463 61.443 82.8697 63.8692 83.684 66.3129C83.9527 67.1184 84.9103 67.4242 85.5724 66.9325C86.098 66.5254 86.6237 66.1183 87.1357 65.7155C87.5519 65.3853 87.704 64.8088 87.5063 64.2921C86.4806 61.6307 85.4507 58.9558 84.4252 56.2944C84.2356 55.8048 83.8138 55.4728 83.3373 55.4519C82.3089 55.4034 81.7889 53.9493 82.5065 53.2491C82.8376 52.9295 82.9128 52.3907 82.7272 51.9145C82.0604 50.1649 81.3802 48.419 80.7174 46.6828C80.5197 46.1661 80.0899 45.8068 79.662 45.8011Z" fill="#320A8D"/>
<g filter="url(#filter1_d_813_11042)">
<circle cx="138.623" cy="88.1963" r="46.5282" transform="rotate(-16.5457 138.623 88.1963)" fill="url(#paint3_radial_813_11042)"/>
<circle cx="138.623" cy="88.1963" r="43.5282" transform="rotate(-16.5457 138.623 88.1963)" stroke="url(#paint4_linear_813_11042)" stroke-width="6"/>
</g>
<path d="M114.075 101.275C109.295 85.1833 118.464 68.2626 134.557 63.4819C150.649 58.7013 167.569 67.871 172.35 83.9631C177.131 100.055 167.961 116.976 151.869 121.757C135.777 126.537 118.856 117.367 114.075 101.275Z" fill="url(#paint5_linear_813_11042)"/>
<path fill-rule="evenodd" clip-rule="evenodd" d="M145.354 115.78C160.076 111.406 168.398 95.7008 163.942 80.701C159.486 65.7012 143.939 57.087 129.217 61.4607C114.494 65.8344 106.172 81.5398 110.628 96.5396C115.084 111.539 130.632 120.154 145.354 115.78ZM166.481 79.9468C171.362 96.3752 162.247 113.576 146.122 118.367C129.998 123.157 112.97 113.722 108.089 97.2938C103.209 80.8654 112.324 63.6643 128.448 58.8741C144.573 54.0838 161.601 63.5184 166.481 79.9468Z" fill="#320A8D"/>
<path fill-rule="evenodd" clip-rule="evenodd" d="M142.665 106.726C152.479 103.811 158.028 93.3404 155.057 83.3405C152.086 73.3407 141.721 67.5979 131.906 70.5137C122.092 73.4295 116.543 83.8997 119.514 93.8996C122.485 103.899 132.85 109.642 142.665 106.726ZM157.596 82.5863C160.991 94.0148 154.65 105.981 143.433 109.313C132.216 112.645 120.371 106.082 116.975 94.6538C113.58 83.2254 119.921 71.2594 131.138 67.9271C142.355 64.5947 154.2 71.1579 157.596 82.5863Z" fill="#320A8D"/>
<path fill-rule="evenodd" clip-rule="evenodd" d="M139.339 76.1456C138.805 76.1273 138.271 76.1089 137.75 76.0866C137.091 76.0461 136.692 76.8289 136.957 77.6209C137.462 79.1235 137.963 80.6125 138.468 82.1152C138.631 82.6128 138.525 83.1462 138.203 83.4483C137.556 84.0389 136.891 84.6202 136.226 85.2014C135.355 85.0911 134.477 84.9535 133.612 84.8121C133.164 84.7386 132.798 84.3456 132.662 83.8399C132.265 82.3052 131.872 80.7841 131.475 79.2494C131.26 78.4277 130.502 78.0036 129.973 78.397C129.535 78.7041 129.115 79.0209 128.673 79.3144C128.322 79.5664 128.154 80.0884 128.27 80.6293C128.667 82.4594 129.05 84.2933 129.443 86.1097C129.551 86.6234 129.918 87.0164 130.356 87.1073C131.34 87.3021 131.694 88.7907 130.863 89.4064C130.489 89.68 130.303 90.1925 130.412 90.7062C131.006 93.4959 131.603 96.2992 132.197 99.0889C132.313 99.6297 132.742 100.034 133.284 100.079C133.933 100.137 134.596 100.191 135.259 100.245C136.086 100.309 136.717 99.5166 136.502 98.6951C135.854 96.2168 135.22 93.7344 134.568 91.2424C134.432 90.7368 134.6 90.2146 134.97 89.9275C135.697 89.3574 136.411 88.7912 137.116 88.198C138.027 88.2965 138.938 88.3947 139.858 88.4755C140.325 88.514 140.751 88.8595 140.914 89.3572C141.724 91.7875 142.547 94.2137 143.361 96.6574C143.63 97.4629 144.588 97.7687 145.25 97.277C145.775 96.8699 146.301 96.4628 146.813 96.06C147.229 95.7298 147.381 95.1533 147.184 94.6365C146.158 91.9752 145.128 89.3003 144.103 86.6389C143.913 86.1493 143.491 85.8173 143.015 85.7964C141.986 85.7479 141.466 84.2938 142.184 83.5936C142.515 83.274 142.59 82.7352 142.405 82.259C141.738 80.5094 141.058 78.7635 140.395 77.0273C140.197 76.5106 139.767 76.1513 139.339 76.1456Z" fill="#320A8D"/>
<g filter="url(#filter2_bi_813_11042)">
<rect x="0.935059" y="103.468" width="238.578" height="174.986" rx="38" fill="url(#paint6_radial_813_11042)" fill-opacity="0.99"/>
</g>
<g filter="url(#filter3_i_813_11042)">
<rect x="227.672" y="268.367" width="216.65" height="155.69" rx="24" transform="rotate(-180 227.672 268.367)" fill="url(#paint7_radial_813_11042)" fill-opacity="0.1"/>
</g>
<rect x="11.5217" y="113.178" width="215.65" height="154.69" rx="24.5" stroke="url(#paint8_linear_813_11042)" stroke-dasharray="3 3"/>
<g filter="url(#filter4_bdi_813_11042)">
<path d="M143.554 179.065C143.554 166.362 153.851 156.065 166.554 156.065H237.714C242.132 156.065 245.714 159.647 245.714 164.065V212.8C245.714 217.218 242.132 220.8 237.714 220.8H166.554C153.851 220.8 143.554 210.502 143.554 197.8V179.065Z" fill="url(#paint9_radial_813_11042)" fill-opacity="0.99" shape-rendering="crispEdges"/>
</g>
<path fill-rule="evenodd" clip-rule="evenodd" d="M195.792 197.947C195.657 197.676 195.657 197.323 195.657 196.615V179.606C195.657 178.899 195.657 178.545 195.792 178.275C195.911 178.037 196.101 177.844 196.334 177.723C196.599 177.585 196.947 177.585 197.641 177.585H204.132C205.862 177.585 206.727 177.585 207.437 177.779C209.363 178.304 210.867 179.836 211.383 181.798C211.573 182.521 211.573 183.402 211.573 185.164C211.573 186.311 211.063 186.731 210.628 187.089C210.305 187.355 210.023 187.587 210.023 188.058C210.023 188.523 210.352 188.755 210.732 189.024C211.258 189.395 211.884 189.837 211.884 191.058C211.884 192.817 211.884 193.696 211.694 194.418C211.179 196.381 209.673 197.914 207.746 198.44C207.038 198.633 206.174 198.633 204.447 198.634L197.642 198.636C196.947 198.636 196.6 198.636 196.334 198.499C196.101 198.378 195.911 198.184 195.792 197.947ZM204.908 184.488C205.298 183.865 205.635 183.326 205.635 182.637C205.635 181.242 204.522 180.111 203.149 180.111C201.777 180.111 200.664 181.295 200.664 182.637C200.664 183.326 201.01 183.865 201.41 184.488C201.958 185.339 202.606 186.347 202.606 188.111C202.606 189.874 201.958 190.882 201.41 191.734C201.01 192.356 200.664 192.895 200.664 193.584C200.664 194.979 201.777 196.11 203.149 196.11C204.522 196.11 205.635 194.979 205.635 193.584C205.635 192.895 205.298 192.356 204.908 191.734C204.375 190.882 203.745 189.874 203.745 188.111C203.745 186.347 204.375 185.339 204.908 184.488Z" fill="url(#paint10_linear_813_11042)"/>
<path d="M221.862 183.826C222.102 184.795 222.267 185.793 222.349 186.814L222 186.842C222.039 187.333 222.059 187.829 222.059 188.33C222.059 188.83 222.039 189.326 222 189.817L222.349 189.845C222.267 190.866 222.102 191.864 221.862 192.834L221.522 192.749C221.282 193.72 220.965 194.661 220.576 195.566L220.898 195.704C220.498 196.636 220.024 197.531 219.484 198.382L219.188 198.194C218.656 199.032 218.057 199.826 217.4 200.569L217.662 200.801C216.994 201.557 216.266 202.261 215.485 202.906L215.262 202.636C214.5 203.266 213.686 203.839 212.829 204.347L213.008 204.648C212.144 205.161 211.237 205.61 210.292 205.988L210.162 205.664C209.249 206.029 208.301 206.328 207.324 206.554L207.403 206.895C206.431 207.12 205.431 207.274 204.409 207.351L204.383 207.001C203.891 207.038 203.395 207.057 202.893 207.057C202.392 207.057 201.895 207.038 201.404 207.001L201.378 207.351C200.356 207.274 199.356 207.12 198.384 206.895L198.462 206.554C197.485 206.328 196.537 206.029 195.625 205.664L195.494 205.988C194.55 205.61 193.642 205.161 192.779 204.648L192.957 204.347C192.1 203.839 191.287 203.266 190.525 202.636L190.302 202.906C189.521 202.261 188.793 201.557 188.124 200.801L188.386 200.569C187.729 199.826 187.131 199.032 186.598 198.194L186.303 198.382C185.763 197.531 185.289 196.636 184.889 195.704L185.21 195.566C184.822 194.661 184.504 193.72 184.264 192.749L183.924 192.834C183.684 191.864 183.52 190.866 183.438 189.845L183.787 189.817C183.747 189.326 183.727 188.83 183.727 188.33C183.727 187.829 183.747 187.333 183.787 186.842L183.438 186.814C183.52 185.793 183.684 184.795 183.924 183.826L184.264 183.91C184.504 182.94 184.822 181.999 185.21 181.094L184.889 180.956C185.289 180.023 185.763 179.128 186.303 178.278L186.598 178.466C187.131 177.628 187.729 176.833 188.386 176.09L188.124 175.859C188.793 175.103 189.521 174.399 190.302 173.754L190.525 174.023C191.287 173.394 192.1 172.821 192.957 172.312L192.779 172.011C193.642 171.498 194.55 171.05 195.494 170.671L195.625 170.996C196.537 170.63 197.485 170.331 198.462 170.105L198.384 169.764C199.356 169.539 200.356 169.386 201.378 169.309L201.404 169.658C201.895 169.621 202.392 169.602 202.893 169.602C203.395 169.602 203.891 169.621 204.383 169.658L204.409 169.309C205.431 169.386 206.431 169.539 207.403 169.764L207.324 170.105C208.301 170.331 209.249 170.63 210.162 170.996L210.292 170.671C211.237 171.05 212.144 171.498 213.008 172.011L212.829 172.312C213.686 172.821 214.5 173.394 215.262 174.023L215.485 173.754C216.266 174.399 216.994 175.103 217.662 175.859L217.4 176.09C218.057 176.833 218.656 177.628 219.188 178.466L219.484 178.278C220.024 179.128 220.498 180.023 220.898 180.956L220.576 181.094C220.965 181.999 221.282 182.94 221.522 183.91L221.862 183.826Z" stroke="url(#paint11_linear_813_11042)" stroke-width="0.7" stroke-dasharray="3 3"/>
<path fill-rule="evenodd" clip-rule="evenodd" d="M54.887 198.017C54.7775 197.81 54.7775 197.538 54.7775 196.994V183.917C54.7775 183.373 54.7775 183.102 54.887 182.894C54.9832 182.711 55.1369 182.563 55.3259 182.469C55.5407 182.364 55.822 182.364 56.3844 182.364H61.6404C63.0414 182.364 63.742 182.364 64.3167 182.512C65.8763 182.917 67.0946 184.094 67.5125 185.602C67.6665 186.158 67.6665 186.835 67.6665 188.19C67.6665 189.072 67.2534 189.395 66.9011 189.67C66.6393 189.875 66.411 190.053 66.411 190.415C66.411 190.772 66.677 190.951 66.9854 191.158C67.411 191.443 67.9175 191.783 67.9175 192.721C67.9175 194.074 67.9175 194.75 67.764 195.304C67.3466 196.813 66.1278 197.992 64.5672 198.396C63.9934 198.545 63.2942 198.545 61.8957 198.546L56.3849 198.547C55.8223 198.547 55.541 198.548 55.3261 198.442C55.137 198.349 54.9833 198.2 54.887 198.017ZM74.0543 195.23L73.3694 197.305C73.2411 197.693 73.177 197.887 73.0549 198.031C72.9471 198.158 72.8077 198.256 72.6499 198.317C72.4711 198.386 72.2603 198.386 71.8385 198.386H68.8082L73.6721 183.529C73.7997 183.14 73.8634 182.945 73.9855 182.801C74.0933 182.673 74.2328 182.574 74.3909 182.514C74.57 182.445 74.7814 182.445 75.2041 182.445H78.5417C78.9645 182.445 79.1759 182.445 79.3548 182.513C79.5131 182.574 79.6525 182.673 79.7601 182.8C79.8824 182.945 79.946 183.14 80.0736 183.529L84.9403 198.386H81.9084C81.4866 198.386 81.2759 198.386 81.097 198.317C80.9394 198.257 80.8 198.158 80.692 198.031C80.5701 197.887 80.5058 197.693 80.3776 197.305L79.6923 195.23H74.0543ZM74.9092 192.641H78.8373L76.8729 186.693L74.9092 192.641ZM41.9897 198.386C41.4273 198.386 41.146 198.386 40.9312 198.28C40.7422 198.187 40.5886 198.038 40.4923 197.856C40.3828 197.648 40.3828 197.376 40.3828 196.832V182.525H42.9598C43.5223 182.525 43.8035 182.525 44.0184 182.631C44.2074 182.724 44.361 182.873 44.4573 183.056C44.5667 183.263 44.5667 183.535 44.5667 184.079V193.887C44.5667 194.159 44.5667 194.295 44.6215 194.398C44.6697 194.49 44.7465 194.564 44.8409 194.611C44.9484 194.664 45.089 194.664 45.3702 194.664H51.3742C51.9367 194.664 52.218 194.664 52.4328 194.769C52.6218 194.862 52.7754 195.011 52.8717 195.194C52.9812 195.401 52.9812 195.673 52.9812 196.217V198.386H41.9897ZM86.2468 184.079C86.2468 183.535 86.2468 183.263 86.3562 183.056C86.4522 182.873 86.606 182.724 86.795 182.631C87.0099 182.525 87.2912 182.525 87.8534 182.525H89.3325C89.6718 182.525 89.8413 182.525 89.9933 182.573C90.1275 182.616 90.2508 182.685 90.3556 182.776C90.4741 182.88 90.5583 183.022 90.7271 183.307L95.8716 191.993V184.079C95.8716 183.535 95.8716 183.263 95.981 183.056C96.0774 182.873 96.2308 182.724 96.4198 182.631C96.6347 182.525 96.916 182.525 97.4786 182.525H99.8889V196.83C99.8889 197.373 99.8889 197.645 99.7795 197.852C99.6834 198.035 99.53 198.184 99.341 198.277C99.1264 198.383 98.8455 198.383 98.2836 198.383L96.8042 198.385C96.4646 198.385 96.2947 198.386 96.1427 198.338C96.0082 198.295 95.8845 198.226 95.7797 198.135C95.6612 198.031 95.5767 197.888 95.4079 197.603L90.2641 188.918V196.832C90.2641 197.376 90.2641 197.648 90.1544 197.856C90.0583 198.038 89.9045 198.187 89.7155 198.28C89.5006 198.386 89.2197 198.386 88.6571 198.386H86.2468V184.079ZM104.224 182.525H101.814V196.828C101.814 197.372 101.814 197.644 101.923 197.852C102.02 198.034 102.173 198.183 102.362 198.276C102.577 198.382 102.858 198.382 103.421 198.382H105.831V191.912H106.489C106.77 191.912 106.91 191.912 107.04 191.947C107.155 191.977 107.264 192.027 107.361 192.094C107.471 192.17 107.559 192.276 107.736 192.487L112.207 197.811C112.384 198.022 112.473 198.128 112.582 198.204C112.679 198.271 112.787 198.321 112.903 198.352C113.033 198.386 113.173 198.386 113.454 198.386H117.255L111.343 191.356C111.049 191.006 110.902 190.831 110.846 190.637C110.796 190.465 110.796 190.284 110.846 190.113C110.902 189.919 111.049 189.744 111.343 189.395L111.344 189.394L117.127 182.525H113.367C113.087 182.525 112.947 182.525 112.818 182.559C112.703 182.59 112.595 182.639 112.498 182.706C112.389 182.781 112.3 182.886 112.123 183.096L107.752 188.267C107.574 188.476 107.486 188.581 107.377 188.657C107.28 188.723 107.172 188.773 107.057 188.803C106.927 188.837 106.787 188.837 106.507 188.837H105.831V184.079C105.831 183.535 105.831 183.263 105.722 183.056C105.625 182.873 105.472 182.724 105.283 182.631C105.068 182.525 104.787 182.525 104.224 182.525ZM62.2691 187.67C62.5845 187.192 62.8575 186.777 62.8575 186.248C62.8575 185.175 61.9564 184.306 60.8447 184.306C59.7332 184.306 58.832 185.216 58.832 186.248C58.832 186.777 59.1125 187.192 59.4365 187.67C59.8797 188.325 60.4044 189.1 60.4044 190.456C60.4044 191.811 59.8797 192.586 59.4365 193.241C59.1125 193.72 58.832 194.134 58.832 194.664C58.832 195.736 59.7332 196.606 60.8447 196.606C61.9564 196.606 62.8575 195.736 62.8575 194.664C62.8575 194.134 62.5845 193.72 62.2691 193.241C61.8377 192.586 61.3269 191.811 61.3269 190.456C61.3269 189.1 61.8377 188.325 62.2691 187.67Z" fill="white"/>
<defs>
<filter id="filter0_d_813_11042" x="10.4048" y="2.31152" width="137.081" height="137.081" filterUnits="userSpaceOnUse" color-interpolation-filters="sRGB">
<feFlood flood-opacity="0" result="BackgroundImageFix"/>
<feColorMatrix in="SourceAlpha" type="matrix" values="0 0 0 0 0 0 0 0 0 0 0 0 0 0 0 0 0 0 127 0" result="hardAlpha"/>
<feOffset dy="13"/>
<feGaussianBlur stdDeviation="11"/>
<feComposite in2="hardAlpha" operator="out"/>
<feColorMatrix type="matrix" values="0 0 0 0 0.519896 0 0 0 0 0.55789 0 0 0 0 0.775 0 0 0 0.3 0"/>
<feBlend mode="normal" in2="BackgroundImageFix" result="effect1_dropShadow_813_11042"/>
<feBlend mode="normal" in="SourceGraphic" in2="effect1_dropShadow_813_11042" result="shape"/>
</filter>
<filter id="filter1_d_813_11042" x="70.0823" y="32.6559" width="137.081" height="137.081" filterUnits="userSpaceOnUse" color-interpolation-filters="sRGB">
<feFlood flood-opacity="0" result="BackgroundImageFix"/>
<feColorMatrix in="SourceAlpha" type="matrix" values="0 0 0 0 0 0 0 0 0 0 0 0 0 0 0 0 0 0 127 0" result="hardAlpha"/>
<feOffset dy="13"/>
<feGaussianBlur stdDeviation="11"/>
<feComposite in2="hardAlpha" operator="out"/>
<feColorMatrix type="matrix" values="0 0 0 0 0.519896 0 0 0 0 0.55789 0 0 0 0 0.775 0 0 0 0.3 0"/>
<feBlend mode="normal" in2="BackgroundImageFix" result="effect1_dropShadow_813_11042"/>
<feBlend mode="normal" in="SourceGraphic" in2="effect1_dropShadow_813_11042" result="shape"/>
</filter>
<filter id="filter2_bi_813_11042" x="-32.0649" y="70.4679" width="304.578" height="240.986" filterUnits="userSpaceOnUse" color-interpolation-filters="sRGB">
<feFlood flood-opacity="0" result="BackgroundImageFix"/>
<feGaussianBlur in="BackgroundImageFix" stdDeviation="16.5"/>
<feComposite in2="SourceAlpha" operator="in" result="effect1_backgroundBlur_813_11042"/>
<feBlend mode="normal" in="SourceGraphic" in2="effect1_backgroundBlur_813_11042" result="shape"/>
<feColorMatrix in="SourceAlpha" type="matrix" values="0 0 0 0 0 0 0 0 0 0 0 0 0 0 0 0 0 0 127 0" result="hardAlpha"/>
<feOffset dy="-3"/>
<feGaussianBlur stdDeviation="3.5"/>
<feComposite in2="hardAlpha" operator="arithmetic" k2="-1" k3="1"/>
<feColorMatrix type="matrix" values="0 0 0 0 1 0 0 0 0 1 0 0 0 0 1 0 0 0 0.57 0"/>
<feBlend mode="normal" in2="shape" result="effect2_innerShadow_813_11042"/>
</filter>
<filter id="filter3_i_813_11042" x="11.022" y="109.678" width="216.65" height="158.69" filterUnits="userSpaceOnUse" color-interpolation-filters="sRGB">
<feFlood flood-opacity="0" result="BackgroundImageFix"/>
<feBlend mode="normal" in="SourceGraphic" in2="BackgroundImageFix" result="shape"/>
<feColorMatrix in="SourceAlpha" type="matrix" values="0 0 0 0 0 0 0 0 0 0 0 0 0 0 0 0 0 0 127 0" result="hardAlpha"/>
<feOffset dy="-3"/>
<feGaussianBlur stdDeviation="3.5"/>
<feComposite in2="hardAlpha" operator="arithmetic" k2="-1" k3="1"/>
<feColorMatrix type="matrix" values="0 0 0 0 1 0 0 0 0 1 0 0 0 0 1 0 0 0 0.28 0"/>
<feBlend mode="normal" in2="shape" result="effect1_innerShadow_813_11042"/>
</filter>
<filter id="filter4_bdi_813_11042" x="131.554" y="146.065" width="124.16" height="92.7349" filterUnits="userSpaceOnUse" color-interpolation-filters="sRGB">
<feFlood flood-opacity="0" result="BackgroundImageFix"/>
<feGaussianBlur in="BackgroundImageFix" stdDeviation="5"/>
<feComposite in2="SourceAlpha" operator="in" result="effect1_backgroundBlur_813_11042"/>
<feColorMatrix in="SourceAlpha" type="matrix" values="0 0 0 0 0 0 0 0 0 0 0 0 0 0 0 0 0 0 127 0" result="hardAlpha"/>
<feOffset dx="-4" dy="10"/>
<feGaussianBlur stdDeviation="4"/>
<feComposite in2="hardAlpha" operator="out"/>
<feColorMatrix type="matrix" values="0 0 0 0 0.0448 0 0 0 0 0.04864 0 0 0 0 0.2752 0 0 0 0.16 0"/>
<feBlend mode="normal" in2="effect1_backgroundBlur_813_11042" result="effect2_dropShadow_813_11042"/>
<feBlend mode="normal" in="SourceGraphic" in2="effect2_dropShadow_813_11042" result="shape"/>
<feColorMatrix in="SourceAlpha" type="matrix" values="0 0 0 0 0 0 0 0 0 0 0 0 0 0 0 0 0 0 127 0" result="hardAlpha"/>
<feOffset dx="2" dy="-3"/>
<feGaussianBlur stdDeviation="3.5"/>
<feComposite in2="hardAlpha" operator="arithmetic" k2="-1" k3="1"/>
<feColorMatrix type="matrix" values="0 0 0 0 1 0 0 0 0 1 0 0 0 0 1 0 0 0 0.14 0"/>
<feBlend mode="normal" in2="shape" result="effect3_innerShadow_813_11042"/>
</filter>
<radialGradient id="paint0_radial_813_11042" cx="0" cy="0" r="1" gradientUnits="userSpaceOnUse" gradientTransform="translate(78.9451 26.3954) rotate(90) scale(77.9847)">
<stop stop-color="#F0F0FF"/>
<stop stop-color="#F1F1FD"/>
<stop offset="0.703125" stop-color="white"/>
</radialGradient>
<linearGradient id="paint1_linear_813_11042" x1="134.675" y1="104.38" x2="141.681" y2="73.5165" gradientUnits="userSpaceOnUse">
<stop stop-color="#F7F8FD"/>
<stop offset="1" stop-color="white"/>
</linearGradient>
<linearGradient id="paint2_linear_813_11042" x1="49.1289" y1="53.1954" x2="106.76" y2="87.0842" gradientUnits="userSpaceOnUse">
<stop stop-color="#244CB3" stop-opacity="0.34"/>
<stop offset="1" stop-color="#B4C2E5" stop-opacity="0.07"/>
</linearGradient>
<radialGradient id="paint3_radial_813_11042" cx="0" cy="0" r="1" gradientUnits="userSpaceOnUse" gradientTransform="translate(138.623 56.7398) rotate(90) scale(77.9847)">
<stop stop-color="#F0F0FF"/>
<stop stop-color="#F1F1FD"/>
<stop offset="0.703125" stop-color="white"/>
</radialGradient>
<linearGradient id="paint4_linear_813_11042" x1="194.352" y1="134.724" x2="201.358" y2="103.861" gradientUnits="userSpaceOnUse">
<stop stop-color="#F7F8FD"/>
<stop offset="1" stop-color="white"/>
</linearGradient>
<linearGradient id="paint5_linear_813_11042" x1="108.806" y1="83.5396" x2="166.437" y2="117.428" gradientUnits="userSpaceOnUse">
<stop stop-color="#244CB3" stop-opacity="0.34"/>
<stop offset="1" stop-color="#B4C2E5" stop-opacity="0.07"/>
</linearGradient>
<radialGradient id="paint6_radial_813_11042" cx="0" cy="0" r="1" gradientUnits="userSpaceOnUse" gradientTransform="translate(164.323 117.236) rotate(143.89) scale(240.995 199.396)">
<stop stop-color="#171985" stop-opacity="0.58"/>
<stop offset="0.688159" stop-color="#14167D"/>
</radialGradient>
<radialGradient id="paint7_radial_813_11042" cx="0" cy="0" r="1" gradientUnits="userSpaceOnUse" gradientTransform="translate(232.083 428.463) rotate(-36.2623) scale(263.219 213.062)">
<stop stop-color="#14167D" stop-opacity="0"/>
<stop offset="1" stop-color="#14167D"/>
</radialGradient>
<linearGradient id="paint8_linear_813_11042" x1="-19.123" y1="296.029" x2="233.075" y2="90.115" gradientUnits="userSpaceOnUse">
<stop stop-color="white" stop-opacity="0.65"/>
<stop offset="1" stop-color="white" stop-opacity="0"/>
</linearGradient>
<radialGradient id="paint9_radial_813_11042" cx="0" cy="0" r="1" gradientUnits="userSpaceOnUse" gradientTransform="translate(160.996 160.645) rotate(66.8566) scale(92.9817 129.746)">
<stop stop-color="#14167D" stop-opacity="0"/>
<stop offset="1" stop-color="#14167D"/>
</radialGradient>
<linearGradient id="paint10_linear_813_11042" x1="225.63" y1="177.585" x2="225.63" y2="213.547" gradientUnits="userSpaceOnUse">
<stop stop-color="white"/>
<stop offset="1" stop-color="white" stop-opacity="0"/>
</linearGradient>
<linearGradient id="paint11_linear_813_11042" x1="185.207" y1="169.252" x2="215.109" y2="210.443" gradientUnits="userSpaceOnUse">
<stop stop-color="white"/>
<stop offset="1" stop-color="white" stop-opacity="0"/>
</linearGradient>
</defs>
</svg>
