<svg width="192" height="44" viewBox="0 0 192 44" fill="none" xmlns="http://www.w3.org/2000/svg">
<g clip-path="url(#clip0_132_2014)">
<path fill-rule="evenodd" clip-rule="evenodd" d="M29.8685 6.8727C29.1516 6.63338 28.4346 6.39405 27.7371 6.15473C26.8607 5.83572 26.004 6.73312 26.0441 7.90968C26.1237 10.143 26.2033 12.3563 26.2829 14.5896C26.3029 15.3273 25.9441 16.0055 25.3864 16.2846C24.2711 16.8229 23.1355 17.3414 22 17.8599C20.8644 17.3614 19.7291 16.8229 18.6136 16.2846C18.0358 16.0055 17.6973 15.3273 17.7174 14.5896C17.797 12.3563 17.8766 10.143 17.9562 7.90968C17.9962 6.71306 17.1396 5.83572 16.2631 6.15473C15.5459 6.39405 14.8487 6.65344 14.1317 6.8727C13.5539 7.07218 13.1158 7.7102 13.056 8.48779C12.8567 11.1201 12.6376 13.7521 12.4383 16.3643C12.3785 17.1021 12.7172 17.7802 13.275 18.0791C14.53 18.7372 14.4106 20.8908 13.0359 21.3893C12.4186 21.6088 11.9602 22.2268 11.9003 22.9645C11.5819 26.9726 11.263 31.0007 10.9443 35.0087C10.8845 35.7863 11.3028 36.5043 12.02 36.7835C12.8764 37.1222 13.7532 37.4613 14.6296 37.8004C15.7254 38.2191 16.9005 37.4014 16.9403 36.2051C17.0597 32.596 17.1991 28.9866 17.3188 25.3575C17.3386 24.6197 17.7772 23.9817 18.3945 23.7424C19.6097 23.2637 20.8051 22.7851 22 22.2666C23.1951 22.7653 24.3905 23.2637 25.6057 23.7424C26.223 23.9817 26.6617 24.6197 26.6814 25.3575C26.8011 28.9668 26.9403 32.5759 27.0599 36.2051C27.0997 37.4014 28.2748 38.1991 29.3706 37.8004C30.2471 37.4613 31.1238 37.1222 31.9802 36.7835C32.6774 36.5043 33.1158 35.7863 33.0559 35.0087C32.7372 31.0007 32.4183 26.9726 32.0999 22.9645C32.04 22.2268 31.6019 21.6088 30.9643 21.3893C29.5896 20.9109 29.4702 18.7372 30.7252 18.0791C31.3027 17.7802 31.6217 17.0823 31.5619 16.3643C31.3626 13.7323 31.1435 11.1 30.9443 8.48779C30.8844 7.7102 30.4463 7.05212 29.8685 6.8727Z" fill="#320A8D"/>
</g>
<path fill-rule="evenodd" clip-rule="evenodd" d="M49.0599 12.4572H53.1285V18.7106H59.6633V12.4572H63.7321V28.3786H59.6633V21.899H53.1285V28.3786H49.0599V12.4572Z" fill="#320A8D"/>
<path fill-rule="evenodd" clip-rule="evenodd" d="M69.3737 12.4566H73.422V21.9805C73.422 22.9267 73.6892 23.6672 74.2029 24.2021C74.7165 24.737 75.4562 25.0042 76.4014 25.0042C77.326 25.0042 78.0658 24.737 78.6002 24.2227C79.1346 23.7084 79.4015 22.9473 79.4015 21.9805V12.4566H83.4704V22.2273C83.4704 24.2227 82.8333 25.786 81.5388 26.9174C80.2443 28.0486 78.5387 28.6041 76.3811 28.6041C75.1893 28.6041 74.1412 28.4601 73.2575 28.1514C72.3532 27.843 71.6137 27.4111 71.0587 26.835C70.504 26.2591 70.0723 25.6007 69.8054 24.8399C69.5382 24.0787 69.394 23.1941 69.394 22.2273V12.4566H69.3737Z" fill="#320A8D"/>
<path fill-rule="evenodd" clip-rule="evenodd" d="M89.1026 12.4566H94.096L97.569 20.3966H97.7335L101.145 12.4566H106.158V28.3779H102.213V22.3714L102.439 18.0722H102.275L97.6511 28.1514L93.0278 18.0722H92.8427L93.0687 22.4123V28.3779H89.1026V12.4566Z" fill="#320A8D"/>
<path fill-rule="evenodd" clip-rule="evenodd" d="M120.052 22.8464L119.579 21.3653L118.305 16.7371H118.161L116.785 21.3653L116.312 22.8464H120.052ZM115.777 12.4572H120.523L126.277 28.3786H121.797L121.037 25.9717H115.304L114.523 28.3786H110.31L115.777 12.4572Z" fill="#320A8D"/>
<mask id="mask0_132_2014" style="mask-type:luminance" maskUnits="userSpaceOnUse" x="130" y="12" width="15" height="17">
<path fill-rule="evenodd" clip-rule="evenodd" d="M130.16 12.4566H144.482V28.3779H130.16V12.4566Z" fill="white"/>
</mask>
<g mask="url(#mask0_132_2014)">
<path fill-rule="evenodd" clip-rule="evenodd" d="M130.16 12.4566H134.824L140.496 22.577H140.661L140.434 18.0928V12.4566H144.483V28.3779H139.838L134.208 18.3603H134.043L134.249 22.7004V28.3779H130.18V12.4566H130.16Z" fill="#320A8D"/>
</g>
<path d="M174.96 17.124C176.243 17.1241 177.295 17.5417 178.102 18.377L178.26 18.5498V18.5508C179.081 19.5058 179.485 20.7646 179.485 22.3105C179.485 23.9007 179.072 25.187 178.241 26.1514C177.398 27.1286 176.282 27.6045 174.922 27.6045C174.085 27.6044 173.331 27.4257 172.68 27.0391V27.0381C172.263 26.7962 171.922 26.4952 171.66 26.1338V30.5H169.503V17.3125H171.491L171.511 17.541L171.606 18.6553C171.88 18.2708 172.244 17.9484 172.701 17.6875C173.35 17.3119 174.103 17.124 174.96 17.124ZM186.957 17.124C188.326 17.124 189.431 17.5995 190.257 18.5498L190.258 18.5508C191.079 19.5058 191.482 20.7647 191.482 22.3105C191.482 23.9007 191.07 25.187 190.239 26.1514H190.238C189.395 27.1284 188.28 27.6044 186.92 27.6045C186.083 27.6045 185.329 27.4258 184.678 27.0391V27.0381C184.261 26.7964 183.92 26.4959 183.658 26.1348V30.5H181.5V17.3125H183.488L183.508 17.541L183.604 18.6553C183.877 18.2708 184.241 17.9484 184.698 17.6875C185.347 17.3118 186.1 17.124 186.957 17.124ZM162.881 13.5L162.943 13.6582L168.234 27.083L168.369 27.4248H165.958L165.896 27.2646L164.737 24.2598H158.69L157.532 27.2646L157.471 27.4248H155.116L155.25 27.084L160.494 13.6592L160.556 13.5H162.881ZM174.54 19.0439C173.695 19.044 173.014 19.3115 172.468 19.8301L172.467 19.8291C171.922 20.3556 171.66 20.9917 171.66 21.7617V22.9932C171.66 23.8032 171.926 24.4462 172.458 24.9521L172.46 24.9541C172.984 25.4594 173.663 25.7109 174.503 25.7109C175.399 25.7109 176.067 25.4119 176.543 24.8154C177.03 24.2056 177.29 23.3848 177.29 22.3105C177.29 21.2248 177.029 20.4281 176.542 19.877C176.056 19.3266 175.392 19.0439 174.54 19.0439ZM186.538 19.0439C185.693 19.0439 185.011 19.3114 184.465 19.8301C183.92 20.3565 183.658 20.9918 183.658 21.7617V22.9932C183.658 23.702 183.861 24.2829 184.269 24.7559L184.456 24.9521L184.457 24.9541C184.981 25.4596 185.661 25.7109 186.501 25.7109C187.397 25.7108 188.065 25.4118 188.541 24.8154C189.027 24.2056 189.287 23.3846 189.287 22.3105C189.287 21.2248 189.026 20.4281 188.539 19.877C188.053 19.3268 187.389 19.044 186.538 19.0439ZM160.161 20.4082L160.159 20.4121L159.412 22.375H164.014L163.26 20.4131L163.257 20.4062L161.729 16.0557L160.161 20.4082Z" fill="#FA2A75" stroke="#FA2A75" stroke-width="0.5"/>
<defs>
<clipPath id="clip0_132_2014">
<rect width="44" height="44" fill="white"/>
</clipPath>
</defs>
</svg>
