<svg width="132" height="24" viewBox="0 0 132 24" fill="none" xmlns="http://www.w3.org/2000/svg">
<g clip-path="url(#clip0_618_40)">
<path fill-rule="evenodd" clip-rule="evenodd" d="M13.7672 0.999882C13.2458 0.825828 12.7243 0.651774 12.2171 0.47772C11.5797 0.245716 10.9566 0.898367 10.9858 1.75405C11.0437 3.37828 11.1015 4.98792 11.1594 6.61215C11.174 7.1487 10.9131 7.64189 10.5074 7.84492C9.69635 8.23639 8.87048 8.61347 8.04461 8.99055C7.21874 8.62806 6.39307 8.23639 5.58178 7.84492C5.16155 7.64189 4.91541 7.1487 4.92999 6.61215C4.98788 4.98792 5.04577 3.37828 5.10366 1.75405C5.13281 0.883778 4.50976 0.245716 3.87235 0.47772C3.35071 0.651774 2.84365 0.840417 2.32222 0.999882C1.902 1.14496 1.58339 1.60897 1.53987 2.17449C1.39494 4.08888 1.23564 6.00307 1.0907 7.90287C1.04718 8.43942 1.29353 8.9326 1.69918 9.15002C2.61188 9.62861 2.52505 11.1949 1.5253 11.5574C1.07633 11.7171 0.742947 12.1665 0.699427 12.703C0.46786 15.618 0.235887 18.5475 0.00411727 21.4625C-0.0394028 22.028 0.264833 22.5501 0.786467 22.7532C1.40931 22.9996 2.04693 23.2461 2.68435 23.4927C3.48127 23.7973 4.33589 23.2026 4.36483 22.3325C4.45167 19.7077 4.55308 17.0827 4.64012 14.4434C4.65449 13.9068 4.97351 13.4428 5.42247 13.2688C6.30623 12.9206 7.17562 12.5725 8.04461 12.1955C8.9138 12.5581 9.78319 12.9206 10.667 13.2688C11.1159 13.4428 11.4349 13.9068 11.4493 14.4434C11.5363 17.0684 11.6376 19.6931 11.7246 22.3325C11.7535 23.2026 12.6081 23.7827 13.4051 23.4927C14.0425 23.2461 14.6801 22.9996 15.303 22.7532C15.81 22.5501 16.1288 22.028 16.0853 21.4625C15.8535 18.5475 15.6216 15.618 15.39 12.703C15.3465 12.1665 15.0279 11.7171 14.5641 11.5574C13.5644 11.2095 13.4775 9.62861 14.3902 9.15002C14.8103 8.9326 15.0422 8.42503 14.9987 7.90287C14.8538 5.98868 14.6945 4.07429 14.5496 2.17449C14.506 1.60897 14.1874 1.13037 13.7672 0.999882Z" fill="#6309FF"/>
<path fill-rule="evenodd" clip-rule="evenodd" d="M27.6797 5.0625H30.6386V9.61039H35.3912V5.0625H38.3504V16.6416H35.3912V11.9292H30.6386V16.6416H27.6797V5.0625Z" fill="#6309FF"/>
<path fill-rule="evenodd" clip-rule="evenodd" d="M42.4531 5.0625H45.3973V11.989C45.3973 12.6771 45.5916 13.2157 45.9653 13.6047C46.3388 13.9938 46.8768 14.1881 47.5642 14.1881C48.2366 14.1881 48.7747 13.9938 49.1633 13.6197C49.5519 13.2457 49.7461 12.6921 49.7461 11.989V5.0625H52.7052V12.1685C52.7052 13.6197 52.2419 14.7566 51.3004 15.5795C50.359 16.4021 49.1186 16.8062 47.5494 16.8062C46.6827 16.8062 45.9204 16.7014 45.2777 16.4769C44.62 16.2526 44.0822 15.9385 43.6786 15.5195C43.2751 15.1007 42.9612 14.6219 42.7671 14.0685C42.5728 13.515 42.4679 12.8716 42.4679 12.1685V5.0625H42.4531Z" fill="#6309FF"/>
<path fill-rule="evenodd" clip-rule="evenodd" d="M56.8027 5.0625H60.4343L62.9601 10.8371H63.0797L65.5606 5.0625H69.207V16.6416H66.3375V12.2733L66.502 9.14659H66.3824L63.0198 16.4769L59.6574 9.14659H59.5228L59.6872 12.3031V16.6416H56.8027V5.0625Z" fill="#6309FF"/>
<path fill-rule="evenodd" clip-rule="evenodd" d="M79.3096 12.6182L78.9659 11.5411L78.0392 8.17512H77.9346L76.9334 11.5411L76.5895 12.6182H79.3096ZM76.2001 5.0625H79.6522L83.8368 16.6416H80.5789L80.0261 14.8912H75.8562L75.2884 16.6416H72.2246L76.2001 5.0625Z" fill="#6309FF"/>
<mask id="mask0_618_40" style="mask-type:luminance" maskUnits="userSpaceOnUse" x="86" y="5" width="12" height="12">
<path fill-rule="evenodd" clip-rule="evenodd" d="M86.6621 5.0625H97.0787V16.6416H86.6621V5.0625Z" fill="white"/>
</mask>
<g mask="url(#mask0_618_40)">
<path fill-rule="evenodd" clip-rule="evenodd" d="M86.6621 5.0625H90.0547L94.1796 12.4228H94.2992L94.1346 9.16158V5.0625H97.0788V16.6416H93.7012L89.6063 9.3561H89.4867L89.6361 12.5126V16.6416H86.6771V5.0625H86.6621Z" fill="#6309FF"/>
</g>
<path d="M105.078 15.7635H106.399L107.287 13.4616H111.934L112.821 15.7635H114.183L110.335 6H108.892L105.078 15.7635ZM107.673 12.4545L108.309 10.7804L109.59 7.22943H109.658L110.904 10.7804L111.548 12.4545H107.673Z" fill="#320A8D"/>
<path d="M115.456 18H116.662V14.4621H116.75C116.926 14.9068 117.238 15.2534 117.678 15.5084C118.119 15.77 118.634 15.8943 119.216 15.8943C120.158 15.8943 120.917 15.5673 121.492 14.9003C122.061 14.2398 122.353 13.3504 122.353 12.2256C122.353 11.1335 122.068 10.2638 121.506 9.60981C120.944 8.9624 120.192 8.63542 119.243 8.63542C118.647 8.63542 118.132 8.76621 117.692 9.02125C117.245 9.27629 116.933 9.60981 116.75 10.0283H116.662L116.554 8.77275H115.456V18ZM116.662 12.7226V11.8267C116.662 11.2185 116.872 10.7084 117.306 10.2899C117.739 9.87793 118.281 9.66866 118.938 9.66866C119.602 9.66866 120.138 9.89101 120.53 10.3357C120.923 10.7804 121.12 11.4082 121.12 12.2256C121.12 13.0365 120.923 13.6774 120.537 14.1613C120.151 14.6452 119.609 14.8807 118.911 14.8807C118.261 14.8807 117.719 14.6845 117.299 14.279C116.872 13.8736 116.662 13.3569 116.662 12.7226Z" fill="#320A8D"/>
<path d="M124.182 18H125.388V14.4621H125.476C125.652 14.9068 125.963 15.2534 126.404 15.5084C126.844 15.77 127.359 15.8943 127.942 15.8943C128.883 15.8943 129.642 15.5673 130.218 14.9003C130.787 14.2398 131.078 13.3504 131.078 12.2256C131.078 11.1335 130.794 10.2638 130.231 9.60981C129.669 8.9624 128.917 8.63542 127.969 8.63542C127.373 8.63542 126.858 8.76621 126.417 9.02125C125.97 9.27629 125.659 9.60981 125.476 10.0283H125.388L125.279 8.77275H124.182V18ZM125.388 12.7226V11.8267C125.388 11.2185 125.598 10.7084 126.031 10.2899C126.465 9.87793 127.007 9.66866 127.664 9.66866C128.328 9.66866 128.863 9.89101 129.256 10.3357C129.649 10.7804 129.845 11.4082 129.845 12.2256C129.845 13.0365 129.649 13.6774 129.263 14.1613C128.876 14.6452 128.335 14.8807 127.637 14.8807C126.986 14.8807 126.444 14.6845 126.024 14.279C125.598 13.8736 125.388 13.3569 125.388 12.7226Z" fill="#320A8D"/>
</g>
<defs>
<clipPath id="clip0_618_40">
<rect width="131.078" height="23.1437" fill="white" transform="translate(0 0.429688)"/>
</clipPath>
</defs>
</svg>
