<svg width="118" height="28" viewBox="0 0 118 28" fill="none" xmlns="http://www.w3.org/2000/svg">
<path fill-rule="evenodd" clip-rule="evenodd" d="M16.656 0.689779C16.0252 0.479203 15.3943 0.268627 14.7806 0.0580507C14.0094 -0.222636 13.2557 0.566963 13.2909 1.60219C13.361 3.56724 13.431 5.51464 13.501 7.47969C13.5187 8.12882 13.203 8.7255 12.7122 8.97113C11.731 9.44474 10.7318 9.90095 9.73263 10.3572C8.73347 9.9186 7.73455 9.44474 6.75302 8.97113C6.24462 8.7255 5.94683 8.12882 5.96446 7.47969C6.0345 5.51464 6.10454 3.56724 6.17458 1.60219C6.20984 0.549313 5.45606 -0.222636 4.68489 0.0580507C4.0538 0.268627 3.44034 0.496853 2.8095 0.689779C2.3011 0.8653 1.91564 1.42667 1.86299 2.11086C1.68764 4.42695 1.49491 6.7428 1.31957 9.04124C1.26692 9.69037 1.56495 10.287 2.05572 10.5501C3.15994 11.1291 3.05488 13.024 1.84535 13.4626C1.30218 13.6558 0.898842 14.1995 0.84619 14.8486C0.566032 18.3752 0.285384 21.9195 0.00498121 25.4461C-0.0476708 26.1303 0.320404 26.762 0.951494 27.0076C1.70503 27.3057 2.47644 27.604 3.24761 27.9024C4.21176 28.2708 5.2457 27.5513 5.28072 26.4987C5.38578 23.3231 5.50847 20.1473 5.61377 16.9541C5.63116 16.305 6.01711 15.7436 6.56028 15.5331C7.62949 15.1119 8.6813 14.6908 9.73263 14.2345C10.7842 14.6733 11.836 15.1119 12.9052 15.5331C13.4484 15.7436 13.8343 16.305 13.8517 16.9541C13.957 20.1299 14.0795 23.3055 14.1848 26.4987C14.2198 27.5513 15.2538 28.2532 16.2179 27.9024C16.9891 27.604 17.7605 27.3057 18.514 27.0076C19.1275 26.762 19.5132 26.1303 19.4605 25.4461C19.1801 21.9195 18.8995 18.3752 18.6193 14.8486C18.5667 14.1995 18.1812 13.6558 17.6202 13.4626C16.4106 13.0417 16.3056 11.1291 17.4098 10.5501C17.9179 10.287 18.1986 9.67297 18.1459 9.04124C17.9706 6.72539 17.7779 4.4093 17.6025 2.11086C17.5499 1.42667 17.1644 0.847649 16.656 0.689779Z" fill="#6309FF"/>
<path fill-rule="evenodd" clip-rule="evenodd" d="M33.4879 5.60333H37.0678V11.1055H42.8176V5.60333H46.3977V19.6122H42.8176V13.9109H37.0678V19.6122H33.4879V5.60333Z" fill="#6309FF"/>
<path fill-rule="evenodd" clip-rule="evenodd" d="M51.3618 5.60291H54.9238V13.9828C54.9238 14.8153 55.1589 15.4669 55.611 15.9376C56.0628 16.4082 56.7137 16.6433 57.5454 16.6433C58.3589 16.6433 59.0098 16.4082 59.48 15.9557C59.9502 15.5032 60.1851 14.8334 60.1851 13.9828V5.60291H63.7651V14.2C63.7651 15.9557 63.2046 17.3312 62.0656 18.3267C60.9266 19.322 59.4259 19.8108 57.5275 19.8108C56.4789 19.8108 55.5566 19.684 54.7791 19.4124C53.9834 19.1411 53.3327 18.7611 52.8444 18.2541C52.3563 17.7474 51.9765 17.1682 51.7416 16.4987C51.5065 15.829 51.3797 15.0506 51.3797 14.2V5.60291H51.3618Z" fill="#6309FF"/>
<path fill-rule="evenodd" clip-rule="evenodd" d="M68.7206 5.60291H73.1143L76.17 12.5892H76.3148L79.3162 5.60291H83.7277V19.6117H80.2561V14.3267L80.4552 10.544H80.3104L76.2423 19.4124L72.1744 10.544H72.0115L72.2104 14.3628V19.6117H68.7206V5.60291Z" fill="#6309FF"/>
<path fill-rule="evenodd" clip-rule="evenodd" d="M95.9524 14.7445L95.5366 13.4414L94.4154 9.36908H94.2888L93.0776 13.4414L92.6615 14.7445H95.9524ZM92.1904 5.60333H96.3669L101.43 19.6122H97.488L96.8192 17.4944H91.7744L91.0874 19.6122H87.3807L92.1904 5.60333Z" fill="#6309FF"/>
<mask id="mask0_196_124" style="mask-type:luminance" maskUnits="userSpaceOnUse" x="104" y="5" width="14" height="15">
<path fill-rule="evenodd" clip-rule="evenodd" d="M104.846 5.60291H117.448V19.6117H104.846V5.60291Z" fill="white"/>
</mask>
<g mask="url(#mask0_196_124)">
<path fill-rule="evenodd" clip-rule="evenodd" d="M104.846 5.60291H108.95L113.941 14.5077H114.086L113.886 10.5621V5.60291H117.448V19.6117H113.362L108.408 10.7974H108.263L108.444 14.6163V19.6117H104.864V5.60291H104.846Z" fill="#6309FF"/>
</g>
</svg>
