<svg width="192" height="24" viewBox="0 0 192 24" fill="none" xmlns="http://www.w3.org/2000/svg">
<path id="Fill 1" fill-rule="evenodd" clip-rule="evenodd" d="M13.7672 0.998173C13.2458 0.824119 12.7243 0.650065 12.2171 0.476011C11.5797 0.244007 10.9566 0.896658 10.9858 1.75234C11.0437 3.37657 11.1015 4.98621 11.1594 6.61045C11.174 7.14699 10.9131 7.64018 10.5074 7.84321C9.69635 8.23468 8.87048 8.61176 8.04461 8.98884C7.21874 8.62635 6.39307 8.23468 5.58178 7.84321C5.16155 7.64018 4.91541 7.14699 4.92999 6.61045C4.98788 4.98621 5.04577 3.37657 5.10366 1.75234C5.13281 0.882069 4.50976 0.244007 3.87235 0.476011C3.35071 0.650065 2.84365 0.838708 2.32222 0.998173C1.902 1.14325 1.58339 1.60726 1.53987 2.17278C1.39494 4.08717 1.23564 6.00136 1.0907 7.90116C1.04718 8.43771 1.29353 8.93089 1.69918 9.14831C2.61188 9.62691 2.52505 11.1932 1.5253 11.5557C1.07633 11.7153 0.742947 12.1648 0.699427 12.7013C0.46786 15.6163 0.235887 18.5458 0.00411727 21.4607C-0.0394028 22.0263 0.264833 22.5484 0.786467 22.7515C1.40931 22.9978 2.04693 23.2444 2.68435 23.491C3.48127 23.7956 4.33589 23.2009 4.36483 22.3308C4.45167 19.706 4.55308 17.081 4.64012 14.4417C4.65449 13.9051 4.97351 13.4411 5.42247 13.267C6.30623 12.9189 7.17562 12.5708 8.04461 12.1937C8.9138 12.5564 9.78319 12.9189 10.667 13.267C11.1159 13.4411 11.4349 13.9051 11.4493 14.4417C11.5363 17.0666 11.6376 19.6914 11.7246 22.3308C11.7535 23.2009 12.6081 23.781 13.4051 23.491C14.0425 23.2444 14.6801 22.9978 15.303 22.7515C15.81 22.5484 16.1288 22.0263 16.0853 21.4607C15.8535 18.5458 15.6216 15.6163 15.39 12.7013C15.3465 12.1648 15.0279 11.7153 14.5641 11.5557C13.5644 11.2078 13.4775 9.62691 14.3902 9.14831C14.8103 8.93089 15.0422 8.42332 14.9987 7.90116C14.8538 5.98697 14.6945 4.07258 14.5496 2.17278C14.506 1.60726 14.1874 1.12866 13.7672 0.998173Z" fill="#6309FF"/>
<path id="Fill 4" fill-rule="evenodd" clip-rule="evenodd" d="M27.6797 5.05957H30.6386V9.60746H35.3912V5.05957H38.3504V16.6387H35.3912V11.9263H30.6386V16.6387H27.6797V5.05957Z" fill="#6309FF"/>
<path id="Fill 6" fill-rule="evenodd" clip-rule="evenodd" d="M42.4536 5.0592H45.3978V11.9857C45.3978 12.6738 45.5921 13.2124 45.9658 13.6014C46.3392 13.9905 46.8773 14.1848 47.5647 14.1848C48.2371 14.1848 48.7752 13.9905 49.1638 13.6164C49.5524 13.2424 49.7466 12.6888 49.7466 11.9857V5.0592H52.7057V12.1652C52.7057 13.6164 52.2424 14.7533 51.3009 15.5762C50.3595 16.3988 49.1191 16.8029 47.5499 16.8029C46.6832 16.8029 45.9208 16.6981 45.2782 16.4736C44.6205 16.2493 44.0827 15.9352 43.6791 15.5162C43.2756 15.0974 42.9617 14.6186 42.7676 14.0652C42.5732 13.5117 42.4684 12.8683 42.4684 12.1652V5.0592H42.4536Z" fill="#6309FF"/>
<path id="Fill 8" fill-rule="evenodd" clip-rule="evenodd" d="M56.8018 5.0592H60.4334L62.9591 10.8338H63.0788L65.5596 5.0592H69.206V16.6384H66.3365V12.27L66.5011 9.14329H66.3814L63.0189 16.4736L59.6565 9.14329H59.5219L59.6862 12.2998V16.6384H56.8018V5.0592Z" fill="#6309FF"/>
<path id="Fill 10" fill-rule="evenodd" clip-rule="evenodd" d="M79.3106 12.6153L78.9669 11.5382L78.0402 8.17219H77.9355L76.9344 11.5382L76.5905 12.6153H79.3106ZM76.2011 5.05957H79.6532L83.8378 16.6387H80.5798L80.027 14.8882H75.8572L75.2894 16.6387H72.2256L76.2011 5.05957Z" fill="#6309FF"/>
<g id="Group 14">
<mask id="mask0_3565_46755" style="mask-type:luminance" maskUnits="userSpaceOnUse" x="86" y="5" width="12" height="12">
<path id="Clip 13" fill-rule="evenodd" clip-rule="evenodd" d="M86.6616 5.0592H97.0782V16.6384H86.6616V5.0592Z" fill="white"/>
</mask>
<g mask="url(#mask0_3565_46755)">
<path id="Fill 12" fill-rule="evenodd" clip-rule="evenodd" d="M86.6616 5.0592H90.0542L94.1791 12.4195H94.2987L94.1341 9.15829V5.0592H97.0783V16.6384H93.7008L89.6058 9.3528H89.4862L89.6356 12.5093V16.6384H86.6766V5.0592H86.6616Z" fill="#6309FF"/>
</g>
</g>
</svg>
