<svg xmlns="http://www.w3.org/2000/svg" width="149" height="149" viewBox="0 0 149 149" fill="none">
  <g filter="url(#filter0_d_4316_26047)">
    <path d="M116.96 50.48C116.96 73.9411 97.9411 92.96 74.48 92.96C51.0189 92.96 32 73.9411 32 50.48C32 27.0189 51.0189 8 74.48 8C97.9411 8 116.96 27.0189 116.96 50.48Z" fill="url(#paint0_radial_4316_26047)"/>
  </g>
  <g filter="url(#filter1_d_4316_26047)">
    <path fill-rule="evenodd" clip-rule="evenodd" d="M74.48 87.7213C95.0478 87.7213 111.721 71.0478 111.721 50.48C111.721 29.9122 95.0478 13.2387 74.48 13.2387C53.9122 13.2387 37.2387 29.9122 37.2387 50.48C37.2387 71.0478 53.9122 87.7213 74.48 87.7213ZM74.48 92.96C97.9411 92.96 116.96 73.9411 116.96 50.48C116.96 27.0189 97.9411 8 74.48 8C51.0189 8 32 27.0189 32 50.48C32 73.9411 51.0189 92.96 74.48 92.96Z" fill="url(#paint1_linear_4316_26047)"/>
  </g>
  <path fill-rule="evenodd" clip-rule="evenodd" d="M88.0052 33.3034C87.1082 33.0036 86.2111 32.7039 85.3385 32.4041C84.2419 32.0046 83.1701 33.1286 83.2202 34.6022C83.3198 37.3993 83.4194 40.1714 83.519 42.9686C83.5441 43.8926 83.0952 44.742 82.3974 45.0916C81.002 45.7658 79.5813 46.4152 78.1605 47.0646C76.7398 46.4403 75.3194 45.7658 73.9237 45.0916C73.2008 44.742 72.7773 43.8926 72.8024 42.9686C72.902 40.1714 73.0016 37.3993 73.1012 34.6022C73.1513 33.1034 72.0795 32.0046 70.9829 32.4041C70.0856 32.7039 69.2133 33.0288 68.3162 33.3034C67.5933 33.5532 67.0452 34.3523 66.9703 35.3262C66.721 38.6231 66.447 41.9196 66.1976 45.1914C66.1228 46.1154 66.5466 46.9648 67.2444 47.3392C68.8145 48.1634 68.6652 50.8608 66.9453 51.4851C66.1729 51.76 65.5994 52.534 65.5245 53.458C65.1262 58.478 64.7271 63.5231 64.3284 68.5431C64.2535 69.517 64.7769 70.4163 65.6743 70.7659C66.7457 71.1903 67.8427 71.6149 68.9392 72.0396C70.3102 72.5641 71.7804 71.5399 71.8302 70.0415C71.9796 65.5212 72.154 61.0006 72.3038 56.4552C72.3285 55.5311 72.8773 54.732 73.6496 54.4323C75.17 53.8328 76.6656 53.2333 78.1605 52.5839C79.6558 53.2085 81.1514 53.8328 82.6718 54.4323C83.4441 54.732 83.9929 55.5311 84.0177 56.4552C84.1674 60.9758 84.3415 65.4961 84.4913 70.0415C84.5411 71.5399 86.0113 72.5389 87.3822 72.0396C88.4788 71.6149 89.5757 71.1903 90.6472 70.7659C91.5195 70.4163 92.0679 69.517 91.993 68.5431C91.5943 63.5231 91.1953 58.478 90.7969 53.458C90.722 52.534 90.1739 51.76 89.3761 51.4851C87.6563 50.8859 87.5069 48.1634 89.077 47.3392C89.7996 46.9648 90.1987 46.0906 90.1238 45.1914C89.8745 41.8949 89.6004 38.598 89.3511 35.3262C89.2762 34.3523 88.7281 33.5281 88.0052 33.3034Z" fill="url(#paint2_linear_4316_26047)"/>
  <path fill-rule="evenodd" clip-rule="evenodd" d="M84.6839 29.982C83.7869 29.6822 82.8898 29.3825 82.0172 29.0827C80.9206 28.6832 79.8488 29.8071 79.8989 31.2808C79.9985 34.0779 80.0981 36.85 80.1977 39.6472C80.2228 40.5712 79.7739 41.4205 79.0761 41.7702C77.6808 42.4444 76.26 43.0938 74.8392 43.7431C73.4185 43.1189 71.9981 42.4444 70.6024 41.7702C69.8795 41.4205 69.456 40.5712 69.4811 39.6472C69.5807 36.85 69.6803 34.0779 69.7799 31.2808C69.83 29.782 68.7582 28.6832 67.6616 29.0827C66.7643 29.3825 65.892 29.7073 64.9949 29.982C64.272 30.2318 63.7239 31.0309 63.6491 32.0048C63.3997 35.3017 63.1257 38.5982 62.8764 41.87C62.8015 42.794 63.2253 43.6433 63.9231 44.0178C65.4933 44.842 65.3439 47.5394 63.624 48.1636C62.8516 48.4386 62.2781 49.2126 62.2032 50.1366C61.8049 55.1566 61.4058 60.2017 61.0071 65.2217C60.9322 66.1956 61.4556 67.0949 62.353 67.4445C63.4245 67.8688 64.5214 68.2935 65.6179 68.7182C66.9889 69.2427 68.4591 68.2185 68.5089 66.7201C68.6583 62.1998 68.8327 57.6792 68.9825 53.1337C69.0072 52.2097 69.556 51.4106 70.3284 51.1109C71.8487 50.5114 73.3443 49.9119 74.8392 49.2625C76.3345 49.8871 77.8301 50.5114 79.3505 51.1109C80.1229 51.4106 80.6717 52.2097 80.6964 53.1337C80.8461 57.6544 81.0202 62.1747 81.17 66.7201C81.2198 68.2185 82.69 69.2175 84.0609 68.7182C85.1575 68.2935 86.2544 67.8688 87.3259 67.4445C88.1982 67.0949 88.7466 66.1956 88.6718 65.2217C88.273 60.2017 87.874 55.1566 87.4756 50.1366C87.4007 49.2126 86.8526 48.4386 86.0549 48.1636C84.335 47.5645 84.1856 44.842 85.7557 44.0178C86.4783 43.6433 86.8774 42.7692 86.8025 41.87C86.5532 38.5735 86.2791 35.2766 86.0298 32.0048C85.9549 31.0309 85.4068 30.2067 84.6839 29.982Z" fill="#320A8D"/>
  <defs>
    <filter id="filter0_d_4316_26047" x="0" y="0" width="148.96" height="148.96" filterUnits="userSpaceOnUse" color-interpolation-filters="sRGB">
      <feFlood flood-opacity="0" result="BackgroundImageFix"/>
      <feColorMatrix in="SourceAlpha" type="matrix" values="0 0 0 0 0 0 0 0 0 0 0 0 0 0 0 0 0 0 127 0" result="hardAlpha"/>
      <feOffset dy="24"/>
      <feGaussianBlur stdDeviation="16"/>
      <feComposite in2="hardAlpha" operator="out"/>
      <feColorMatrix type="matrix" values="0 0 0 0 0.0486111 0 0 0 0 0.127083 0 0 0 0 0.833333 0 0 0 0.06 0"/>
      <feBlend mode="normal" in2="BackgroundImageFix" result="effect1_dropShadow_4316_26047"/>
      <feBlend mode="normal" in="SourceGraphic" in2="effect1_dropShadow_4316_26047" result="shape"/>
    </filter>
    <filter id="filter1_d_4316_26047" x="0" y="0" width="148.96" height="148.96" filterUnits="userSpaceOnUse" color-interpolation-filters="sRGB">
      <feFlood flood-opacity="0" result="BackgroundImageFix"/>
      <feColorMatrix in="SourceAlpha" type="matrix" values="0 0 0 0 0 0 0 0 0 0 0 0 0 0 0 0 0 0 127 0" result="hardAlpha"/>
      <feOffset dy="24"/>
      <feGaussianBlur stdDeviation="16"/>
      <feComposite in2="hardAlpha" operator="out"/>
      <feColorMatrix type="matrix" values="0 0 0 0 0.0486111 0 0 0 0 0.127083 0 0 0 0 0.833333 0 0 0 0.06 0"/>
      <feBlend mode="normal" in2="BackgroundImageFix" result="effect1_dropShadow_4316_26047"/>
      <feBlend mode="normal" in="SourceGraphic" in2="effect1_dropShadow_4316_26047" result="shape"/>
    </filter>
    <radialGradient id="paint0_radial_4316_26047" cx="0" cy="0" r="1" gradientUnits="userSpaceOnUse" gradientTransform="translate(74.48 21.7604) rotate(90) scale(71.1997)">
      <stop stop-color="#F0F0FF"/>
      <stop stop-color="#F1F1FD"/>
      <stop offset="0.703125" stop-color="white"/>
    </radialGradient>
    <linearGradient id="paint1_linear_4316_26047" x1="125.361" y1="92.96" x2="131.757" y2="64.7817" gradientUnits="userSpaceOnUse">
      <stop stop-color="#F7F8FD"/>
      <stop offset="1" stop-color="white"/>
    </linearGradient>
    <linearGradient id="paint2_linear_4316_26047" x1="70.9641" y1="33.9821" x2="89.232" y2="72.1786" gradientUnits="userSpaceOnUse">
      <stop stop-color="#CDD5F0"/>
      <stop offset="1" stop-color="#F2F4FB"/>
    </linearGradient>
  </defs>
</svg>