<svg width="38" height="39" viewBox="0 0 38 39" fill="none" xmlns="http://www.w3.org/2000/svg">
<path fill-rule="evenodd" clip-rule="evenodd" d="M19.2226 36.8712C28.5091 36.8712 36.0372 29.1669 36.0372 19.6631C36.0372 10.1593 28.5091 2.45503 19.2226 2.45503C9.93618 2.45503 2.40803 10.1593 2.40803 19.6631C2.40803 29.1669 9.93618 36.8712 19.2226 36.8712ZM37.6386 19.6631C37.6386 30.072 29.3935 38.5101 19.2226 38.5101C9.05176 38.5101 0.806641 30.072 0.806641 19.6631C0.806641 9.25423 9.05176 0.816162 19.2226 0.816162C29.3935 0.816162 37.6386 9.25423 37.6386 19.6631Z" fill="#320A8D"/>
<path fill-rule="evenodd" clip-rule="evenodd" d="M19.2232 31.135C25.4142 31.135 30.433 25.9988 30.433 19.6629C30.433 13.3271 25.4142 8.19087 19.2232 8.19087C13.0323 8.19087 8.0135 13.3271 8.0135 19.6629C8.0135 25.9988 13.0323 31.135 19.2232 31.135ZM32.0343 19.6629C32.0343 26.9039 26.2986 32.7738 19.2232 32.7738C12.1478 32.7738 6.41211 26.9039 6.41211 19.6629C6.41211 12.422 12.1478 6.552 19.2232 6.552C26.2986 6.552 32.0343 12.422 32.0343 19.6629Z" fill="#320A8D"/>
<path fill-rule="evenodd" clip-rule="evenodd" d="M22.5619 12.756C22.2554 12.6529 21.9489 12.5498 21.6507 12.4467C21.276 12.3092 20.9097 12.6959 20.9268 13.2028C20.9609 14.165 20.9949 15.1186 21.0289 16.0808C21.0375 16.3987 20.8841 16.6908 20.6456 16.8111C20.1688 17.043 19.6833 17.2664 19.1978 17.4898C18.7123 17.2751 18.227 17.043 17.75 16.8111C17.503 16.6908 17.3583 16.3987 17.3669 16.0808C17.4009 15.1186 17.4349 14.165 17.469 13.2028C17.4861 12.6872 17.1199 12.3092 16.7451 12.4467C16.4385 12.5498 16.1404 12.6615 15.8339 12.756C15.5869 12.842 15.3996 13.1168 15.374 13.4519C15.2888 14.586 15.1951 15.72 15.1099 16.8454C15.0843 17.1633 15.2292 17.4555 15.4676 17.5843C16.0042 17.8678 15.9531 18.7957 15.3654 19.0104C15.1015 19.105 14.9055 19.3713 14.8799 19.6891C14.7438 21.416 14.6074 23.1515 14.4712 24.8783C14.4456 25.2134 14.6244 25.5227 14.9311 25.643C15.2972 25.7889 15.6721 25.935 16.0468 26.0811C16.5152 26.2615 17.0176 25.9092 17.0347 25.3938C17.0857 23.8388 17.1453 22.2837 17.1965 20.7201C17.2049 20.4023 17.3925 20.1274 17.6564 20.0243C18.1759 19.818 18.687 19.6118 19.1978 19.3884C19.7088 19.6033 20.2199 19.818 20.7394 20.0243C21.0033 20.1274 21.1909 20.4023 21.1993 20.7201C21.2505 22.2752 21.31 23.8302 21.3612 25.3938C21.3782 25.9092 21.8806 26.2529 22.349 26.0811C22.7237 25.935 23.0986 25.7889 23.4647 25.643C23.7628 25.5227 23.9502 25.2134 23.9246 24.8783C23.7884 23.1515 23.652 21.416 23.5159 19.6891C23.4903 19.3713 23.303 19.105 23.0304 19.0104C22.4427 18.8043 22.3916 17.8678 22.9282 17.5843C23.1751 17.4555 23.3115 17.1548 23.2859 16.8454C23.2007 15.7114 23.107 14.5773 23.0218 13.4519C22.9962 13.1168 22.8089 12.8333 22.5619 12.756Z" fill="#320A8D"/>
</svg>
