<svg width="32" height="32" viewBox="0 0 32 32" fill="none" xmlns="http://www.w3.org/2000/svg">
<circle cx="16" cy="16" r="16" fill="white"/>
<path fill-rule="evenodd" clip-rule="evenodd" d="M19.4124 8.39419C19.0559 8.27386 18.6994 8.15354 18.3526 8.03321C17.9168 7.87281 17.4909 8.32401 17.5108 8.91557C17.5504 10.0385 17.59 11.1513 17.6295 12.2741C17.6395 12.6451 17.4611 12.986 17.1838 13.1264C16.6293 13.397 16.0646 13.6577 15.5 13.9184C14.9353 13.6678 14.3709 13.397 13.8162 13.1264C13.5289 12.986 13.3606 12.6451 13.3706 12.2741C13.4101 11.1513 13.4497 10.0385 13.4893 8.91557C13.5092 8.31393 13.0833 7.87281 12.6475 8.03321C12.2908 8.15354 11.9442 8.28395 11.5877 8.39419C11.3004 8.49449 11.0825 8.81527 11.0528 9.20624C10.9537 10.5297 10.8448 11.8531 10.7457 13.1664C10.7159 13.5374 10.8844 13.8783 11.1617 14.0286C11.7857 14.3595 11.7263 15.4423 11.0428 15.6929C10.7359 15.8033 10.5079 16.114 10.4782 16.4849C10.3199 18.5001 10.1613 20.5254 10.0028 22.5406C9.97306 22.9316 10.1811 23.2926 10.5377 23.4329C10.9635 23.6033 11.3995 23.7737 11.8353 23.9442C12.3801 24.1548 12.9644 23.7436 12.9842 23.1421C13.0435 21.3275 13.1129 19.5128 13.1724 17.6881C13.1822 17.3172 13.4003 16.9964 13.7073 16.8761C14.3115 16.6354 14.9059 16.3947 15.5 16.134C16.0942 16.3848 16.6886 16.6354 17.2928 16.8761C17.5998 16.9964 17.8179 17.3172 17.8277 17.6881C17.8872 19.5028 17.9564 21.3174 18.0159 23.1421C18.0357 23.7436 18.62 24.1447 19.1649 23.9442C19.6007 23.7737 20.0366 23.6033 20.4624 23.4329C20.8091 23.2926 21.027 22.9316 20.9973 22.5406C20.8388 20.5254 20.6802 18.5001 20.5219 16.4849C20.4922 16.114 20.2743 15.8033 19.9573 15.6929C19.2738 15.4524 19.2144 14.3595 19.8384 14.0286C20.1256 13.8783 20.2842 13.5274 20.2544 13.1664C20.1553 11.8431 20.0464 10.5196 19.9473 9.20624C19.9176 8.81527 19.6997 8.48441 19.4124 8.39419Z" fill="#320A8D"/>
</svg>
