<svg width="32" height="32" viewBox="0 0 32 32" fill="none" xmlns="http://www.w3.org/2000/svg">
<circle cx="16" cy="16" r="16" fill="#0DD3FF"/>
<circle cx="16" cy="16" r="16" fill="#858EC6"/>
<path d="M32 16.0001C32 24.8367 24.8366 32.0001 16 32.0001C7.16344 32.0001 0 24.8367 0 16.0001C0 7.16354 7.16344 16.0001 16 16.0001C24.8366 16.0001 32 7.16354 32 16.0001Z" fill="#0DD3FF"/>
<path d="M32 16.0001C32 24.8367 24.8366 32.0001 16 32.0001C7.16344 32.0001 0 24.8367 0 16.0001C0 7.16354 7.16344 16.0001 16 16.0001C24.8366 16.0001 32 7.16354 32 16.0001Z" fill="#320A8D"/>
</svg>
