<svg width="149" height="149" viewBox="0 0 149 149" fill="none" xmlns="http://www.w3.org/2000/svg">
<g filter="url(#filter0_d_967_12259)">
<circle cx="74.48" cy="50.48" r="42.48" fill="url(#paint0_radial_967_12259)"/>
<circle cx="74.48" cy="50.48" r="39.48" stroke="url(#paint1_linear_967_12259)" stroke-width="6"/>
</g>
<path d="M58.2637 56.4697C58.2637 46.3684 66.7165 38.1797 77.1437 38.1797C87.5708 38.1797 96.0237 46.3684 96.0237 56.4697C96.0237 66.571 87.5708 74.7597 77.1437 74.7597C66.7165 74.7597 58.2637 66.571 58.2637 56.4697Z" fill="url(#paint2_linear_967_12259)"/>
<path fill-rule="evenodd" clip-rule="evenodd" d="M71.2226 65.8709C80.5091 65.8709 88.0372 58.1666 88.0372 48.6629C88.0372 39.1591 80.5091 31.4548 71.2226 31.4548C61.9362 31.4548 54.408 39.1591 54.408 48.6629C54.408 58.1666 61.9362 65.8709 71.2226 65.8709ZM89.6386 48.6629C89.6386 59.0717 81.3935 67.5098 71.2226 67.5098C61.0518 67.5098 52.8066 59.0717 52.8066 48.6629C52.8066 38.254 61.0518 29.8159 71.2226 29.8159C81.3935 29.8159 89.6386 38.254 89.6386 48.6629Z" fill="#320A8D"/>
<path fill-rule="evenodd" clip-rule="evenodd" d="M71.2232 60.1347C77.4142 60.1347 82.433 54.9985 82.433 48.6627C82.433 42.3268 77.4142 37.1906 71.2232 37.1906C65.0323 37.1906 60.0135 42.3268 60.0135 48.6627C60.0135 54.9985 65.0323 60.1347 71.2232 60.1347ZM84.0343 48.6627C84.0343 55.9036 78.2986 61.7736 71.2232 61.7736C64.1478 61.7736 58.4121 55.9036 58.4121 48.6627C58.4121 41.4217 64.1478 35.5518 71.2232 35.5518C78.2986 35.5518 84.0343 41.4217 84.0343 48.6627Z" fill="#320A8D"/>
<path fill-rule="evenodd" clip-rule="evenodd" d="M74.5609 41.7558C74.2544 41.6526 73.9479 41.5495 73.6497 41.4464C73.275 41.309 72.9087 41.6956 72.9258 42.2025C72.9599 43.1648 72.9939 44.1183 73.0279 45.0806C73.0365 45.3984 72.8831 45.6906 72.6447 45.8109C72.1679 46.0428 71.6824 46.2662 71.1969 46.4896C70.7114 46.2748 70.226 46.0428 69.7491 45.8109C69.502 45.6906 69.3573 45.3984 69.3659 45.0806C69.3999 44.1183 69.434 43.1648 69.468 42.2025C69.4851 41.687 69.1189 41.309 68.7442 41.4464C68.4375 41.5495 68.1394 41.6613 67.8329 41.7558C67.5859 41.8417 67.3986 42.1166 67.373 42.4516C67.2878 43.5857 67.1942 44.7197 67.109 45.8452C67.0834 46.1631 67.2282 46.4552 67.4666 46.584C68.0032 46.8676 67.9521 47.7954 67.3644 48.0102C67.1005 48.1048 66.9045 48.371 66.8789 48.6889C66.7428 50.4157 66.6064 52.1512 66.4702 53.8781C66.4446 54.2131 66.6235 54.5225 66.9301 54.6427C67.2962 54.7887 67.6711 54.9348 68.0458 55.0809C68.5143 55.2613 69.0167 54.909 69.0337 54.3935C69.0847 52.8386 69.1443 51.2835 69.1955 49.7199C69.204 49.402 69.3915 49.1271 69.6554 49.024C70.1749 48.8178 70.686 48.6116 71.1969 48.3882C71.7078 48.6031 72.2189 48.8178 72.7384 49.024C73.0024 49.1271 73.1899 49.402 73.1983 49.7199C73.2495 51.275 73.309 52.8299 73.3602 54.3935C73.3772 54.909 73.8796 55.2526 74.3481 55.0809C74.7228 54.9348 75.0976 54.7887 75.4637 54.6427C75.7618 54.5225 75.9492 54.2131 75.9237 53.8781C75.7874 52.1512 75.651 50.4157 75.5149 48.6889C75.4893 48.371 75.302 48.1048 75.0294 48.0102C74.4417 47.8041 74.3907 46.8676 74.9272 46.584C75.1741 46.4552 75.3105 46.1545 75.2849 45.8452C75.1997 44.7112 75.1061 43.5771 75.0209 42.4516C74.9953 42.1166 74.808 41.8331 74.5609 41.7558Z" fill="#320A8D"/>
<defs>
<filter id="filter0_d_967_12259" x="0" y="0" width="148.96" height="148.96" filterUnits="userSpaceOnUse" color-interpolation-filters="sRGB">
<feFlood flood-opacity="0" result="BackgroundImageFix"/>
<feColorMatrix in="SourceAlpha" type="matrix" values="0 0 0 0 0 0 0 0 0 0 0 0 0 0 0 0 0 0 127 0" result="hardAlpha"/>
<feOffset dy="24"/>
<feGaussianBlur stdDeviation="16"/>
<feComposite in2="hardAlpha" operator="out"/>
<feColorMatrix type="matrix" values="0 0 0 0 0.0486111 0 0 0 0 0.127083 0 0 0 0 0.833333 0 0 0 0.06 0"/>
<feBlend mode="normal" in2="BackgroundImageFix" result="effect1_dropShadow_967_12259"/>
<feBlend mode="normal" in="SourceGraphic" in2="effect1_dropShadow_967_12259" result="shape"/>
</filter>
<radialGradient id="paint0_radial_967_12259" cx="0" cy="0" r="1" gradientUnits="userSpaceOnUse" gradientTransform="translate(74.48 21.7604) rotate(90) scale(71.1997)">
<stop stop-color="#F0F0FF"/>
<stop stop-color="#F1F1FD"/>
<stop offset="0.703125" stop-color="white"/>
</radialGradient>
<linearGradient id="paint1_linear_967_12259" x1="125.361" y1="92.96" x2="131.757" y2="64.7817" gradientUnits="userSpaceOnUse">
<stop stop-color="#F7F8FD"/>
<stop offset="1" stop-color="white"/>
</linearGradient>
<linearGradient id="paint2_linear_967_12259" x1="58.2637" y1="45.3366" x2="85.6242" y2="75.6264" gradientUnits="userSpaceOnUse">
<stop stop-color="#244CB3" stop-opacity="0.34"/>
<stop offset="1" stop-color="#B4C2E5" stop-opacity="0.07"/>
</linearGradient>
</defs>
</svg>
