<svg width="149" height="149" viewBox="0 0 149 149" fill="none" xmlns="http://www.w3.org/2000/svg">
<g filter="url(#filter0_d_967_12486)">
<path d="M116.96 50.48C116.96 73.9411 97.9411 92.96 74.48 92.96C51.0189 92.96 32 73.9411 32 50.48C32 27.0189 51.0189 8 74.48 8C97.9411 8 116.96 27.0189 116.96 50.48Z" fill="url(#paint0_radial_967_12486)"/>
</g>
<g filter="url(#filter1_d_967_12486)">
<path fill-rule="evenodd" clip-rule="evenodd" d="M74.48 87.7213C95.0478 87.7213 111.721 71.0478 111.721 50.48C111.721 29.9122 95.0478 13.2387 74.48 13.2387C53.9122 13.2387 37.2387 29.9122 37.2387 50.48C37.2387 71.0478 53.9122 87.7213 74.48 87.7213ZM74.48 92.96C97.9411 92.96 116.96 73.9411 116.96 50.48C116.96 27.0189 97.9411 8 74.48 8C51.0189 8 32 27.0189 32 50.48C32 73.9411 51.0189 92.96 74.48 92.96Z" fill="url(#paint1_linear_967_12486)"/>
</g>
<path d="M64.9166 65H64.8849C65.0456 61.3048 66.0989 58.0453 67.8835 55.6732C69.8075 53.1158 72.6081 51.5455 76.2269 51.5455C83.9001 51.5455 90.8407 57.5376 91.4157 65H91.3754H91.3169H91.2586H91.2004H91.1423H91.0844H91.0266H90.969H90.9115H90.8542H90.7971H90.74H90.6832H90.6265H90.5699H90.5134H90.4572H90.401H90.3451H90.2892H90.2335H90.178H90.1226H90.0673H90.0122H89.9573H89.9025H89.8478H89.7933H89.7389H89.6847H89.6306H89.5766H89.5229H89.4692H89.4157H89.3624H89.3091H89.2561H89.2032H89.1504H89.0977H89.0453H88.9929H88.9407H88.8887H88.8367H88.785H88.7333H88.6819H88.6305H88.5793H88.5283H88.4774H88.4266H88.376H88.3255H88.2752H88.225H88.1749H88.125H88.0752H88.0256H87.9761H87.9268H87.8776H87.8285H87.7796H87.7308H87.6821H87.6336H87.5853H87.5371H87.489H87.4411H87.3933H87.3456H87.2981H87.2507H87.2035H87.1564H87.1094H87.0626H87.0159H86.9694H86.923H86.8767H86.8306H86.7846H86.7387H86.693H86.6475H86.602H86.5567H86.5116H86.4665H86.4217H86.3769H86.3323H86.2878H86.2435H86.1993H86.1553H86.1113H86.0675H86.0239H85.9804H85.937H85.8938H85.8506H85.8077H85.7648H85.7221H85.6796H85.6371H85.5949H85.5527H85.5107H85.4688H85.427H85.3854H85.3439H85.3026H85.2614H85.2203H85.1793H85.1385H85.0978H85.0573H85.0169H84.9766H84.9364H84.8964H84.8565H84.8168H84.7772H84.7377H84.6983H84.6591H84.62H84.5811H84.5423H84.5036H84.465H84.4266H84.3883H84.3501H84.3121H84.2742H84.2364H84.1988H84.1613H84.1239H84.0866H84.0495H84.0125H83.9757H83.9389H83.9023H83.8659H83.8295H83.7933H83.7572H83.7213H83.6855H83.6498H83.6142H83.5788H83.5435H83.5083H83.4732H83.4383H83.4035H83.3688H83.3343H83.2999H83.2656H83.2314H83.1974H83.1635H83.1297H83.0961H83.0626H83.0292H82.9959H82.9628H82.9298H82.8969H82.8641H82.8315H82.799H82.7666H82.7343H82.7022H82.6702H82.6383H82.6065H82.5749H82.5434H82.512H82.4807H82.4496H82.4186H82.3877H82.3569H82.3263H82.2958H82.2654H82.2351H82.205H82.175H82.1451H82.1153H82.0856H82.0561H82.0267H81.9974H81.9683H81.9392H81.9103H81.8815H81.8528H81.8243H81.7959H81.7675H81.7394H81.7113H81.6833H81.6555H81.6278H81.6002H81.5728H81.5454H81.5182H81.4911H81.4641H81.4373H81.4105H81.3839H81.3574H81.3311H81.3048H81.2787H81.2526H81.2267H81.2009H81.1753H81.1497H81.1243H81.099H81.0738H81.0487H81.0238H80.9989H80.9742H80.9496H80.9251H80.9008H80.8765H80.8524H80.8284H80.8045H80.7807H80.757H80.7335H80.7101H80.6868H80.6636H80.6405H80.6175H80.5947H80.5719H80.5493H80.5268H80.5044H80.4821H80.46H80.4379H80.416H80.3942H80.3725H80.3509H80.3294H80.3081H80.2869H80.2657H80.2447H80.2238H80.203H80.1824H80.1618H80.1413H80.121H80.1008H80.0807H80.0607H80.0408H80.021H80.0014H79.9818H79.9624H79.9431H79.9239H79.9048H79.8858H79.8669H79.8482H79.8295H79.811H79.7925H79.7742H79.756H79.7379H79.7199H79.702H79.6843H79.6666H79.6491H79.6316H79.6143H79.5971H79.58H79.563H79.5461H79.5293H79.5127H79.4961H79.4796H79.4633H79.4471H79.4309H79.4149H79.399H79.3832H79.3675H79.3519H79.3364H79.3211H79.3058H79.2906H79.2756H79.2606H79.2458H79.2311H79.2165H79.2019H79.1875H79.1732H79.159H79.1449H79.1309H79.1171H79.1033H79.0896H79.0761H79.0626H79.0492H79.036H79.0228H79.0098H78.9969H78.984H78.9713H78.9587H78.9462H78.9338H78.9215H78.9092H78.8971H78.8851H78.8732H78.8615H78.8498H78.8382H78.8267H78.8153H78.804H78.7929H78.7818H78.7708H78.76H78.7492H78.7385H78.728H78.7175H78.7071H78.6969H78.6867H78.6767H78.6667H78.6569H78.6471H78.6374H78.6279H78.6184H78.6091H78.5998H78.5907H78.5816H78.5727H78.5638H78.5551H78.5464H78.5379H78.5294H78.5211H78.5128H78.5046H78.4966H78.4886H78.4808H78.473H78.4653H78.4578H78.4503H78.4429H78.4356H78.4285H78.4214H78.4144H78.4075H78.4007H78.394H78.3874H78.3809H78.3745H78.3682H78.362H78.3559H78.3499H78.344H78.3381H78.3324H78.3268H78.3212H78.3158H78.3104H78.3052H78.3H78.295H78.29H78.2851H78.2803H78.2757H78.2711H78.2666H78.2622H78.2579H78.2536H78.2495H78.2455H78.2415H78.2377H78.234H78.2303H78.2267H78.2233H78.2199H78.2166H78.2134H78.2103H78.2073H78.2044H78.2015H78.1988H78.1962H78.1936H78.1911H78.1888H78.1865H78.1843H78.1822H78.1802H78.1783H78.1765H78.1747H78.1731H78.1715H78.1701H78.1687H78.1674H78.1662H78.1651H78.1641H78.1631H78.1623H78.1616H78.1609H78.1603H78.1598H78.1594H78.1591H78.1589H78.1588L78.1587 66L78.1587 65H78.1586H78.1584H78.1582H78.1579H78.1576H78.1572H78.1567H78.1561H78.1555H78.1548H78.1541H78.1532H78.1524H78.1514H78.1504H78.1493H78.1481H78.1469H78.1456H78.1442H78.1428H78.1413H78.1397H78.1381H78.1364H78.1346H78.1327H78.1308H78.1288H78.1267H78.1246H78.1224H78.1201H78.1177H78.1153H78.1128H78.1102H78.1076H78.1048H78.102H78.0992H78.0962H78.0932H78.0901H78.0869H78.0836H78.0803H78.0769H78.0734H78.0698H78.0662H78.0625H78.0587H78.0548H78.0509H78.0468H78.0427H78.0385H78.0343H78.0299H78.0255H78.021H78.0164H78.0117H78.007H78.0022H77.9972H77.9922H77.9872H77.982H77.9768H77.9714H77.966H77.9605H77.955H77.9493H77.9436H77.9377H77.9318H77.9258H77.9197H77.9136H77.9073H77.901H77.8946H77.888H77.8814H77.8748H77.868H77.8611H77.8542H77.8471H77.84H77.8328H77.8255H77.8181H77.8106H77.803H77.7954H77.7876H77.7798H77.7718H77.7638H77.7557H77.7475H77.7392H77.7308H77.7223H77.7137H77.705H77.6963H77.6874H77.6785H77.6694H77.6603H77.651H77.6417H77.6323H77.6228H77.6131H77.6034H77.5936H77.5837H77.5737H77.5636H77.5534H77.5431H77.5327H77.5222H77.5116H77.501H77.4902H77.4793H77.4683H77.4572H77.446H77.4348H77.4234H77.4119H77.4003H77.3886H77.3768H77.3649H77.3529H77.3409H77.3287H77.3164H77.304H77.2915H77.2788H77.2661H77.2533H77.2404H77.2274H77.2142H77.201H77.1877H77.1742H77.1607H77.147H77.1332H77.1194H77.1054H77.0913H77.0771H77.0628H77.0484H77.0339H77.0192H77.0045H76.9896H76.9747H76.9596H76.9445H76.9292H76.9138H76.8983H76.8826H76.8669H76.8511H76.8351H76.8191H76.8029H76.7866H76.7702H76.7537H76.7371H76.7203H76.7035H76.6865H76.6694H76.6522H76.6349H76.6175H76.5999H76.5823H76.5645H76.5466H76.5286H76.5104H76.4922H76.4738H76.4554H76.4368H76.418H76.3992H76.3803H76.3612H76.342H76.3227H76.3033H76.2837H76.264H76.2443H76.2243H76.2043H76.1842H76.1639H76.1435H76.123H76.1023H76.0816H76.0607H76.0397H76.0185H75.9973H75.9759H75.9544H75.9328H75.911H75.8891H75.8671H75.845H75.8227H75.8003H75.7778H75.7552H75.7324H75.7095H75.6865H75.6634H75.6401H75.6167H75.5932H75.5695H75.5457H75.5218H75.4978H75.4736H75.4493H75.4249H75.4003H75.3756H75.3508H75.3258H75.3007H75.2755H75.2501H75.2246H75.199H75.1733H75.1474H75.1213H75.0952H75.0689H75.0425H75.0159H74.9892H74.9624H74.9354H74.9083H74.8811H74.8537H74.8262H74.7986H74.7708H74.7429H74.7148H74.6866H74.6583H74.6298H74.6012H74.5725H74.5436H74.5146H74.4854H74.4561H74.4266H74.397H74.3673H74.3375H74.3074H74.2773H74.247H74.2166H74.186H74.1553H74.1244H74.0934H74.0623H74.031H73.9995H73.9679H73.9362H73.9044H73.8723H73.8402H73.8079H73.7754H73.7428H73.7101H73.6772H73.6442H73.611H73.5776H73.5442H73.5105H73.4768H73.4428H73.4088H73.3746H73.3402H73.3057H73.271H73.2362H73.2012H73.1661H73.1308H73.0954H73.0598H73.0241H72.9882H72.9522H72.916H72.8797H72.8432H72.8066H72.7698H72.7328H72.6957H72.6585H72.6211H72.5835H72.5458H72.5079H72.4699H72.4317H72.3934H72.3549H72.3162H72.2774H72.2384H72.1993H72.16H72.1206H72.081H72.0412H72.0013H71.9612H71.921H71.8806H71.8401H71.7994H71.7585H71.7174H71.6763H71.6349H71.5934H71.5517H71.5099H71.4679H71.4257H71.3834H71.3409H71.2982H71.2554H71.2124H71.1693H71.126H71.0825H71.0389H70.9951H70.9511H70.9069H70.8626H70.8182H70.7735H70.7287H70.6838H70.6386H70.5933H70.5479H70.5022H70.4564H70.4105H70.3643H70.318H70.2715H70.2249H70.1781H70.1311H70.0839H70.0366H69.9891H69.9414H69.8936H69.8455H69.7973H69.749H69.7005H69.6517H69.6029H69.5538H69.5046H69.4552H69.4056H69.3559H69.3059H69.2558H69.2056H69.1551H69.1045H69.0537H69.0027H68.9516H68.9002H68.8487H68.7971H68.7452H68.6932H68.6409H68.5885H68.536H68.4832H68.4303H68.3772H68.3239H68.2704H68.2168H68.1629H68.1089H68.0547H68.0004H67.9458H67.8911H67.8361H67.781H67.7258H67.6703H67.6146H67.5588H67.5028H67.4466H67.3902H67.3336H67.2769H67.22H67.1628H67.1055H67.048H66.9903H66.9325H66.8744H66.8162H66.7578H66.6991H66.6403H66.5813H66.5222H66.4628H66.4032H66.3435H66.2836H66.2234H66.1631H66.1026H66.0419H65.981H65.92H65.8587H65.7973H65.7356H65.6738H65.6117H65.5495H65.4871H65.4245H65.3617H65.2987H65.2355H65.1721H65.1085H65.0448H64.9808H64.9166Z" fill="white" stroke="#320A8D" stroke-width="2"/>
<path d="M61.0533 65H61.0311C61.5051 57.4193 67.3281 51.5455 74.2955 51.5455C81.2629 51.5455 87.0858 57.4193 87.5598 65H87.5121H87.4536H87.3953H87.3371H87.279H87.2211H87.1633H87.1057H87.0483H86.991H86.9338H86.8768H86.8199H86.7632H86.7066H86.6502H86.5939H86.5378H86.4818H86.4259H86.3702H86.3147H86.2593H86.2041H86.1489H86.094H86.0392H85.9845H85.93H85.8756H85.8214H85.7673H85.7134H85.6596H85.6059H85.5524H85.4991H85.4459H85.3928H85.3399H85.2871H85.2345H85.182H85.1296H85.0774H85.0254H84.9735H84.9217H84.8701H84.8186H84.7672H84.7161H84.665H84.6141H84.5633H84.5127H84.4622H84.4119H84.3617H84.3116H84.2617H84.2119H84.1623H84.1128H84.0635H84.0143H83.9652H83.9163H83.8675H83.8189H83.7704H83.722H83.6738H83.6257H83.5778H83.53H83.4823H83.4348H83.3874H83.3402H83.2931H83.2461H83.1993H83.1526H83.1061H83.0597H83.0134H82.9673H82.9213H82.8755H82.8298H82.7842H82.7387H82.6934H82.6483H82.6033H82.5584H82.5136H82.469H82.4246H82.3802H82.336H82.292H82.248H82.2043H82.1606H82.1171H82.0737H82.0305H81.9874H81.9444H81.9016H81.8589H81.8163H81.7739H81.7316H81.6894H81.6474H81.6055H81.5638H81.5221H81.4806H81.4393H81.3981H81.357H81.316H81.2752H81.2346H81.194H81.1536H81.1133H81.0732H81.0331H80.9933H80.9535H80.9139H80.8744H80.8351H80.7958H80.7568H80.7178H80.679H80.6403H80.6017H80.5633H80.525H80.4868H80.4488H80.4109H80.3731H80.3355H80.298H80.2606H80.2234H80.1862H80.1492H80.1124H80.0757H80.0391H80.0026H79.9662H79.93H79.894H79.858H79.8222H79.7865H79.7509H79.7155H79.6802H79.645H79.6099H79.575H79.5402H79.5056H79.471H79.4366H79.4023H79.3682H79.3341H79.3002H79.2665H79.2328H79.1993H79.1659H79.1326H79.0995H79.0665H79.0336H79.0008H78.9682H78.9357H78.9033H78.871H78.8389H78.8069H78.775H78.7432H78.7116H78.6801H78.6487H78.6175H78.5863H78.5553H78.5244H78.4937H78.463H78.4325H78.4021H78.3718H78.3417H78.3117H78.2818H78.252H78.2224H78.1928H78.1634H78.1341H78.105H78.0759H78.047H78.0182H77.9895H77.961H77.9326H77.9043H77.8761H77.848H77.8201H77.7922H77.7645H77.737H77.7095H77.6822H77.6549H77.6278H77.6009H77.574H77.5473H77.5206H77.4942H77.4678H77.4415H77.4154H77.3893H77.3634H77.3377H77.312H77.2865H77.261H77.2357H77.2105H77.1855H77.1605H77.1357H77.1109H77.0863H77.0619H77.0375H77.0132H76.9891H76.9651H76.9412H76.9174H76.8938H76.8702H76.8468H76.8235H76.8003H76.7772H76.7542H76.7314H76.7086H76.686H76.6635H76.6411H76.6189H76.5967H76.5747H76.5527H76.5309H76.5092H76.4876H76.4662H76.4448H76.4236H76.4024H76.3814H76.3605H76.3397H76.3191H76.2985H76.2781H76.2577H76.2375H76.2174H76.1974H76.1775H76.1578H76.1381H76.1186H76.0991H76.0798H76.0606H76.0415H76.0225H76.0036H75.9849H75.9662H75.9477H75.9293H75.9109H75.8927H75.8746H75.8566H75.8388H75.821H75.8033H75.7858H75.7684H75.751H75.7338H75.7167H75.6997H75.6828H75.666H75.6494H75.6328H75.6164H75.6H75.5838H75.5677H75.5516H75.5357H75.5199H75.5042H75.4886H75.4732H75.4578H75.4425H75.4274H75.4123H75.3974H75.3825H75.3678H75.3532H75.3387H75.3242H75.3099H75.2957H75.2816H75.2677H75.2538H75.24H75.2263H75.2128H75.1993H75.186H75.1727H75.1596H75.1465H75.1336H75.1208H75.108H75.0954H75.0829H75.0705H75.0582H75.046H75.0339H75.0219H75.01H74.9982H74.9865H74.9749H74.9634H74.952H74.9408H74.9296H74.9185H74.9075H74.8967H74.8859H74.8752H74.8647H74.8542H74.8439H74.8336H74.8234H74.8134H74.8034H74.7936H74.7838H74.7742H74.7646H74.7552H74.7458H74.7366H74.7274H74.7184H74.7094H74.7005H74.6918H74.6831H74.6746H74.6661H74.6578H74.6495H74.6414H74.6333H74.6253H74.6175H74.6097H74.602H74.5945H74.587H74.5796H74.5724H74.5652H74.5581H74.5511H74.5442H74.5374H74.5308H74.5242H74.5177H74.5113H74.5049H74.4987H74.4926H74.4866H74.4807H74.4749H74.4691H74.4635H74.458H74.4525H74.4472H74.4419H74.4368H74.4317H74.4267H74.4218H74.4171H74.4124H74.4078H74.4033H74.3989H74.3946H74.3904H74.3862H74.3822H74.3783H74.3744H74.3707H74.367H74.3634H74.36H74.3566H74.3533H74.3501H74.347H74.344H74.3411H74.3383H74.3355H74.3329H74.3303H74.3279H74.3255H74.3232H74.321H74.3189H74.3169H74.315H74.3132H74.3114H74.3098H74.3082H74.3068H74.3054H74.3041H74.3029H74.3018H74.3008H74.2999H74.299H74.2983H74.2976H74.297H74.2966H74.2962H74.2959H74.2956H74.2955L74.2955 66L74.2954 65H74.2953H74.2952H74.2949H74.2947H74.2943H74.2939H74.2934H74.2928H74.2922H74.2915H74.2908H74.29H74.2891H74.2881H74.2871H74.286H74.2849H74.2836H74.2823H74.281H74.2795H74.278H74.2765H74.2748H74.2731H74.2713H74.2695H74.2675H74.2655H74.2635H74.2613H74.2591H74.2568H74.2545H74.252H74.2495H74.2469H74.2443H74.2416H74.2388H74.2359H74.2329H74.2299H74.2268H74.2236H74.2204H74.217H74.2136H74.2101H74.2066H74.2029H74.1992H74.1954H74.1915H74.1876H74.1836H74.1795H74.1753H74.171H74.1667H74.1622H74.1577H74.1531H74.1485H74.1437H74.1389H74.134H74.129H74.1239H74.1187H74.1135H74.1082H74.1028H74.0973H74.0917H74.086H74.0803H74.0745H74.0685H74.0625H74.0565H74.0503H74.044H74.0377H74.0313H74.0248H74.0182H74.0115H74.0047H73.9978H73.9909H73.9838H73.9767H73.9695H73.9622H73.9548H73.9473H73.9397H73.9321H73.9243H73.9165H73.9085H73.9005H73.8924H73.8842H73.8759H73.8675H73.859H73.8504H73.8418H73.833H73.8241H73.8152H73.8061H73.797H73.7877H73.7784H73.769H73.7595H73.7499H73.7401H73.7303H73.7204H73.7104H73.7003H73.6901H73.6798H73.6694H73.659H73.6484H73.6377H73.6269H73.616H73.605H73.5939H73.5828H73.5715H73.5601H73.5486H73.537H73.5253H73.5135H73.5017H73.4897H73.4776H73.4654H73.4531H73.4407H73.4282H73.4156H73.4028H73.39H73.3771H73.3641H73.351H73.3377H73.3244H73.3109H73.2974H73.2837H73.2699H73.2561H73.2421H73.228H73.2138H73.1995H73.1851H73.1706H73.1559H73.1412H73.1264H73.1114H73.0963H73.0812H73.0659H73.0505H73.035H73.0194H73.0036H72.9878H72.9718H72.9558H72.9396H72.9233H72.9069H72.8904H72.8738H72.857H72.8402H72.8232H72.8061H72.7889H72.7716H72.7542H72.7366H72.719H72.7012H72.6833H72.6653H72.6472H72.6289H72.6106H72.5921H72.5735H72.5548H72.5359H72.517H72.4979H72.4787H72.4594H72.44H72.4204H72.4008H72.381H72.3611H72.341H72.3209H72.3006H72.2802H72.2597H72.239H72.2183H72.1974H72.1764H72.1553H72.134H72.1126H72.0911H72.0695H72.0477H72.0258H72.0038H71.9817H71.9594H71.9371H71.9146H71.8919H71.8692H71.8463H71.8232H71.8001H71.7768H71.7534H71.7299H71.7062H71.6825H71.6585H71.6345H71.6103H71.586H71.5616H71.537H71.5123H71.4875H71.4625H71.4374H71.4122H71.3868H71.3614H71.3357H71.31H71.2841H71.2581H71.2319H71.2056H71.1792H71.1526H71.1259H71.0991H71.0722H71.0451H71.0178H70.9904H70.9629H70.9353H70.9075H70.8796H70.8515H70.8233H70.795H70.7665H70.7379H70.7092H70.6803H70.6513H70.6221H70.5928H70.5634H70.5338H70.504H70.4742H70.4442H70.414H70.3837H70.3533H70.3227H70.292H70.2611H70.2301H70.199H70.1677H70.1362H70.1047H70.0729H70.0411H70.0091H69.9769H69.9446H69.9121H69.8795H69.8468H69.8139H69.7809H69.7477H69.7144H69.6809H69.6473H69.6135H69.5796H69.5455H69.5113H69.4769H69.4424H69.4077H69.3729H69.3379H69.3028H69.2675H69.2321H69.1965H69.1608H69.125H69.0889H69.0527H69.0164H68.9799H68.9433H68.9065H68.8696H68.8325H68.7952H68.7578H68.7202H68.6825H68.6446H68.6066H68.5684H68.5301H68.4916H68.4529H68.4141H68.3752H68.336H68.2968H68.2573H68.2177H68.178H68.138H68.098H68.0577H68.0173H67.9768H67.9361H67.8952H67.8542H67.813H67.7716H67.7301H67.6884H67.6466H67.6046H67.5624H67.5201H67.4776H67.4349H67.3921H67.3491H67.306H67.2627H67.2192H67.1756H67.1318H67.0878H67.0437H66.9994H66.9549H66.9103H66.8655H66.8205H66.7754H66.7301H66.6846H66.639H66.5932H66.5472H66.501H66.4547H66.4082H66.3616H66.3148H66.2678H66.2206H66.1733H66.1258H66.0781H66.0303H65.9823H65.9341H65.8857H65.8372H65.7885H65.7396H65.6905H65.6413H65.5919H65.5423H65.4926H65.4427H65.3926H65.3423H65.2918H65.2412H65.1904H65.1394H65.0883H65.037H64.9855H64.9338H64.8819H64.8299H64.7777H64.7253H64.6727H64.6199H64.567H64.5139H64.4606H64.4071H64.3535H64.2997H64.2456H64.1915H64.1371H64.0825H64.0278H63.9729H63.9178H63.8625H63.807H63.7514H63.6955H63.6395H63.5833H63.5269H63.4704H63.4136H63.3567H63.2995H63.2422H63.1847H63.1271H63.0692H63.0111H62.9529H62.8945H62.8359H62.7771H62.7181H62.6589H62.5995H62.54H62.4802H62.4203H62.3602H62.2998H62.2393H62.1786H62.1178H62.0567H61.9954H61.934H61.8723H61.8105H61.7484H61.6862H61.6238H61.5612H61.4984H61.4354H61.3722H61.3088H61.2452H61.1815H61.1175H61.0533Z" fill="white" stroke="#320A8D" stroke-width="2"/>
<circle cx="75.8406" cy="38.9304" r="5.9304" fill="white" stroke="#320A8D" stroke-width="2"/>
<path d="M73 42C73 38.134 76.134 35 80 35C83.866 35 87 38.134 87 42C87 45.866 83.866 49 80 49C76.134 49 73 45.866 73 42Z" fill="url(#paint2_linear_967_12486)"/>
<path d="M66 69C66 59.6112 73.1634 52 82 52C90.8366 52 98 59.6112 98 69C98 69 90.8366 69 82 69C73.1634 69 68.1186 69 66 69Z" fill="url(#paint3_linear_967_12486)"/>
<defs>
<filter id="filter0_d_967_12486" x="0" y="0" width="148.96" height="148.96" filterUnits="userSpaceOnUse" color-interpolation-filters="sRGB">
<feFlood flood-opacity="0" result="BackgroundImageFix"/>
<feColorMatrix in="SourceAlpha" type="matrix" values="0 0 0 0 0 0 0 0 0 0 0 0 0 0 0 0 0 0 127 0" result="hardAlpha"/>
<feOffset dy="24"/>
<feGaussianBlur stdDeviation="16"/>
<feComposite in2="hardAlpha" operator="out"/>
<feColorMatrix type="matrix" values="0 0 0 0 0.0486111 0 0 0 0 0.127083 0 0 0 0 0.833333 0 0 0 0.06 0"/>
<feBlend mode="normal" in2="BackgroundImageFix" result="effect1_dropShadow_967_12486"/>
<feBlend mode="normal" in="SourceGraphic" in2="effect1_dropShadow_967_12486" result="shape"/>
</filter>
<filter id="filter1_d_967_12486" x="0" y="0" width="148.96" height="148.96" filterUnits="userSpaceOnUse" color-interpolation-filters="sRGB">
<feFlood flood-opacity="0" result="BackgroundImageFix"/>
<feColorMatrix in="SourceAlpha" type="matrix" values="0 0 0 0 0 0 0 0 0 0 0 0 0 0 0 0 0 0 127 0" result="hardAlpha"/>
<feOffset dy="24"/>
<feGaussianBlur stdDeviation="16"/>
<feComposite in2="hardAlpha" operator="out"/>
<feColorMatrix type="matrix" values="0 0 0 0 0.0486111 0 0 0 0 0.127083 0 0 0 0 0.833333 0 0 0 0.06 0"/>
<feBlend mode="normal" in2="BackgroundImageFix" result="effect1_dropShadow_967_12486"/>
<feBlend mode="normal" in="SourceGraphic" in2="effect1_dropShadow_967_12486" result="shape"/>
</filter>
<radialGradient id="paint0_radial_967_12486" cx="0" cy="0" r="1" gradientUnits="userSpaceOnUse" gradientTransform="translate(74.48 21.7604) rotate(90) scale(71.1997)">
<stop stop-color="#F0F0FF"/>
<stop stop-color="#F1F1FD"/>
<stop offset="0.703125" stop-color="white"/>
</radialGradient>
<linearGradient id="paint1_linear_967_12486" x1="125.361" y1="92.96" x2="131.757" y2="64.7817" gradientUnits="userSpaceOnUse">
<stop stop-color="#F7F8FD"/>
<stop offset="1" stop-color="white"/>
</linearGradient>
<linearGradient id="paint2_linear_967_12486" x1="73" y1="37.7391" x2="83.5" y2="49" gradientUnits="userSpaceOnUse">
<stop stop-color="#244CB3" stop-opacity="0.34"/>
<stop offset="1" stop-color="#B4C2E5" stop-opacity="0.07"/>
</linearGradient>
<linearGradient id="paint3_linear_967_12486" x1="66" y1="58.6522" x2="91.5613" y2="84.4532" gradientUnits="userSpaceOnUse">
<stop stop-color="#244CB3" stop-opacity="0.34"/>
<stop offset="1" stop-color="#B4C2E5" stop-opacity="0.07"/>
</linearGradient>
</defs>
</svg>
