<?xml version="1.0" encoding="UTF-8" standalone="no"?>
<svg
   width="66.768005"
   height="55.624054"
   viewBox="0 0 66.768005 55.624054"
   fill="none"
   version="1.1"
   id="svg36"
   sodipodi:docname="Frame 1707478232.svg"
   xmlns:inkscape="http://www.inkscape.org/namespaces/inkscape"
   xmlns:sodipodi="http://sodipodi.sourceforge.net/DTD/sodipodi-0.dtd"
   xmlns="http://www.w3.org/2000/svg"
   xmlns:svg="http://www.w3.org/2000/svg">
  <defs
     id="defs36" />
  <sodipodi:namedview
     id="namedview36"
     pagecolor="#505050"
     bordercolor="#eeeeee"
     borderopacity="1"
     inkscape:showpageshadow="0"
     inkscape:pageopacity="0"
     inkscape:pagecheckerboard="0"
     inkscape:deskcolor="#505050" />
  <g
     id="g38"
     transform="translate(-77,-436.99994)">
    <path
       d="m 123.587,438.657 c 7.611,3.229 12.685,11.186 12.108,19.258 -13.607,0 -27.214,0.115 -40.821,-0.116 0,-5.419 1.845,-10.955 5.766,-14.76 5.765,-5.881 15.336,-7.726 22.947,-4.382 z"
       fill="#320a8d"
       id="path4" />
    <path
       d="m 123.011,490.549 c 0.807,0 1.499,0.461 1.499,1.037 0,0.577 -0.692,1.038 -1.499,1.038 h -21.909 c -0.808,0 -1.4995,-0.461 -1.4995,-1.038 0,-0.576 0.6915,-1.037 1.4995,-1.037 z"
       fill="#320a8d"
       id="path5" />
    <path
       d="m 96.3731,492.624 c 0.8279,0 1.4991,-0.671 1.4991,-1.499 0,-0.828 -0.6712,-1.499 -1.4991,-1.499 -0.8279,0 -1.4991,0.671 -1.4991,1.499 0,0.828 0.6712,1.499 1.4991,1.499 z"
       fill="#320a8d"
       id="path6" />
    <path
       d="m 109.52,487.089 c 0.828,0 1.499,-0.671 1.499,-1.499 0,-0.828 -0.671,-1.499 -1.499,-1.499 -0.828,0 -1.499,0.671 -1.499,1.499 0,0.828 0.671,1.499 1.499,1.499 z"
       fill="#320a8d"
       id="path7" />
    <path
       d="m 135.234,484.091 c 0.807,0 1.499,0.692 1.499,1.499 0,0.807 -0.692,1.499 -1.499,1.499 h -21.449 c -0.807,0 -1.499,-0.692 -1.499,-1.499 0,-0.807 0.692,-1.499 1.499,-1.499 z"
       fill="#320a8d"
       id="path8" />
    <path
       d="m 81.3819,481.554 c 0.8279,0 1.4991,-0.671 1.4991,-1.499 0,-0.828 -0.6712,-1.499 -1.4991,-1.499 -0.8279,0 -1.4991,0.671 -1.4991,1.499 0,0.828 0.6712,1.499 1.4991,1.499 z"
       fill="#320a8d"
       id="path9" />
    <path
       d="m 102.715,478.556 c 0.808,0 1.499,0.692 1.499,1.499 0,0.807 -0.691,1.499 -1.499,1.499 H 85.0723 c -0.8072,0 -1.4991,-0.692 -1.4991,-1.499 0,-0.807 0.6919,-1.499 1.4991,-1.499 z"
       fill="#320a8d"
       id="path10" />
    <path
       d="m 142.268,478.556 c 0.808,0 1.5,0.692 1.5,1.499 0,0.807 -0.692,1.499 -1.5,1.499 h -35.055 c -0.807,0 -1.499,-0.692 -1.499,-1.499 0,-0.807 0.692,-1.499 1.499,-1.499 z"
       fill="#320a8d"
       id="path11" />
    <path
       d="m 135.695,473.021 c 0.807,0 1.499,0.692 1.499,1.499 0,0.807 -0.692,1.499 -1.499,1.499 H 92.6827 c -0.8072,0 -1.4991,-0.692 -1.4991,-1.499 0,-0.807 0.6919,-1.499 1.4991,-1.499 z"
       fill="#320a8d"
       id="path12" />
    <path
       d="m 87.9551,476.019 c 0.828,0 1.4991,-0.671 1.4991,-1.499 0,-0.828 -0.6711,-1.499 -1.4991,-1.499 -0.8279,0 -1.499,0.671 -1.499,1.499 0,0.828 0.6711,1.499 1.499,1.499 z"
       fill="#320a8d"
       id="path13" />
    <path
       d="m 126.701,467.601 c 0.807,0 1.499,0.692 1.499,1.499 0,0.807 -0.692,1.499 -1.499,1.499 H 83.6885 c -0.8072,0 -1.499,-0.692 -1.499,-1.499 0,-0.807 0.6918,-1.499 1.499,-1.499 z"
       fill="#320a8d"
       id="path14" />
    <path
       d="m 78.4991,470.599 c 0.8279,0 1.4991,-0.671 1.4991,-1.499 0,-0.828 -0.6712,-1.499 -1.4991,-1.499 -0.8279,0 -1.4991,0.671 -1.4991,1.499 0,0.828 0.6712,1.499 1.4991,1.499 z"
       fill="#320a8d"
       id="path15" />
    <path
       d="m 87.9551,465.064 c 0.828,0 1.4991,-0.671 1.4991,-1.499 0,-0.828 -0.6711,-1.499 -1.4991,-1.499 -0.8279,0 -1.499,0.671 -1.499,1.499 0,0.828 0.6711,1.499 1.499,1.499 z"
       fill="#320a8d"
       id="path16" />
    <path
       d="m 139.846,462.066 c 0.807,0 1.499,0.692 1.499,1.499 0,0.807 -0.692,1.499 -1.499,1.499 H 93.0284 c -0.8072,0 -1.4991,-0.692 -1.4991,-1.499 0,-0.807 0.6919,-1.499 1.4991,-1.499 z"
       fill="#320a8d"
       id="path17" />
  </g>
</svg>
