<?xml version="1.0" encoding="UTF-8" standalone="no"?>
<svg
   width="67.764008"
   height="53"
   viewBox="0 0 67.764008 53"
   fill="none"
   version="1.1"
   id="svg36"
   sodipodi:docname="Frame 1707478232.svg"
   xmlns:inkscape="http://www.inkscape.org/namespaces/inkscape"
   xmlns:sodipodi="http://sodipodi.sourceforge.net/DTD/sodipodi-0.dtd"
   xmlns="http://www.w3.org/2000/svg"
   xmlns:svg="http://www.w3.org/2000/svg">
  <defs
     id="defs36" />
  <sodipodi:namedview
     id="namedview36"
     pagecolor="#505050"
     bordercolor="#eeeeee"
     borderopacity="1"
     inkscape:showpageshadow="0"
     inkscape:pageopacity="0"
     inkscape:pagecheckerboard="0"
     inkscape:deskcolor="#505050" />
  <g
     id="g40"
     inkscape:export-filename="g40.svg"
     inkscape:export-xdpi="96"
     inkscape:export-ydpi="96"
     transform="translate(-81,-745)">
    <path
       d="M 115.04,762.793 H 99.7835 c -0.6481,0 -1.1736,0.525 -1.1736,1.174 v 15.256 c 0,0.648 0.5255,1.174 1.1736,1.174 H 115.04 c 0.648,0 1.173,-0.526 1.173,-1.174 v -15.256 c 0,-0.649 -0.525,-1.174 -1.173,-1.174 z"
       fill="#320a8d"
       id="path28" />
    <path
       d="M 97.4298,745.189 H 82.1736 c -0.6481,0 -1.1736,0.526 -1.1736,1.174 v 15.256 c 0,0.648 0.5255,1.174 1.1736,1.174 h 15.2562 c 0.6484,0 1.1736,-0.526 1.1736,-1.174 v -15.256 c 0,-0.648 -0.5252,-1.174 -1.1736,-1.174 z"
       fill="#320a8d"
       id="path29" />
    <path
       d="m 132.638,745.189 h -15.257 c -0.648,0 -1.173,0.526 -1.173,1.174 v 15.256 c 0,0.648 0.525,1.174 1.173,1.174 h 15.257 c 0.648,0 1.173,-0.526 1.173,-1.174 v -15.256 c 0,-0.648 -0.525,-1.174 -1.173,-1.174 z"
       fill="#320a8d"
       id="path30" />
    <path
       d="M 97.4298,780.396 H 82.1736 c -0.6481,0 -1.1736,0.525 -1.1736,1.173 v 15.257 c 0,0.648 0.5255,1.173 1.1736,1.173 h 15.2562 c 0.6484,0 1.1736,-0.525 1.1736,-1.173 v -15.257 c 0,-0.648 -0.5252,-1.173 -1.1736,-1.173 z"
       fill="#320a8d"
       id="path31" />
    <path
       d="m 132.638,780.396 h -15.257 c -0.648,0 -1.173,0.525 -1.173,1.173 v 15.257 c 0,0.648 0.525,1.173 1.173,1.173 h 15.257 c 0.648,0 1.173,-0.525 1.173,-1.173 v -15.257 c 0,-0.648 -0.525,-1.173 -1.173,-1.173 z"
       fill="#320a8d"
       id="path32" />
    <path
       d="m 136.65,745 h 5.3 c 0.523,0 0.946,0.424 0.946,0.946 v 15.9 c 0,0.523 -0.423,0.947 -0.946,0.947 h -5.3 z"
       fill="#320a8d"
       id="path33" />
    <path
       d="m 136.65,780.207 h 5.3 c 0.523,0 0.946,0.424 0.946,0.947 v 15.9 c 0,0.522 -0.423,0.946 -0.946,0.946 h -5.3 z"
       fill="#320a8d"
       id="path34" />
    <path
       d="m 145.735,745 h 2.082 c 0.523,0 0.947,0.424 0.947,0.946 v 15.9 c 0,0.523 -0.424,0.947 -0.947,0.947 h -2.082 z"
       fill="#320a8d"
       id="path35" />
    <path
       d="m 145.735,780.207 h 2.082 c 0.523,0 0.947,0.424 0.947,0.947 v 15.9 c 0,0.522 -0.424,0.946 -0.947,0.946 h -2.082 z"
       fill="#320a8d"
       id="path36" />
  </g>
</svg>
