<svg width="24" height="24" viewBox="0 0 24 24" fill="none" xmlns="http://www.w3.org/2000/svg">
<path opacity="0.8" d="M18.5591 5.9689C17.2645 5.34291 15.8802 4.88796 14.4329 4.62891C14.2552 4.961 14.0476 5.40768 13.9044 5.763C12.3659 5.5239 10.8416 5.5239 9.33149 5.763C9.18835 5.40768 8.97598 4.961 8.79666 4.62891C7.34786 4.88796 5.96198 5.34458 4.66735 5.97222C2.05606 10.0503 1.34818 14.027 1.70212 17.9473C3.43406 19.284 5.11253 20.0959 6.76267 20.6273C7.1701 20.0478 7.53347 19.4317 7.8465 18.7825C7.25031 18.5484 6.6793 18.2595 6.13975 17.9241C6.28289 17.8145 6.4229 17.6999 6.55817 17.582C9.84902 19.1727 13.4246 19.1727 16.6761 17.582C16.813 17.6999 16.953 17.8145 17.0946 17.9241C16.5534 18.2611 15.9808 18.55 15.3847 18.7842C15.6977 19.4317 16.0595 20.0494 16.4685 20.6289C18.1202 20.0976 19.8002 19.2856 21.5322 17.9473C21.9475 13.4027 20.8227 9.46246 18.5591 5.9689ZM8.29483 15.5364C7.30696 15.5364 6.49681 14.5833 6.49681 13.4226C6.49681 12.262 7.28966 11.3072 8.29483 11.3072C9.30004 11.3072 10.1102 12.2603 10.0929 13.4226C10.0944 14.5833 9.30004 15.5364 8.29483 15.5364ZM14.9395 15.5364C13.9516 15.5364 13.1415 14.5833 13.1415 13.4226C13.1415 12.262 13.9343 11.3072 14.9395 11.3072C15.9447 11.3072 16.7548 12.2603 16.7375 13.4226C16.7375 14.5833 15.9447 15.5364 14.9395 15.5364Z" fill="#858EC6"/>
</svg>
