<svg width="128" height="129" viewBox="0 0 128 129" fill="none" xmlns="http://www.w3.org/2000/svg">
<g filter="url(#filter0_d_1708_5805)">
<circle cx="64.0005" cy="41.9985" r="33.8462" fill="url(#paint0_radial_1708_5805)"/>
<circle cx="64.0005" cy="41.9985" r="31.9658" stroke="url(#paint1_linear_1708_5805)" stroke-width="3.76068"/>
</g>
<path d="M51.416 44.9359C51.416 36.8877 58.1509 30.3633 66.4587 30.3633C74.7666 30.3633 81.5015 36.8877 81.5015 44.9359C81.5015 52.9842 74.7666 59.5086 66.4587 59.5086C58.1509 59.5086 51.416 52.9842 51.416 44.9359Z" fill="url(#paint2_linear_1708_5805)"/>
<path fill-rule="evenodd" clip-rule="evenodd" d="M64.1861 58.0149C72.426 58.0149 79.1057 51.3308 79.1057 43.0856C79.1057 34.8403 72.426 28.1562 64.1861 28.1562C55.9463 28.1562 49.2666 34.8403 49.2666 43.0856C49.2666 51.3308 55.9463 58.0149 64.1861 58.0149ZM80.5266 43.0856C80.5266 52.1161 73.2107 59.4368 64.1861 59.4368C55.1616 59.4368 47.8457 52.1161 47.8457 43.0856C47.8457 34.0551 55.1616 26.7344 64.1861 26.7344C73.2107 26.7344 80.5266 34.0551 80.5266 43.0856Z" fill="#320A8D"/>
<path fill-rule="evenodd" clip-rule="evenodd" d="M64.1856 53.0386C69.6788 53.0386 74.132 48.5825 74.132 43.0857C74.132 37.5888 69.6788 33.1328 64.1856 33.1328C58.6924 33.1328 54.2393 37.5888 54.2393 43.0857C54.2393 48.5825 58.6924 53.0386 64.1856 53.0386ZM75.5529 43.0857C75.5529 49.3678 70.4636 54.4604 64.1856 54.4604C57.9076 54.4604 52.8184 49.3678 52.8184 43.0857C52.8184 36.8036 57.9076 31.7109 64.1856 31.7109C70.4636 31.7109 75.5529 36.8036 75.5529 43.0857Z" fill="#320A8D"/>
<path fill-rule="evenodd" clip-rule="evenodd" d="M67.1478 37.086C66.8758 36.9966 66.6039 36.9071 66.3393 36.8177C66.0068 36.6984 65.6818 37.0339 65.697 37.4736C65.7272 38.3084 65.7574 39.1357 65.7876 39.9705C65.7952 40.2463 65.6591 40.4998 65.4475 40.6041C65.0245 40.8053 64.5937 40.9992 64.1629 41.193C63.7321 41.0067 63.3015 40.8053 62.8783 40.6041C62.6591 40.4998 62.5307 40.2463 62.5383 39.9705C62.5685 39.1357 62.5987 38.3084 62.6289 37.4736C62.6441 37.0264 62.3191 36.6984 61.9866 36.8177C61.7145 36.9071 61.4501 37.0041 61.1781 37.086C60.9589 37.1606 60.7927 37.3991 60.77 37.6897C60.6944 38.6737 60.6113 39.6575 60.5357 40.6339C60.513 40.9097 60.6415 41.1632 60.8531 41.2749C61.3292 41.5209 61.2839 42.3259 60.7624 42.5122C60.5282 42.5943 60.3543 42.8253 60.3316 43.101C60.2108 44.5992 60.0898 46.1049 59.9689 47.6031C59.9462 47.8938 60.1049 48.1621 60.377 48.2665C60.7019 48.3931 61.0345 48.5199 61.367 48.6466C61.7826 48.8031 62.2284 48.4975 62.2435 48.0503C62.2888 46.7012 62.3417 45.3521 62.3871 43.9955C62.3946 43.7198 62.561 43.4813 62.7952 43.3918C63.2562 43.2129 63.7096 43.034 64.1629 42.8402C64.6163 43.0266 65.0697 43.2129 65.5307 43.3918C65.7649 43.4813 65.9313 43.7198 65.9388 43.9955C65.9842 45.3447 66.037 46.6937 66.0824 48.0503C66.0975 48.4975 66.5433 48.7956 66.9589 48.6466C67.2914 48.5199 67.624 48.3931 67.9489 48.2665C68.2134 48.1621 68.3797 47.8938 68.357 47.6031C68.2361 46.1049 68.1151 44.5992 67.9943 43.101C67.9716 42.8253 67.8054 42.5943 67.5635 42.5122C67.042 42.3334 66.9967 41.5209 67.4728 41.2749C67.6919 41.1632 67.8129 40.9023 67.7902 40.6339C67.7146 39.6501 67.6315 38.6662 67.5559 37.6897C67.5332 37.3991 67.367 37.1531 67.1478 37.086Z" fill="#320A8D"/>
<defs>
<filter id="filter0_d_1708_5805" x="0.0688267" y="0.630976" width="127.862" height="127.862" filterUnits="userSpaceOnUse" color-interpolation-filters="sRGB">
<feFlood flood-opacity="0" result="BackgroundImageFix"/>
<feColorMatrix in="SourceAlpha" type="matrix" values="0 0 0 0 0 0 0 0 0 0 0 0 0 0 0 0 0 0 127 0" result="hardAlpha"/>
<feOffset dy="22.5641"/>
<feGaussianBlur stdDeviation="15.0427"/>
<feComposite in2="hardAlpha" operator="out"/>
<feColorMatrix type="matrix" values="0 0 0 0 0.0486111 0 0 0 0 0.127083 0 0 0 0 0.833333 0 0 0 0.06 0"/>
<feBlend mode="normal" in2="BackgroundImageFix" result="effect1_dropShadow_1708_5805"/>
<feBlend mode="normal" in="SourceGraphic" in2="effect1_dropShadow_1708_5805" result="shape"/>
</filter>
<radialGradient id="paint0_radial_1708_5805" cx="0" cy="0" r="1" gradientUnits="userSpaceOnUse" gradientTransform="translate(64.0005 19.116) rotate(90) scale(56.7287)">
<stop stop-color="#F0F0FF"/>
<stop stop-color="#F1F1FD"/>
<stop offset="0.703125" stop-color="white"/>
</radialGradient>
<linearGradient id="paint1_linear_1708_5805" x1="104.54" y1="75.8446" x2="109.636" y2="53.3934" gradientUnits="userSpaceOnUse">
<stop stop-color="#F7F8FD"/>
<stop offset="1" stop-color="white"/>
</linearGradient>
<linearGradient id="paint2_linear_1708_5805" x1="51.416" y1="36.0656" x2="73.2157" y2="60.1991" gradientUnits="userSpaceOnUse">
<stop stop-color="#244CB3" stop-opacity="0.34"/>
<stop offset="1" stop-color="#B4C2E5" stop-opacity="0.07"/>
</linearGradient>
</defs>
</svg>
