<svg width="110" height="125" viewBox="0 0 110 125" fill="none" xmlns="http://www.w3.org/2000/svg">
<g clip-path="url(#clip0_204_2)">
<path d="M123 0H-13V136H123V0Z" fill="#E8E8E8"/>
<mask id="mask0_204_2" style="mask-type:luminance" maskUnits="userSpaceOnUse" x="-337" y="-390" width="1920" height="1043">
<path d="M1583 -390H-337V653H1583V-390Z" fill="white"/>
</mask>
<g mask="url(#mask0_204_2)">
<path d="M1583 -390H-337V653H1583V-390Z" fill="white"/>
<g filter="url(#filter0_d_204_2)">
<path d="M55 80C74.8823 80 91 63.8823 91 44C91 24.1177 74.8823 8 55 8C35.1177 8 19 24.1177 19 44C19 63.8823 35.1177 80 55 80Z" fill="url(#paint0_radial_204_2)"/>
<path d="M55 78C73.7777 78 89 62.7777 89 44C89 25.2223 73.7777 10 55 10C36.2223 10 21 25.2223 21 44C21 62.7777 36.2223 78 55 78Z" stroke="url(#paint1_linear_204_2)" stroke-width="4"/>
</g>
<path d="M45.7773 56.4385C45.7773 50.29 50.7617 45.3057 56.9102 45.3057H61.8676C68.0162 45.3057 73.0005 50.29 73.0005 56.4385C73.0005 57.4633 72.1698 58.294 71.145 58.294H47.6328C46.6081 58.294 45.7773 57.4633 45.7773 56.4385Z" fill="url(#paint2_linear_204_2)"/>
<path d="M51.585 34.5147C51.585 31.0332 54.4072 28.2109 57.8887 28.2109C61.3702 28.2109 64.1924 31.0332 64.1924 34.5147V34.8955C64.1924 38.377 61.3702 41.1993 57.8887 41.1993C54.4072 41.1993 51.585 38.377 51.585 34.8955V34.5147Z" fill="url(#paint3_linear_204_2)"/>
<path fill-rule="evenodd" clip-rule="evenodd" d="M60.2963 31.9665C60.2963 34.9138 57.907 37.3031 54.9597 37.3031C52.0123 37.3031 49.6231 34.9138 49.6231 31.9665C49.6231 29.0192 52.0123 26.6299 54.9597 26.6299C57.907 26.6299 60.2963 29.0192 60.2963 31.9665ZM61.5951 31.9665C61.5951 35.6311 58.6243 38.6019 54.9597 38.6019C51.295 38.6019 48.3242 35.6311 48.3242 31.9665C48.3242 28.3018 51.295 25.3311 54.9597 25.3311C58.6243 25.3311 61.5951 28.3018 61.5951 31.9665ZM42.1931 54.1856H44.7753H53.5423H64.8919C64.5801 47.6296 59.5746 42.4961 53.5425 42.4961C47.5105 42.4961 42.5049 47.6296 42.1931 54.1856ZM40.8789 55.4844H44.7753H53.5425H66.2062H69.4531V54.835C69.4531 47.262 62.6257 41.1973 55.1659 41.1973H53.5425H52.9127V41.2138C46.1695 41.5678 40.8789 47.5762 40.8789 54.835V55.4844ZM68.1353 54.1856H66.192C66.0121 50.0688 64.1306 46.4065 61.2711 44.0289C65.0864 46.0388 67.8809 49.8261 68.1353 54.1856Z" fill="#320A8D"/>
<g filter="url(#filter1_d_204_2)">
</g>
</g>
<g clip-path="url(#clip1_204_2)">
<g filter="url(#filter2_d_204_2)">
<path d="M55 80C74.8823 80 91 63.8823 91 44C91 24.1177 74.8823 8 55 8C35.1177 8 19 24.1177 19 44C19 63.8823 35.1177 80 55 80Z" fill="url(#paint4_radial_204_2)"/>
<path d="M55 77C73.2254 77 88 62.2254 88 44C88 25.7746 73.2254 11 55 11C36.7746 11 22 25.7746 22 44C22 62.2254 36.7746 77 55 77Z" stroke="url(#paint5_linear_204_2)" stroke-width="6"/>
</g>
<path d="M41.2578 49.0762C41.2578 40.5158 48.4213 33.5762 57.2578 33.5762C66.0944 33.5762 73.2578 40.5158 73.2578 49.0762C73.2578 57.6366 66.0944 64.5762 57.2578 64.5762C48.4213 64.5762 41.2578 57.6366 41.2578 49.0762Z" fill="url(#paint6_linear_204_2)"/>
<path fill-rule="evenodd" clip-rule="evenodd" d="M52.2396 57.0434C60.1095 57.0434 66.4893 50.5143 66.4893 42.4603C66.4893 34.4062 60.1095 27.8771 52.2396 27.8771C44.3697 27.8771 37.9899 34.4062 37.9899 42.4603C37.9899 50.5143 44.3697 57.0434 52.2396 57.0434ZM67.8464 42.4603C67.8464 51.2814 60.859 58.4323 52.2396 58.4323C43.6202 58.4323 36.6328 51.2814 36.6328 42.4603C36.6328 33.6392 43.6202 26.4883 52.2396 26.4883C60.859 26.4883 67.8464 33.6392 67.8464 42.4603Z" fill="#320A8D"/>
<path fill-rule="evenodd" clip-rule="evenodd" d="M52.2397 52.1821C57.4863 52.1821 61.7395 47.8294 61.7395 42.4601C61.7395 37.0907 57.4863 32.738 52.2397 32.738C46.9931 32.738 42.7399 37.0907 42.7399 42.4601C42.7399 47.8294 46.9931 52.1821 52.2397 52.1821ZM63.0966 42.4601C63.0966 48.5965 58.2358 53.571 52.2397 53.571C46.2436 53.571 41.3828 48.5965 41.3828 42.4601C41.3828 36.3237 46.2436 31.3491 52.2397 31.3491C58.2358 31.3491 63.0966 36.3237 63.0966 42.4601Z" fill="#320A8D"/>
<path fill-rule="evenodd" clip-rule="evenodd" d="M55.0686 36.6066C54.8088 36.5192 54.549 36.4318 54.2963 36.3444C53.9788 36.228 53.6684 36.5556 53.6829 36.9852C53.7117 37.8006 53.7406 38.6088 53.7694 39.4242C53.7767 39.6936 53.6467 39.9412 53.4446 40.0431C53.0405 40.2396 52.6291 40.429 52.2177 40.6183C51.8062 40.4363 51.3949 40.2396 50.9907 40.0431C50.7814 39.9412 50.6587 39.6936 50.666 39.4242C50.6948 38.6088 50.7237 37.8006 50.7525 36.9852C50.7671 36.5483 50.4567 36.228 50.1391 36.3444C49.8792 36.4318 49.6266 36.5265 49.3669 36.6066C49.1575 36.6794 48.9988 36.9124 48.9771 37.1963C48.9049 38.1574 48.8255 39.1184 48.7533 40.0722C48.7317 40.3416 48.8544 40.5892 49.0565 40.6983C49.5112 40.9386 49.4679 41.7249 48.9698 41.9069C48.7462 41.9871 48.5801 42.2127 48.5584 42.4821C48.443 43.9455 48.3275 45.4163 48.212 46.8797C48.1903 47.1637 48.3419 47.4258 48.6018 47.5277C48.9121 47.6514 49.2297 47.7752 49.5473 47.899C49.9443 48.0519 50.37 47.7534 50.3845 47.3166C50.4277 45.9988 50.4782 44.6809 50.5216 43.3558C50.5288 43.0865 50.6877 42.8535 50.9114 42.7661C51.3516 42.5914 51.7848 42.4166 52.2177 42.2273C52.6507 42.4094 53.0838 42.5914 53.5241 42.7661C53.7477 42.8535 53.9067 43.0865 53.9138 43.3558C53.9572 44.6737 54.0076 45.9915 54.051 47.3166C54.0654 47.7534 54.4912 48.0446 54.8882 47.899C55.2057 47.7752 55.5234 47.6514 55.8337 47.5277C56.0863 47.4258 56.2451 47.1637 56.2234 46.8797C56.108 45.4163 55.9924 43.9455 55.877 42.4821C55.8553 42.2127 55.6966 41.9871 55.4656 41.9069C54.9675 41.7323 54.9243 40.9386 55.379 40.6983C55.5882 40.5892 55.7038 40.3343 55.6821 40.0722C55.6099 39.1112 55.5305 38.1501 55.4583 37.1963C55.4367 36.9124 55.2779 36.6721 55.0686 36.6066Z" fill="#320A8D"/>
</g>
</g>
<defs>
<filter id="filter0_d_204_2" x="-13" y="0" width="136" height="136" filterUnits="userSpaceOnUse" color-interpolation-filters="sRGB">
<feFlood flood-opacity="0" result="BackgroundImageFix"/>
<feColorMatrix in="SourceAlpha" type="matrix" values="0 0 0 0 0 0 0 0 0 0 0 0 0 0 0 0 0 0 127 0" result="hardAlpha"/>
<feOffset dy="24"/>
<feGaussianBlur stdDeviation="16"/>
<feComposite in2="hardAlpha" operator="out"/>
<feColorMatrix type="matrix" values="0 0 0 0 0.0486111 0 0 0 0 0.127083 0 0 0 0 0.833333 0 0 0 0.06 0"/>
<feBlend mode="normal" in2="BackgroundImageFix" result="effect1_dropShadow_204_2"/>
<feBlend mode="normal" in="SourceGraphic" in2="effect1_dropShadow_204_2" result="shape"/>
</filter>
<filter id="filter1_d_204_2" x="107" y="0" width="136" height="136" filterUnits="userSpaceOnUse" color-interpolation-filters="sRGB">
<feFlood flood-opacity="0" result="BackgroundImageFix"/>
<feColorMatrix in="SourceAlpha" type="matrix" values="0 0 0 0 0 0 0 0 0 0 0 0 0 0 0 0 0 0 127 0" result="hardAlpha"/>
<feOffset dy="24"/>
<feGaussianBlur stdDeviation="16"/>
<feComposite in2="hardAlpha" operator="out"/>
<feColorMatrix type="matrix" values="0 0 0 0 0.0486111 0 0 0 0 0.127083 0 0 0 0 0.833333 0 0 0 0.06 0"/>
<feBlend mode="normal" in2="BackgroundImageFix" result="effect1_dropShadow_204_2"/>
<feBlend mode="normal" in="SourceGraphic" in2="effect1_dropShadow_204_2" result="shape"/>
</filter>
<filter id="filter2_d_204_2" x="-13" y="0" width="136" height="136" filterUnits="userSpaceOnUse" color-interpolation-filters="sRGB">
<feFlood flood-opacity="0" result="BackgroundImageFix"/>
<feColorMatrix in="SourceAlpha" type="matrix" values="0 0 0 0 0 0 0 0 0 0 0 0 0 0 0 0 0 0 127 0" result="hardAlpha"/>
<feOffset dy="24"/>
<feGaussianBlur stdDeviation="16"/>
<feComposite in2="hardAlpha" operator="out"/>
<feColorMatrix type="matrix" values="0 0 0 0 0.0486111 0 0 0 0 0.127083 0 0 0 0 0.833333 0 0 0 0.06 0"/>
<feBlend mode="normal" in2="BackgroundImageFix" result="effect1_dropShadow_204_2"/>
<feBlend mode="normal" in="SourceGraphic" in2="effect1_dropShadow_204_2" result="shape"/>
</filter>
<radialGradient id="paint0_radial_204_2" cx="0" cy="0" r="1" gradientUnits="userSpaceOnUse" gradientTransform="translate(55 19.6613) rotate(90) scale(60.3387)">
<stop stop-color="#F1F1FD"/>
<stop offset="0.703125" stop-color="white"/>
</radialGradient>
<linearGradient id="paint1_linear_204_2" x1="98.119" y1="80" x2="103.54" y2="56.1201" gradientUnits="userSpaceOnUse">
<stop stop-color="#F7F8FD"/>
<stop offset="1" stop-color="white"/>
</linearGradient>
<linearGradient id="paint2_linear_204_2" x1="50.5981" y1="45.3057" x2="65.083" y2="65.5363" gradientUnits="userSpaceOnUse">
<stop stop-color="#244CB3" stop-opacity="0.2"/>
<stop offset="1" stop-color="#B4C2E5" stop-opacity="0.07"/>
</linearGradient>
<linearGradient id="paint3_linear_204_2" x1="53.8175" y1="28.2109" x2="67.7728" y2="37.2375" gradientUnits="userSpaceOnUse">
<stop stop-color="#244CB3" stop-opacity="0.2"/>
<stop offset="1" stop-color="#B4C2E5" stop-opacity="0.07"/>
</linearGradient>
<radialGradient id="paint4_radial_204_2" cx="0" cy="0" r="1" gradientUnits="userSpaceOnUse" gradientTransform="translate(55 19.6613) rotate(90) scale(60.3387)">
<stop stop-color="#F1F1FD"/>
<stop offset="0.703125" stop-color="white"/>
</radialGradient>
<linearGradient id="paint5_linear_204_2" x1="98.119" y1="80" x2="103.54" y2="56.1201" gradientUnits="userSpaceOnUse">
<stop stop-color="#F7F8FD"/>
<stop offset="1" stop-color="white"/>
</linearGradient>
<linearGradient id="paint6_linear_204_2" x1="41.2578" y1="39.6414" x2="64.4447" y2="65.3107" gradientUnits="userSpaceOnUse">
<stop stop-color="#244CB3" stop-opacity="0.34"/>
<stop offset="1" stop-color="#B4C2E5" stop-opacity="0.07"/>
</linearGradient>
<clipPath id="clip0_204_2">
<rect width="136" height="136" fill="white" transform="translate(-13)"/>
</clipPath>
<clipPath id="clip1_204_2">
<rect width="136" height="136" fill="white" transform="translate(-13)"/>
</clipPath>
</defs>
</svg>
