<svg width="80" height="80" viewBox="0 0 80 80" fill="none" xmlns="http://www.w3.org/2000/svg">
<g filter="url(#filter0_d_166_933)">
<path d="M73.8462 40.0005C73.8462 58.6932 58.6927 73.8466 40 73.8466C21.3073 73.8466 6.15385 58.6932 6.15385 40.0005C6.15385 21.3077 21.3073 6.1543 40 6.1543C58.6927 6.1543 73.8462 21.3077 73.8462 40.0005Z" fill="url(#paint0_radial_166_933)"/>
</g>
<path fill-rule="evenodd" clip-rule="evenodd" d="M40 69.6727C56.3875 69.6727 69.6722 56.388 69.6722 40.0005C69.6722 23.6129 56.3875 10.3282 40 10.3282C23.6125 10.3282 10.3278 23.6129 10.3278 40.0005C10.3278 56.388 23.6125 69.6727 40 69.6727ZM40 73.8466C58.6927 73.8466 73.8462 58.6932 73.8462 40.0005C73.8462 21.3077 58.6927 6.1543 40 6.1543C21.3073 6.1543 6.15385 21.3077 6.15385 40.0005C6.15385 58.6932 21.3073 73.8466 40 73.8466Z" fill="url(#paint1_linear_166_933)"/>
<path d="M27.9758 41.7473C27.9758 34.1749 34.3167 28.0361 42.1386 28.0361C49.9606 28.0361 56.3015 34.1749 56.3015 41.7473C56.3015 49.3198 49.9606 55.4586 42.1386 55.4586C34.3167 55.4586 27.9758 49.3198 27.9758 41.7473Z" fill="url(#paint2_linear_166_933)"/>
<path fill-rule="evenodd" clip-rule="evenodd" d="M40 54.0477C47.7579 54.0477 54.0468 47.7587 54.0468 40.0008C54.0468 32.243 47.7579 25.954 40 25.954C32.2422 25.954 25.9532 32.243 25.9532 40.0008C25.9532 47.7587 32.2422 54.0477 40 54.0477ZM55.3846 40.0008C55.3846 48.4975 48.4967 55.3854 40 55.3854C31.5033 55.3854 24.6154 48.4975 24.6154 40.0008C24.6154 31.5041 31.5033 24.6162 40 24.6162C48.4967 24.6162 55.3846 31.5041 55.3846 40.0008Z" fill="#320A8D"/>
<path fill-rule="evenodd" clip-rule="evenodd" d="M40.0002 49.3647C45.1721 49.3647 49.3647 45.1721 49.3647 40.0002C49.3647 34.8283 45.1721 30.6356 40.0002 30.6356C34.8283 30.6356 30.6357 34.8283 30.6357 40.0002C30.6357 45.1721 34.8283 49.3647 40.0002 49.3647ZM50.7025 40.0002C50.7025 45.9109 45.9109 50.7025 40.0002 50.7025C34.0895 50.7025 29.2979 45.9109 29.2979 40.0002C29.2979 34.0895 34.0895 29.2979 40.0002 29.2979C45.9109 29.2979 50.7025 34.0895 50.7025 40.0002Z" fill="#320A8D"/>
<path fill-rule="evenodd" clip-rule="evenodd" d="M42.7889 34.3636C42.5328 34.2795 42.2768 34.1953 42.0277 34.1111C41.7146 33.9989 41.4086 34.3145 41.423 34.7283C41.4514 35.5138 41.4798 36.2922 41.5083 37.0776C41.5154 37.3371 41.3873 37.5756 41.1881 37.6738C40.7897 37.8631 40.3842 38.0454 39.9786 38.2278C39.573 38.0525 39.1675 37.8631 38.7691 37.6738C38.5627 37.5756 38.4419 37.3371 38.449 37.0776C38.4774 36.2922 38.5059 35.5138 38.5343 34.7283C38.5486 34.3075 38.2426 33.9989 37.9296 34.1111C37.6734 34.1953 37.4244 34.2865 37.1684 34.3636C36.962 34.4338 36.8055 34.6582 36.7841 34.9316C36.713 35.8574 36.6347 36.7831 36.5636 37.7018C36.5422 37.9613 36.6632 38.1998 36.8624 38.3049C37.3106 38.5363 37.268 39.2938 36.777 39.4691C36.5565 39.5463 36.3928 39.7636 36.3714 40.0231C36.2577 41.4327 36.1438 42.8494 36.0299 44.259C36.0086 44.5325 36.158 44.785 36.4142 44.8832C36.72 45.0023 37.0332 45.1216 37.3462 45.2408C37.7376 45.3881 38.1573 45.1005 38.1715 44.6797C38.2141 43.4104 38.2639 42.141 38.3067 40.8647C38.3137 40.6052 38.4704 40.3808 38.6909 40.2967C39.1249 40.1283 39.5518 39.96 39.9786 39.7776C40.4054 39.953 40.8324 40.1283 41.2664 40.2967C41.4869 40.3808 41.6435 40.6052 41.6506 40.8647C41.6933 42.1341 41.7431 43.4034 41.7858 44.6797C41.8 45.1005 42.2197 45.381 42.6111 45.2408C42.9241 45.1216 43.2372 45.0023 43.5431 44.8832C43.7921 44.785 43.9487 44.5325 43.9273 44.259C43.8135 42.8494 43.6996 41.4327 43.5859 40.0231C43.5645 39.7636 43.408 39.5463 43.1803 39.4691C42.6893 39.3008 42.6467 38.5363 43.0949 38.3049C43.3012 38.1998 43.4151 37.9543 43.3937 37.7018C43.3225 36.7761 43.2443 35.8504 43.1731 34.9316C43.1517 34.6582 42.9953 34.4267 42.7889 34.3636Z" fill="#320A8D"/>
<defs>
<filter id="filter0_d_166_933" x="5.15385" y="5.1543" width="69.6923" height="69.6924" filterUnits="userSpaceOnUse" color-interpolation-filters="sRGB">
<feFlood flood-opacity="0" result="BackgroundImageFix"/>
<feColorMatrix in="SourceAlpha" type="matrix" values="0 0 0 0 0 0 0 0 0 0 0 0 0 0 0 0 0 0 127 0" result="hardAlpha"/>
<feMorphology radius="1" operator="dilate" in="SourceAlpha" result="effect1_dropShadow_166_933"/>
<feOffset/>
<feColorMatrix type="matrix" values="0 0 0 0 0.913725 0 0 0 0 0.921569 0 0 0 0 0.980392 0 0 0 1 0"/>
<feBlend mode="normal" in2="BackgroundImageFix" result="effect1_dropShadow_166_933"/>
<feBlend mode="normal" in="SourceGraphic" in2="effect1_dropShadow_166_933" result="shape"/>
</filter>
<radialGradient id="paint0_radial_166_933" cx="0" cy="0" r="1" gradientUnits="userSpaceOnUse" gradientTransform="translate(40 17.1179) rotate(90) scale(56.7287)">
<stop stop-color="#F0F0FF"/>
<stop stop-color="#F1F1FD"/>
<stop offset="0.703125" stop-color="white"/>
</radialGradient>
<linearGradient id="paint1_linear_166_933" x1="80.5396" y1="73.8466" x2="85.6358" y2="51.3954" gradientUnits="userSpaceOnUse">
<stop stop-color="#F7F8FD"/>
<stop offset="1" stop-color="white"/>
</linearGradient>
<linearGradient id="paint2_linear_166_933" x1="27.9758" y1="33.4014" x2="48.4854" y2="56.1217" gradientUnits="userSpaceOnUse">
<stop stop-color="#244CB3" stop-opacity="0.34"/>
<stop offset="1" stop-color="#B4C2E5" stop-opacity="0.07"/>
</linearGradient>
</defs>
</svg>
