<svg width="266" height="111" viewBox="0 0 266 111" fill="none" xmlns="http://www.w3.org/2000/svg">
<g filter="url(#filter0_d_1392_23580)">
<path d="M79.8466 32.9985C79.8466 46.7206 68.7226 57.8447 55.0005 57.8447C41.2783 57.8447 30.1543 46.7206 30.1543 32.9985C30.1543 19.2763 41.2783 8.15234 55.0005 8.15234C68.7226 8.15234 79.8466 19.2763 79.8466 32.9985Z" fill="url(#paint0_radial_1392_23580)"/>
</g>
<g filter="url(#filter1_d_1392_23580)">
<path fill-rule="evenodd" clip-rule="evenodd" d="M55.0005 54.7806C67.0304 54.7806 76.7826 45.0284 76.7826 32.9985C76.7826 20.9686 67.0304 11.2164 55.0005 11.2164C42.9705 11.2164 33.2183 20.9686 33.2183 32.9985C33.2183 45.0284 42.9705 54.7806 55.0005 54.7806ZM55.0005 57.8447C68.7226 57.8447 79.8466 46.7206 79.8466 32.9985C79.8466 19.2763 68.7226 8.15234 55.0005 8.15234C41.2783 8.15234 30.1543 19.2763 30.1543 32.9985C30.1543 46.7206 41.2783 57.8447 55.0005 57.8447Z" fill="url(#paint1_linear_1392_23580)"/>
</g>
<path d="M46.5029 30.7652C46.5029 29.814 47.274 29.043 48.2252 29.043H66.3088C67.26 29.043 68.0311 29.814 68.0311 30.7652V40.6682C68.0311 41.6193 67.26 42.3904 66.3088 42.3904H48.2252C47.274 42.3904 46.5029 41.6193 46.5029 40.6682V30.7652Z" fill="url(#paint2_linear_1392_23580)"/>
<path fill-rule="evenodd" clip-rule="evenodd" d="M52.0127 30.1649C52.0127 29.9271 52.2055 29.7344 52.4433 29.7344H53.9933C54.2311 29.7344 54.4238 29.9271 54.4238 30.1649C54.4238 30.4027 54.2311 30.5955 53.9933 30.5955H52.4433C52.2055 30.5955 52.0127 30.4027 52.0127 30.1649Z" fill="#320A8D"/>
<path fill-rule="evenodd" clip-rule="evenodd" d="M43.9187 29.2159L43.9187 36.7938C43.9187 38.2205 45.0754 39.3772 46.5021 39.3772L59.9357 39.3772C61.3624 39.3772 62.5191 38.2205 62.5191 36.7938L62.5191 29.2159C62.5191 27.7891 61.3624 26.6325 59.9357 26.6325L46.5021 26.6325C45.0754 26.6325 43.9187 27.7891 43.9187 29.2159ZM43.0576 36.7938C43.0576 38.6961 44.5998 40.2383 46.5021 40.2383L59.9357 40.2383C61.838 40.2383 63.3802 38.6961 63.3802 36.7938L63.3802 29.2159C63.3802 27.3135 61.838 25.7714 59.9357 25.7714L46.5021 25.7714C44.5998 25.7714 43.0576 27.3135 43.0576 29.2159L43.0576 36.7938Z" fill="#320A8D"/>
<path fill-rule="evenodd" clip-rule="evenodd" d="M43.9187 29.2159L43.9187 36.7938C43.9187 38.2205 45.0754 39.3772 46.5021 39.3772L62.3468 39.3772C63.7736 39.3772 64.9302 38.2205 64.9302 36.7938L64.9302 29.2159C64.9302 27.7891 63.7736 26.6325 62.3468 26.6325L46.5021 26.6325C45.0754 26.6325 43.9187 27.7891 43.9187 29.2159ZM43.0576 36.7938C43.0576 38.6961 44.5998 40.2383 46.5021 40.2383L62.3468 40.2383C64.2492 40.2383 65.7913 38.6961 65.7913 36.7938L65.7913 29.2159C65.7913 27.3135 64.2492 25.7714 62.3468 25.7714L46.5021 25.7714C44.5998 25.7714 43.0576 27.3135 43.0576 29.2159L43.0576 36.7938Z" fill="#320A8D"/>
<path fill-rule="evenodd" clip-rule="evenodd" d="M51.078 22.5866H55.5869C55.874 22.5794 56.1596 22.6285 56.4277 22.7312C56.6978 22.8346 56.9449 22.9905 57.1546 23.1897C57.3643 23.3889 57.5327 23.6275 57.6499 23.892C57.7671 24.1565 57.8308 24.4415 57.8376 24.7306L57.8377 24.7356V25.9101H56.9766V24.746C56.9719 24.5717 56.9332 24.4002 56.8626 24.2409C56.7914 24.0802 56.6891 23.9351 56.5616 23.814C56.4341 23.693 56.2839 23.5982 56.1197 23.5354C55.9555 23.4725 55.7805 23.4426 55.6048 23.4476L55.5987 23.4478H51.0662L51.0601 23.4476C50.8844 23.4426 50.7094 23.4725 50.5452 23.5354C50.381 23.5982 50.2309 23.693 50.1034 23.814C49.9759 23.9351 49.8736 24.0802 49.8023 24.2409C49.7317 24.4003 49.6929 24.5719 49.6883 24.746V25.8609H48.8271V24.7356L48.8273 24.7306C48.834 24.4414 48.8979 24.1564 49.0151 23.892C49.1323 23.6275 49.3006 23.3889 49.5103 23.1897C49.7201 22.9905 49.9671 22.8346 50.2373 22.7312C50.5054 22.6285 50.791 22.5794 51.078 22.5866Z" fill="#320A8D"/>
<path fill-rule="evenodd" clip-rule="evenodd" d="M43.3477 28.7137C43.4351 28.4926 43.6853 28.3842 43.9064 28.4717L51.4293 31.4466C52.65 31.9294 54.0087 31.9294 55.2294 31.4466L62.5345 28.5578C62.7556 28.4704 63.0058 28.5787 63.0932 28.7999C63.1807 29.021 63.0723 29.2711 62.8512 29.3586L55.546 32.2474C54.1219 32.8106 52.5368 32.8106 51.1126 32.2474L43.5897 29.2725C43.3686 29.185 43.2602 28.9349 43.3477 28.7137Z" fill="#320A8D"/>
<g filter="url(#filter2_d_1392_23580)">
<circle cx="134" cy="31.9985" r="23.8462" fill="url(#paint3_radial_1392_23580)"/>
<circle cx="134" cy="31.9985" r="21.9658" stroke="url(#paint4_linear_1392_23580)" stroke-width="3.76068"/>
</g>
<path d="M127.891 40.2376C127.891 36.1649 131.192 32.8633 135.265 32.8633H138.549C142.621 32.8633 145.923 36.1649 145.923 40.2376C145.923 40.9164 145.373 41.4667 144.694 41.4667H129.12C128.441 41.4667 127.891 40.9164 127.891 40.2376Z" fill="url(#paint5_linear_1392_23580)"/>
<path d="M131.739 25.7146C131.739 23.4085 133.609 21.5391 135.915 21.5391C138.221 21.5391 140.09 23.4085 140.09 25.7146V25.9669C140.09 28.273 138.221 30.1424 135.915 30.1424C133.609 30.1424 131.739 28.273 131.739 25.9669V25.7146Z" fill="url(#paint6_linear_1392_23580)"/>
<path fill-rule="evenodd" clip-rule="evenodd" d="M137.512 24.0281C137.512 25.9804 135.929 27.563 133.977 27.563C132.025 27.563 130.442 25.9804 130.442 24.0281C130.442 22.0758 132.025 20.4932 133.977 20.4932C135.929 20.4932 137.512 22.0758 137.512 24.0281ZM138.372 24.0281C138.372 26.4555 136.404 28.4233 133.977 28.4233C131.549 28.4233 129.582 26.4555 129.582 24.0281C129.582 21.6006 131.549 19.6328 133.977 19.6328C136.404 19.6328 138.372 21.6006 138.372 24.0281ZM125.519 38.7464H127.231H133.037H140.554C140.348 34.4038 137.032 31.0034 133.037 31.0034C129.041 31.0034 125.726 34.4038 125.519 38.7464ZM124.648 39.6068H127.231H133.037H141.425H143.578V39.1766C143.578 34.1603 139.055 30.1431 134.114 30.1431H133.037H132.621V30.1539C128.154 30.3874 124.648 34.3678 124.648 39.1766V39.6068ZM142.705 38.7464H141.416C141.296 36.0179 140.049 33.5908 138.153 32.0159C140.683 33.3466 142.536 35.8567 142.705 38.7464Z" fill="#320A8D"/>
<g filter="url(#filter3_d_1392_23580)">
<circle cx="212" cy="31.9985" r="23.8462" fill="url(#paint7_radial_1392_23580)"/>
<circle cx="212" cy="31.9985" r="21.9658" stroke="url(#paint8_linear_1392_23580)" stroke-width="3.76068"/>
</g>
<path d="M204.188 39.4984C204.188 31.4502 210.923 24.9258 219.231 24.9258C227.539 24.9258 234.274 31.4502 234.274 39.4984C234.274 47.5467 227.539 54.0711 219.231 54.0711C210.923 54.0711 204.188 47.5467 204.188 39.4984Z" fill="url(#paint9_linear_1392_23580)"/>
<path fill-rule="evenodd" clip-rule="evenodd" d="M212.131 43.2847C217.936 43.2847 222.642 38.5754 222.642 32.7662C222.642 26.9571 217.936 22.2478 212.131 22.2478C206.325 22.2478 201.619 26.9571 201.619 32.7662C201.619 38.5754 206.325 43.2847 212.131 43.2847ZM223.643 32.7662C223.643 39.1287 218.489 44.2864 212.131 44.2864C205.773 44.2864 200.618 39.1287 200.618 32.7662C200.618 26.4038 205.773 21.2461 212.131 21.2461C218.489 21.2461 223.643 26.4038 223.643 32.7662Z" fill="#320A8D"/>
<path fill-rule="evenodd" clip-rule="evenodd" d="M212.133 39.7763C216.003 39.7763 219.14 36.6368 219.14 32.764C219.14 28.8913 216.003 25.7518 212.133 25.7518C208.263 25.7518 205.125 28.8913 205.125 32.764C205.125 36.6368 208.263 39.7763 212.133 39.7763ZM220.142 32.764C220.142 37.19 216.556 40.778 212.133 40.778C207.71 40.778 204.124 37.19 204.124 32.764C204.124 28.338 207.71 24.75 212.133 24.75C216.556 24.75 220.142 28.338 220.142 32.764Z" fill="#320A8D"/>
<path fill-rule="evenodd" clip-rule="evenodd" d="M214.218 28.5463C214.026 28.4833 213.834 28.4203 213.648 28.3572C213.414 28.2732 213.185 28.5096 213.195 28.8194C213.217 29.4076 213.238 29.9904 213.259 30.5786C213.265 30.7729 213.169 30.9515 213.02 31.025C212.722 31.1667 212.418 31.3033 212.115 31.4398C211.811 31.3086 211.508 31.1667 211.209 31.025C211.055 30.9515 210.965 30.7729 210.97 30.5786C210.991 29.9904 211.012 29.4076 211.034 28.8194C211.044 28.5043 210.816 28.2732 210.581 28.3572C210.39 28.4203 210.203 28.4886 210.012 28.5463C209.857 28.5989 209.74 28.7669 209.724 28.9717C209.671 29.6649 209.612 30.358 209.559 31.046C209.543 31.2403 209.634 31.4189 209.783 31.4976C210.118 31.6709 210.086 32.2381 209.719 32.3693C209.554 32.4271 209.431 32.5899 209.415 32.7842C209.33 33.8397 209.245 34.9005 209.16 35.9561C209.144 36.1608 209.256 36.3499 209.447 36.4235C209.676 36.5127 209.91 36.602 210.145 36.6913C210.438 36.8015 210.752 36.5862 210.762 36.2711C210.794 35.3207 210.831 34.3701 210.863 33.4144C210.869 33.2201 210.986 33.0521 211.151 32.989C211.476 32.863 211.795 32.7369 212.115 32.6004C212.434 32.7317 212.753 32.863 213.078 32.989C213.243 33.0521 213.36 33.2201 213.366 33.4144C213.398 34.3649 213.435 35.3154 213.467 36.2711C213.478 36.5862 213.792 36.7963 214.084 36.6913C214.319 36.602 214.553 36.5127 214.782 36.4235C214.968 36.3499 215.085 36.1608 215.069 35.9561C214.984 34.9005 214.899 33.8397 214.814 32.7842C214.798 32.5899 214.681 32.4271 214.51 32.3693C214.143 32.2433 214.111 31.6709 214.447 31.4976C214.601 31.4189 214.686 31.2351 214.67 31.046C214.617 30.3528 214.558 29.6596 214.505 28.9717C214.489 28.7669 214.372 28.5936 214.218 28.5463Z" fill="#320A8D"/>
<defs>
<filter id="filter0_d_1392_23580" x="0.0688286" y="0.630976" width="109.863" height="109.862" filterUnits="userSpaceOnUse" color-interpolation-filters="sRGB">
<feFlood flood-opacity="0" result="BackgroundImageFix"/>
<feColorMatrix in="SourceAlpha" type="matrix" values="0 0 0 0 0 0 0 0 0 0 0 0 0 0 0 0 0 0 127 0" result="hardAlpha"/>
<feOffset dy="22.5641"/>
<feGaussianBlur stdDeviation="15.0427"/>
<feComposite in2="hardAlpha" operator="out"/>
<feColorMatrix type="matrix" values="0 0 0 0 0.0486111 0 0 0 0 0.127083 0 0 0 0 0.833333 0 0 0 0.06 0"/>
<feBlend mode="normal" in2="BackgroundImageFix" result="effect1_dropShadow_1392_23580"/>
<feBlend mode="normal" in="SourceGraphic" in2="effect1_dropShadow_1392_23580" result="shape"/>
</filter>
<filter id="filter1_d_1392_23580" x="0.0688286" y="0.630976" width="109.863" height="109.862" filterUnits="userSpaceOnUse" color-interpolation-filters="sRGB">
<feFlood flood-opacity="0" result="BackgroundImageFix"/>
<feColorMatrix in="SourceAlpha" type="matrix" values="0 0 0 0 0 0 0 0 0 0 0 0 0 0 0 0 0 0 127 0" result="hardAlpha"/>
<feOffset dy="22.5641"/>
<feGaussianBlur stdDeviation="15.0427"/>
<feComposite in2="hardAlpha" operator="out"/>
<feColorMatrix type="matrix" values="0 0 0 0 0.0486111 0 0 0 0 0.127083 0 0 0 0 0.833333 0 0 0 0.06 0"/>
<feBlend mode="normal" in2="BackgroundImageFix" result="effect1_dropShadow_1392_23580"/>
<feBlend mode="normal" in="SourceGraphic" in2="effect1_dropShadow_1392_23580" result="shape"/>
</filter>
<filter id="filter2_d_1392_23580" x="80.0688" y="0.630976" width="107.863" height="107.862" filterUnits="userSpaceOnUse" color-interpolation-filters="sRGB">
<feFlood flood-opacity="0" result="BackgroundImageFix"/>
<feColorMatrix in="SourceAlpha" type="matrix" values="0 0 0 0 0 0 0 0 0 0 0 0 0 0 0 0 0 0 127 0" result="hardAlpha"/>
<feOffset dy="22.5641"/>
<feGaussianBlur stdDeviation="15.0427"/>
<feComposite in2="hardAlpha" operator="out"/>
<feColorMatrix type="matrix" values="0 0 0 0 0.0486111 0 0 0 0 0.127083 0 0 0 0 0.833333 0 0 0 0.06 0"/>
<feBlend mode="normal" in2="BackgroundImageFix" result="effect1_dropShadow_1392_23580"/>
<feBlend mode="normal" in="SourceGraphic" in2="effect1_dropShadow_1392_23580" result="shape"/>
</filter>
<filter id="filter3_d_1392_23580" x="158.069" y="0.630976" width="107.863" height="107.862" filterUnits="userSpaceOnUse" color-interpolation-filters="sRGB">
<feFlood flood-opacity="0" result="BackgroundImageFix"/>
<feColorMatrix in="SourceAlpha" type="matrix" values="0 0 0 0 0 0 0 0 0 0 0 0 0 0 0 0 0 0 127 0" result="hardAlpha"/>
<feOffset dy="22.5641"/>
<feGaussianBlur stdDeviation="15.0427"/>
<feComposite in2="hardAlpha" operator="out"/>
<feColorMatrix type="matrix" values="0 0 0 0 0.0486111 0 0 0 0 0.127083 0 0 0 0 0.833333 0 0 0 0.06 0"/>
<feBlend mode="normal" in2="BackgroundImageFix" result="effect1_dropShadow_1392_23580"/>
<feBlend mode="normal" in="SourceGraphic" in2="effect1_dropShadow_1392_23580" result="shape"/>
</filter>
<radialGradient id="paint0_radial_1392_23580" cx="0" cy="0" r="1" gradientUnits="userSpaceOnUse" gradientTransform="translate(55.0005 16.2006) rotate(90) scale(41.644)">
<stop stop-color="#F0F0FF"/>
<stop stop-color="#F1F1FD"/>
<stop offset="0.703125" stop-color="white"/>
</radialGradient>
<linearGradient id="paint1_linear_1392_23580" x1="84.7602" y1="57.8446" x2="88.5013" y2="41.3634" gradientUnits="userSpaceOnUse">
<stop stop-color="#F7F8FD"/>
<stop offset="1" stop-color="white"/>
</linearGradient>
<linearGradient id="paint2_linear_1392_23580" x1="50.3152" y1="29.043" x2="65.9983" y2="45.8988" gradientUnits="userSpaceOnUse">
<stop stop-color="#244CB3" stop-opacity="0.2"/>
<stop offset="1" stop-color="#B4C2E5" stop-opacity="0.07"/>
</linearGradient>
<radialGradient id="paint3_radial_1392_23580" cx="0" cy="0" r="1" gradientUnits="userSpaceOnUse" gradientTransform="translate(134 15.8767) rotate(90) scale(39.9679)">
<stop stop-color="#F0F0FF"/>
<stop stop-color="#F1F1FD"/>
<stop offset="0.703125" stop-color="white"/>
</radialGradient>
<linearGradient id="paint4_linear_1392_23580" x1="162.562" y1="55.8446" x2="166.153" y2="40.0268" gradientUnits="userSpaceOnUse">
<stop stop-color="#F7F8FD"/>
<stop offset="1" stop-color="white"/>
</linearGradient>
<linearGradient id="paint5_linear_1392_23580" x1="131.084" y1="32.8633" x2="140.679" y2="46.2639" gradientUnits="userSpaceOnUse">
<stop stop-color="#244CB3" stop-opacity="0.2"/>
<stop offset="1" stop-color="#B4C2E5" stop-opacity="0.07"/>
</linearGradient>
<linearGradient id="paint6_linear_1392_23580" x1="133.218" y1="21.5391" x2="142.462" y2="27.5182" gradientUnits="userSpaceOnUse">
<stop stop-color="#244CB3" stop-opacity="0.2"/>
<stop offset="1" stop-color="#B4C2E5" stop-opacity="0.07"/>
</linearGradient>
<radialGradient id="paint7_radial_1392_23580" cx="0" cy="0" r="1" gradientUnits="userSpaceOnUse" gradientTransform="translate(212 15.8767) rotate(90) scale(39.9679)">
<stop stop-color="#F0F0FF"/>
<stop stop-color="#F1F1FD"/>
<stop offset="0.703125" stop-color="white"/>
</radialGradient>
<linearGradient id="paint8_linear_1392_23580" x1="240.562" y1="55.8446" x2="244.153" y2="40.0268" gradientUnits="userSpaceOnUse">
<stop stop-color="#F7F8FD"/>
<stop offset="1" stop-color="white"/>
</linearGradient>
<linearGradient id="paint9_linear_1392_23580" x1="204.188" y1="30.6281" x2="225.988" y2="54.7616" gradientUnits="userSpaceOnUse">
<stop stop-color="#244CB3" stop-opacity="0.34"/>
<stop offset="1" stop-color="#B4C2E5" stop-opacity="0.07"/>
</linearGradient>
</defs>
</svg>
