<svg width="261" height="142" viewBox="0 0 261 142" fill="none" xmlns="http://www.w3.org/2000/svg">
<g filter="url(#filter0_d_482_38275)">
<circle cx="189.642" cy="46.3565" r="37.3565" fill="url(#paint0_radial_482_38275)"/>
<circle cx="189.642" cy="46.3565" r="35.2812" stroke="url(#paint1_linear_482_38275)" stroke-width="4.15073"/>
</g>
<path d="M175.392 51.6231C175.392 42.7401 182.825 35.5391 191.995 35.5391C201.165 35.5391 208.598 42.7401 208.598 51.6231C208.598 60.5061 201.165 67.7072 191.995 67.7072C182.825 67.7072 175.392 60.5061 175.392 51.6231Z" fill="url(#paint2_linear_482_38275)"/>
<path fill-rule="evenodd" clip-rule="evenodd" d="M186.789 59.8901C194.956 59.8901 201.576 53.115 201.576 44.7574C201.576 36.3999 194.956 29.6248 186.789 29.6248C178.623 29.6248 172.002 36.3999 172.002 44.7574C172.002 53.115 178.623 59.8901 186.789 59.8901ZM202.984 44.7574C202.984 53.9109 195.733 61.3313 186.789 61.3313C177.845 61.3313 170.594 53.9109 170.594 44.7574C170.594 35.604 177.845 28.1836 186.789 28.1836C195.733 28.1836 202.984 35.604 202.984 44.7574Z" fill="#320A8D"/>
<path fill-rule="evenodd" clip-rule="evenodd" d="M186.786 54.8446C192.23 54.8446 196.644 50.3279 196.644 44.7562C196.644 39.1845 192.23 34.6678 186.786 34.6678C181.342 34.6678 176.928 39.1845 176.928 44.7562C176.928 50.3279 181.342 54.8446 186.786 54.8446ZM198.052 44.7562C198.052 51.1238 193.008 56.2858 186.786 56.2858C180.564 56.2858 175.52 51.1238 175.52 44.7562C175.52 38.3886 180.564 33.2266 186.786 33.2266C193.008 33.2266 198.052 38.3886 198.052 44.7562Z" fill="#320A8D"/>
<path fill-rule="evenodd" clip-rule="evenodd" d="M189.725 38.6838C189.456 38.5931 189.186 38.5024 188.924 38.4117C188.595 38.2909 188.273 38.6309 188.288 39.0767C188.317 39.9228 188.347 40.7614 188.377 41.6076C188.385 41.8871 188.25 42.144 188.04 42.2498C187.621 42.4537 187.194 42.6502 186.767 42.8466C186.34 42.6578 185.913 42.4537 185.494 42.2498C185.277 42.144 185.149 41.8871 185.157 41.6076C185.187 40.7614 185.217 39.9228 185.247 39.0767C185.262 38.6233 184.94 38.2909 184.61 38.4117C184.341 38.5024 184.078 38.6007 183.809 38.6838C183.592 38.7594 183.427 39.0011 183.404 39.2957C183.33 40.293 183.247 41.2903 183.172 42.28C183.15 42.5595 183.277 42.8164 183.487 42.9297C183.959 43.179 183.914 43.995 183.397 44.1839C183.165 44.267 182.992 44.5012 182.97 44.7807C182.85 46.2993 182.73 47.8255 182.611 49.344C182.588 49.6387 182.745 49.9107 183.015 50.0165C183.337 50.1448 183.667 50.2733 183.996 50.4017C184.408 50.5604 184.85 50.2506 184.865 49.7973C184.91 48.4299 184.962 47.0624 185.007 45.6873C185.015 45.4078 185.179 45.1661 185.412 45.0754C185.868 44.8941 186.318 44.7127 186.767 44.5163C187.216 44.7052 187.666 44.8941 188.123 45.0754C188.355 45.1661 188.52 45.4078 188.527 45.6873C188.572 47.0549 188.625 48.4223 188.67 49.7973C188.684 50.2506 189.126 50.5528 189.538 50.4017C189.868 50.2733 190.197 50.1448 190.519 50.0165C190.782 49.9107 190.946 49.6387 190.924 49.344C190.804 47.8255 190.684 46.2993 190.564 44.7807C190.542 44.5012 190.377 44.267 190.137 44.1839C189.621 44.0026 189.576 43.179 190.048 42.9297C190.265 42.8164 190.385 42.552 190.362 42.28C190.287 41.2828 190.205 40.2854 190.13 39.2957C190.107 39.0011 189.943 38.7518 189.725 38.6838Z" fill="#320A8D"/>
<g filter="url(#filter1_d_482_38275)">
<circle cx="130.512" cy="46.3565" r="37.3565" fill="url(#paint3_radial_482_38275)"/>
<circle cx="130.512" cy="46.3565" r="35.2812" stroke="url(#paint4_linear_482_38275)" stroke-width="4.15073"/>
</g>
<path d="M120.938 59.2633C120.938 52.8831 126.11 47.7109 132.49 47.7109H137.635C144.015 47.7109 149.187 52.8831 149.187 59.2633C149.187 60.3267 148.325 61.1887 147.262 61.1887H122.863C121.8 61.1887 120.938 60.3267 120.938 59.2633Z" fill="url(#paint5_linear_482_38275)"/>
<path d="M126.966 36.5139C126.966 32.9013 129.895 29.9727 133.508 29.9727C137.12 29.9727 140.049 32.9013 140.049 36.5139V36.9091C140.049 40.5218 137.12 43.4504 133.508 43.4504C129.895 43.4504 126.966 40.5218 126.966 36.9091V36.5139Z" fill="url(#paint6_linear_482_38275)"/>
<path fill-rule="evenodd" clip-rule="evenodd" d="M135.995 33.8698C135.995 36.9282 133.515 39.4075 130.457 39.4075C127.399 39.4075 124.919 36.9282 124.919 33.8698C124.919 30.8115 127.399 28.3322 130.457 28.3322C133.515 28.3322 135.995 30.8115 135.995 33.8698ZM137.342 33.8698C137.342 37.6726 134.26 40.7553 130.457 40.7553C126.654 40.7553 123.571 37.6726 123.571 33.8698C123.571 30.0671 126.654 26.9844 130.457 26.9844C134.26 26.9844 137.342 30.0671 137.342 33.8698ZM117.213 56.9254H119.895H128.99H140.767C140.443 50.1224 135.249 44.7954 128.99 44.7954C122.731 44.7954 117.536 50.1224 117.213 56.9254ZM115.849 58.2732H119.895H128.99H142.131H145.503V57.5993C145.503 49.741 138.418 43.4476 130.677 43.4476H128.99H128.339V43.4646C121.34 43.8306 115.849 50.0661 115.849 57.5993V58.2732ZM144.135 56.9254H142.116C141.929 52.6514 139.975 48.8494 137.005 46.3823C140.968 48.467 143.871 52.3989 144.135 56.9254Z" fill="#320A8D"/>
<g filter="url(#filter2_d_482_38275)">
<path d="M108.715 46.3565C108.715 66.988 91.9899 83.7131 71.3585 83.7131C50.727 83.7131 34.002 66.988 34.002 46.3565C34.002 25.7251 50.727 9 71.3585 9C91.9899 9 108.715 25.7251 108.715 46.3565Z" fill="url(#paint7_radial_482_38275)"/>
</g>
<g filter="url(#filter3_d_482_38275)">
<path fill-rule="evenodd" clip-rule="evenodd" d="M71.3585 79.1062C89.4456 79.1062 104.108 64.4437 104.108 46.3565C104.108 28.2694 89.4456 13.6068 71.3585 13.6068C53.2713 13.6068 38.6088 28.2694 38.6088 46.3565C38.6088 64.4437 53.2713 79.1062 71.3585 79.1062ZM71.3585 83.7131C91.9899 83.7131 108.715 66.988 108.715 46.3565C108.715 25.7251 91.9899 9 71.3585 9C50.727 9 34.002 25.7251 34.002 46.3565C34.002 66.988 50.727 83.7131 71.3585 83.7131Z" fill="url(#paint8_linear_482_38275)"/>
</g>
<path d="M58.5869 43.0035C58.5869 41.5734 59.7462 40.4141 61.1763 40.4141H88.3653C89.7954 40.4141 90.9548 41.5734 90.9548 43.0035V57.8927C90.9548 59.3228 89.7954 60.4821 88.3653 60.4821H61.1763C59.7462 60.4821 58.5869 59.3228 58.5869 57.8927V43.0035Z" fill="url(#paint9_linear_482_38275)"/>
<path fill-rule="evenodd" clip-rule="evenodd" d="M66.8726 42.0966C66.8726 41.7391 67.1624 41.4492 67.5199 41.4492H69.8504C70.2079 41.4492 70.4978 41.7391 70.4978 42.0966C70.4978 42.4541 70.2079 42.7439 69.8504 42.7439H67.5199C67.1624 42.7439 66.8726 42.4541 66.8726 42.0966Z" fill="#320A8D"/>
<path fill-rule="evenodd" clip-rule="evenodd" d="M54.7005 40.6698L54.7005 52.0633C54.7005 54.2085 56.4395 55.9475 58.5846 55.9475L78.7822 55.9475C80.9273 55.9475 82.6663 54.2085 82.6663 52.0633L82.6663 40.6698C82.6663 38.5247 80.9273 36.7857 78.7822 36.7857L58.5846 36.7857C56.4395 36.7857 54.7005 38.5247 54.7005 40.6698ZM53.4058 52.0633C53.4058 54.9235 55.7244 57.2422 58.5846 57.2422L78.7822 57.2422C81.6424 57.2422 83.961 54.9235 83.961 52.0633L83.961 40.6698C83.961 37.8096 81.6424 35.491 78.7822 35.491L58.5846 35.491C55.7244 35.491 53.4058 37.8096 53.4058 40.6698L53.4058 52.0633Z" fill="#320A8D"/>
<path fill-rule="evenodd" clip-rule="evenodd" d="M54.7005 40.6698L54.7005 52.0633C54.7005 54.2085 56.4395 55.9475 58.5846 55.9475L82.4074 55.9475C84.5525 55.9475 86.2915 54.2085 86.2915 52.0633L86.2915 40.6698C86.2915 38.5247 84.5525 36.7857 82.4074 36.7857L58.5846 36.7857C56.4395 36.7857 54.7005 38.5247 54.7005 40.6698ZM53.4058 52.0633C53.4058 54.9235 55.7244 57.2422 58.5846 57.2422L82.4074 57.2422C85.2676 57.2422 87.5862 54.9235 87.5862 52.0633L87.5862 40.6698C87.5862 37.8096 85.2676 35.491 82.4074 35.491L58.5846 35.491C55.7244 35.491 53.4058 37.8096 53.4058 40.6698L53.4058 52.0633Z" fill="#320A8D"/>
<path fill-rule="evenodd" clip-rule="evenodd" d="M65.4682 30.7042H72.2474C72.679 30.6933 73.1084 30.7671 73.5115 30.9215C73.9177 31.0771 74.2891 31.3113 74.6044 31.6108C74.9198 31.9103 75.1728 32.2691 75.3491 32.6668C75.5254 33.0645 75.6211 33.493 75.6313 33.9277L75.6315 33.9352V35.7011H74.3367V33.9508C74.3297 33.6888 74.2715 33.4308 74.1654 33.1914C74.0583 32.9498 73.9045 32.7317 73.7128 32.5496C73.5211 32.3675 73.2953 32.2251 73.0485 32.1306C72.8016 32.036 72.5385 31.9912 72.2743 31.9986L72.2652 31.9989H65.4504L65.4413 31.9986C65.1771 31.9912 64.914 32.036 64.6671 32.1306C64.4203 32.2251 64.1945 32.3675 64.0028 32.5496C63.8111 32.7317 63.6573 32.9498 63.5502 33.1914C63.444 33.431 63.3857 33.689 63.3787 33.9508V35.6271H62.084V33.9352L62.0842 33.9277C62.0943 33.4928 62.1903 33.0643 62.3665 32.6668C62.5428 32.2691 62.7959 31.9103 63.1112 31.6108C63.4265 31.3113 63.7979 31.0771 64.2041 30.9215C64.6072 30.7671 65.0366 30.6933 65.4682 30.7042Z" fill="#320A8D"/>
<path fill-rule="evenodd" clip-rule="evenodd" d="M53.8395 39.9173C53.971 39.5848 54.3471 39.4219 54.6795 39.5533L65.9903 44.0262C67.8256 44.752 69.8684 44.752 71.7038 44.0262L82.6871 39.6828C83.0196 39.5513 83.3957 39.7143 83.5272 40.0468C83.6587 40.3792 83.4957 40.7553 83.1633 40.8868L72.1799 45.2302C70.0387 46.077 67.6554 46.077 65.5142 45.2302L54.2034 40.7573C53.8709 40.6259 53.708 40.2498 53.8395 39.9173Z" fill="#320A8D"/>
<defs>
<filter id="filter0_d_482_38275" x="119.079" y="0.698547" width="141.125" height="141.126" filterUnits="userSpaceOnUse" color-interpolation-filters="sRGB">
<feFlood flood-opacity="0" result="BackgroundImageFix"/>
<feColorMatrix in="SourceAlpha" type="matrix" values="0 0 0 0 0 0 0 0 0 0 0 0 0 0 0 0 0 0 127 0" result="hardAlpha"/>
<feOffset dy="24.9044"/>
<feGaussianBlur stdDeviation="16.6029"/>
<feComposite in2="hardAlpha" operator="out"/>
<feColorMatrix type="matrix" values="0 0 0 0 0.0486111 0 0 0 0 0.127083 0 0 0 0 0.833333 0 0 0 0.06 0"/>
<feBlend mode="normal" in2="BackgroundImageFix" result="effect1_dropShadow_482_38275"/>
<feBlend mode="normal" in="SourceGraphic" in2="effect1_dropShadow_482_38275" result="shape"/>
</filter>
<filter id="filter1_d_482_38275" x="59.9499" y="0.698547" width="141.125" height="141.126" filterUnits="userSpaceOnUse" color-interpolation-filters="sRGB">
<feFlood flood-opacity="0" result="BackgroundImageFix"/>
<feColorMatrix in="SourceAlpha" type="matrix" values="0 0 0 0 0 0 0 0 0 0 0 0 0 0 0 0 0 0 127 0" result="hardAlpha"/>
<feOffset dy="24.9044"/>
<feGaussianBlur stdDeviation="16.6029"/>
<feComposite in2="hardAlpha" operator="out"/>
<feColorMatrix type="matrix" values="0 0 0 0 0.0486111 0 0 0 0 0.127083 0 0 0 0 0.833333 0 0 0 0.06 0"/>
<feBlend mode="normal" in2="BackgroundImageFix" result="effect1_dropShadow_482_38275"/>
<feBlend mode="normal" in="SourceGraphic" in2="effect1_dropShadow_482_38275" result="shape"/>
</filter>
<filter id="filter2_d_482_38275" x="0.796139" y="0.698547" width="141.125" height="141.126" filterUnits="userSpaceOnUse" color-interpolation-filters="sRGB">
<feFlood flood-opacity="0" result="BackgroundImageFix"/>
<feColorMatrix in="SourceAlpha" type="matrix" values="0 0 0 0 0 0 0 0 0 0 0 0 0 0 0 0 0 0 127 0" result="hardAlpha"/>
<feOffset dy="24.9044"/>
<feGaussianBlur stdDeviation="16.6029"/>
<feComposite in2="hardAlpha" operator="out"/>
<feColorMatrix type="matrix" values="0 0 0 0 0.0486111 0 0 0 0 0.127083 0 0 0 0 0.833333 0 0 0 0.06 0"/>
<feBlend mode="normal" in2="BackgroundImageFix" result="effect1_dropShadow_482_38275"/>
<feBlend mode="normal" in="SourceGraphic" in2="effect1_dropShadow_482_38275" result="shape"/>
</filter>
<filter id="filter3_d_482_38275" x="0.796139" y="0.698547" width="141.125" height="141.126" filterUnits="userSpaceOnUse" color-interpolation-filters="sRGB">
<feFlood flood-opacity="0" result="BackgroundImageFix"/>
<feColorMatrix in="SourceAlpha" type="matrix" values="0 0 0 0 0 0 0 0 0 0 0 0 0 0 0 0 0 0 127 0" result="hardAlpha"/>
<feOffset dy="24.9044"/>
<feGaussianBlur stdDeviation="16.6029"/>
<feComposite in2="hardAlpha" operator="out"/>
<feColorMatrix type="matrix" values="0 0 0 0 0.0486111 0 0 0 0 0.127083 0 0 0 0 0.833333 0 0 0 0.06 0"/>
<feBlend mode="normal" in2="BackgroundImageFix" result="effect1_dropShadow_482_38275"/>
<feBlend mode="normal" in="SourceGraphic" in2="effect1_dropShadow_482_38275" result="shape"/>
</filter>
<radialGradient id="paint0_radial_482_38275" cx="0" cy="0" r="1" gradientUnits="userSpaceOnUse" gradientTransform="translate(189.642 21.1007) rotate(90) scale(62.6123)">
<stop stop-color="#F0F0FF"/>
<stop stop-color="#F1F1FD"/>
<stop offset="0.703125" stop-color="white"/>
</radialGradient>
<linearGradient id="paint1_linear_482_38275" x1="234.386" y1="83.7131" x2="240.011" y2="58.9333" gradientUnits="userSpaceOnUse">
<stop stop-color="#F7F8FD"/>
<stop offset="1" stop-color="white"/>
</linearGradient>
<linearGradient id="paint2_linear_482_38275" x1="175.392" y1="41.8328" x2="199.453" y2="68.4693" gradientUnits="userSpaceOnUse">
<stop stop-color="#244CB3" stop-opacity="0.34"/>
<stop offset="1" stop-color="#B4C2E5" stop-opacity="0.07"/>
</linearGradient>
<radialGradient id="paint3_radial_482_38275" cx="0" cy="0" r="1" gradientUnits="userSpaceOnUse" gradientTransform="translate(130.512 21.1007) rotate(90) scale(62.6123)">
<stop stop-color="#F0F0FF"/>
<stop stop-color="#F1F1FD"/>
<stop offset="0.703125" stop-color="white"/>
</radialGradient>
<linearGradient id="paint4_linear_482_38275" x1="175.256" y1="83.7131" x2="180.881" y2="58.9333" gradientUnits="userSpaceOnUse">
<stop stop-color="#F7F8FD"/>
<stop offset="1" stop-color="white"/>
</linearGradient>
<linearGradient id="paint5_linear_482_38275" x1="125.94" y1="47.7109" x2="140.971" y2="68.7039" gradientUnits="userSpaceOnUse">
<stop stop-color="#244CB3" stop-opacity="0.2"/>
<stop offset="1" stop-color="#B4C2E5" stop-opacity="0.07"/>
</linearGradient>
<linearGradient id="paint6_linear_482_38275" x1="129.283" y1="29.9727" x2="143.764" y2="39.3394" gradientUnits="userSpaceOnUse">
<stop stop-color="#244CB3" stop-opacity="0.2"/>
<stop offset="1" stop-color="#B4C2E5" stop-opacity="0.07"/>
</linearGradient>
<radialGradient id="paint7_radial_482_38275" cx="0" cy="0" r="1" gradientUnits="userSpaceOnUse" gradientTransform="translate(71.3585 21.1007) rotate(90) scale(62.6123)">
<stop stop-color="#F0F0FF"/>
<stop stop-color="#F1F1FD"/>
<stop offset="0.703125" stop-color="white"/>
</radialGradient>
<linearGradient id="paint8_linear_482_38275" x1="116.103" y1="83.7131" x2="121.728" y2="58.9333" gradientUnits="userSpaceOnUse">
<stop stop-color="#F7F8FD"/>
<stop offset="1" stop-color="white"/>
</linearGradient>
<linearGradient id="paint9_linear_482_38275" x1="64.3187" y1="40.4141" x2="87.8985" y2="65.757" gradientUnits="userSpaceOnUse">
<stop stop-color="#244CB3" stop-opacity="0.2"/>
<stop offset="1" stop-color="#B4C2E5" stop-opacity="0.07"/>
</linearGradient>
</defs>
</svg>
