<svg width="80" height="80" viewBox="0 0 80 80" fill="none" xmlns="http://www.w3.org/2000/svg">
<g filter="url(#filter0_d_166_932)">
<path d="M73.8461 40.0005C73.8461 58.6932 58.6927 73.8466 40 73.8466C21.3073 73.8466 6.15384 58.6932 6.15384 40.0005C6.15384 21.3077 21.3073 6.1543 40 6.1543C58.6927 6.1543 73.8461 21.3077 73.8461 40.0005Z" fill="url(#paint0_radial_166_932)"/>
</g>
<path fill-rule="evenodd" clip-rule="evenodd" d="M40 69.6727C56.3875 69.6727 69.6722 56.388 69.6722 40.0005C69.6722 23.6129 56.3875 10.3282 40 10.3282C23.6125 10.3282 10.3278 23.6129 10.3278 40.0005C10.3278 56.388 23.6125 69.6727 40 69.6727ZM40 73.8466C58.6927 73.8466 73.8461 58.6932 73.8461 40.0005C73.8461 21.3077 58.6927 6.1543 40 6.1543C21.3073 6.1543 6.15384 21.3077 6.15384 40.0005C6.15384 58.6932 21.3073 73.8466 40 73.8466Z" fill="url(#paint1_linear_166_932)"/>
<path d="M29.2206 53.8633C29.2206 48.0826 33.9068 43.3965 39.6874 43.3965H44.3483C50.1289 43.3965 54.8151 48.0826 54.8151 53.8633C54.8151 54.8267 54.034 55.6077 53.0706 55.6077H30.9651C30.0016 55.6077 29.2206 54.8267 29.2206 53.8633Z" fill="url(#paint2_linear_166_932)"/>
<path d="M34.681 33.2498C34.681 29.9767 37.3344 27.3232 40.6076 27.3232C43.8807 27.3232 46.5341 29.9767 46.5341 33.2498V33.6079C46.5341 36.8811 43.8807 39.5345 40.6076 39.5345C37.3344 39.5345 34.681 36.8811 34.681 33.6079V33.2498Z" fill="url(#paint3_linear_166_932)"/>
<path fill-rule="evenodd" clip-rule="evenodd" d="M42.871 30.8546C42.871 33.6256 40.6247 35.872 37.8537 35.872C35.0827 35.872 32.8364 33.6256 32.8364 30.8546C32.8364 28.0837 35.0827 25.8373 37.8537 25.8373C40.6247 25.8373 42.871 28.0837 42.871 30.8546ZM44.0921 30.8546C44.0921 34.3 41.2991 37.0931 37.8537 37.0931C34.4083 37.0931 31.6153 34.3 31.6153 30.8546C31.6153 27.4093 34.4083 24.6162 37.8537 24.6162C41.2991 24.6162 44.0921 27.4093 44.0921 30.8546ZM25.851 51.7433H28.2786H36.5211H47.1917C46.8986 45.5796 42.1925 40.7532 36.5213 40.7532C30.8502 40.7532 26.1441 45.5796 25.851 51.7433ZM24.6154 52.9645H28.2786H36.5213H48.4273H51.48V52.3539C51.48 45.234 45.0611 39.5321 38.0476 39.5321H36.5213H35.9292V39.5476C29.5894 39.8805 24.6154 45.5294 24.6154 52.3539V52.9645ZM50.2411 51.7433H48.414C48.2448 47.8729 46.476 44.4297 43.7875 42.1943C47.3745 44.084 50.0019 47.6446 50.2411 51.7433Z" fill="#320A8D"/>
<defs>
<filter id="filter0_d_166_932" x="5.15384" y="5.1543" width="69.6923" height="69.6924" filterUnits="userSpaceOnUse" color-interpolation-filters="sRGB">
<feFlood flood-opacity="0" result="BackgroundImageFix"/>
<feColorMatrix in="SourceAlpha" type="matrix" values="0 0 0 0 0 0 0 0 0 0 0 0 0 0 0 0 0 0 127 0" result="hardAlpha"/>
<feMorphology radius="1" operator="dilate" in="SourceAlpha" result="effect1_dropShadow_166_932"/>
<feOffset/>
<feColorMatrix type="matrix" values="0 0 0 0 0.913725 0 0 0 0 0.921569 0 0 0 0 0.980392 0 0 0 1 0"/>
<feBlend mode="normal" in2="BackgroundImageFix" result="effect1_dropShadow_166_932"/>
<feBlend mode="normal" in="SourceGraphic" in2="effect1_dropShadow_166_932" result="shape"/>
</filter>
<radialGradient id="paint0_radial_166_932" cx="0" cy="0" r="1" gradientUnits="userSpaceOnUse" gradientTransform="translate(40 17.1179) rotate(90) scale(56.7287)">
<stop stop-color="#F0F0FF"/>
<stop stop-color="#F1F1FD"/>
<stop offset="0.703125" stop-color="white"/>
</radialGradient>
<linearGradient id="paint1_linear_166_932" x1="80.5396" y1="73.8466" x2="85.6358" y2="51.3954" gradientUnits="userSpaceOnUse">
<stop stop-color="#F7F8FD"/>
<stop offset="1" stop-color="white"/>
</linearGradient>
<linearGradient id="paint2_linear_166_932" x1="33.753" y1="43.3965" x2="47.3713" y2="62.4168" gradientUnits="userSpaceOnUse">
<stop stop-color="#244CB3" stop-opacity="0.2"/>
<stop offset="1" stop-color="#B4C2E5" stop-opacity="0.07"/>
</linearGradient>
<linearGradient id="paint3_linear_166_932" x1="36.78" y1="27.3232" x2="49.9003" y2="35.8098" gradientUnits="userSpaceOnUse">
<stop stop-color="#244CB3" stop-opacity="0.2"/>
<stop offset="1" stop-color="#B4C2E5" stop-opacity="0.07"/>
</linearGradient>
</defs>
</svg>
