<svg width="128" height="129" viewBox="0 0 128 129" fill="none" xmlns="http://www.w3.org/2000/svg">
<g filter="url(#filter0_d_1708_5782)">
<path d="M97.8466 41.9985C97.8466 60.6912 82.6932 75.8447 64.0005 75.8447C45.3077 75.8447 30.1543 60.6912 30.1543 41.9985C30.1543 23.3058 45.3077 8.15234 64.0005 8.15234C82.6932 8.15234 97.8466 23.3058 97.8466 41.9985Z" fill="url(#paint0_radial_1708_5782)"/>
</g>
<g filter="url(#filter1_d_1708_5782)">
<path fill-rule="evenodd" clip-rule="evenodd" d="M64.0005 71.6707C80.388 71.6707 93.6727 58.386 93.6727 41.9985C93.6727 25.611 80.388 12.3263 64.0005 12.3263C47.6129 12.3263 34.3282 25.611 34.3282 41.9985C34.3282 58.386 47.6129 71.6707 64.0005 71.6707ZM64.0005 75.8447C82.6932 75.8447 97.8466 60.6912 97.8466 41.9985C97.8466 23.3058 82.6932 8.15234 64.0005 8.15234C45.3077 8.15234 30.1543 23.3058 30.1543 41.9985C30.1543 60.6912 45.3077 75.8447 64.0005 75.8447Z" fill="url(#paint1_linear_1708_5782)"/>
</g>
<path d="M52.4258 38.9594C52.4258 37.6637 53.4762 36.6133 54.7719 36.6133H79.4059C80.7017 36.6133 81.752 37.6637 81.752 38.9594V52.4495C81.752 53.7452 80.7017 54.7956 79.4059 54.7956H54.7719C53.4762 54.7956 52.4258 53.7452 52.4258 52.4495V38.9594Z" fill="url(#paint2_linear_1708_5782)"/>
<path fill-rule="evenodd" clip-rule="evenodd" d="M59.9336 38.1373C59.9336 37.8134 60.1962 37.5508 60.5201 37.5508H62.6316C62.9555 37.5508 63.2181 37.8134 63.2181 38.1373C63.2181 38.4612 62.9555 38.7238 62.6316 38.7238H60.5201C60.1962 38.7238 59.9336 38.4612 59.9336 38.1373Z" fill="#320A8D"/>
<path fill-rule="evenodd" clip-rule="evenodd" d="M48.9074 36.8521L48.9074 47.175C48.9074 49.1186 50.483 50.6941 52.4266 50.6941L70.7262 50.6941C72.6697 50.6941 74.2453 49.1186 74.2453 47.175L74.2453 36.8521C74.2453 34.9086 72.6697 33.333 70.7262 33.333L52.4266 33.333C50.483 33.333 48.9074 34.9086 48.9074 36.8521ZM47.7344 47.175C47.7344 49.7664 49.8352 51.8672 52.4266 51.8672L70.7262 51.8672C73.3176 51.8672 75.4184 49.7664 75.4184 47.175L75.4184 36.8521C75.4184 34.2607 73.3176 32.1599 70.7262 32.1599L52.4266 32.1599C49.8351 32.1599 47.7344 34.2607 47.7344 36.8521L47.7344 47.175Z" fill="#320A8D"/>
<path fill-rule="evenodd" clip-rule="evenodd" d="M48.9074 36.8521L48.9074 47.175C48.9074 49.1186 50.483 50.6941 52.4266 50.6941L74.0107 50.6941C75.9543 50.6941 77.5299 49.1186 77.5299 47.175L77.5299 36.8521C77.5299 34.9086 75.9543 33.333 74.0107 33.333L52.4266 33.333C50.483 33.333 48.9074 34.9086 48.9074 36.8521ZM47.7344 47.175C47.7344 49.7664 49.8351 51.8672 52.4266 51.8672L74.0107 51.8672C76.6021 51.8672 78.7029 49.7664 78.7029 47.175L78.7029 36.8521C78.7029 34.2607 76.6021 32.1599 74.0107 32.1599L52.4266 32.1599C49.8351 32.1599 47.7344 34.2607 47.7344 36.8521L47.7344 47.175Z" fill="#320A8D"/>
<path fill-rule="evenodd" clip-rule="evenodd" d="M58.6619 27.8174H64.8041C65.1951 27.8075 65.5842 27.8744 65.9494 28.0143C66.3174 28.1552 66.6539 28.3675 66.9396 28.6388C67.2253 28.9102 67.4546 29.2353 67.6143 29.5955C67.774 29.9559 67.8608 30.3441 67.87 30.7379L67.8701 30.7448V32.3447H66.6971V30.7589C66.6907 30.5215 66.638 30.2878 66.5419 30.0709C66.4448 29.852 66.3055 29.6543 66.1318 29.4894C65.9581 29.3244 65.7535 29.1954 65.5299 29.1097C65.3062 29.0241 65.0678 28.9834 64.8284 28.9902L64.8202 28.9904H58.6458L58.6376 28.9902C58.3982 28.9834 58.1598 29.0241 57.9361 29.1097C57.7125 29.1954 57.5079 29.3244 57.3342 29.4894C57.1605 29.6543 57.0212 29.852 56.9241 30.0709C56.8279 30.288 56.7751 30.5217 56.7688 30.7589V32.2776H55.5957V30.7448L55.5959 30.7379C55.6051 30.3439 55.6921 29.9557 55.8517 29.5955C56.0114 29.2353 56.2407 28.9102 56.5264 28.6388C56.8121 28.3675 57.1486 28.1552 57.5166 28.0143C57.8818 27.8744 58.2709 27.8075 58.6619 27.8174Z" fill="#320A8D"/>
<path fill-rule="evenodd" clip-rule="evenodd" d="M48.1272 36.1679C48.2463 35.8666 48.5871 35.719 48.8883 35.8381L59.1362 39.8907C60.7991 40.5483 62.6499 40.5483 64.3128 39.8907L74.264 35.9554C74.5653 35.8363 74.906 35.9839 75.0252 36.2852C75.1443 36.5864 74.9967 36.9272 74.6954 37.0463L64.7442 40.9816C62.8041 41.7487 60.6448 41.7487 58.7048 40.9816L48.4569 36.929C48.1557 36.8099 48.0081 36.4691 48.1272 36.1679Z" fill="#320A8D"/>
<defs>
<filter id="filter0_d_1708_5782" x="0.0688286" y="0.630976" width="127.862" height="127.862" filterUnits="userSpaceOnUse" color-interpolation-filters="sRGB">
<feFlood flood-opacity="0" result="BackgroundImageFix"/>
<feColorMatrix in="SourceAlpha" type="matrix" values="0 0 0 0 0 0 0 0 0 0 0 0 0 0 0 0 0 0 127 0" result="hardAlpha"/>
<feOffset dy="22.5641"/>
<feGaussianBlur stdDeviation="15.0427"/>
<feComposite in2="hardAlpha" operator="out"/>
<feColorMatrix type="matrix" values="0 0 0 0 0.0486111 0 0 0 0 0.127083 0 0 0 0 0.833333 0 0 0 0.06 0"/>
<feBlend mode="normal" in2="BackgroundImageFix" result="effect1_dropShadow_1708_5782"/>
<feBlend mode="normal" in="SourceGraphic" in2="effect1_dropShadow_1708_5782" result="shape"/>
</filter>
<filter id="filter1_d_1708_5782" x="0.0688286" y="0.630976" width="127.862" height="127.862" filterUnits="userSpaceOnUse" color-interpolation-filters="sRGB">
<feFlood flood-opacity="0" result="BackgroundImageFix"/>
<feColorMatrix in="SourceAlpha" type="matrix" values="0 0 0 0 0 0 0 0 0 0 0 0 0 0 0 0 0 0 127 0" result="hardAlpha"/>
<feOffset dy="22.5641"/>
<feGaussianBlur stdDeviation="15.0427"/>
<feComposite in2="hardAlpha" operator="out"/>
<feColorMatrix type="matrix" values="0 0 0 0 0.0486111 0 0 0 0 0.127083 0 0 0 0 0.833333 0 0 0 0.06 0"/>
<feBlend mode="normal" in2="BackgroundImageFix" result="effect1_dropShadow_1708_5782"/>
<feBlend mode="normal" in="SourceGraphic" in2="effect1_dropShadow_1708_5782" result="shape"/>
</filter>
<radialGradient id="paint0_radial_1708_5782" cx="0" cy="0" r="1" gradientUnits="userSpaceOnUse" gradientTransform="translate(64.0005 19.116) rotate(90) scale(56.7287)">
<stop stop-color="#F0F0FF"/>
<stop stop-color="#F1F1FD"/>
<stop offset="0.703125" stop-color="white"/>
</radialGradient>
<linearGradient id="paint1_linear_1708_5782" x1="104.54" y1="75.8446" x2="109.636" y2="53.3934" gradientUnits="userSpaceOnUse">
<stop stop-color="#F7F8FD"/>
<stop offset="1" stop-color="white"/>
</linearGradient>
<linearGradient id="paint2_linear_1708_5782" x1="57.619" y1="36.6133" x2="78.983" y2="59.5748" gradientUnits="userSpaceOnUse">
<stop stop-color="#244CB3" stop-opacity="0.2"/>
<stop offset="1" stop-color="#B4C2E5" stop-opacity="0.07"/>
</linearGradient>
</defs>
</svg>
