<svg width="85" height="48" viewBox="0 0 85 48" fill="none" xmlns="http://www.w3.org/2000/svg">
<path d="M64 19.4619C64 35.2231 49.6731 48 32 48C14.3269 48 0 35.2231 0 19.4619C0 3.70079 14.3269 21.7291 32 21.7291C49.6731 21.7291 64 3.70079 64 19.4619Z" fill="url(#paint0_linear_1300_14035)"/>
<path fill-rule="evenodd" clip-rule="evenodd" d="M31.5 40.8622C45.1272 40.8622 56.9189 27.655 56.9189 10.356C56.9189 7.70782 56.5743 6.15932 56.1961 5.31958C55.8825 4.62344 55.6281 4.55565 55.5226 4.52755L55.5153 4.52558C55.2377 4.45061 54.5953 4.42834 53.4145 4.84578C52.2722 5.24957 50.9211 5.95932 49.3998 6.92345C46.9586 8.47057 44.4261 10.4406 41.9676 12.3533C41.3336 12.8464 40.7046 13.3358 40.0833 13.8131C38.6179 14.9388 37.168 16.0168 35.8799 16.8189C35.2339 17.2212 34.5609 17.597 33.8953 17.88C33.2683 18.1465 32.4257 18.4284 31.5 18.4284C30.5578 18.4284 29.7045 18.1336 29.0765 17.8592C28.4082 17.5672 27.7338 17.1798 27.0879 16.7664C25.7996 15.9418 24.3497 14.834 22.8849 13.678C22.2733 13.1953 21.6542 12.7007 21.0303 12.2023C18.5631 10.2313 16.0211 8.20051 13.5723 6.6114C12.0518 5.62464 10.7057 4.90298 9.57209 4.49625C8.4003 4.07582 7.78196 4.10985 7.52909 4.18228C7.52673 4.18296 7.5242 4.18367 7.5215 4.18442C7.43161 4.20947 7.15493 4.28658 6.82144 5.05482C6.42717 5.96307 6.08108 7.60196 6.08108 10.356C6.08108 27.655 17.8728 40.8622 31.5 40.8622ZM31.5 44C47.2401 44 60 28.9371 60 10.356C60 -5.62925 48.6781 3.18142 40.0351 9.90744C36.3303 12.7905 33.1178 15.2905 31.5 15.2905C29.8863 15.2905 26.6858 12.7328 22.9928 9.78146C14.3463 2.87141 3 -6.19617 3 10.356C3 28.9371 15.7599 44 31.5 44Z" fill="#320A8D"/>
<path fill-rule="evenodd" clip-rule="evenodd" d="M77.2004 7.06952L71.1189 15.6118L78.3945 23.4866L57 23.055L57.0726 19.9372L71.1636 20.2572L67.1268 15.8879L71.171 10.2074L59.6313 10.2452L59.6468 7.12702L77.2004 7.06952Z" fill="#320A8D"/>
<defs>
<linearGradient id="paint0_linear_1300_14035" x1="32" y1="-9.07613" x2="32" y2="48" gradientUnits="userSpaceOnUse">
<stop stop-color="#D4DCF0"/>
<stop offset="1" stop-color="#F4F6FB"/>
</linearGradient>
</defs>
</svg>
