<svg width="17" height="24" viewBox="0 0 17 24" fill="none" xmlns="http://www.w3.org/2000/svg">
<path fill-rule="evenodd" clip-rule="evenodd" d="M14.1816 0.587357C13.6444 0.408064 13.1073 0.228771 12.5848 0.0494786C11.9282 -0.189509 11.2864 0.482786 11.3164 1.36422C11.376 3.03734 11.4357 4.69543 11.4953 6.36855C11.5103 6.92125 11.2416 7.42928 10.8237 7.63842C9.9882 8.04167 9.13747 8.43011 8.28674 8.81854C7.43601 8.44513 6.58549 8.04167 5.74978 7.63842C5.31691 7.42928 5.06336 6.92125 5.07837 6.36855C5.13801 4.69543 5.19764 3.03734 5.25728 1.36422C5.2873 0.467758 4.6455 -0.189509 3.9889 0.0494786C3.45156 0.228771 2.92924 0.423092 2.39212 0.587357C1.95925 0.736802 1.63105 1.21478 1.58622 1.79732C1.43692 3.76933 1.27283 5.74113 1.12353 7.69812C1.0787 8.25081 1.33246 8.75884 1.75032 8.9828C2.6905 9.4758 2.60105 11.0892 1.57121 11.4626C1.10873 11.6271 0.765309 12.0901 0.720479 12.6428C0.481941 15.6454 0.242987 18.6631 0.0042412 21.6658C-0.0405888 22.2484 0.272804 22.7862 0.810139 22.9954C1.45173 23.2492 2.10854 23.5032 2.76514 23.7572C3.58605 24.0709 4.46639 23.4583 4.49621 22.5621C4.58566 19.8583 4.69012 17.1543 4.77978 14.4355C4.79459 13.8828 5.1232 13.4048 5.58568 13.2255C6.49604 12.8669 7.3916 12.5083 8.28674 12.1199C9.18209 12.4935 10.0776 12.8669 10.988 13.2255C11.4505 13.4048 11.7791 13.8828 11.7939 14.4355C11.8836 17.1395 11.9878 19.8433 12.0775 22.5621C12.1073 23.4583 12.9876 24.0559 13.8085 23.7572C14.4651 23.5032 15.122 23.2492 15.7636 22.9954C16.2859 22.7862 16.6143 22.2484 16.5695 21.6658C16.3307 18.6631 16.0917 15.6454 15.8532 12.6428C15.8084 12.0901 15.4802 11.6271 15.0025 11.4626C13.9726 11.1043 13.8832 9.4758 14.8234 8.9828C15.256 8.75884 15.495 8.23599 15.4502 7.69812C15.3009 5.72631 15.1368 3.7543 14.9875 1.79732C14.9426 1.21478 14.6144 0.721774 14.1816 0.587357Z" fill="#D4CFFF"/>
</svg>
