<svg width="101" height="25" viewBox="0 0 101 25" fill="none" xmlns="http://www.w3.org/2000/svg">
<mask id="mask0_1858_4570" style="mask-type:alpha" maskUnits="userSpaceOnUse" x="0" y="0" width="17" height="25">
<path fill-rule="evenodd" clip-rule="evenodd" d="M0 0.0678711H16.7014V24.0921H0V0.0678711Z" fill="white"></path>
</mask>
<g mask="url(#mask0_1858_4570)">
<path fill-rule="evenodd" clip-rule="evenodd" d="M14.291 0.65976C13.7497 0.479084 13.2084 0.298408 12.6819 0.117732C12.0202 -0.1231 11.3734 0.554383 11.4037 1.44262C11.4638 3.12865 11.5239 4.79954 11.584 6.48557C11.5991 7.04253 11.3283 7.55449 10.9072 7.76524C10.0652 8.1716 9.20794 8.56303 8.35065 8.95446C7.49336 8.57818 6.63627 8.1716 5.79411 7.76524C5.3579 7.55449 5.10239 7.04253 5.11752 6.48557C5.17761 4.79954 5.23771 3.12865 5.2978 1.44262C5.32806 0.539239 4.68131 -0.1231 4.01964 0.117732C3.47816 0.298408 2.9518 0.494228 2.41053 0.65976C1.97432 0.810359 1.64359 1.29202 1.59842 1.87906C1.44797 3.86629 1.28261 5.85331 1.13216 7.8254C1.08698 8.38236 1.3427 8.89431 1.76378 9.12C2.71122 9.6168 2.62107 11.2427 1.58329 11.619C1.11724 11.7847 0.771171 12.2512 0.725995 12.8082C0.485617 15.834 0.244818 18.875 0.00423006 21.9009C-0.0409459 22.4879 0.274866 23.03 0.816347 23.2407C1.46289 23.4965 2.12477 23.7525 2.78644 24.0084C3.61369 24.3246 4.50082 23.7072 4.53086 22.8041C4.621 20.0794 4.72628 17.3545 4.81663 14.6147C4.83155 14.0578 5.1627 13.5761 5.62874 13.3954C6.54613 13.0341 7.4486 12.6727 8.35065 12.2813C9.25291 12.6578 10.1554 13.0341 11.0728 13.3954C11.5388 13.5761 11.87 14.0578 11.8849 14.6147C11.9752 17.3396 12.0803 20.0643 12.1706 22.8041C12.2007 23.7072 13.0878 24.3094 13.9151 24.0084C14.5767 23.7525 15.2386 23.4965 15.8852 23.2407C16.4115 23.03 16.7425 22.4879 16.6973 21.9009C16.4567 18.875 16.2159 15.834 15.9755 12.8082C15.9303 12.2512 15.5996 11.7847 15.1182 11.619C14.0804 11.2578 13.9903 9.6168 14.9377 9.12C15.3737 8.89431 15.6145 8.36742 15.5693 7.8254C15.4189 5.83838 15.2535 3.85115 15.1031 1.87906C15.0579 1.29202 14.7272 0.795215 14.291 0.65976Z" fill="#6309FF"></path>
</g>
<path fill-rule="evenodd" clip-rule="evenodd" d="M28.7332 4.87549H31.8047V9.59642H36.7381V4.87549H39.8099V16.8952H36.7381V12.0035H31.8047V16.8952H28.7332V4.87549Z" fill="#6309FF"></path>
<path fill-rule="evenodd" clip-rule="evenodd" d="M44.069 4.87549H47.1252V12.0655C47.1252 12.7798 47.3269 13.3389 47.7148 13.7427C48.1024 14.1466 48.6609 14.3483 49.3745 14.3483C50.0725 14.3483 50.631 14.1466 51.0345 13.7583C51.4379 13.37 51.6394 12.7954 51.6394 12.0655V4.87549H54.7112V12.2519C54.7112 13.7583 54.2302 14.9385 53.2529 15.7926C52.2756 16.6466 50.988 17.066 49.3592 17.066C48.4594 17.066 47.6681 16.9572 47.001 16.7242C46.3183 16.4914 45.76 16.1653 45.341 15.7304C44.9223 15.2956 44.5964 14.7986 44.3949 14.2242C44.1932 13.6495 44.0843 12.9817 44.0843 12.2519V4.87549H44.069Z" fill="#6309FF"></path>
<path fill-rule="evenodd" clip-rule="evenodd" d="M58.9631 4.87549H62.7329L65.3548 10.8698H65.4789L68.0542 4.87549H71.8393V16.8952H68.8606V12.3606L69.0315 9.11497H68.9073L65.4167 16.7242L61.9264 9.11497H61.7867L61.9573 12.3915V16.8952H58.9631V4.87549Z" fill="#6309FF"></path>
<path fill-rule="evenodd" clip-rule="evenodd" d="M82.3282 12.7185L81.9714 11.6004L81.0094 8.10632H80.9008L79.8615 11.6004L79.5045 12.7185H82.3282ZM79.1005 4.87549H82.6839L87.0277 16.8952H83.6458L83.072 15.0781H78.7435L78.1541 16.8952H74.9737L79.1005 4.87549Z" fill="#6309FF"></path>
<mask id="mask1_1858_4570" style="mask-type:alpha" maskUnits="userSpaceOnUse" x="89" y="4" width="12" height="13">
<path fill-rule="evenodd" clip-rule="evenodd" d="M89.9588 4.87549H100.772V16.8952H89.9588V4.87549Z" fill="white"></path>
</mask>
<g mask="url(#mask1_1858_4570)">
<path fill-rule="evenodd" clip-rule="evenodd" d="M89.9588 4.87549H93.4804L97.7623 12.5159H97.8864L97.7156 9.13053V4.87549H100.772V16.8952H97.2657L93.015 9.33245H92.8908L93.0459 12.609V16.8952H89.9743V4.87549H89.9588Z" fill="#6309FF"></path>
</g>
</svg>