<svg width="211" height="33" viewBox="0 0 211 33" fill="none" xmlns="http://www.w3.org/2000/svg">
<path d="M6.875 13.168C7.35 13.668 7.6125 14.3555 7.625 15.043C7.625 15.693 7.3625 16.343 6.9625 16.8305C6.45 17.4555 5.6375 17.8555 4.7875 17.8555H2.0125V21.2305H1V12.2305H4.7875C5.1125 12.2305 5.4375 12.293 5.7375 12.393C6.175 12.543 6.575 12.818 6.875 13.168ZM6.1625 16.2055C6.425 15.8805 6.5875 15.468 6.575 15.043C6.5625 14.568 6.3875 14.1055 6.05 13.768C5.7375 13.4305 5.25 13.2055 4.7875 13.2055H2.0125V16.8805H4.7875C5.2875 16.8805 5.825 16.6305 6.1625 16.2055ZM11.8137 21.418C10.8387 21.418 9.93875 21.0555 9.35125 20.318C8.78875 19.6055 8.58875 18.7305 8.58875 17.843C8.58875 16.968 8.80125 16.0805 9.35125 15.393C9.92625 14.6805 10.8387 14.293 11.8137 14.293C12.7763 14.293 13.6888 14.6555 14.2638 15.393C14.8513 16.1055 15.0388 16.9805 15.0388 17.843C15.0388 18.7555 14.8387 19.593 14.2638 20.318C13.6763 21.068 12.8013 21.418 11.8137 21.418ZM13.4638 19.693C13.8388 19.193 13.9638 18.518 13.9638 17.843C13.9638 17.193 13.8388 16.5055 13.4638 16.0055C13.0888 15.5055 12.4638 15.2555 11.8137 15.2555C11.1638 15.2555 10.5388 15.5055 10.1763 16.0055C9.78875 16.5055 9.66375 17.193 9.66375 17.843C9.66375 18.518 9.78875 19.193 10.1763 19.693C10.5388 20.193 11.1638 20.4555 11.8137 20.4555C12.4638 20.4555 13.0888 20.193 13.4638 19.693ZM23.7502 14.4805H24.7502L22.6877 21.2305H21.6752L20.1752 16.1305L18.6127 21.2305H17.6502L15.5877 14.4805H16.6127L18.1627 19.568L19.7127 14.4805H20.6252L22.1877 19.568L23.7502 14.4805ZM26.3936 18.1305C26.4186 18.7055 26.5561 19.268 26.8811 19.693C27.2436 20.193 27.8686 20.4555 28.5186 20.4555C29.1686 20.4555 29.7811 20.193 30.1561 19.693C30.2436 19.568 30.3061 19.4555 30.3686 19.3305L31.3686 19.768C31.2686 19.9555 31.1436 20.1555 30.9936 20.3305C30.4061 21.0555 29.4686 21.443 28.5186 21.418C27.5561 21.393 26.6436 21.043 26.0561 20.318C25.4936 19.6055 25.2936 18.718 25.2936 17.8555C25.3061 16.968 25.4936 16.1055 26.0561 15.393C26.6561 14.6555 27.5436 14.293 28.5186 14.293C29.4936 14.293 30.3811 14.6555 30.9686 15.393C31.5311 16.1055 31.7311 16.9805 31.7311 17.8555C31.7311 17.943 31.7311 18.043 31.7186 18.1305H26.3936ZM28.5186 15.2555C27.8686 15.2555 27.2436 15.518 26.8811 16.018C26.6186 16.368 26.4686 16.818 26.4186 17.2805H30.6186C30.5686 16.818 30.4186 16.368 30.1561 16.018C29.7811 15.518 29.1686 15.2555 28.5186 15.2555ZM36.255 14.293C36.58 14.293 36.8925 14.3305 37.1925 14.4305V15.393C36.905 15.293 36.555 15.2305 36.18 15.2555C35.655 15.268 35.1925 15.443 34.88 15.7555C34.28 16.318 34.255 17.0555 34.255 17.968V21.2305H33.23V14.4805H34.1425V15.4805C34.28 15.243 34.4675 15.0305 34.7175 14.8305C35.155 14.468 35.7175 14.3055 36.255 14.293ZM39.032 18.1305C39.057 18.7055 39.1945 19.268 39.5195 19.693C39.882 20.193 40.507 20.4555 41.157 20.4555C41.807 20.4555 42.4195 20.193 42.7945 19.693C42.882 19.568 42.9445 19.4555 43.007 19.3305L44.007 19.768C43.907 19.9555 43.782 20.1555 43.632 20.3305C43.0445 21.0555 42.107 21.443 41.157 21.418C40.1945 21.393 39.282 21.043 38.6945 20.318C38.132 19.6055 37.932 18.718 37.932 17.8555C37.9445 16.968 38.132 16.1055 38.6945 15.393C39.2945 14.6555 40.182 14.293 41.157 14.293C42.132 14.293 43.0195 14.6555 43.607 15.393C44.1695 16.1055 44.3695 16.9805 44.3695 17.8555C44.3695 17.943 44.3695 18.043 44.357 18.1305H39.032ZM41.157 15.2555C40.507 15.2555 39.882 15.518 39.5195 16.018C39.257 16.368 39.107 16.818 39.057 17.2805H43.257C43.207 16.818 43.057 16.368 42.7945 16.018C42.4195 15.518 41.807 15.2555 41.157 15.2555ZM50.7559 12.2305H51.7684V21.2305H50.8684V20.368C50.3434 21.0555 49.5184 21.418 48.5809 21.418C47.6559 21.418 46.8059 21.043 46.2434 20.3305C45.6809 19.618 45.4934 18.7305 45.4934 17.843C45.4934 16.968 45.6934 16.068 46.2434 15.3805C46.7809 14.6805 47.6434 14.293 48.5559 14.293C49.4059 14.293 50.2059 14.618 50.7559 15.2055V12.2305ZM50.3184 19.7555C50.7184 19.268 50.8684 18.5555 50.8684 17.843C50.8684 17.143 50.7184 16.4305 50.3184 15.943C49.9559 15.4555 49.3559 15.2305 48.7184 15.2305C48.0434 15.2305 47.4434 15.468 47.0684 15.993C46.7059 16.4805 46.5684 17.1555 46.5684 17.843C46.5684 18.543 46.6934 19.218 47.0559 19.693C47.4309 20.218 48.0559 20.4805 48.6934 20.4805C49.3434 20.4805 49.9434 20.2305 50.3184 19.7555ZM62.0991 15.3805C62.6366 16.068 62.8366 16.968 62.8366 17.843C62.8366 18.7305 62.6616 19.618 62.0991 20.3305C61.5366 21.043 60.6866 21.418 59.7616 21.418C58.8241 21.418 58.0116 21.068 57.4741 20.3805V21.2305H56.5616V12.2305H57.5866V15.193C58.1241 14.618 58.9366 14.293 59.7741 14.293C60.6991 14.293 61.5491 14.6805 62.0991 15.3805ZM61.2741 19.693C61.6366 19.218 61.7616 18.543 61.7616 17.843C61.7616 17.1555 61.6241 16.4805 61.2741 15.993C60.8991 15.468 60.2866 15.2305 59.6116 15.2305C58.9741 15.2305 58.3866 15.4555 58.0116 15.943C57.6241 16.4305 57.4741 17.143 57.4741 17.843C57.4741 18.5555 57.6241 19.268 58.0116 19.7555C58.3866 20.2305 58.9991 20.4805 59.6366 20.4805C60.2741 20.4805 60.8991 20.218 61.2741 19.693ZM68.8573 14.493H69.8823L66.8073 22.5055C66.5573 23.1805 66.2573 23.6555 65.8823 23.918C65.5198 24.193 65.1073 24.2305 64.6448 24.2305L64.4823 24.218V23.243L64.6948 23.268C64.9448 23.2805 65.2073 23.2555 65.3823 23.118C65.6448 22.943 65.8198 22.5305 66.2448 21.418L63.3573 14.4805H64.4073L66.7198 20.118L68.8573 14.493Z" fill="#320A8D"/>
<path d="M125.016 3.47437H128.681V9.10216H134.57V3.47437H138.234V17.8065H134.57V11.9743H128.681V17.8065H125.016V3.47437Z" fill="#6309FF"/>
<path d="M143.322 3.47449H146.971V12.0467C146.971 12.8992 147.213 13.5661 147.675 14.0475C148.138 14.5288 148.805 14.771 149.657 14.771C150.51 14.771 151.158 14.5288 151.639 14.0663C152.12 13.6039 152.363 12.9181 152.363 12.0467V3.47449H156.027V12.2701C156.027 14.0663 155.455 15.4725 154.288 16.4917C153.121 17.511 151.585 18.0111 149.641 18.0111C148.569 18.0111 147.622 17.8822 146.826 17.6053C146.011 17.3285 145.344 16.9384 144.844 16.4194C144.344 15.9003 143.954 15.3089 143.715 14.6231C143.473 13.9373 143.344 13.1415 143.344 12.2701V3.47449H143.325H143.322Z" fill="#6309FF"/>
<path d="M161.098 3.47449H165.597L168.727 10.6217H168.875L171.948 3.47449H176.466V17.8067H172.911V12.3991L173.115 8.52975H172.967L168.802 17.6022L164.637 8.52975H164.471L164.675 12.4368V17.8067H161.102V3.47449H161.098Z" fill="#6309FF"/>
<path d="M185.135 3.47449H189.413L194.597 17.8067H190.561L189.876 15.6392H184.71L184.006 17.8067H180.209L185.135 3.47449ZM188.985 12.8237L188.561 11.4899L187.412 7.32492H187.283L186.044 11.4899L185.619 12.8237H188.988H188.985Z" fill="#6309FF"/>
<path d="M198.093 3.47449H202.296L207.408 12.5847H207.555L207.351 8.54863V3.47449H211V17.8067H206.816L201.742 8.78771H201.594L201.78 12.6948V17.8067H198.115V3.47449H198.096H198.093Z" fill="#6309FF"/>
<path d="M130.062 24.9499C130.062 26.1956 129.181 27.0167 127.85 27.0167H126.312V29.118H125.202V22.8894H127.85C129.225 22.8894 130.062 23.7262 130.062 24.9499ZM128.873 24.9593C128.873 23.9841 128.052 23.8992 127.693 23.8992H126.309V26.0509H127.693C128.514 26.0509 128.873 25.6136 128.873 24.9562V24.9593Z" fill="#6309FF"/>
<path d="M130.93 24.592H131.852L131.987 25.4728H132.037C132.276 24.8153 132.789 24.5165 133.466 24.5165V25.4476C132.456 25.4476 131.987 26.0642 131.987 27.1212V29.1219H130.927V24.5951L130.93 24.592Z" fill="#6309FF"/>
<path d="M136.165 24.5072C137.498 24.5072 138.385 25.4635 138.385 26.8665C138.385 28.2696 137.498 29.207 136.165 29.207C134.831 29.207 133.934 28.2507 133.934 26.8665C133.934 25.4824 134.824 24.5072 136.165 24.5072ZM136.155 28.3104C136.872 28.3104 137.3 27.7474 137.3 26.8508C137.3 25.9543 136.882 25.4069 136.155 25.4069C135.428 25.4069 135.01 25.97 135.01 26.8602C135.01 27.7505 135.438 28.3136 136.155 28.3136V28.3104Z" fill="#6309FF"/>
<path d="M139.609 24.592V23.3715L140.679 22.9625V24.5952H141.66V25.4571H140.679V27.678C140.679 28.0367 140.764 28.3261 141.251 28.3261C141.386 28.3261 141.575 28.3009 141.66 28.2757V29.122C141.405 29.1723 141.198 29.1912 140.959 29.1912C139.839 29.1912 139.609 28.5337 139.609 27.7976V25.4571H138.867V24.5952H139.609V24.592Z" fill="#6309FF"/>
<path d="M144.441 24.5072C145.775 24.5072 146.662 25.4635 146.662 26.8665C146.662 28.2696 145.775 29.207 144.441 29.207C143.107 29.207 142.211 28.2507 142.211 26.8665C142.211 25.4824 143.101 24.5072 144.441 24.5072ZM144.432 28.3104C145.149 28.3104 145.577 27.7474 145.577 26.8508C145.577 25.9543 145.159 25.4069 144.432 25.4069C143.705 25.4069 143.287 25.97 143.287 26.8602C143.287 27.7505 143.715 28.3136 144.432 28.3136V28.3104Z" fill="#6309FF"/>
<path d="M149.645 29.207C148.304 29.207 147.433 28.2758 147.433 26.8571C147.433 25.4384 148.304 24.5072 149.663 24.5072C150.774 24.5072 151.604 25.1552 151.689 26.165H150.629C150.525 25.6365 150.126 25.4037 149.648 25.4037C148.896 25.4037 148.512 25.9857 148.512 26.8634C148.512 27.8291 148.965 28.3167 149.641 28.3167C150.205 28.3167 150.582 27.9833 150.642 27.5051H151.711C151.636 28.5307 150.796 29.2039 149.651 29.2039L149.645 29.207Z" fill="#6309FF"/>
<path d="M154.649 24.5072C155.983 24.5072 156.87 25.4635 156.87 26.8665C156.87 28.2696 155.983 29.207 154.649 29.207C153.315 29.207 152.419 28.2507 152.419 26.8665C152.419 25.4824 153.306 24.5072 154.649 24.5072ZM154.64 28.3104C155.357 28.3104 155.785 27.7474 155.785 26.8508C155.785 25.9543 155.367 25.4069 154.64 25.4069C153.913 25.4069 153.495 25.97 153.495 26.8602C153.495 27.7505 153.923 28.3136 154.64 28.3136V28.3104Z" fill="#6309FF"/>
<path d="M157.908 22.8085H158.959V29.1221H157.908V22.8085Z" fill="#6309FF"/>
<path d="M105.937 1.11183C105.22 0.872752 104.502 0.633672 103.804 0.394593C102.926 0.0768696 102.071 0.973417 102.112 2.14679C102.19 4.38029 102.272 6.59178 102.351 8.82213C102.37 9.55825 102.011 10.2377 101.454 10.5146C100.337 11.0525 99.2018 11.5715 98.0662 12.0875C96.9306 11.5904 95.795 11.0525 94.6782 10.5146C94.0994 10.2346 93.7628 9.55825 93.7817 8.82213C93.8603 6.58863 93.9421 4.37715 94.0207 2.14679C94.0616 0.951396 93.2028 0.0737238 92.3283 0.394593C91.6111 0.633672 90.9127 0.891626 90.1955 1.11183C89.6166 1.31001 89.1794 1.94861 89.1196 2.72562C88.9214 5.35549 88.7012 7.98536 88.503 10.5964C88.4433 11.3325 88.783 12.012 89.3398 12.3108C90.595 12.9683 90.4754 15.12 89.1007 15.6202C88.4842 15.8404 88.0249 16.4569 87.9651 17.1931C87.6442 21.2008 87.3234 25.2274 87.0056 29.2319C86.9459 30.009 87.3643 30.7262 88.0815 31.0062C88.9372 31.3459 89.8148 31.6825 90.6925 32.0223C91.7872 32.4406 92.9638 31.6227 93.0046 30.4273C93.1242 26.8191 93.2626 23.2141 93.3821 19.587C93.401 18.8509 93.8414 18.2123 94.458 17.9732C95.6723 17.495 96.8708 17.0169 98.0662 16.4978C99.2616 16.9949 100.457 17.495 101.674 17.9732C102.291 18.2123 102.731 18.8509 102.75 19.587C102.87 23.1952 103.008 26.8003 103.128 30.4273C103.169 31.6227 104.342 32.4218 105.44 32.0223C106.318 31.6825 107.192 31.3459 108.051 31.0062C108.749 30.7262 109.187 30.009 109.127 29.2319C108.809 25.2274 108.488 21.2008 108.17 17.1962C108.111 16.4601 107.673 15.8404 107.035 15.6233C105.66 15.1452 105.541 12.9714 106.796 12.3139C107.375 12.0151 107.692 11.3167 107.633 10.5995C107.434 7.96963 107.214 5.33976 107.016 2.72876C106.956 1.95175 106.519 1.29429 105.94 1.11498L105.937 1.11183Z" fill="#6309FF"/>
</svg>
